<?xml version="1.0" encoding="utf-8"?>
<!-- Generator: Adobe Illustrator 27.9.0, SVG Export Plug-In . SVG Version: 6.00 Build 0)  -->
<svg version="1.1" id="Warstwa_1" xmlns="http://www.w3.org/2000/svg" xmlns:xlink="http://www.w3.org/1999/xlink" x="0px" y="0px"
	 viewBox="0 0 166.83 627.92" style="enable-background:new 0 0 166.83 627.92;" xml:space="preserve">
<style type="text/css">
	.st0{fill:#FFFFFF;}
</style>
<path class="st0" d="M86.89,174.87c0.18-0.44,0.43-0.98,0.32-1.38c-0.13-0.46-0.63-0.82-0.87-1.1c-1,0.06-1.79,0.71-1.98,1.4
	c-0.22,0.81,0.42,1.9,1.25,2.04C86.33,175.95,86.67,175.42,86.89,174.87z"/>
<path class="st0" d="M128.01,304.01c-0.95,0.8-1.64,1.92-2.37,2.95c-0.31,0.43-0.43,0.99-0.64,1.49c0.28,0.11,0.39,0.19,0.44,0.17
	c0.41-0.24,0.87-0.44,1.2-0.77c0.89-0.9,1.71-1.87,2.58-2.79c0.6-0.64,1.35-1.18,1.81-1.9c1.1-1.71,2.07-3.49,3.07-5.26
	c0.13-0.24,0.23-0.65,0.11-0.84c-0.88-1.38-0.68-3.01-1.1-4.49c-0.62-2.18-1.25-2.36-3.24-1.12c-0.24,0.15-0.64,0.14-0.79,0.34
	c-0.32,0.43-0.53,0.94-1.06,1.93c2.19-0.82,2.91-0.68,3.48,0.5c0.42,0.87,0.63,1.83,0.95,2.75c0.35,1.02,0.17,1.94-0.58,2.7
	C130.51,301.04,129.53,302.74,128.01,304.01z"/>
<path class="st0" d="M157.01,59.31c-0.22-0.14-0.42-0.29-0.61-0.46c1.15,1.86,1.72,3.9,2.47,5.86
	C158.34,62.89,157.68,61.09,157.01,59.31z"/>
<path class="st0" d="M160.86,598.75c-0.06,0-0.12,0-0.18-0.01c-1.14-4.84-2.25-9.58-3.33-14.19c0.17-0.32,0.21-0.56,0.35-0.65
	c0.62-0.43,0.94-0.9,1.04-1.46c-2.66-11.96-8.39-22.89-11.75-34.63c-2.5-8.74-3.4-17.71-4.33-26.69c-0.5-1.7-0.95-3.42-1.32-5.16
	c-0.24-1.11-0.74-2.15-0.12-3.37c0.25-0.5,0-1.37-0.25-1.99c-1.11-2.83-2.49-5.54-4.27-8c-0.7-0.97-1.3-1.95-1.7-3.05
	c-2.01-5.63-3.73-11.35-4.79-17.23c-1.31-7.22-2.48-14.47-3.83-21.68c-1.27-6.76-1.96-13.56-2.08-20.44
	c-0.08-4.8-0.53-9.59-0.25-14.4c0.06-1.06-0.14-2.14-0.12-3.21c0.03-1.36,0.18-2.73,0.27-4.09c0.2-2.93,0.38-5.86,0.59-8.79
	c0.2-2.64,0.49-5.27,0.63-7.91c0.09-1.55-0.12-3.12-0.02-4.68c0.13-2.05,0.43-4.09,0.68-6.13c0.34-2.76,0.65-5.53,1.09-8.28
	c0.43-4.84,0.6-9.7,0.29-14.57c-0.32-4.95-1.29-9.75-0.87-14.63c-0.03-0.12-0.06-0.24-0.08-0.36c-0.3-1.64-0.5-3.28-0.29-4.96
	c0.13-1.05,0.27-2.24-0.09-3.19c-0.68-1.82-0.62-3.65-0.61-5.5c0.01-3.35-0.23-6.67-1.32-9.85c-1.23-3.6-2.17-7.32-4.04-10.7
	c-0.75-1.37-1.33-2.83-1.98-4.26c-0.25-0.54-0.47-1.12-0.03-1.65c0.7-0.84,0.35-1.58-0.05-2.42c-1.27-2.64-2.76-5.21-3.62-7.98
	c-1.41-4.57-2.7-9.2-3.03-14.02c-0.04-0.64-0.29-1.16-1.2-0.97c-0.32,0.5-0.67,1.06-1.21,1.91c-0.75-2.21-1.35-4.16-2.07-6.07
	c-0.15-0.41-0.28-0.83-0.42-1.25c-1.87-0.57-3.46-2.09-3.62-4.55c-0.43-6.7,2.6-11.89,5.73-17.27c0.46-1.45,1.04-2.84,1.65-4.23
	c1.25-2.87,2.39-5.79,3.62-8.67c1.27-2.97,2.85-5.82,3.82-8.88c1.95-6.18,4.58-12.06,7-18.05c0.36-0.9,0.86-1.74,1.37-2.75
	c0.29,1.19-0.88,2.21,0.27,3.32c0.33-0.62,0.72-1.17,0.92-1.77c1.72-5.1,3.41-10.2,5.1-15.31c0.12-0.37,0.21-0.76,0.23-1.15
	c0.08-2,0.89-3.79,1.53-5.64c0.57-1.66,1.05-3.35,1.6-5.02c0.57-1.73,1.32-3.3,1.19-5.31c-0.13-2.08,0.71-4.21,1.05-6.33
	c0.4-2.51,0.74-5.03,1.04-7.55c0.24-2.04,0.42-4.08,0.57-6.13c0.15-2.14,1.24-4.08,1.24-6.27c0-0.74,0.54-1.46,0.69-2.22
	c0.06-0.31-0.16-0.92-0.38-0.98c-0.4-0.12-0.93-0.02-1.33,0.15c-0.6,0.26-0.28,1.41-1.32,1.4c-0.05-0.59-0.18-1.18-0.12-1.75
	c0.24-2.04,0.5-4.08,0.84-6.1c0.64-3.76,1.54-7.47,1.75-11.3c0.1-1.75,0.55-3.48,0.66-5.23c0.12-1.84,0.45-3.74-0.36-5.49
	c-0.54-1.16-0.58-2.22-0.13-3.39c0.42-1.07,0.3-2.11-0.44-3.05c-0.29-0.36-0.5-0.79-0.83-1.33c0.81-0.75,1.44-1.51,2.23-2.03
	c3.61-2.35,6.46-5.37,8.5-9.16c2.24-4.16,4.05-8.47,4.95-13.13c0.56-2.88,1.1-5.77,1.69-8.65c0.33-1.63,0.79-3.23,1.11-4.86
	c0.65-3.24,0.62-6.64,2.22-9.66c0.04-0.08,0.06-0.16,0.08-0.25c-0.43-0.69-0.7-1.54-0.73-2.54c-0.05-1.58-0.29-3.14-0.66-4.67
	c0.21,1.31,0.14,2.71-0.2,4.14c-0.34-0.71-0.54-1.52-1.03-2.09c-0.89-1.03-1.24-2.18-1.31-3.48c-0.03-0.58-0.09-1.18-0.25-1.73
	c-1.65-5.48-4.08-10.6-7.45-15.24c-2.24-3.09-4.69-6.02-7.03-9.04c-0.36-0.46-0.85-0.94-0.93-1.46c-0.22-1.54-1.27-2.36-2.4-3.17
	c-1.83-1.31-3.62-2.69-5.46-3.98c-0.87-0.61-1.86-1-1.95-2.34c-0.03-0.38-0.77-0.81-1.27-1.05c-6.45-3.12-13.08-5.73-20.08-7.35
	c-2-0.46-3.97-1.06-5.97-1.54c-2.38-0.57-4.77-1.07-7.14-1.63c-1.17-0.28-2.29-0.25-3.48,0.01c-2.87,0.64-5.76,1.15-8.7,1.4
	c-2.82,0.24-5.63,0.71-8.35,1.54c-0.85,0.26-1.7,0.5-1.97,1.56c0.8,1.42,2.98,0.42,3.65,2.07c0.04,0.11,0.36,0.17,0.54,0.16
	c0.97-0.09,1.96-0.1,2.89-0.33c4.3-1.07,8.67-1.43,13.08-1.4c0.34,0,0.68,0.18,0.98,0.27c0,1.28-0.91,1.65-1.61,2.11
	c-3.57,2.41-7.17,4.78-10.75,7.16c-0.24,0.16-0.49,0.32-0.71,0.51c-0.58,0.51-0.64,1.18-0.2,1.85c0.52,0.78,0.96,0.94,1.99,0.7
	c0.38-0.09,0.74-0.23,1.12-0.28c0.11-0.02,0.24,0.2,0.64,0.54c-0.68,0.43-1.35,0.84-1.91,1.2c0.81,3.3,0.76,6.33,0.59,9.36
	c-0.08,1.37-0.12,2.74-0.09,4.11c0.04,1.88,0.82,2.86,2.61,3.46c0.68,0.23,1.35,0.46,2.03,0.69c-0.89,0.09-1.78,0.17-2.81,0.27
	c-0.46,1.86-1.9,2.98-3.29,4.24c-2.76,2.48-5.61,4.87-8.16,7.6c-2.53,2.71-5.03,5.45-8.21,7.49c-1.56,1-1.38,2.21-0.59,3.28
	c2.14,2.91,4.34,5.78,6.42,8.74c1.35,1.91,3.05,3.58,4,5.78c0.81,1.87,1.71,3.71,2.59,5.6c-0.89,1.77-1.86,3.58-2.71,5.44
	c-0.98,2.13-1.9,4.28-1.59,6.74c0.11,0.85-0.07,1.74-0.12,2.56c-0.68,0.44-1.18,0.33-1.59-0.24c-0.65-0.93-1.45-1-2.56-0.78
	c-3.45,0.68-6.93,1.18-10.4,1.72c-0.76,0.12-1.54,0.13-2.23,0.18c-0.23-0.23-0.37-0.36-0.5-0.51c-0.06-0.07-0.09-0.18-0.15-0.25
	c-1.08-1.25-1.94-1.28-2.76-0.02c-0.37,0.57-0.72,1.19-0.88,1.84c-0.28,1.13,0.91,2.8,2.3,2.08c1.88-0.97,3.4-0.38,4.86,0.76
	c0.86,0.67,1.71,0.67,2.75,0.43c2.76-0.63,5.55-1.16,8.39-1.22c0.88-0.02,1.78,0.15,2.64,0.03c0.93-0.13,1.83-0.49,2.79-0.77
	c2.94,3.8,6.18,7.16,10.26,9.65c0.89,0.54,1.7,1.25,2.19,2.07c-1.65,4.14-4.8,6.82-7.49,9.85c-4.18-0.6-7.76-2.35-11.01-4.75
	c-3.7-2.73-7.14-5.77-10.51-8.9c-1.71-1.59-3.35-3.25-5.28-4.63c-1.4-1-2.54-2.44-3.27-4.08c-1.64-3.66-3.28-7.31-4.56-11.11
	c-0.59-1.76-1.14-3.55-1.56-5.36c-0.36-1.54-0.51-3.1,1.12-4.2c0.46-0.31,0.71-0.92,1.04-1.4c1.17-1.68,2.34-3.37,3.51-5.06
	c1.72-2.49,3.44-4.99,5.18-7.48c0.21-0.3,0.53-0.51,0.76-0.74c0.49,0.22,0.84,0.38,1.19,0.53c0.45,0.19,0.89,0.41,1.36,0.54
	c0.86,0.23,1.59-0.12,1.87-0.98c1.09-3.34,2.71-6.51,3.27-10.03c0.17-1.04,0.58-2.04,0.87-3.03c0.35,0,0.54-0.04,0.71,0.01
	c1.75,0.52,1.98,0.44,2.33-1.01c0.51-2.09,0.84-4.19,0.93-6.36c0.15-3.52,0.51-7.03,0.81-10.54c0.29-3.41,0.61-6.83,0.9-10.24
	c0.26-3.02,0.4-6.06,0.79-9.06c0.66-5.05,1.5-10.07,2.22-15.11c0.19-1.35,0.32-2.73,0.29-4.09c-0.01-0.74-0.33-1.51-0.66-2.19
	c-0.22-0.45-0.82-0.59-1.28-0.31c-0.29,0.18-0.68,0.63-0.63,0.88c0.62,2.9-0.43,5.61-0.85,8.4c-0.55,3.67-0.99,7.36-1.44,11.05
	c-0.41,3.4-0.81,6.8-1.15,10.21c-0.14,1.45-0.08,2.9-1.2,4.1c-0.36,0.38-0.4,1.08-0.53,1.65c-0.22,0.95-0.4,1.91-0.6,2.86
	c-0.48,2.3-1.03,4.58-1.42,6.9c-0.56,3.27-1.01,6.56-1.5,9.84c-0.36,2.35-1.05,4.56-2.94,6.38c-1.82-0.9-2.56,1.15-4.1,1.82
	c-0.09-0.53-0.21-0.88-0.2-1.22c0.13-2.64,0.32-5.28,0.41-7.92c0.04-1.2,0.1-2.29,1.17-3.14c0.38-0.3,0.52-1.04,0.56-1.59
	c0.08-1.07,0.06-2.15-0.02-3.23c-0.16-2.24-0.39-4.48-0.59-6.73c-0.45-5.08-0.78-10.16,0.1-15.23c0.15-0.85,0.28-1.87-0.06-2.59
	c-0.65-1.37-0.44-2.66-0.22-4.02c0.17-1.06,0.33-2.12,0.43-2.75c0.8-1.2,1.63-1.99,1.9-2.95c0.83-2.96,2.83-5.1,4.79-7.28
	c1.31-1.46,2.51-3.08,4.06-4.22c1.63-1.19,3.62-1.88,5.44-2.83c0.5-0.26,1-0.61,1.38-1.04c0.82-0.92,0.49-1.97-0.7-2.2
	c-0.64-0.12-1.32-0.02-1.9-0.02c-0.24-0.5-0.32-1.03-0.58-1.14c-0.4-0.17-0.99-0.19-1.37-0.01c-0.79,0.37-1.52,0.89-2.22,1.4
	c-0.63,0.46-1.19,1.02-1.8,1.5c-0.21,0.16-0.51,0.21-0.65,0.26c-0.66-0.55-1.23-1.03-1.82-1.52c-0.87,0.56-1.55,1.15-2.34,1.45
	c-0.79,0.3-1.7,0.31-2.41,0.42C60.12,4,59.97,4.15,59.94,4.33c-0.76,3.75-2.14,7.31-3.32,10.93c-0.81,2.47-1.21,5.13-1.39,7.73
	c-0.21,3.01,0.01,6.05-0.37,9.07c-0.1,0.77-0.03,1.57,0.04,2.34c0.3,3.23,0.23,6.46-0.13,9.68c-0.19,1.66-0.52,3.27,0.24,4.9
	c0.23,0.49,0.06,1.16,0.1,1.74c0.22,3.06-0.54,6.02-0.86,9.02c-0.5,4.57-0.41,9.15-0.27,13.94c-1.51,1.2-1.98,3.6-4.23,4.41
	c-0.38,0.14-0.63,0.72-0.89,1.13c-0.53,0.82-0.98,1.7-1.54,2.5c-2.52,3.63-4.58,7.51-6.34,11.56c-0.43,0.98-0.99,1.91-1.54,2.83
	c-0.64,1.09-1.34,2.15-2.08,3.35c-0.14,0.06-0.4,0.22-0.67,0.26c-1.25,0.2-1.91,0.92-1.96,2.17c-0.06,1.36-0.27,2.75-0.12,4.09
	c0.37,3.3,0.23,6.65,1.04,9.9c0.06,0.26-0.05,0.56-0.07,0.78c-0.45,0.57-1.55-0.14-1.62,1.14c1.86,0.82,2.85,2.41,3.34,4.42
	c0.25,1.03,0.7,2.05,1.23,2.98c0.63,1.09,1.4,2.11,2.19,3.1c0.37,0.47,0.88,0.29,1.65-0.46c-1.02-1.81-2.49-3.44-2.8-6.18
	c0.69,0.78,1.05,1.18,1.41,1.59c0.84,0.96,1.62,1.96,2.52,2.86c1.59,1.59,3.25,3.11,4.89,4.65c0.43,0.4,0.86,0.8,1.29,1.2
	c2.55,2.29,5.18,4.5,7.63,6.9c2.4,2.35,5.18,4.18,7.88,6.12c0.3,0.22,0.79,0.51,1.05,0.41c1.63-0.62,2.56,0.59,3.69,1.28
	c1.09,0.66,2.19,1.31,3.22,2.06c1.65,1.21,3.51,2.27,4.8,3.81c2.31,2.75,4.85,5.38,6.36,8.74c0.16,0.34,0.42,0.69,0.72,0.91
	c1.17,0.83,1.81,2.05,2.47,3.24c1.34,2.39,2.63,4.8,3.91,7.22c0.25,0.48,0.34,1.04,0.52,1.59c-2.09,1.21-4.01,2.32-5.87,3.4
	c-1.19-0.64-1.6-1.67-2.17-2.56c-2.33-3.62-4.58-7.28-7.58-10.44c-1.6-1.69-3.29-3.38-4.26-5.58c-0.15-0.34-0.48-0.63-0.77-0.88
	c-2.65-2.3-5.31-4.59-7.97-6.88c-0.37-0.32-0.8-0.56-1.19-0.86c-1.15-0.87-2.3-1.75-3.38-2.58c0.56-2.02,0.5-2.4-1.02-2.9
	s-2.86-1.21-4.09-2.22c-0.45-0.37-1.01-0.6-1.53-0.88c-3.53-1.93-6.95-4.02-9.8-6.92c-0.27-0.28-0.57-0.54-0.89-0.77
	c-3.82-2.63-6.81-6.16-10.2-9.26c-0.42-0.38-0.72-0.93-0.99-1.44c-2.3-4.35-3.76-9.03-5.29-13.67c-0.41-1.26-0.72-2.62-0.16-4.03
	c0.23-0.59,0.06-1.35,0.07-2.03c0.03-1.46-0.04-2.94,0.1-4.39c0.33-3.41,0.83-6.8,1.11-10.21c0.11-1.4,0.86-2.29,1.88-3.16
	c-0.87-2.24-0.93-4.47-0.69-6.73c0.17-1.55,0.45-3.11,0.41-4.66c-0.1-3.84,0.52-7.59,1.02-11.37c0.48-3.68,1.72-7.25,1.57-11.02
	c-0.01-0.37,0.19-0.75,0.24-1.14c0.22-1.74,1.33-2.96,2.54-4.09c-0.4-1.02-0.76-1.91-1.12-2.82c0.46-1.14,0.81-2.27,1.35-3.31
	c0.35-0.67,0.95-1.21,1.53-1.91c-0.16-1-0.98-2.18,0.59-3.31c1.68,0.53,2.72-0.82,3.91-2.04c1.37-1.4,2.8-2.75,4.36-3.92
	c3.04-2.3,6.18-4.45,9.27-6.68c0.23-0.17,0.52-0.38,0.59-0.63c0.25-0.97,0.9-1.7,1.4-2.53c0.59-0.99-0.25-2.22-1.42-2.27
	c-0.86-0.04-1.47,0.36-2.09,0.88c-1.27,1.07-2.58,2.1-3.89,3.13c-3,2.35-6.01,4.71-9.04,7.03c-0.69,0.53-1.45,1.01-2.24,1.34
	c-0.78,0.32-1.27,0.79-1.65,1.54c-0.88,1.74-1.88,3.43-2.79,5.16c-3.32,6.35-4.82,13.19-5.47,20.26c-0.06,0.67-0.24,1.34-0.39,2
	c-0.16,0.76-0.41,1.52-0.51,2.29c-0.55,4.27-1.1,8.55-1.6,12.82c-0.27,2.33-0.49,4.67-0.66,7.01c-0.18,2.44-0.28,4.89-0.41,7.33
	C22.7,89.15,22.6,90,21.8,90.36c-1.66,0.75-1.82,2.09-1.77,3.65c0.09,3.22,0.57,6.41,0.22,9.67c-0.19,1.77,0.01,3.71,1.37,5.26
	c0.49,0.56,0.7,1.38,0.97,2.11c0.85,2.29,1.64,4.61,2.52,6.89c1.56,4.02,3.39,7.94,5.76,11.53c1.45,2.19,3.25,4.16,4.94,6.18
	c0.61,0.73,0.89,0.67,2.03-0.06c-0.43-0.7-0.86-1.41-1.5-2.47c1.58,1.35,2.83,2.4,4.07,3.49c0.58,0.51,1.17,1,1.23,1.9
	c0.07,1.25,0.9,1.96,2.06,2.14c1.65,0.25,2.83,1.27,4.07,2.21c2.1,1.6,4.16,3.27,6.34,4.76c3.08,2.1,6.16,4.17,8.88,6.74
	c3.64,3.43,7.16,6.97,10.2,10.95c0.59,0.77,1.26,1.52,1.68,2.39c1.5,3.08,2.9,6.21,4.36,9.31c0.25,0.53,0.5,1.09,0.9,1.49
	c0.3,0.31,0.88,0.61,1.25,0.53c0.34-0.08,0.57-0.67,0.86-1.05l-0.02,0.06c0.73,0.35,1.03,0.81,0.73,1.12
	c-0.27,0.27-0.56,0.54-0.89,0.75c-2.41,1.49-4.86,2.93-7.25,4.46c-7.34,4.69-14.85,9.09-22.66,12.95c-2.28,1.13-4.65,2.04-6.98,3.07
	c-3.75,1.66-7.65,2.92-11.59,4.3c-0.31-0.46-0.51-0.91-0.84-1.22c-1.08-1.03-2.3-0.85-2.75,0.56c-0.51,1.6-1.5,2.64-2.8,3.61
	c-1.96,1.46-1.83,2.17,0.56,3.64c-0.35,2.62-0.7,5.31-1.06,8.06c-0.22,0.14-0.45,0.33-0.71,0.44c-1.67,0.7-1.96,0.99-1.88,2.47
	c0.1,1.85,0.26,3.7,0.48,5.53c0.45,3.79,1.14,7.55,1.4,11.35c0.49,6.93,1.05,13.86,1.06,20.81c0,2.54,0.15,5.08,0.39,7.61
	c0.47,4.97,0.96,9.93,1.59,14.88c1.13,8.83,2.47,17.64,4.71,26.27c1.01,3.88,2.18,7.71,3.35,11.55c1.03,3.36,2.2,6.68,2.47,10.23
	c0.06,0.85,0.08,1.78,0.8,2.41c0.76,0.19,1.48,0.36,2.13,0.52c0.3,1.84,0.57,3.48,0.83,5.11c1.11,6.95,2.21,13.9,3.35,20.84
	c0.87,5.3,1.75,10.6,2.7,15.89c0.71,3.94,1.43,7.87,2.32,11.77c1.09,4.76,2.29,9.5,3.6,14.2c0.36,1.27,0.35,2.8,1.54,3.72
	c1.41,1.09,1.3,2.46,0.99,3.98c-0.53,2.59-1.04,5.19-1.35,7.8c-0.21,1.78-0.5,3.46-1.37,5.04c-0.69,1.25-1.04,2.56,0.04,3.73
	c-0.17,0.41-0.26,0.69-0.41,0.94c-0.74,1.18-0.98,2.29,0.07,3.48c0.71,0.81,0.48,1.89,0.3,2.83c-0.41,2.2-0.93,4.39-1.42,6.58
	c-2.12,9.44-4.39,18.86-6.31,28.34c-0.76,3.76-2.16,7.29-3.13,10.97c-1.15,4.33-2.68,8.57-3.99,12.86
	c-0.34,1.12-0.54,2.28-0.74,3.44c-0.08,0.47-0.04,0.99,0.66,1.3c0.4-0.14,0.89-0.32,1.37-0.5c-0.89,0.71-0.69,1.89-1.16,2.79
	c-0.34-0.35-0.68-0.71-1.16-1.21c-0.27,0.59-0.48,0.92-0.57,1.28c-0.19,0.76-0.37,1.52-0.46,2.3c-0.35,2.83-0.92,5.57-2.35,8.1
	c-0.62,1.1-1.05,2.32-1.43,3.53c-1.27,4.01-2.48,8.04-3.73,12.05c-0.16,0.52-0.06,1.21-0.9,1.55c-0.71-0.31-1.45-0.64-2.21-0.97
	c-0.28,0.82-0.56,1.64-0.84,2.47c0.05,0.03,0.09,0.05,0.13,0.09c-0.36,0.92-0.65,1.73-0.99,2.53c-0.04,0.09-0.08,0.18-0.12,0.28
	c-1.02,3.02-2.04,6.03-3.15,9.01c-2,5.4-5.94,11.52-5.74,17.47c0.02,0.27,0.03,0.55,0.04,0.83c0.06,1.18-0.22,2.13-0.7,2.87
	c-0.12,0.46-0.25,0.91-0.4,1.34c-1.27,3.5-2.6,6.97-3.9,10.45c-1.61,4.3-3.32,8.58-4.81,12.92c-1.15,3.33-2.17,6.71-3,10.13
	c-0.87,3.59-2.04,7.17-1.64,10.96c0.02,0.15-0.16,0.33-0.26,0.5c-0.86-0.02-1.92-0.24-2.16,0.93c-0.18,0.93,0.71,1.28,1.37,1.7
	c3.21,2.06,6.51,3.99,10.01,5.5c4.58,1.98,9.17,3.98,13.91,5.52c5.39,1.76,10.94,3,16.59,3.66c2.13,0.25,4.24,0.72,6.37,0.94
	c2.82,0.29,5.65,0.46,8.47,0.63c1.94,0.12,3.86,0.11,5.77,0.76c1.65,0.56,3.44,0.9,5.18,0.92c3.61,0.06,7.2,0.42,10.83,0.34
	c7.28-0.15,14.45-0.9,21.56-2.41c0.27-0.06,0.63-0.22,0.86,0.19c17.95-3.87,35.99-9.9,51.54-19.84c0.89-0.57,1.79-0.79,2.65-0.76
	c1.56-0.85,3.1-1.69,4.58-2.58c0.66-0.4,1.3-0.82,1.93-1.26C161.24,600.56,160.95,599.68,160.86,598.75z M30.98,562.51
	c-2.43,6.17-5.74,11.88-8.66,17.81c-0.54,1.09-1.08,2.21-1.61,3.36c-0.24,0.99-0.45,1.99-0.64,3.01c-0.23,1.31-0.84,2.23-1.63,2.82
	c-0.75,2.47-1.2,5-1.08,7.52c3.13,2.54,2.11,8.98-3.06,8.98c-0.43,0-0.83-0.05-1.2-0.13c-2.19,0.28-4.44-0.74-5.05-3.54
	c-1.66-7.62,0.11-14.56,2.99-21.25c1.93-8.16,5.69-15.75,10.79-22.43C24.94,554.59,33.24,556.77,30.98,562.51z M72.69,397.35
	c0,1.35-0.57,2.56-1.46,3.54c-0.9,0.98-2.24,1.41-3.54,1.46c-1.25,0.06-2.67-0.6-3.54-1.46c-0.91-0.91-1.46-2.25-1.46-3.54v-1.8
	c0-1.35,0.57-2.56,1.46-3.54c0.9-0.98,2.24-1.41,3.54-1.46c0.73-0.03,1.51,0.18,2.22,0.53c0,0,0.01,0,0.01,0.01
	c0.07,0.03,0.14,0.07,0.2,0.11c0.42,0.22,0.79,0.49,1.1,0.82l0,0l0,0c0.2,0.2,0.37,0.42,0.53,0.65c0.06,0.09,0.12,0.19,0.18,0.28
	c0.02,0.03,0.03,0.06,0.05,0.1c0.44,0.76,0.7,1.64,0.7,2.5v1.8H72.69z M105.69,377.88c-4.26,6-8.8,11.8-13.15,17.73
	c-0.42,0.57-0.91,1.17-1.43,1.78c1.21,2.95-0.27,7.12-4.42,7.12c-0.39,0-0.76-0.04-1.1-0.11c-0.83,1.4-1.42,2.84-1.54,4.28
	c-0.53,6.38-10.54,6.41-10,0c0.55-6.57,4.59-11.25,8.46-16.27c4.95-6.42,9.85-12.96,14.54-19.58
	C100.75,367.62,109.42,372.62,105.69,377.88z M119.44,398.37c-1.84,3.79-6.53,2.84-8.46-0.03c-5.05-0.7-5.37-8.11-0.96-9.66
	c0.02-2.61,0.08-5.21,0.1-7.82c0.02-2.24,1.24-3.7,2.82-4.38c-0.39-5.34-1.23-10.7-1.29-15.49c-0.08-6.45,9.92-6.43,10,0
	C121.81,373.46,125.15,386.62,119.44,398.37z"/>
<path class="st0" d="M166.83,36.06c-0.06-0.13-0.11-0.22-0.16-0.31c-0.02,0.06-0.08,0.14-0.06,0.18
	C166.63,35.99,166.72,36.01,166.83,36.06z"/>
<polygon class="st0" points="139.14,200.21 139.33,200.23 139.25,200.01 "/>
<path d="M-160.59,696.98c1.45-0.09,2.16,0.94,3.06,1.89c-0.48,0.6-0.89,1.12-1.3,1.63c-0.59,0-1.18,0-1.77,0
	C-160.59,699.33-160.59,698.16-160.59,696.98z"/>
<path d="M432.59,660.52c-0.36-0.11-0.76-0.17-1.06-0.37c-0.17-0.11-0.22-0.46-0.22-0.71c0-0.09,0.29-0.25,0.45-0.25
	c0.28,0,0.56,0.09,0.83,0.15C432.59,659.74,432.59,660.13,432.59,660.52z"/>
<path d="M432.59,579.96c-0.4-0.39-0.41-0.78,0-1.18C432.59,579.18,432.59,579.57,432.59,579.96z"/>
<path d="M160.86,598.75c-0.06,0-0.12,0-0.18-0.01c-1.14-4.84-2.25-9.58-3.33-14.19c0.17-0.32,0.21-0.56,0.35-0.65
	c0.62-0.43,0.94-0.9,1.04-1.46c-1.39-6.26-3.62-12.23-5.91-18.19c-0.02,0.19-0.05,0.43-0.07,0.77c-1.1-2.49-1.61-4.73-2.28-6.89
	c-1.28-3.4-2.49-6.82-3.49-10.31c-2.5-8.74-3.4-17.71-4.33-26.69c-0.5-1.7-0.95-3.42-1.32-5.16c-0.24-1.11-0.74-2.15-0.12-3.37
	c0.25-0.5,0-1.37-0.25-1.99c-1.11-2.83-2.49-5.54-4.27-8c-0.7-0.97-1.3-1.95-1.7-3.05c-2.01-5.63-3.73-11.35-4.79-17.23
	c-1.31-7.22-2.48-14.47-3.83-21.68c-1.27-6.76-1.96-13.56-2.08-20.44c-0.08-4.8-0.53-9.59-0.25-14.4c0.06-1.06-0.14-2.14-0.12-3.21
	c0.03-1.36,0.18-2.73,0.27-4.09c0.2-2.93,0.38-5.86,0.59-8.79c0.2-2.64,0.49-5.27,0.63-7.91c0.09-1.55-0.12-3.12-0.02-4.68
	c0.13-2.05,0.43-4.09,0.68-6.13c0.34-2.76,0.65-5.53,1.09-8.28c0.43-4.84,0.6-9.7,0.29-14.57c-0.32-4.95-1.29-9.75-0.87-14.63
	c-0.03-0.12-0.06-0.24-0.08-0.36c-0.3-1.64-0.5-3.28-0.29-4.96c0.13-1.05,0.27-2.24-0.09-3.19c-0.68-1.82-0.62-3.65-0.61-5.5
	c0.01-3.35-0.23-6.67-1.32-9.85c-1.23-3.6-2.17-7.32-4.04-10.7c-0.75-1.37-1.33-2.83-1.98-4.26c-0.25-0.54-0.47-1.12-0.03-1.65
	c0.7-0.84,0.35-1.58-0.05-2.42c-1.27-2.64-2.76-5.21-3.62-7.98c-1.41-4.57-2.7-9.2-3.03-14.02c-0.04-0.64-0.29-1.16-1.2-0.97
	c-0.32,0.5-0.67,1.06-1.21,1.91c-0.75-2.21-1.35-4.16-2.07-6.07c-0.15-0.41-0.28-0.83-0.42-1.25c-1.87-0.57-3.46-2.09-3.62-4.55
	c-0.43-6.7,2.6-11.89,5.73-17.27c0.46-1.45,1.04-2.84,1.65-4.23c1.25-2.87,2.39-5.79,3.62-8.67c1.27-2.97,2.85-5.82,3.82-8.88
	c1.95-6.18,4.58-12.06,7-18.05c0.36-0.9,0.86-1.74,1.37-2.75c0.29,1.19-0.88,2.21,0.27,3.32c0.33-0.62,0.72-1.17,0.92-1.77
	c1.72-5.1,3.41-10.2,5.1-15.31c0.12-0.37,0.21-0.76,0.23-1.15c0.08-2,0.89-3.79,1.53-5.64c0.57-1.66,1.05-3.35,1.6-5.02
	c0.57-1.73,1.32-3.3,1.19-5.31c-0.13-2.08,0.71-4.21,1.05-6.33c0.4-2.51,0.74-5.03,1.04-7.55c0.24-2.04,0.42-4.08,0.57-6.13
	c0.15-2.14,1.24-4.08,1.24-6.27c0-0.74,0.54-1.46,0.69-2.22c0.06-0.31-0.16-0.92-0.38-0.98c-0.4-0.12-0.93-0.02-1.33,0.15
	c-0.6,0.26-0.28,1.41-1.32,1.4c-0.05-0.59-0.18-1.18-0.12-1.75c0.24-2.04,0.5-4.08,0.84-6.1c0.64-3.76,1.54-7.47,1.75-11.3
	c0.1-1.75,0.55-3.48,0.66-5.23c0.12-1.84,0.45-3.74-0.36-5.49c-0.54-1.16-0.58-2.22-0.13-3.39c0.42-1.07,0.3-2.11-0.44-3.05
	c-0.29-0.36-0.5-0.79-0.83-1.33c0.81-0.75,1.44-1.51,2.23-2.03c3.61-2.35,6.46-5.37,8.5-9.16c2.24-4.16,4.05-8.47,4.95-13.13
	c0.56-2.88,1.1-5.77,1.69-8.65c0.33-1.63,0.79-3.23,1.11-4.86c0.65-3.24,0.62-6.64,2.22-9.66c0.04-0.08,0.06-0.16,0.08-0.25
	c-0.43-0.69-0.7-1.54-0.73-2.54c-0.05-1.58-0.29-3.14-0.66-4.67c0.21,1.31,0.14,2.71-0.2,4.14c-0.34-0.71-0.54-1.52-1.03-2.09
	c-0.89-1.03-1.24-2.18-1.31-3.48c-0.03-0.58-0.09-1.18-0.25-1.73c-1.65-5.48-4.08-10.6-7.45-15.24c-2.24-3.09-4.69-6.02-7.03-9.04
	c-0.36-0.46-0.85-0.94-0.93-1.46c-0.22-1.54-1.27-2.36-2.4-3.17c-1.83-1.31-3.62-2.69-5.46-3.98c-0.87-0.61-1.86-1-1.95-2.34
	c-0.03-0.38-0.77-0.81-1.27-1.05c-6.45-3.12-13.08-5.73-20.08-7.35c-2-0.46-3.97-1.06-5.97-1.54c-2.38-0.57-4.77-1.07-7.14-1.63
	c-1.17-0.28-2.29-0.25-3.48,0.01c-2.87,0.64-5.76,1.15-8.7,1.4c-2.82,0.24-5.63,0.71-8.35,1.54c-0.85,0.26-1.7,0.5-1.97,1.56
	c0.8,1.42,2.98,0.42,3.65,2.07c0.04,0.11,0.36,0.17,0.54,0.16c0.97-0.09,1.96-0.1,2.89-0.33c4.3-1.07,8.67-1.43,13.08-1.4
	c0.34,0,0.68,0.18,0.98,0.27c0,1.28-0.91,1.65-1.61,2.11c-3.57,2.41-7.17,4.78-10.75,7.16c-0.24,0.16-0.49,0.32-0.71,0.51
	c-0.58,0.51-0.64,1.18-0.2,1.85c0.52,0.78,0.96,0.94,1.99,0.7c0.38-0.09,0.74-0.23,1.12-0.28c0.11-0.02,0.24,0.2,0.64,0.54
	c-0.68,0.43-1.35,0.84-1.91,1.2c0.81,3.3,0.76,6.33,0.59,9.36c-0.08,1.37-0.12,2.74-0.09,4.11c0.04,1.88,0.82,2.86,2.61,3.46
	c0.68,0.23,1.35,0.46,2.03,0.68c-0.89,0.09-1.78,0.18-2.8,0.28c-0.46,1.86-1.9,2.98-3.29,4.24c-2.76,2.48-5.61,4.87-8.16,7.6
	c-2.53,2.71-5.03,5.45-8.21,7.49c-1.56,1-1.38,2.21-0.59,3.28c2.14,2.91,4.34,5.78,6.42,8.74c1.35,1.91,3.05,3.58,4,5.78
	c0.81,1.87,1.71,3.71,2.59,5.6c-0.89,1.77-1.86,3.58-2.71,5.44c-0.98,2.13-1.9,4.28-1.59,6.74c0.11,0.85-0.07,1.74-0.12,2.56
	c-0.68,0.44-1.18,0.33-1.59-0.24c-0.65-0.93-1.45-1-2.56-0.78c-3.45,0.68-6.93,1.18-10.4,1.72c-0.76,0.12-1.54,0.13-2.23,0.18
	c-0.23-0.23-0.37-0.36-0.5-0.51c-0.06-0.07-0.09-0.18-0.15-0.25c-1.08-1.25-1.94-1.28-2.76-0.02c-0.37,0.57-0.72,1.19-0.88,1.84
	c-0.28,1.13,0.91,2.8,2.3,2.08c1.88-0.97,3.4-0.38,4.86,0.76c0.86,0.67,1.71,0.67,2.75,0.43c2.76-0.63,5.55-1.16,8.39-1.22
	c0.88-0.02,1.78,0.15,2.64,0.03c0.93-0.13,1.83-0.49,2.79-0.77c2.94,3.8,6.18,7.16,10.26,9.65c0.89,0.54,1.7,1.25,2.19,2.07
	c-1.65,4.14-4.8,6.82-7.49,9.85c-4.18-0.6-7.76-2.35-11.01-4.75c-3.7-2.73-7.14-5.77-10.51-8.9c-1.71-1.59-3.35-3.25-5.28-4.63
	c-1.4-1-2.54-2.44-3.27-4.08c-1.64-3.66-3.28-7.31-4.56-11.11c-0.59-1.76-1.14-3.55-1.56-5.36c-0.36-1.54-0.51-3.1,1.12-4.2
	c0.46-0.31,0.71-0.92,1.04-1.4c1.17-1.68,2.34-3.37,3.51-5.06c1.72-2.49,3.44-4.99,5.18-7.48c0.21-0.3,0.53-0.51,0.76-0.74
	c0.49,0.22,0.84,0.38,1.19,0.53c0.45,0.19,0.89,0.41,1.36,0.54c0.86,0.23,1.59-0.12,1.87-0.98c1.09-3.34,2.71-6.51,3.27-10.03
	c0.17-1.04,0.58-2.04,0.87-3.03c0.35,0,0.54-0.04,0.71,0.01c1.75,0.52,1.98,0.44,2.33-1.01c0.51-2.09,0.84-4.19,0.93-6.36
	c0.15-3.52,0.51-7.03,0.81-10.54c0.29-3.41,0.61-6.83,0.9-10.24c0.26-3.02,0.4-6.06,0.79-9.06c0.66-5.05,1.5-10.07,2.22-15.11
	c0.19-1.35,0.32-2.73,0.29-4.09c-0.01-0.74-0.33-1.51-0.66-2.19c-0.22-0.45-0.82-0.59-1.28-0.31c-0.29,0.18-0.68,0.63-0.63,0.88
	c0.62,2.9-0.43,5.61-0.85,8.4c-0.55,3.67-0.99,7.36-1.44,11.05c-0.41,3.4-0.81,6.8-1.15,10.21c-0.14,1.45-0.08,2.9-1.2,4.1
	c-0.36,0.38-0.4,1.08-0.53,1.65c-0.22,0.95-0.4,1.91-0.6,2.86c-0.48,2.3-1.03,4.58-1.42,6.9c-0.56,3.27-1.01,6.56-1.5,9.84
	c-0.36,2.35-1.05,4.56-2.94,6.38c-1.82-0.9-2.56,1.15-4.1,1.82c-0.09-0.53-0.21-0.88-0.2-1.22c0.13-2.64,0.32-5.28,0.41-7.92
	c0.04-1.2,0.1-2.29,1.17-3.14c0.38-0.3,0.52-1.04,0.56-1.59c0.08-1.07,0.06-2.15-0.02-3.23c-0.16-2.24-0.39-4.48-0.59-6.73
	c-0.45-5.08-0.78-10.16,0.1-15.23c0.15-0.85,0.28-1.87-0.06-2.59c-0.65-1.37-0.44-2.66-0.22-4.02c0.17-1.06,0.33-2.12,0.43-2.75
	c0.8-1.2,1.63-1.99,1.9-2.95c0.83-2.96,2.83-5.1,4.79-7.28c1.31-1.46,2.51-3.08,4.06-4.22c1.63-1.19,3.62-1.88,5.44-2.83
	c0.5-0.26,1-0.61,1.38-1.04c0.82-0.92,0.49-1.97-0.7-2.2c-0.64-0.12-1.32-0.02-1.9-0.02c-0.24-0.5-0.32-1.03-0.58-1.14
	c-0.4-0.17-0.99-0.19-1.37-0.01c-0.79,0.37-1.52,0.89-2.22,1.4c-0.63,0.46-1.19,1.02-1.8,1.5c-0.21,0.16-0.51,0.21-0.65,0.26
	c-0.66-0.55-1.23-1.03-1.82-1.52c-0.87,0.56-1.55,1.15-2.34,1.45c-0.79,0.3-1.7,0.31-2.41,0.42c-0.21,0.36-0.36,0.51-0.39,0.69
	c-0.76,3.75-2.14,7.31-3.32,10.93c-0.81,2.47-1.21,5.13-1.39,7.73c-0.21,3.01,0.01,6.05-0.37,9.07c-0.1,0.77-0.03,1.57,0.04,2.34
	c0.3,3.23,0.23,6.46-0.13,9.68c-0.19,1.66-0.52,3.27,0.24,4.9c0.23,0.49,0.06,1.16,0.1,1.74c0.22,3.06-0.54,6.02-0.86,9.02
	c-0.5,4.57-0.41,9.15-0.27,13.94c-1.51,1.2-1.98,3.6-4.23,4.41c-0.38,0.14-0.63,0.72-0.89,1.13c-0.53,0.82-0.98,1.7-1.54,2.5
	c-2.52,3.63-4.58,7.51-6.34,11.56c-0.43,0.98-0.99,1.91-1.54,2.83c-0.64,1.09-1.34,2.15-2.08,3.35c-0.14,0.06-0.4,0.22-0.67,0.26
	c-1.25,0.2-1.91,0.92-1.96,2.17c-0.06,1.36-0.27,2.75-0.12,4.09c0.37,3.3,0.23,6.65,1.04,9.9c0.06,0.26-0.05,0.56-0.07,0.78
	c-0.45,0.57-1.55-0.14-1.62,1.14c1.86,0.82,2.85,2.41,3.34,4.42c0.25,1.03,0.7,2.05,1.23,2.98c0.63,1.09,1.4,2.11,2.19,3.1
	c0.37,0.47,0.88,0.29,1.65-0.46c-1.02-1.81-2.49-3.44-2.8-6.18c0.69,0.78,1.05,1.18,1.41,1.59c0.84,0.96,1.62,1.96,2.52,2.86
	c1.59,1.59,3.25,3.11,4.89,4.65c0.43,0.4,0.86,0.8,1.29,1.2c2.55,2.29,5.18,4.5,7.63,6.9c2.4,2.35,5.18,4.18,7.88,6.12
	c0.3,0.22,0.79,0.51,1.05,0.41c1.63-0.62,2.56,0.59,3.69,1.28c1.09,0.66,2.19,1.31,3.22,2.06c1.65,1.21,3.51,2.27,4.8,3.81
	c2.31,2.75,4.85,5.38,6.36,8.74c0.16,0.34,0.42,0.69,0.72,0.91c1.17,0.83,1.81,2.05,2.47,3.24c1.34,2.39,2.63,4.8,3.91,7.22
	c0.25,0.48,0.34,1.04,0.52,1.59c-2.09,1.21-4.01,2.32-5.87,3.4c-1.19-0.64-1.6-1.67-2.17-2.56c-2.33-3.62-4.58-7.28-7.58-10.44
	c-1.6-1.69-3.29-3.38-4.26-5.58c-0.15-0.34-0.48-0.63-0.77-0.88c-2.65-2.3-5.31-4.59-7.97-6.88c-0.37-0.32-0.8-0.56-1.19-0.86
	c-1.15-0.87-2.3-1.75-3.38-2.58c0.56-2.02,0.5-2.4-1.02-2.9s-2.86-1.21-4.09-2.22c-0.45-0.37-1.01-0.6-1.53-0.88
	c-3.53-1.93-6.95-4.02-9.8-6.92c-0.27-0.28-0.57-0.54-0.89-0.77c-3.82-2.63-6.81-6.16-10.2-9.26c-0.42-0.38-0.72-0.93-0.99-1.44
	c-2.3-4.35-3.76-9.03-5.29-13.67c-0.41-1.26-0.72-2.62-0.16-4.03c0.23-0.59,0.06-1.35,0.07-2.03c0.03-1.46-0.04-2.94,0.1-4.39
	c0.33-3.41,0.83-6.8,1.11-10.21c0.11-1.4,0.86-2.29,1.88-3.16c-0.87-2.24-0.93-4.47-0.69-6.73c0.17-1.55,0.45-3.11,0.41-4.66
	c-0.1-3.84,0.52-7.59,1.02-11.37c0.48-3.68,1.72-7.25,1.57-11.02c-0.01-0.37,0.19-0.75,0.24-1.14c0.22-1.74,1.33-2.96,2.54-4.09
	c-0.4-1.02-0.76-1.91-1.12-2.82c0.46-1.14,0.81-2.27,1.35-3.31c0.35-0.67,0.95-1.21,1.53-1.91c-0.16-1-0.98-2.18,0.59-3.31
	c1.68,0.53,2.72-0.82,3.91-2.04c1.37-1.4,2.8-2.75,4.36-3.92c3.04-2.3,6.18-4.45,9.27-6.68c0.23-0.17,0.52-0.38,0.59-0.63
	c0.25-0.97,0.9-1.7,1.4-2.53c0.59-0.99-0.25-2.22-1.42-2.27c-0.86-0.04-1.47,0.36-2.09,0.88c-1.27,1.07-2.58,2.1-3.89,3.13
	c-3,2.35-6.01,4.71-9.04,7.03c-0.69,0.53-1.45,1.01-2.24,1.34c-0.78,0.32-1.27,0.79-1.65,1.54c-0.88,1.74-1.88,3.43-2.79,5.16
	c-3.32,6.35-4.82,13.19-5.47,20.26c-0.06,0.67-0.24,1.34-0.39,2c-0.16,0.76-0.41,1.52-0.51,2.29c-0.55,4.27-1.1,8.55-1.6,12.82
	c-0.27,2.33-0.49,4.67-0.66,7.01c-0.18,2.44-0.28,4.89-0.41,7.33c-0.04,0.81-0.14,1.66-0.94,2.02c-1.66,0.75-1.82,2.09-1.77,3.65
	c0.09,3.22,0.57,6.41,0.22,9.67c-0.19,1.77,0.01,3.71,1.37,5.26c0.49,0.56,0.7,1.38,0.97,2.11c0.85,2.29,1.64,4.61,2.52,6.89
	c1.56,4.02,3.39,7.94,5.76,11.53c1.45,2.19,3.25,4.16,4.94,6.18c0.61,0.73,0.89,0.67,2.03-0.06c-0.43-0.7-0.86-1.41-1.5-2.47
	c1.58,1.35,2.83,2.4,4.07,3.49c0.58,0.51,1.17,1,1.23,1.9c0.07,1.25,0.9,1.96,2.06,2.14c1.65,0.25,2.83,1.27,4.07,2.21
	c2.1,1.6,4.16,3.27,6.34,4.76c3.08,2.1,6.16,4.17,8.88,6.74c3.64,3.43,7.16,6.97,10.2,10.95c0.59,0.77,1.26,1.52,1.68,2.39
	c1.5,3.08,2.9,6.21,4.36,9.31c0.25,0.53,0.5,1.09,0.9,1.49c0.3,0.31,0.88,0.61,1.25,0.53c0.34-0.08,0.57-0.66,0.85-1.03
	c0,0.01,0,0.02,0,0.02c0.73,0.36,1.03,0.82,0.72,1.13c-0.27,0.27-0.56,0.54-0.89,0.75c-2.41,1.49-4.86,2.93-7.25,4.46
	c-7.34,4.69-14.85,9.09-22.66,12.95c-2.28,1.13-4.65,2.04-6.98,3.07c-3.75,1.66-7.65,2.92-11.59,4.3c-0.31-0.46-0.51-0.91-0.84-1.22
	c-1.08-1.03-2.3-0.85-2.75,0.56c-0.51,1.6-1.5,2.64-2.8,3.61c-1.96,1.46-1.83,2.17,0.56,3.64c-0.35,2.62-0.7,5.31-1.06,8.06
	c-0.22,0.14-0.45,0.33-0.71,0.44c-1.67,0.7-1.96,0.99-1.88,2.47c0.1,1.85,0.26,3.7,0.48,5.53c0.45,3.79,1.14,7.55,1.4,11.35
	c0.49,6.93,1.05,13.86,1.06,20.81c0,2.54,0.15,5.08,0.39,7.61c0.47,4.97,0.96,9.93,1.59,14.88c1.13,8.83,2.47,17.64,4.71,26.27
	c1.01,3.88,2.18,7.71,3.35,11.55c1.03,3.36,2.2,6.68,2.47,10.23c0.06,0.85,0.08,1.78,0.8,2.41c0.76,0.19,1.48,0.36,2.13,0.52
	c0.3,1.84,0.57,3.48,0.83,5.11c1.11,6.95,2.21,13.9,3.35,20.84c0.87,5.3,1.75,10.6,2.7,15.89c0.71,3.94,1.43,7.87,2.32,11.77
	c1.09,4.76,2.29,9.5,3.6,14.2c0.36,1.27,0.35,2.8,1.54,3.72c1.41,1.09,1.3,2.46,0.99,3.98c-0.53,2.59-1.04,5.19-1.35,7.8
	c-0.21,1.78-0.5,3.46-1.37,5.04c-0.69,1.25-1.04,2.56,0.04,3.73c-0.17,0.41-0.26,0.69-0.41,0.94c-0.74,1.18-0.98,2.29,0.07,3.48
	c0.71,0.81,0.48,1.89,0.3,2.83c-0.41,2.2-0.93,4.39-1.42,6.58c-2.12,9.44-4.39,18.86-6.31,28.34c-0.76,3.76-2.16,7.29-3.13,10.97
	c-1.15,4.33-2.68,8.57-3.99,12.86c-0.34,1.12-0.54,2.28-0.74,3.44c-0.08,0.47-0.04,0.99,0.66,1.3c0.39-0.14,0.85-0.31,1.33-0.48
	c-0.83,0.73-0.64,1.89-1.11,2.78c-0.34-0.35-0.68-0.71-1.16-1.21c-0.27,0.59-0.48,0.92-0.57,1.28c-0.19,0.76-0.37,1.52-0.46,2.3
	c-0.35,2.83-0.92,5.57-2.35,8.1c-0.62,1.1-1.05,2.32-1.43,3.53c-1.27,4.01-2.48,8.04-3.73,12.05c-0.16,0.52-0.06,1.21-0.9,1.55
	c-0.71-0.31-1.45-0.64-2.21-0.97c-0.28,0.82-0.56,1.64-0.84,2.47c0.05,0.03,0.09,0.05,0.13,0.09c-0.36,0.92-0.65,1.73-0.99,2.53
	c-0.04,0.09-0.08,0.18-0.12,0.28c-1.02,3.02-2.04,6.03-3.15,9.01c-2,5.4-5.94,11.52-5.74,17.47c0.02,0.27,0.03,0.55,0.04,0.83
	c0.06,1.18-0.22,2.13-0.7,2.87c-0.12,0.46-0.25,0.91-0.4,1.34c-1.27,3.5-2.6,6.97-3.9,10.45c-1.61,4.3-3.32,8.58-4.81,12.92
	c-1.15,3.33-2.17,6.71-3,10.13c-0.87,3.59-2.04,7.17-1.64,10.96c0.02,0.15-0.16,0.33-0.26,0.5c-0.86-0.02-1.92-0.24-2.16,0.93
	c-0.18,0.93,0.71,1.28,1.37,1.7c3.21,2.06,6.51,3.99,10.01,5.5c4.58,1.98,9.17,3.98,13.91,5.52c5.39,1.76,10.94,3,16.59,3.66
	c2.13,0.25,4.24,0.72,6.37,0.94c2.82,0.29,5.65,0.46,8.47,0.63c1.94,0.12,3.86,0.11,5.77,0.76c1.65,0.56,3.44,0.9,5.18,0.92
	c3.61,0.06,7.2,0.42,10.83,0.34c7.28-0.15,14.45-0.9,21.56-2.41c0.27-0.06,0.63-0.22,0.86,0.19c17.95-3.87,35.99-9.9,51.54-19.84
	c0.89-0.57,1.79-0.79,2.65-0.76c1.56-0.85,3.1-1.69,4.58-2.58c0.66-0.4,1.3-0.82,1.93-1.26
	C161.24,600.56,160.95,599.68,160.86,598.75z M57.13,73.8c0.08,0.01,0.16,0.03,0.24,0.04c-0.07,0.13-0.1,0.3-0.21,0.38
	c-0.07,0.05-0.24-0.04-0.36-0.07C56.91,74.03,57.02,73.91,57.13,73.8z M80.89,175.44c0.53,0.27,0.9,0.46,1.27,0.66
	C81.54,176.45,81.17,176.26,80.89,175.44z M103.03,285.87c0.24,0.06,0.48,0.06,0.54,0.16c1.14,2.01,2.25,4.03,3.37,6.04
	c-0.16,0.13-0.32,0.26-0.48,0.38c-1.17-1.92-2.35-3.84-3.49-5.78C102.86,286.48,103,286.15,103.03,285.87z M104.99,299.84
	c0.18-0.05,0.37-0.08,0.64-0.13c1.13,2.13,1.16,4.5,1.36,6.83c0.33,3.92,0.06,7.83-0.49,11.72c-0.27,1.94-0.74,3.83-1.57,5.63
	c-0.46,1-0.2,1.82,0.46,2c0.61,0.17,1.34-0.13,1.71-0.84c0.4-0.77,0.67-1.61,1.18-2.84c-0.34,2.91-0.62,5.4-0.92,7.88
	c-0.1,0.88-0.35,1.75-0.33,2.62c0.09,4-1.36,7.68-2.42,11.43c-0.45,1.58-1.26,3.07-1.9,4.6c-0.08,0.18-0.21,0.34-0.25,0.53
	c-1.46,5.95-4.47,11.24-7.05,16.72c-1.54,3.28-3.08,6.55-5.14,9.54c-0.16,0.23-0.31,0.53-0.32,0.8c-0.03,1.48-0.94,2.55-1.71,3.67
	c-2.94,4.28-5.86,8.57-8.86,12.8c-5.27,7.45-9.78,15.35-14.13,23.36c-0.27,0.5-0.58,0.98-0.83,1.41c-0.72-0.07-0.66-0.48-0.68-0.86
	c-0.16-3.22-0.41-6.43-0.47-9.65c-0.05-2.52-0.06-5.04-0.05-7.55c-0.32-0.68-0.52-1.42-0.52-2.14v-1.8c0-0.79,0.21-1.53,0.55-2.2
	c0-0.03,0-0.06,0-0.09c0.11-5.67,0.3-11.35,0.57-17.01c0.18-3.81,0.54-7.62,0.86-11.42c0.22-2.63,0.51-5.25,0.79-7.88
	c0.17-1.56,0.36-3.06,1.42-4.39c0.48-0.6,0.68-1.71,0.51-2.48c-0.34-1.61-0.09-3.08,0.26-4.63c0.74-3.24,1.3-6.52,1.98-9.77
	c1.05-4.98,2.47-9.87,4.32-14.61c1.81-4.65,4.03-9.12,6.61-13.39c1.72-2.84,3.73-5.51,5.66-8.22c0.91-1.27,1.91-2.46,3.55-2.93
	c0.77-0.22,1.34-0.93,1.36-1.77c0.02-1.1,0.55-1.8,1.31-2.5c0.49-0.45,0.87-1.07,1.19-1.67c1.04-1.95,2.43-3.48,4.81-4.14
	c0.32,0.53,0.76,1.06,0.97,1.67c1.12,3.12,2.37,6.21,2.92,9.51c0.06,0.39,0.11,0.78,0.23,1.15
	C102.97,300.09,103.47,300.3,104.99,299.84z M62.63,359.67v-1c0.05,0,0.09,0,0.14,0v1.01C62.72,359.67,62.67,359.67,62.63,359.67z
	 M67.34,332.21v-0.83c0.01,0,0.01,0,0.02,0v0.79c-0.17,1.03-0.34,2.05-0.5,3.06c-0.19,0.64-0.38,1.27-0.57,1.91
	c-0.18,0.59-0.37,1.19-0.74,2.34c-0.07-2.01,0.29-3.24,1.31-4.24C66.76,334.19,66.38,333.09,67.34,332.21z M67.91,328.36
	c0.79-2.24,1.57-4.48,2.36-6.73C70.05,324.08,69.4,326.39,67.91,328.36z M101.22,280.86c0.75,0.29,0.74,1,0.97,1.95
	c-0.47-0.03-0.83,0.06-0.98-0.08C100.61,282.18,100.77,281.55,101.22,280.86z M102.39,272.19c0.27-0.55,0.56-1.1,1-1.93
	C103.54,271.49,103.2,272.01,102.39,272.19z M137.85,145.24c-0.25-2.37-0.54-4.73-0.75-7.1c-0.14-1.67,0.03-3.32,0.73-4.86
	c0.21-0.46,0.53-0.81,1.49-0.5C139.62,137.03,138.77,141.12,137.85,145.24z M136.16,126.93c-0.4,0.84-0.76,1.7-1.2,2.68
	c-1.1-1.39-3.24-0.5-4.19-2.13c0.14-0.12,0.3-0.37,0.41-0.34c0.62,0.14,1.28,0.58,1.83,0.46c1.13-0.26,2.15-0.87,2.89-1.84
	c0.71-0.93,1.7-1.49,2.57-2.17c1.06,0.87,0.51,1.68,0.22,2.58C137.94,126.64,136.7,125.8,136.16,126.93z M144.19,113.3
	c-1.53,1.78-2.98,3.62-4.46,5.44c-0.76,0.94-1.68,1.78-2.88,1.85c-1.15,0.06-2.05,0.38-2.88,1.16c-0.97,0.91-2.19,1.23-3.52,1.17
	c-0.76-0.03-1.52,0.04-2.36,0.07c-0.28,0.84-0.52,1.55-0.76,2.25c-0.2,0-0.43,0.07-0.57-0.01c-1.41-0.88-2.78-1.81-4.19-2.68
	c-1.9-1.17-3.82-2.31-5.86-3.53c0.46-1.39,0.8-2.82,1.41-4.13c0.94-2.04,2.11-3.96,2.58-6.19c0.14-0.68,0.68-1.11,1.37-1.41
	c3.55-1.6,7.1-3.21,10.61-4.91c1.56-0.76,3.02-1.73,4.5-2.59c0.22,0.11,0.46,0.14,0.55,0.28c2.08,3.26,5.26,5.49,7.78,8.33
	c0.31,0.35,0.62,0.71,1,1.14C145.79,110.89,145.16,112.18,144.19,113.3z M130.19,124.73c0.01,0.33-0.55,0.62-0.85,0.43
	c-0.12-0.07-0.21-0.43-0.16-0.47c0.2-0.16,0.45-0.25,0.67-0.36C130,124.5,130.19,124.61,130.19,124.73z M115.31,92.59
	c-1.63-1.27-3.44-2.21-5.61-2.1c0.13-1.59,1.75-1.05,2.55-2.01c0.39-6.79,2.52-13.4,4.21-19.99c3.86-2.19,7.58-4.31,11.3-6.42
	c1.1-0.62,1.1-0.63,1.43-2.23c0.91,0.43,1.31,0.92,0.99,2.04c-0.37,1.27,0.01,1.81,1.18,2.25c0.82,0.31,1.68,0.49,2.48,0.84
	c2.98,1.31,4.97,3.74,6.89,6.22c0.38,0.49,0.53,1.25,0.55,1.9c0.03,1.07-0.04,2.16-0.24,3.21c-0.71,3.74-1.5,7.47-2.26,11.2
	c-0.66,3.24-1.33,6.48-1.99,9.69c-5.15,2.84-9.35,4.78-13.21,5.04c-1.22-1.61-2.59-3.26-3.79-5.02
	C118.56,95.4,117.01,93.91,115.31,92.59z M116.82,97.48c-0.15,0.13-0.3,0.26-0.44,0.39c-0.75-0.53-1.51-1.06-2.22-1.56
	c0.25-0.83,0.76-0.85,1.15-0.52C115.88,96.29,116.33,96.91,116.82,97.48z M119.22,64.72c0.05-0.07,0.1-0.18,0.17-0.21
	c0.2-0.08,0.4-0.13,0.61-0.2c-0.13,0.16-0.25,0.32-0.41,0.45C119.53,64.83,119.35,64.74,119.22,64.72z M120.23,64.2
	c0.25-0.27,0.52-0.56,0.95-1.03C121.07,64.13,120.69,64.24,120.23,64.2z M154.48,90.65c-0.16,0.07-0.34,0.11-0.5,0.16
	c0.13-0.12,0.24-0.24,0.38-0.34c0.07-0.04,0.17-0.03,0.26-0.04C154.57,90.51,154.54,90.62,154.48,90.65z M155.39,69.87
	c0.73,2.48,0.63,5.05,0.46,7.58c-0.16,2.43-0.44,4.85-1.15,7.21c-0.72,2.41-1.8,4.71-2.34,7.24c0.56,0.37,1.02,0.68,1.47,0.98
	c-1.43,3.84-2.88,7.65-4.33,11.46c-0.1,0.27-0.25,0.52-0.38,0.78c-2.64-0.53-3.54-1.13-9.23-6.13c0.44-1.23,1.33-2.21,2.29-3.16
	c-0.57-5.03,0.49-9.97,0.61-14.96c0.04-1.63,0.63-3.25,0.94-4.89c0.18-0.93,0.79-1.8,0.24-2.83c-0.13-0.24,0.09-0.76,0.3-1.04
	c0.42-0.58,0.61-1.18,0.67-1.89c0.04-0.43,0.31-0.94,0.64-1.24c2.13-2,4.3-3.97,6.49-5.9c0.33-0.29,0.86-0.35,1.4-0.55
	C155.09,64.8,154.69,67.48,155.39,69.87z M139.51,41.75c2.72,2.99,5.47,5.89,8.06,8.92c1.06,1.24,1.76,2.79,2.67,4.17
	c0.63,0.97,1.33,1.9,2.04,2.92c-2.46,3.88-5.89,6.62-10.59,7.9c0.16,0.69,0.32,1.39,0.61,2.67c-2.88-2.67-5.39-4.91-7.8-7.25
	c-2.38-2.31-5.2-4.04-7.79-6.05c-0.57-3.37,0.35-6.61,0.72-9.89c0.07-0.57,0.32-1.13,0.51-1.68c0.32-0.93,0.95-1.44,1.98-1.4
	c2.34,0.09,4.69,0.05,7,0.31C137.82,42.48,138.39,42.06,139.51,41.75z M122.36,28.86c4.09,2.09,7.6,5.02,11.65,7.89
	c-2.9,1.51-5.57,0.43-8.07,0.8c-2.8-2.37-4.16-5.43-4.86-8.87C121.57,28.22,121.96,28.66,122.36,28.86z M89.02,50.37
	c-1.65-2.45-0.07-4.8,0.48-7.34c-1.24-1.2-1.16-2.71-0.77-4.29c0.4-1.61,0.78-3.22,1.1-4.84c0.47-2.39,1.93-4.07,3.95-5.2
	c3.22-1.8,6.52-3.45,9.82-5.1c0.57-0.29,1.32-0.2,1.95-0.4c0.52-0.16,1-0.49,1.83-0.91c0.73,0.2,1.57,0.43,2.41,0.67
	c1.72,0.5,3.37,1.09,4.12,2.94c2.52,2.46,3.84,5.6,5.01,8.84c0.53,1.48,1.2,2.96,2.49,3.91c1.37,0.99,2.03,2.32,2.39,3.6
	c-0.42,2.03-0.81,3.83-1.14,5.63c-0.47,2.49-0.91,4.99-1.32,7.49c-0.11,0.67-0.11,1.37-0.08,2.05c0.02,0.75,0.42,1.28,1.36,1.56
	c0.5-0.52,1.07-1.1,1.66-1.71c0.45,0.61,0.18,1.13-0.14,1.39c-0.86,0.74-1.7,1.57-3.08,1.25c-0.5-0.12-1.2,0.13-1.66,0.43
	c-1.77,1.14-3.47,0.75-5.26,0.05c-1.56-0.61-3.05-1.26-4.25-2.31c-0.17-0.88,0.6-1.02,0.89-1.48c0.35-0.55,0.03-1.33-0.57-1.33
	c-1.47,0.01-2.94-0.01-4.4,0.13c-1.7,0.16-3.27-0.13-4.87-0.74C97.01,53.17,93.03,51.8,89.02,50.37z M78.93,88.67
	c-0.12-0.81-0.16-1.67-0.83-2.07c-1.83-1.07-2.4-3.04-3.53-4.6c-0.91-1.26-1.55-2.72-2.42-4.02c-0.81-1.2-1.78-2.29-2.79-3.59
	c0.46-0.55,0.86-1.25,1.45-1.71c3.67-2.83,6.54-6.45,9.75-9.73c1.93-1.97,4-3.74,6.24-5.32c1.15-0.81,2.43-1.2,3.88-1
	c2.32,0.33,4.66,0.56,6.99,0.85c1.07,0.13,2.13,0.3,3.19,0.45c0.19,0.03,0.41,0,0.58,0.07c4.14,1.69,8.59,2.68,12.42,5.39
	c-0.44,1.14-1.4,1.68-2.12,2.43c-0.74,0.76-0.97,1.56-0.25,2.34c0.88,0.97,0.78,1.91,0.58,2.99c-0.18,0.96-0.31,1.93-0.43,2.9
	c-0.41,3.42-1.34,6.69-2.75,9.84c-0.56,1.24-0.91,2.58-1.33,3.88c-0.41,1.28-0.49,2.5,0.74,3.46c0.2,0.16,0.27,0.5,0.4,0.76
	c-0.3,0.64-0.84,0.33-1.27,0.35c-0.58,0.03-1.19-0.09-1.75,0c-5.25,0.86-10.54,0.49-15.82,0.54c-1.57,0.01-3.13,0-4.7-0.01
	c-0.59,0-1.18-0.02-1.76-0.08C80.59,92.53,79.35,91.47,78.93,88.67z M88.28,120.44c-2.47-2.22-4.89-4.5-7.26-6.82
	c-1.89-1.86-2.52-4.11-1.76-6.71c0.22-0.74,0.38-1.53,0.41-2.3c0.17-3.4,2.4-5.68,4.39-8.07c0.28-0.33,1.23-0.52,1.59-0.3
	c2.46,1.46,4.97,0.29,7.44,0.26c0.57-0.01,1.15-0.33,1.72-0.31c4.31,0.1,8.55-0.67,12.84-0.83c0.73-0.03,1.57,0.2,2.2,0.59
	c2.92,1.78,5.77,3.66,8.65,5.5c0.82,0.53,1.69,1.02,1.84,2.27c-0.56,1.12-1.18,2.33-1.76,3.56c-0.83,1.77-1.58,3.57-2.45,5.32
	c-1.31,2.61-2.69,5.19-4.06,7.8c-2.83,0.45-5.51,0.91-8.2,1.29c-0.95,0.13-1.73,0.43-2.08,1.36c-0.36,0.97-1.22,1.33-2.02,1.53
	c-2.18,0.56-4.36,1.03-6.14,2.68c-0.6-0.72-1.02-1.23-1.4-1.69c1.18-2.81,1.17-2.78-1.64-3.84
	C89.76,121.4,88.91,121.01,88.28,120.44z M89.49,134.98c1.01-0.6,1.98-1.2,2.54-2.34c0.87-1.77,2.49-2.71,4.21-3.49
	c1.06-0.49,2.12-0.98,3.18-1.5c0.88-0.43,1.74-0.79,2.74-0.94c1.63-0.25,3.2-0.82,4.82-1.2c1.04-0.24,2.11-0.42,3.17-0.56
	c1.07-0.14,2.14-0.2,3.14-0.29c0.97-0.93,1.88-1.79,2.76-2.63c1.57,0.31,2.48,0.99,3.18,2.4c1.54,3.11,4.34,4.77,7.7,5.19
	c1.54,0.19,2.73,0.7,3.97,1.64c-2.17,2.65-5.04,3.81-8.07,4.64c-3.51,0.97-7.14,1.16-10.76,1.37c-3.53,0.2-7.04,0.03-10.55-0.28
	c-0.97-0.09-1.95-0.04-2.93,0.02c-0.22,0.01-0.62,0.41-0.58,0.48c0.13,0.31,0.37,0.6,0.62,0.83c0.12,0.11,0.37,0.1,0.57,0.11
	c4.78,0.29,9.56,0.57,14.51,0.86c-1.04,0.92-2.18,0.54-3.21,0.61c-1.07,0.07-2.1,0.2-3.16,0.38c-1.71,0.29-3.53,0.34-5.24,0.09
	c-4.26-0.62-8.41-1.81-12.56-2.93c-0.72-0.19-1.56-0.34-1.98-1.38C88.19,135.71,88.85,135.36,89.49,134.98z M120.41,140.04
	c-0.35,0.59-0.41,0.81-0.51,0.83c-1.68,0.28-3.35,0.52-5.46,0.84C116.44,140.36,118.47,141.39,120.41,140.04z M117.42,138.77
	c0.53-0.07,1.06-0.15,2.06-0.28c-0.94,0.36-1.43,0.55-1.92,0.73C117.51,139.07,117.46,138.92,117.42,138.77z M56.74,121.07
	c3.41,3.14,6.81,6.29,10.7,9.87c-1.64-0.4-2.71-0.54-3.67-0.94c-0.78-0.32-1.54-0.85-2.1-1.48c-1.22-1.36-2.33-2.82-3.44-4.27
	c-0.59-0.76-1.1-1.58-1.62-2.4c-0.13-0.2-0.15-0.48-0.23-0.73C56.57,121.09,56.7,121.04,56.74,121.07z M90.79,161.25
	c0.09,0.13,0.17,0.25,0.26,0.38C90.61,161.67,90.73,161.45,90.79,161.25z M90.14,157.26c-0.57-0.91-1.1-1.85-1.66-2.76
	c-0.2-0.32-0.39-0.74-0.69-0.89c-0.27-0.14-0.74-0.05-1.04,0.11c-0.15,0.08-0.26,0.6-0.15,0.77c1.12,1.83,2.3,3.63,3.45,5.44
	c0.22,0.35,0.42,0.73,0.61,1.1c-2.03-1.31-3.26-3.4-4.86-5.13c-3.71-4.03-7.33-8.14-11.08-12.13c-1.12-1.19-2.52-2.16-3.9-3.07
	c-2.12-1.39-4.41-2.54-6.48-4c-0.79-0.56-1.5,0.12-2.17-0.36c-0.54-0.39-1.18-0.65-1.79-0.95s-1.3-0.49-1.82-0.89
	c-2.69-2.1-5.36-4.24-7.99-6.42c-0.89-0.73-1.87-1.49-1.76-2.89c-1.92-0.21-3.11-1.46-4.19-2.87c-1.56-2.05-2.43-4.46-3.44-6.79
	c-0.59-1.34-0.9-2.82-1.59-4.1c-0.97-1.78-0.91-3.6-0.51-5.41c0.37-1.71,1.01-3.37,1.6-5.02c0.15-0.43,0.54-0.77,0.9-1.27
	c1.06,1.07,0.5,2.35,0.93,3.28c-0.18,0.28-0.24,0.5-0.39,0.6c-1.01,0.76-1.05,1.66-0.77,2.85c0.67,2.92,1.96,5.54,3.68,7.93
	c3.61,5.01,7.47,9.8,12.26,13.79c2.63,2.19,5.13,4.53,7.7,6.79c0.97,0.85,2.04,1.44,3.41,1.54c0.85,0.06,1.7,0.43,2.51,0.74
	c1.74,0.66,1.73,0.68,4.26,0.43c0.24-0.5-0.13-0.63-0.47-0.81c-2.07-1.08-4.13-2.18-6.08-3.61c0.41,0.06,0.86,0.03,1.22,0.19
	c1.78,0.8,3.61,1.53,5.3,2.5c3.94,2.24,8.14,3.78,12.47,5.02c1.45,0.41,2.93,0.69,4.34,0.31c1.4-0.38,2.67-0.2,4,0.12
	c3.24,0.79,6.51,1.27,9.87,1.29c2.43,0.02,4.86,0.47,7.3,0.53c2.43,0.06,4.85-0.03,7.3-0.49c2.72-0.51,4.98-1.62,6.99-3.44
	c1.23-1.11,2.33-2.39,3.92-3.03c0.17-0.07,0.37-0.06,0.78-0.13c-0.33,0.67-0.6,1.23-0.89,1.78c-0.28,0.52-0.55,1.04-0.89,1.52
	c-1.73,2.48-3.42,5.01-5.25,7.41c-1.18,1.55-2.54,2.98-3.9,4.38c-3.69,3.77-7.4,7.54-11.58,10.79c-1.93,1.5-3.87,2.99-5.8,4.48
	c-0.46,0.36-1.05,0.65-1.33,1.12c-1.09,1.85-3.06,2.29-4.86,3.36c-0.96-1.84-1.97-3.51-2.71-5.28
	C93.63,162.67,91.84,160,90.14,157.26z M94.87,171.96c-0.28-0.2-0.56-0.31-0.71-0.52c-0.72-1.02-1.45-2.05-2.08-3.14
	c-0.11-0.2,0.13-0.7,0.34-0.95c0.1-0.11,0.61-0.05,0.78,0.1C94.05,168.26,94.76,170.23,94.87,171.96z M91.16,177.25
	c-0.29,0.46-0.72,0.42-1.18,0.33C90.37,177.47,90.76,177.36,91.16,177.25z M89.84,177.7c-0.02,0.12-0.03,0.25-0.07,0.37
	c-0.01,0.03-0.17,0.03-0.26,0.04C89.62,177.97,89.73,177.84,89.84,177.7z M36.93,312.55c-1.06-4.45-2.12-8.89-3.16-13.35
	c-1.36-5.8-1.85-11.73-2.56-17.62c-0.02-0.19-0.12-0.37-0.18-0.55v-0.86c0.02,0,0.04,0,0.05,0c-0.01,0.29-0.03,0.58-0.04,0.87
	c0.85,1.16,0.92,2.55,1.15,3.88c1.65,9.51,3.25,19.02,5.57,28.4c0.04,0.17,0.14,0.33,0.22,0.5
	C37.37,313.61,37.06,313.13,36.93,312.55z M38,314.82c-0.06-0.01-0.12-0.02-0.19-0.03c0.06-0.31,0.12-0.61,0.19-0.92V314.82z
	 M39.13,303.55v-2.75c0.03,0,0.07,0,0.1,0c0.04,0.92,0.08,1.83,0.13,2.75C39.28,303.54,39.2,303.55,39.13,303.55z M47.62,338.74
	c0.38,2.75,0.76,5.51,1.18,8.58C47.74,344.98,47.36,342.8,47.62,338.74z M55.69,387.5c0.52-0.2,1.04-0.39,1.66-0.63
	c-0.06-0.58-0.02-1.19-0.19-1.72c-1.35-4.2-1.91-8.58-2.88-12.86c-1.55-6.81-1.73-13.77-2.32-20.68c-0.36-4.18-0.47-8.41-1.7-12.47
	c-0.22-0.74-0.45-1.49-0.76-2.2c-0.55-1.24-0.63-1.25-2.56-1.59c-0.18-1.01-0.27-2.11-1.5-2.6c-0.27-0.11-0.43-0.62-0.53-0.98
	c-0.45-1.7-1.01-3.38-1.27-5.11c-0.75-4.83-1.6-9.64-1.79-14.55c-0.16-4.19-0.71-8.37-1.13-12.54c-0.11-1.06-0.37-2.12-0.62-3.16
	c-0.05-0.21-0.39-0.48-0.62-0.5c-0.48-0.05-0.62,0.34-0.66,0.76c-0.03,0.29-0.06,0.58-0.11,0.98c-0.48-0.34-0.32-0.83-0.43-1.21
	c-0.13-0.47-0.25-0.95-0.29-1.44c-0.24-3.12-0.47-6.24-0.69-9.37c-0.13-1.86-0.22-3.72-0.33-5.57c-0.48-8.02-0.54-16.05-0.22-24.08
	c0.04-1.07-0.03-2.15-0.12-3.21c-0.05-0.54-0.46-0.86-1.01-0.89c-0.64-0.03-1.19,0.24-1.39,0.85c-0.15,0.44-0.16,0.96-0.11,1.43
	c0.34,3.51,0.46,7.01,0.22,10.53c-0.04,0.59-0.1,1.18-0.07,1.76c0.27,5.38,0.57,10.75,0.84,16.12c0.05,0.96,0.01,1.92-0.21,2.93
	c-0.35-1.6-0.77-3.2-1.05-4.81c-1.08-6.17-1.93-12.37-2.59-18.6c-0.61-5.84-1.43-11.66-2.14-17.48c-0.08-0.68-0.09-1.37-0.08-2.05
	c0.01-3.62,0.01-7.25,0.08-10.87c0.03-1.46,0.19-2.92,0.38-4.38c0.41-3.2,0.84-6.4,1.34-9.58c0.23-1.44,0.55-2.89,1.49-4.08
	c0.5-0.63,0.94-1.28,0.6-2.14c-0.33-0.83-1.03-1.13-1.86-1.21c-0.07-0.01-0.13-0.13-0.2-0.19c0.2-1.01,0.2-1.01,1.14-1.68
	c0.21,0,0.48-0.08,0.59,0.01c1.56,1.36,3.05,1.15,4.82,0.21c5.79-3.06,11.94-5.34,17.92-7.98c6.26-2.76,12.68-5.15,18.74-8.37
	c4.22-2.25,8.57-4.27,12.82-6.46c0.94-0.48,1.75-1.23,2.57-1.92c0.24-0.2,0.28-0.63,0.48-1.15c-0.51,0.06-0.8,0.01-1.02,0.13
	c-2.86,1.5-5.68,3.08-8.58,4.51c-2.27,1.12-4.6,2.1-7.02,2.91c-2.2,0.74-4.45,1.49-6.31,2.99l-2.09,0.14l0,0v-0.01
	c0.7-0.05,1.4-0.09,2.1-0.14c-0.06-0.99,0.7-1.33,1.39-1.69c1.56-0.81,3.11-1.64,4.71-2.37c5.26-2.39,10.32-5.16,15.33-8.04
	c0.85-0.49,1.66-1.05,2.5-1.54c0.92-0.54,1.82-1.15,3.12-1.19c0.39,0.58,0.75,1.26,1.24,1.82c0.2,0.23,0.73,0.39,0.99,0.29
	c0.24-0.09,0.47-0.61,0.44-0.9c-0.05-0.47-0.35-0.9-0.51-1.36c-0.44-1.28-0.33-1.66,0.84-2.46c2.58-1.77,5.21-3.45,7.75-5.27
	c1.99-1.42,3.89-2.97,5.79-4.5c1.83-1.47,3.61-3.01,5.42-4.51c0.29-0.24,0.68-0.66,0.94-0.6c1.58,0.38,2.01-0.85,2.69-1.77
	c1.1-1.49,2.17-2.95,3.57-4.23c1.64-1.5,2.86-3.45,4.39-5.36c-0.12-0.21-0.34-0.5-0.45-0.83c-0.2-0.57,0.09-1.09,0.6-0.96
	c1.17,0.29,2.02-0.08,2.31-1.18c0.71-2.66,2.93-4.36,3.88-6.73c0.31,0.02,0.42,0,0.49,0.04c0.07,0.04,0.14,0.13,0.15,0.21
	c0.22,1.35,0.46,2.7,0.63,4.05c0.11,0.87,0.12,1.76,0.19,2.64c0.17,2.2,0.17,2.19,2,3.43c-0.73,3.74-1.6,7.44-2.14,11.19
	c-0.4,2.8-0.65,5.61-1.29,8.37c-2.05,8.86-4.25,17.68-6.67,26.45c-0.31,1.12-0.64,2.24-0.87,3.39c-0.09,0.43,0.09,0.92,0.21,1.88
	c0.57-0.85,1-1.26,1.15-1.75c1.11-3.65,2.17-7.31,3.23-10.97c0.62-2.16,1.27-4.31,1.82-6.49c0.76-3.03,1.44-6.09,2.16-9.13
	c0.13-0.57,0.24-1.16,0.44-1.71c0.95-2.68,1.54-5.45,2.06-8.24c0.05-0.28,0.23-0.53,0.39-0.86c0.11,0.14,0.25,0.24,0.24,0.33
	c-0.57,5.34-1.12,10.69-1.77,16.02c-0.25,2.03-0.8,4.03-1.13,6.05c-1,6.22-3.1,12.11-5.25,17.99c-1.07,2.93-2.14,5.86-3.24,8.78
	c-0.27,0.72-0.65,1.41-1.05,2.24c-0.14-0.7-0.24-1.24-0.34-1.74c-0.65-0.33-1-0.08-1.18,0.46c-0.4,1.21-0.88,2.4-1.15,3.64
	c-1.03,4.7-2.7,9.2-4.38,13.68c-1.51,4.03-3.24,7.97-4.85,11.96c-2.78,6.9-5.85,13.67-9.12,20.35c-2.41,4.92-4.91,9.8-7.39,14.68
	c-0.3,0.6-0.6,1.28-1.09,1.7c-1.34,1.15-1.68,2.56-1.26,4.27c-1.01,0.99-1.99,1.95-2.96,2.9c-0.14,0.14-0.33,0.23-0.45,0.38
	c-3.79,4.61-8.11,8.77-11.56,13.66c-1.18,1.68-2.22,3.45-3.37,5.16c-2.8,4.15-5.04,8.6-7.08,13.16c-1.6,3.58-2.86,7.28-3.89,11.05
	c-0.77,2.82-1.45,5.67-2.23,8.74c-0.28-0.94-0.5-1.68-0.71-2.41c-0.13-0.47-0.4-0.97-0.33-1.41c0.35-2.05-0.56-3.77-1.14-5.64
	c-1.07-3.44-2.02-6.93-2.54-10.51c-0.2-1.36-0.66-2.62-1.07-3.92c-0.75-2.41-1.15-4.94-1.56-7.45c-0.31-1.92-0.41-3.88-0.61-5.82
	c-0.08-0.78-0.65-1.3-1.34-1.26c-0.69,0.04-1.34,0.79-1.11,1.43c1.39,3.91,1.52,8.07,2.37,12.08c0.1,0.48,0.3,0.98,0.23,1.44
	c-0.31,2.01,0.12,3.84,1.09,5.61c0.28,0.52,0.34,1.17-0.12,1.65c-0.64,0.67-0.67,1.39-0.28,2.15c0.55,1.08,0.6,2.24,0.76,3.41
	c0.5,3.58,1.1,7.14,1.63,10.71c0.24,1.63,0.91,2.78,2.68,2.77c0.73,1.82,1.47,3.52,2.09,5.26c0.19,0.52,0.14,1.16,0.07,1.73
	c-0.25,2.13-0.47,4.28-0.88,6.38c-0.29,1.52-0.95,2.96-1.3,4.47c-0.51,2.19-0.89,4.41-1.34,6.62c-0.28,1.4-0.26,2.73,0.94,3.64
	c-0.7,4.69-1.47,9.23-2.02,13.79c-0.29,2.42-0.22,4.88-0.24,7.33c-0.03,4.31-0.01,8.61-0.13,12.94
	C56.83,397.92,56.3,392.76,55.69,387.5z M60.81,336.54c-0.12-0.49-0.24-0.99-0.45-1.84C61.29,335.37,60.94,335.99,60.81,336.54z
	 M59.25,417.84c0.11-0.67,0.14-1.35,0.25-2.02c0.13-0.76,0.18-1.56,0.48-2.25c0.76-1.76,0.92-3.57,0.71-5.44
	c-0.15-1.36-0.4-2.72,0.41-4.18c0.69,2.11,0.47,4.07,0.59,6.01c0.17,2.72,0.36,5.44,0.6,8.15c0.06,0.66,0.39,1.29,0.65,2.12
	c-0.98,1.95-2.03,4.02-3.13,6.22c-0.73-0.39-1.31-0.7-1.88-1C58.39,422.81,58.83,420.33,59.25,417.84z M58.41,433.18
	c0-0.85,0.05-1.5,0.79-1.99C59.37,431.99,59.5,432.7,58.41,433.18z M42.07,493.32c-0.01-0.03-0.02-0.07-0.03-0.1
	c0.03,0.02,0.05,0.04,0.08,0.07c-0.63,0.68-0.43,1.55-0.49,2.37C41.1,494.76,41.28,493.99,42.07,493.32z M33.84,525.21
	c0.35-1.42,0.79-2.82,1.27-4.21c0.38-1.12,0.89-2.13,2.2-2.54c1.03-0.32,1.47-1.25,1.56-2.29c0.06-0.68,0.05-1.37,0.06-2.05
	c0.01-1.48,0.28-2.89,0.75-4.31c0.84-2.5,1.5-5.05,2.27-7.57c0.34-1.1,0.49-2.26,1.48-3.12c0.47-0.4,0.61-1.2,0.85-1.84
	c0.55-1.45,1.06-2.92,2-4.19c0.22-0.3,0.38-0.71,0.42-1.08c0.22-1.97,0.97-3.77,1.65-5.61c0.92-2.47,1.71-4.99,2.48-7.51
	c2.04-6.63,3.52-13.4,4.52-20.26c1.14-7.75,3.19-15.32,4.76-22.98c0.37-1.8,1.06-3.54,1.66-5.28c1.82-5.28,3.83-10.49,6.86-15.21
	c1.89-2.94,3.81-5.86,5.74-8.77c1.05-4.84,3.99-8.67,7.04-12.59c0.08-0.21,0.16-0.42,0.27-0.6c0.17-0.28,0.44-0.49,1.09-1.19
	c-0.01,0.02-0.02,0.04-0.02,0.07c4.42-5.74,8.79-11.58,13.01-17.48c0.6-1.04,1.21-2.07,1.83-3.09c1.78-2.94,3.36-5.95,4.42-9.22
	c1.42-4.37,2.84-8.73,3.44-13.32c0.24-1.84,1.13-3.52,2.17-5.09c0.36-0.54,0.68-1.22,0.72-1.85c0.17-2.96,0.96-5.8,1.6-8.66
	c0.86-3.83,1.48-7.68,1.68-11.6c0.04-0.88,0.18-1.84-0.12-2.62c-1.02-2.73,0-5.4-0.15-8.07c0.8-0.15,1.06,0.36,1.3,0.73
	c2.33,3.63,4.43,7.36,5.37,11.63c0.17,0.76,0.34,1.52,0.54,2.27c0.26,0.98,0.22,1.86-0.26,2.82c-0.8,1.57-0.68,1.7,1.17,2.41
	c0.18,0.07,0.35,0.17,0.77,0.38c1.11,3.54,2.16,7.29,2.6,11.18c0.05,0.48-0.05,0.97-0.1,1.46c-0.27,2.33-0.56,4.65-0.8,6.98
	c-0.04,0.37,0.03,0.81,0.21,1.12c1.06,1.72,0.83,3.62,0.65,5.44c-0.29,2.93-0.58,5.86-0.93,8.78c0.31,4.8,0.81,9.66,0.87,14.47
	c0.01-0.05,0.01-0.1,0.02-0.15c0.24,1.94,0.12,3.86-0.08,5.79c-0.17,1.65-0.29,3.31-0.42,4.97c-0.31,4.19-0.64,8.39-0.9,12.58
	c-0.11,1.75-0.31,3.56-0.01,5.26c0.52,2.95-0.4,5.62-1.26,8.29c-0.47,1.44-0.62,2.8-0.5,4.3c0.22,2.72,0.19,5.46,0.31,8.2
	c0.07,1.56,0.22,3.11,0.33,4.67c0.02,0.29,0.14,0.63,0.02,0.85c-0.81,1.53-0.3,3.08-0.11,4.61c0.72,5.73,1.46,11.46,2.25,17.18
	c0.25,1.84,0.71,3.65,1.01,5.48c0.42,2.51,0.74,5.03,1.17,7.54c0.33,1.93,0.76,3.84,1.16,5.75c0.71,3.35,1.35,6.72,2.18,10.04
	c1.05,4.17,2.12,8.34,3.44,12.43c1.11,3.45,1.9,6.97,2.74,10.49c0.18,0.75,0.36,1.51,0.61,2.57c-1.89,1.61-3.62,3.2-5.48,4.62
	c-2.72,2.08-5.51,4.07-8.31,6.05c-2.76,1.95-5.9,3-9.16,3.78c-1.8,0.43-3.56,1.07-5.36,1.53c-4.56,1.15-9.19,1.86-13.88,2.37
	c-4.38,0.48-8.78,0.61-13.15,1.1c-3.01,0.33-6.02,0.7-9.04,0.99c-4,0.39-8.02,0.69-12.02,0.19c-2.52-0.31-4.98-1.06-7.49-1.39
	c-3.32-0.44-6.51-1.37-9.65-2.44c-1.74-0.59-3.37-1.49-5.33-2.38c-0.4,0.31-1.03,0.81-1.97,1.55
	C33.85,526.48,33.7,525.81,33.84,525.21z M71.05,623.96c0.01-0.08,0.02-0.16,0.03-0.25h0.77c0.01,0.05,0.01,0.1,0.02,0.16
	C71.6,623.9,71.32,623.93,71.05,623.96z M77.12,626.25c-0.15-0.06-0.3-0.12-0.46-0.18c0.08-0.05,0.16-0.15,0.23-0.13
	c0.16,0.03,0.32,0.12,0.47,0.18C77.29,626.17,77.21,626.21,77.12,626.25z M86.63,625.63c-0.06,0.01-0.13-0.08-0.23-0.15h0.86
	C87.05,625.53,86.84,625.6,86.63,625.63z M104.8,622.16c0.11-0.14,0.21-0.37,0.35-0.39c1.43-0.22,2.86-0.42,4.89-0.7
	C106.95,622.38,106.11,622.53,104.8,622.16z M114.11,620.9h-1.57c0.01-0.11,0.02-0.21,0.03-0.32
	C113.08,620.68,113.6,620.79,114.11,620.9C114.11,620.89,114.11,620.9,114.11,620.9z M157.97,600.68c-3.63,1.35-6.85,3.2-10.03,5.13
	c-4.02,2.44-8.09,4.78-12.4,6.68c-0.35,0.16-0.8,0.45-1.08,0.35c-1.53-0.53-2.6,0.52-3.87,0.94c-4.37,1.45-8.76,2.81-13.31,3.59
	c-1.92,0.33-3.82,0.84-5.75,1.15c-3.57,0.59-7.16,1.12-10.74,1.63c-5.04,0.71-10.12,1.06-15.2,1.38
	c-7.64,0.48-15.29,0.49-22.91-0.08c-4.46-0.33-8.95-0.56-13.38-1.43c-2.95-0.58-5.96-0.81-8.89-1.19c-0.42,0.65-0.25,1.08,0.3,1.26
	c1.21,0.38,2.42,0.77,3.66,0.99c2.88,0.5,5.77,0.99,8.68,1.32c5.05,0.56,10.12,0.99,15.19,1.62c-1.21,0-2.42,0-3.63,0
	c-5,0.02-10-0.04-14.96-0.72c-3.58-0.5-7.15-1.15-10.73-1.6c-1.25-0.16-1.96-0.69-2.4-1.79c-0.06-0.16-0.28-0.25-0.5-0.44
	c-1.57-0.15-3.24-0.17-4.86-0.49s-3.18-0.95-4.78-1.43c-5.37-1.6-10.53-3.68-15.32-6.59c-1.66-1.01-3.14-2.32-4.67-3.53
	c-0.5-0.4-0.59-1-0.32-1.6c0.66-1.47,1.24-2.97,1.79-4.48c-0.3-1.64-0.44-3.26-0.44-4.84c-0.57,1.43-1.16,2.86-1.74,4.29
	c0.33-3.87,1.34-7.56,2.53-11.2c0.65-2.9,1.65-5.72,2.84-8.5c1.71-7.25,4.88-14.05,9.14-20.16c-0.14-0.31-0.06-0.89,0.05-1.29
	c0.98-3.69,1.88-7.4,3.03-11.03c1.6-5.03,3.39-9.99,5.1-14.98c0.41-1.19,0.65-2.45,1.42-3.55c0.3,0.22,0.55,0.38,0.76,0.57
	c0.74,0.66,1.55,0.89,2.39,0.27c0.8-0.59,1.56-0.48,2.48-0.3c3.54,0.71,7.14,1.17,10.66,1.97c1.93,0.44,4.11,0.44,5.59,2.23
	c0.31,0.38,1.07,0.55,1.62,0.54c1.86-0.01,3.73,0.01,5.56-0.26c1.38-0.2,2.72-0.3,4.09-0.11c5.07,0.7,10.18,0.57,15.26,0.34
	c2.72-0.12,5.41-0.78,8.12-1.23c0.47-0.08,1.12-0.18,1.34-0.51c1.03-1.53,2.59-1.24,3.98-1.18c4.04,0.18,8.01-0.21,11.95-1.06
	c4.23-0.91,8.3-2.28,12.23-4.07c6.56-2.99,12.4-7.05,17.73-11.88c0.56-0.51,1.22-0.92,2.03-1.52c0.39,0.86,0.73,1.53,1,2.22
	c1.01,2.64,2.01,5.29,3,7.94c0.17,0.45,0.42,0.97,0.33,1.39c-0.52,2.34,0.43,4.45,0.99,6.6c1.97,7.47,4.02,14.91,6.09,22.35
	c1.41,5.08,2.93,10.14,4.35,15.22c0.92,3.29,1.79,6.6,2.59,9.93c1.31,5.42,2.49,10.87,3.83,16.28
	C158.14,597.4,158.29,598.9,157.97,600.68z"/>
<path d="M119.9,397.31c0.58-0.17,1.03-0.74,1.13-1.62c0.06-0.51,0.05-1.02,0.06-1.53C120.76,395.22,120.36,396.27,119.9,397.31z"/>
<path d="M157.01,59.31c-0.22-0.14-0.42-0.29-0.61-0.46c1.15,1.86,1.72,3.9,2.47,5.86C158.34,62.89,157.68,61.09,157.01,59.31z"/>
<path d="M82.17,176.1L82.17,176.1c0.03,0.57,0.05,1.14,0.08,1.71C82.22,177.24,82.19,176.68,82.17,176.1z"/>
<path d="M102.26,272.45c0,0.13,0,0.27,0,0.4c-0.05-0.04-0.15-0.1-0.14-0.12C102.16,272.64,102.21,272.55,102.26,272.45z"/>
<path d="M153.95,91.11c0-0.1,0.01-0.19,0.01-0.29l0,0C153.96,90.92,153.95,91.01,153.95,91.11z"/>
<path d="M91.74,176.82c-0.12,0.07-0.23,0.14-0.35,0.21c0.04-0.09,0.08-0.17,0.13-0.25C91.53,176.76,91.66,176.81,91.74,176.82z"/>
<path d="M147.37,110.86c0.06-0.06,0.12-0.13,0.17-0.19c0.01,0.12,0.02,0.24,0.02,0.36c-0.07-0.05-0.14-0.1-0.2-0.14
	c0.04,0.16,0.06,0.32,0.11,0.47c0.03,0.08,0.12,0.13,0.18,0.2c-0.02-0.08-0.02-0.17-0.06-0.24
	C147.54,111.15,147.45,111,147.37,110.86z"/>
<polygon points="74.85,623.81 74.78,623.74 74.62,623.78 "/>
<path d="M74.25,626.03c-0.08,0.03-0.16,0.06-0.25,0.09c0.07,0.03,0.15,0.1,0.21,0.08c0.11-0.03,0.2-0.1,0.3-0.16
	C74.43,626.04,74.34,626.04,74.25,626.03z"/>
<polygon points="38.68,317.12 38.59,316.9 38.51,317.13 "/>
<path d="M55.05,119.49c-0.02,0.07-0.05,0.13-0.05,0.2c0,0.03,0.1,0.04,0.15,0.06c0.02-0.06,0.05-0.13,0.04-0.19
	C55.19,119.53,55.1,119.52,55.05,119.49z"/>
<polygon points="49.69,84.1 49.78,84.35 49.89,84.1 "/>
<polygon points="87.88,179.23 87.7,179.12 87.67,179.29 "/>
<path d="M133.45,125.4c0.03-0.08,0.06-0.17,0.09-0.25c-0.08-0.02-0.19-0.08-0.22-0.05c-0.05,0.05-0.07,0.16-0.07,0.24
	C133.26,125.36,133.38,125.38,133.45,125.4z"/>
<path d="M86.35,172.39c0.24,0.28,0.74,0.64,0.87,1.1c0.11,0.4-0.14,0.94-0.32,1.38c-0.23,0.54-0.56,1.08-1.28,0.96
	c-0.83-0.14-1.47-1.23-1.25-2.04C84.56,173.09,85.35,172.45,86.35,172.39z"/>
<path d="M30.47,103.38c-0.28,0.2-0.54,0.43-0.84,0.57c-0.05,0.02-0.28-0.35-0.43-0.53c0.29-0.19,0.57-0.39,0.88-0.55
	C30.1,102.85,30.27,103.12,30.47,103.38z"/>
<path d="M191.87,340.7c0.3,0.44,0.57,0.69,0.65,0.99c0.05,0.21-0.09,0.58-0.27,0.73c-0.26,0.22-0.85-0.32-0.84-0.84
	C191.42,341.36,191.63,341.15,191.87,340.7z"/>
<path d="M25.39,202.45c-0.22-0.15-0.36-0.25-0.49-0.34c0.13-0.11,0.25-0.29,0.41-0.33c0.15-0.03,0.33,0.08,0.49,0.12
	C25.66,202.1,25.52,202.28,25.39,202.45z"/>
<path d="M223.86,448.4c-0.35,0.27-0.52,0.52-0.73,0.55c-0.22,0.03-0.46-0.15-0.7-0.24c0.17-0.17,0.31-0.44,0.52-0.49
	C223.16,448.16,223.43,448.3,223.86,448.4z"/>
<path d="M310.06,308.58c-0.05,0.08-0.09,0.16-0.14,0.24c-0.14-0.09-0.27-0.17-0.41-0.26c0.05-0.08,0.14-0.23,0.15-0.22
	C309.81,308.4,309.93,308.49,310.06,308.58z"/>
<path d="M166.83,36.06c-0.1-0.06-0.19-0.08-0.22-0.13c-0.02-0.04,0.04-0.12,0.06-0.18C166.71,35.84,166.76,35.94,166.83,36.06z"/>
<polygon points="139.14,200.21 139.25,200.01 139.33,200.23 "/>
<path class="st0" d="M157.76,595.84c-1.34-5.41-2.52-10.86-3.83-16.28c-0.8-3.32-1.68-6.63-2.59-9.93
	c-1.42-5.08-2.94-10.14-4.35-15.22c-2.07-7.44-4.12-14.88-6.09-22.35c-0.56-2.14-1.51-4.26-0.99-6.6c0.09-0.42-0.16-0.94-0.33-1.39
	c-0.99-2.65-1.98-5.3-3-7.94c-0.27-0.69-0.61-1.35-1-2.22c-0.81,0.6-1.47,1-2.03,1.52c-5.33,4.83-11.17,8.89-17.73,11.88
	c-3.93,1.79-8.01,3.16-12.23,4.07c-3.94,0.84-7.91,1.24-11.95,1.06c-1.39-0.06-2.96-0.36-3.98,1.18c-0.22,0.33-0.87,0.43-1.34,0.51
	c-2.7,0.45-5.4,1.11-8.12,1.23c-5.08,0.22-10.18,0.35-15.26-0.34c-1.36-0.19-2.71-0.09-4.09,0.11c-1.83,0.27-3.71,0.25-5.56,0.26
	c-0.55,0-1.31-0.16-1.62-0.54c-1.47-1.79-3.66-1.79-5.59-2.23c-3.52-0.8-7.11-1.26-10.66-1.97c-0.92-0.18-1.68-0.29-2.48,0.3
	c-0.85,0.62-1.66,0.39-2.39-0.27c-0.22-0.19-0.46-0.35-0.76-0.57c-0.76,1.1-1.01,2.36-1.42,3.55c-1.71,4.99-3.51,9.96-5.1,14.98
	c-1.15,3.63-2.05,7.34-3.03,11.03c-0.11,0.4-0.19,0.98-0.05,1.29c0.53-0.77,1.08-1.53,1.65-2.27c3.11-4.07,11.4-1.9,9.14,3.85
	c-2.43,6.17-5.74,11.88-8.66,17.81c-0.54,1.09-1.08,2.21-1.61,3.36c-0.24,0.99-0.45,1.99-0.64,3.01c-0.23,1.31-0.84,2.23-1.63,2.82
	c-0.75,2.47-1.2,5-1.08,7.52c3.13,2.54,2.11,8.98-3.06,8.98c-0.43,0-0.83-0.05-1.2-0.13c-2.19,0.28-4.44-0.74-5.05-3.54
	c-0.07-0.34-0.13-0.67-0.19-1.01c-0.54,1.51-1.12,3.01-1.79,4.48c-0.27,0.6-0.18,1.2,0.32,1.6c1.53,1.22,3.01,2.52,4.67,3.53
	c4.79,2.92,9.95,5,15.32,6.59c1.59,0.47,3.15,1.11,4.78,1.43c1.62,0.32,3.29,0.34,4.86,0.49c0.22,0.19,0.44,0.28,0.5,0.44
	c0.44,1.1,1.16,1.63,2.4,1.79c3.59,0.45,7.15,1.1,10.73,1.6c4.96,0.69,9.96,0.74,14.96,0.72c1.21,0,2.42,0,3.63,0
	c-5.07-0.62-10.14-1.06-15.19-1.62c-2.91-0.32-5.8-0.82-8.68-1.32c-1.24-0.22-2.46-0.61-3.66-0.99c-0.55-0.17-0.72-0.61-0.3-1.26
	c2.93,0.38,5.94,0.62,8.89,1.19c4.43,0.87,8.92,1.1,13.38,1.43c7.62,0.57,15.27,0.56,22.91,0.08c5.08-0.32,10.16-0.66,15.2-1.38
	c3.59-0.51,7.17-1.04,10.74-1.63c1.93-0.32,3.82-0.82,5.75-1.15c4.55-0.79,8.94-2.14,13.31-3.59c1.27-0.42,2.35-1.47,3.87-0.94
	c0.29,0.1,0.73-0.19,1.08-0.35c4.31-1.9,8.38-4.23,12.4-6.68c3.17-1.93,6.39-3.79,10.03-5.13
	C158.29,598.9,158.14,597.4,157.76,595.84z M38.31,573.61c0.11-0.91,0.11-0.91,1.01-1.5C39.23,572.93,39.23,572.93,38.31,573.61z"/>
<polygon class="st0" points="133.44,596.58 133.34,596.34 133.23,596.57 "/>
<path class="st0" d="M134.1,508.99c-0.84-3.52-1.63-7.03-2.74-10.49c-1.31-4.09-2.39-8.26-3.44-12.43
	c-0.83-3.32-1.47-6.69-2.18-10.04c-0.41-1.91-0.83-3.83-1.16-5.75c-0.43-2.51-0.75-5.03-1.17-7.54c-0.3-1.83-0.76-3.64-1.01-5.48
	c-0.79-5.72-1.53-11.45-2.25-17.18c-0.19-1.53-0.7-3.08,0.11-4.61c0.12-0.22,0-0.56-0.02-0.85c-0.11-1.56-0.26-3.11-0.33-4.67
	c-0.12-2.73-0.09-5.47-0.31-8.2c-0.12-1.5,0.04-2.86,0.5-4.3c0.86-2.67,1.78-5.33,1.26-8.29c-0.3-1.7-0.1-3.51,0.01-5.26
	c0.26-4.2,0.59-8.39,0.9-12.58c0.12-1.66,0.24-3.32,0.42-4.97c0.2-1.93,0.31-3.85,0.08-5.79c-0.01,0.05-0.01,0.1-0.02,0.15
	c0.06,4.57-0.3,9.08-1.66,13.44c0,0.51,0,1.03-0.06,1.53c-0.11,0.89-0.55,1.46-1.13,1.62c-0.15,0.35-0.29,0.71-0.46,1.05
	c-1.84,3.79-6.53,2.84-8.46-0.03c-5.05-0.7-5.37-8.11-0.96-9.66c0.02-2.61,0.08-5.21,0.1-7.82c0.02-2.24,1.24-3.7,2.82-4.38
	c-0.39-5.34-1.23-10.7-1.29-15.49c-0.08-6.45,9.92-6.43,10,0c0.02,1.74,0.11,3.5,0.22,5.27c0.35-2.92,0.64-5.85,0.93-8.78
	c0.18-1.81,0.41-3.72-0.65-5.44c-0.19-0.3-0.25-0.75-0.21-1.12c0.24-2.33,0.54-4.65,0.8-6.98c0.06-0.48,0.16-0.98,0.1-1.46
	c-0.44-3.9-1.49-7.64-2.6-11.18c-0.43-0.21-0.59-0.31-0.77-0.38c-1.84-0.71-1.96-0.85-1.17-2.41c0.49-0.96,0.53-1.84,0.26-2.82
	c-0.2-0.75-0.37-1.51-0.54-2.27c-0.94-4.27-3.04-8.01-5.37-11.63c-0.24-0.37-0.5-0.88-1.3-0.73c0.15,2.67-0.87,5.34,0.15,8.07
	c0.29,0.78,0.16,1.75,0.12,2.62c-0.19,3.92-0.82,7.77-1.68,11.6c-0.64,2.86-1.43,5.7-1.6,8.66c-0.04,0.63-0.36,1.31-0.72,1.85
	c-1.03,1.57-1.92,3.24-2.17,5.09c-0.6,4.59-2.02,8.95-3.44,13.32c-1.06,3.27-2.64,6.28-4.42,9.22c-0.62,1.02-1.23,2.06-1.83,3.09
	c0.42-0.59,0.85-1.17,1.26-1.76c3.7-5.21,12.37-0.21,8.63,5.05c-4.26,6-8.8,11.8-13.15,17.73c-0.42,0.57-0.91,1.17-1.43,1.78
	c1.21,2.95-0.27,7.12-4.42,7.12c-0.39,0-0.76-0.04-1.1-0.11c-0.83,1.4-1.42,2.84-1.54,4.28c-0.53,6.38-10.54,6.41-10,0
	c0.07-0.79,0.19-1.56,0.35-2.3c-1.92,2.91-3.85,5.83-5.74,8.77c-3.04,4.72-5.04,9.93-6.86,15.21c-0.6,1.75-1.29,3.48-1.66,5.28
	c-1.57,7.66-3.62,15.22-4.76,22.98c-1.01,6.86-2.48,13.63-4.52,20.26c-0.78,2.52-1.56,5.04-2.48,7.51
	c-0.69,1.84-1.43,3.64-1.65,5.61c-0.04,0.37-0.2,0.78-0.42,1.08c-0.94,1.27-1.45,2.74-2,4.19c-0.24,0.64-0.39,1.43-0.85,1.84
	c-0.99,0.86-1.15,2.02-1.48,3.12c-0.77,2.52-1.43,5.08-2.27,7.57c-0.47,1.42-0.74,2.83-0.75,4.31c0,0.68,0,1.37-0.06,2.05
	c-0.09,1.04-0.54,1.97-1.56,2.29c-1.31,0.41-1.82,1.42-2.2,2.54c-0.48,1.39-0.93,2.79-1.27,4.21c-0.15,0.6,0,1.27,0.03,2.31
	c0.93-0.73,1.57-1.23,1.97-1.55c1.96,0.89,3.59,1.79,5.33,2.38c3.14,1.07,6.32,2.01,9.65,2.44c2.52,0.33,4.98,1.08,7.49,1.39
	c4,0.5,8.02,0.2,12.02-0.19c3.02-0.3,6.02-0.66,9.04-0.99c4.37-0.48,8.77-0.62,13.15-1.1c4.68-0.51,9.32-1.22,13.88-2.37
	c1.8-0.45,3.55-1.1,5.36-1.53c3.26-0.78,6.4-1.83,9.16-3.78c2.8-1.98,5.59-3.96,8.31-6.05c1.86-1.42,3.58-3.01,5.48-4.62
	C134.46,510.5,134.28,509.75,134.1,508.99z M66.55,514.54c-0.36,0.75-0.89,0.59-1.46-0.14c0.41-0.63,0.85-1.32,1.29-2l0.64,0.24
	C66.87,513.28,66.82,513.96,66.55,514.54z"/>
<polygon class="st0" points="94.52,426.83 94.38,427.07 94.6,427.09 "/>
<path class="st0" d="M67.04,193.29c-0.06-0.99,0.7-1.33,1.39-1.69c1.56-0.81,3.11-1.64,4.71-2.37c5.26-2.39,10.32-5.16,15.33-8.04
	c0.85-0.49,1.66-1.05,2.5-1.54c0.92-0.54,1.82-1.15,3.12-1.19c0.38,0.58,0.75,1.26,1.24,1.82c0.2,0.23,0.73,0.39,0.99,0.29
	c0.24-0.09,0.47-0.61,0.44-0.9c-0.05-0.47-0.35-0.9-0.51-1.36c-0.44-1.28-0.33-1.66,0.84-2.46c2.58-1.77,5.21-3.45,7.75-5.27
	c1.99-1.42,3.89-2.97,5.79-4.5c1.83-1.48,3.61-3.01,5.42-4.51c0.29-0.24,0.68-0.66,0.94-0.6c1.58,0.38,2.01-0.85,2.69-1.77
	c1.1-1.49,2.17-2.95,3.57-4.23c1.64-1.5,2.86-3.45,4.39-5.36c-0.12-0.21-0.34-0.5-0.45-0.83c-0.2-0.57,0.09-1.09,0.6-0.96
	c1.17,0.29,2.02-0.08,2.31-1.18c0.71-2.66,2.93-4.36,3.88-6.73c0.31,0.02,0.42,0,0.49,0.04c0.07,0.04,0.14,0.13,0.15,0.21
	c0.22,1.35,0.46,2.7,0.63,4.05c0.11,0.87,0.12,1.76,0.19,2.64c0.17,2.2,0.17,2.19,2,3.43c-0.73,3.74-1.6,7.44-2.14,11.19
	c-0.4,2.8-0.65,5.61-1.29,8.37c-2.05,8.86-4.25,17.68-6.67,26.45c-0.31,1.12-0.64,2.24-0.87,3.39c-0.09,0.43,0.09,0.92,0.21,1.88
	c0.57-0.85,1-1.26,1.15-1.75c1.11-3.65,2.17-7.31,3.23-10.97c0.62-2.16,1.27-4.31,1.82-6.49c0.76-3.03,1.44-6.09,2.16-9.13
	c0.13-0.57,0.24-1.16,0.44-1.71c0.95-2.68,1.54-5.45,2.06-8.24c0.05-0.28,0.23-0.53,0.39-0.86c0.11,0.14,0.25,0.24,0.24,0.33
	c-0.57,5.34-1.12,10.69-1.77,16.02c-0.25,2.03-0.8,4.03-1.13,6.05c-1,6.22-3.1,12.11-5.25,17.99c-1.07,2.93-2.14,5.86-3.24,8.78
	c-0.27,0.72-0.65,1.41-1.05,2.24c-0.14-0.7-0.24-1.24-0.34-1.74c-0.65-0.33-1-0.08-1.18,0.46c-0.4,1.21-0.88,2.4-1.15,3.64
	c-1.03,4.7-2.7,9.2-4.38,13.68c-1.51,4.03-3.24,7.97-4.85,11.96c-2.78,6.9-5.85,13.67-9.12,20.35c-2.41,4.92-4.91,9.8-7.39,14.68
	c-0.31,0.6-0.6,1.28-1.09,1.7c-1.34,1.15-1.68,2.56-1.26,4.27c-1.01,0.99-1.99,1.95-2.96,2.9c-0.14,0.14-0.33,0.23-0.45,0.38
	c-3.79,4.61-8.11,8.77-11.56,13.66c-1.18,1.68-2.22,3.45-3.37,5.16c-2.8,4.15-5.04,8.6-7.08,13.16c-1.6,3.58-2.86,7.28-3.89,11.05
	c-0.77,2.82-1.45,5.67-2.23,8.74c-0.28-0.94-0.5-1.68-0.71-2.41c-0.13-0.47-0.4-0.97-0.33-1.41c0.35-2.05-0.56-3.77-1.14-5.64
	c-1.07-3.44-2.02-6.93-2.54-10.51c-0.2-1.36-0.66-2.62-1.07-3.92c-0.75-2.41-1.15-4.94-1.56-7.45c-0.31-1.92-0.41-3.88-0.61-5.82
	c-0.08-0.78-0.65-1.3-1.34-1.26c-0.69,0.04-1.34,0.79-1.11,1.43c1.39,3.91,1.52,8.07,2.37,12.08c0.1,0.48,0.3,0.98,0.23,1.44
	c-0.31,2.01,0.12,3.84,1.09,5.61c0.28,0.52,0.34,1.17-0.12,1.65c-0.64,0.67-0.67,1.39-0.28,2.15c0.55,1.08,0.6,2.24,0.76,3.41
	c0.5,3.58,1.1,7.14,1.63,10.71c0.24,1.63,0.91,2.78,2.68,2.77c0.73,1.82,1.47,3.52,2.09,5.26c0.19,0.52,0.14,1.16,0.07,1.73
	c-0.25,2.13-0.47,4.28-0.88,6.38c-0.29,1.52-0.95,2.96-1.3,4.47c-0.51,2.19-0.89,4.41-1.34,6.62c-0.28,1.4-0.26,2.73,0.94,3.64
	c-0.7,4.69-1.47,9.23-2.02,13.79c-0.29,2.42-0.22,4.88-0.24,7.33c-0.03,4.31-0.01,8.61-0.13,12.94c-1.76-4.93-2.29-10.1-2.9-15.35
	c0.52-0.2,1.04-0.39,1.66-0.63c-0.06-0.58-0.02-1.19-0.19-1.72c-1.35-4.2-1.91-8.58-2.88-12.86c-1.55-6.81-1.73-13.77-2.32-20.68
	c-0.36-4.18-0.47-8.41-1.7-12.47c-0.22-0.74-0.45-1.49-0.76-2.2c-0.55-1.24-0.63-1.25-2.56-1.59c-0.18-1.01-0.27-2.11-1.5-2.6
	c-0.27-0.11-0.43-0.62-0.53-0.98c-0.45-1.7-1.01-3.38-1.27-5.11c-0.75-4.83-1.6-9.64-1.79-14.55c-0.16-4.19-0.71-8.37-1.13-12.54
	c-0.11-1.06-0.37-2.12-0.62-3.16c-0.05-0.21-0.39-0.48-0.62-0.5c-0.48-0.05-0.62,0.34-0.66,0.76c-0.03,0.29-0.06,0.58-0.11,0.98
	c-0.48-0.34-0.32-0.83-0.43-1.21c-0.13-0.47-0.25-0.95-0.29-1.44c-0.24-3.12-0.47-6.24-0.69-9.37c-0.13-1.86-0.22-3.72-0.33-5.57
	c-0.48-8.02-0.54-16.05-0.22-24.08c0.04-1.07-0.03-2.15-0.12-3.21c-0.05-0.54-0.46-0.86-1.01-0.89c-0.64-0.03-1.19,0.24-1.39,0.85
	c-0.15,0.44-0.16,0.96-0.11,1.43c0.34,3.51,0.46,7.01,0.22,10.53c-0.04,0.59-0.1,1.18-0.07,1.76c0.27,5.38,0.57,10.75,0.84,16.12
	c0.05,0.96,0.01,1.92-0.21,2.93c-0.35-1.6-0.77-3.2-1.05-4.81c-1.08-6.17-1.93-12.37-2.59-18.6c-0.61-5.84-1.43-11.66-2.14-17.48
	c-0.08-0.68-0.09-1.37-0.08-2.05c0.01-3.62,0.01-7.25,0.08-10.87c0.03-1.46,0.19-2.92,0.38-4.38c0.41-3.2,0.84-6.4,1.34-9.58
	c0.23-1.44,0.55-2.89,1.49-4.08c0.5-0.63,0.94-1.28,0.6-2.14c-0.33-0.83-1.03-1.13-1.86-1.21c-0.07-0.01-0.13-0.13-0.2-0.19
	c0.2-1.01,0.2-1.01,1.14-1.68c0.21,0,0.48-0.08,0.59,0.01c1.56,1.36,3.05,1.15,4.82,0.21c5.79-3.06,11.94-5.34,17.92-7.98
	c6.26-2.76,12.68-5.15,18.74-8.37c4.22-2.25,8.57-4.27,12.82-6.46c0.94-0.48,1.75-1.23,2.57-1.92c0.24-0.2,0.28-0.63,0.48-1.15
	c-0.51,0.06-0.8,0.01-1.02,0.13c-2.86,1.5-5.68,3.08-8.58,4.51c-2.27,1.12-4.6,2.1-7.02,2.91
	C71.14,191.04,68.89,191.79,67.04,193.29L67.04,193.29z"/>
<path class="st0" d="M107.1,325.04c-0.37,0.72-1.1,1.01-1.71,0.84c-0.66-0.18-0.92-1-0.46-2c0.83-1.8,1.3-3.69,1.57-5.63
	c0.54-3.89,0.81-7.8,0.49-11.72c-0.19-2.32-0.23-4.7-1.36-6.83c-0.27,0.05-0.46,0.08-0.64,0.13c-1.52,0.46-2.02,0.25-2.43-1.06
	c-0.12-0.37-0.16-0.76-0.23-1.15c-0.55-3.3-1.8-6.38-2.92-9.51c-0.22-0.61-0.66-1.14-0.97-1.67c-2.37,0.66-3.76,2.19-4.81,4.14
	c-0.32,0.6-0.69,1.22-1.19,1.67c-0.76,0.7-1.29,1.4-1.31,2.5c-0.01,0.84-0.58,1.55-1.36,1.77c-1.64,0.47-2.64,1.66-3.55,2.93
	c-1.94,2.7-3.95,5.37-5.66,8.22c-2.58,4.27-4.8,8.74-6.61,13.39c-1.84,4.74-3.27,9.62-4.32,14.61c-0.68,3.25-1.24,6.53-1.98,9.77
	c-0.35,1.55-0.61,3.02-0.26,4.63c0.16,0.77-0.03,1.88-0.51,2.48c-1.06,1.34-1.25,2.84-1.42,4.39c-0.28,2.62-0.57,5.25-0.79,7.88
	c-0.32,3.8-0.68,7.61-0.86,11.42c-0.27,5.67-0.46,11.34-0.57,17.01c0,0.03,0,0.06,0,0.09c0.24-0.48,0.54-0.93,0.91-1.34
	c0.9-0.98,2.24-1.41,3.54-1.46c0.73-0.03,1.51,0.18,2.22,0.53c0,0,0.01,0,0.01,0.01c0.07,0.03,0.14,0.07,0.2,0.11
	c0.42,0.22,0.79,0.49,1.1,0.82l0,0l0,0c0.2,0.2,0.37,0.42,0.53,0.65c0.06,0.09,0.12,0.19,0.18,0.28c0.02,0.03,0.03,0.06,0.05,0.1
	c0.44,0.76,0.7,1.64,0.7,2.5v1.8c0,1.35-0.57,2.56-1.46,3.54c-0.9,0.98-2.24,1.41-3.54,1.46c-1.25,0.06-2.67-0.6-3.54-1.46
	c-0.39-0.39-0.7-0.88-0.95-1.39c-0.01,2.52,0,5.04,0.05,7.55c0.06,3.22,0.31,6.43,0.47,9.65c0.02,0.38-0.04,0.79,0.68,0.86
	c0.25-0.43,0.56-0.91,0.83-1.41c4.35-8.01,8.86-15.91,14.13-23.36c3-4.24,5.92-8.53,8.86-12.8c0.77-1.12,1.68-2.19,1.71-3.67
	c0.01-0.27,0.16-0.57,0.32-0.8c2.06-3,3.6-6.27,5.14-9.54c2.58-5.48,5.59-10.77,7.05-16.72c0.05-0.19,0.18-0.35,0.25-0.53
	c0.65-1.53,1.46-3.01,1.9-4.6c1.06-3.75,2.5-7.42,2.42-11.43c-0.02-0.87,0.23-1.75,0.33-2.62c0.3-2.48,0.58-4.96,0.92-7.88
	C107.77,323.44,107.49,324.27,107.1,325.04z M92.82,361.01c-0.15,0.95-0.36,1.9-0.57,2.84c-0.28,1.25-0.57,1.4-2.49,1.23
	c-0.61-1.64,0-3.37-0.03-5.05c-0.01-0.82,0.63-1.8,1.78-2.44C92.76,358.53,93.03,359.69,92.82,361.01z"/>
<path class="st0" d="M69.36,74.41c0.46-0.55,0.86-1.25,1.45-1.71c3.67-2.83,6.54-6.45,9.75-9.73c1.93-1.97,4-3.74,6.24-5.32
	c1.15-0.81,2.43-1.2,3.88-1c2.32,0.33,4.66,0.56,6.99,0.85c1.07,0.13,2.13,0.3,3.19,0.45c0.19,0.03,0.41,0,0.58,0.07
	c4.14,1.69,8.59,2.68,12.42,5.39c-0.44,1.14-1.4,1.68-2.12,2.43c-0.74,0.76-0.97,1.56-0.25,2.34c0.88,0.97,0.78,1.91,0.58,2.99
	c-0.18,0.96-0.31,1.93-0.43,2.9c-0.41,3.42-1.34,6.69-2.75,9.84c-0.56,1.24-0.91,2.58-1.33,3.88c-0.41,1.28-0.49,2.5,0.74,3.46
	c0.2,0.16,0.27,0.5,0.4,0.76c-0.3,0.64-0.84,0.33-1.27,0.35c-0.58,0.03-1.19-0.09-1.75,0c-5.25,0.86-10.54,0.49-15.82,0.54
	c-1.57,0.01-3.13,0-4.7-0.01c-0.59,0-1.18-0.02-1.76-0.08c-2.8-0.29-4.04-1.35-4.46-4.15c-0.12-0.81-0.16-1.67-0.83-2.07
	c-1.83-1.07-2.4-3.04-3.53-4.6c-0.91-1.26-1.55-2.72-2.42-4.02C71.34,76.79,70.38,75.7,69.36,74.41z"/>
<path class="st0" d="M90.83,161.13c-2.14-1.29-3.39-3.45-5.03-5.23c-3.71-4.03-7.33-8.14-11.08-12.13c-1.12-1.19-2.52-2.16-3.9-3.07
	c-2.12-1.39-4.41-2.54-6.48-4c-0.79-0.56-1.5,0.12-2.17-0.36c-0.54-0.39-1.18-0.65-1.79-0.95s-1.3-0.49-1.82-0.89
	c-2.69-2.1-5.36-4.24-7.99-6.42c-0.89-0.73-1.87-1.49-1.76-2.89c-1.92-0.21-3.11-1.46-4.19-2.87c-1.56-2.05-2.43-4.46-3.44-6.79
	c-0.59-1.34-0.9-2.82-1.59-4.1c-0.97-1.78-0.91-3.6-0.51-5.41c0.37-1.71,1.01-3.37,1.6-5.02c0.15-0.43,0.54-0.77,0.9-1.27
	c1.06,1.07,0.5,2.35,0.93,3.28c-0.18,0.28-0.24,0.5-0.39,0.6c-1.01,0.76-1.05,1.66-0.77,2.85c0.67,2.92,1.96,5.54,3.68,7.93
	c3.61,5.01,7.47,9.8,12.26,13.79c2.63,2.19,5.13,4.53,7.7,6.79c0.97,0.85,2.04,1.44,3.41,1.54c0.85,0.06,1.7,0.43,2.51,0.74
	c1.74,0.66,1.73,0.68,4.26,0.43c0.24-0.5-0.13-0.63-0.47-0.81c-2.07-1.08-4.13-2.18-6.08-3.61c0.41,0.06,0.86,0.03,1.22,0.19
	c1.78,0.8,3.61,1.53,5.3,2.5c3.94,2.24,8.14,3.78,12.47,5.02c1.45,0.41,2.93,0.69,4.34,0.31c1.4-0.38,2.67-0.2,4,0.12
	c3.24,0.79,6.51,1.27,9.87,1.29c2.43,0.02,4.86,0.47,7.3,0.53c2.43,0.06,4.85-0.03,7.3-0.49c2.72-0.51,4.98-1.62,6.99-3.44
	c1.23-1.11,2.33-2.39,3.92-3.03c0.17-0.07,0.37-0.06,0.78-0.13c-0.33,0.67-0.6,1.23-0.89,1.78c-0.28,0.52-0.55,1.04-0.89,1.52
	c-1.73,2.48-3.42,5.01-5.25,7.41c-1.18,1.55-2.54,2.98-3.9,4.38c-3.69,3.77-7.4,7.54-11.58,10.79c-1.93,1.5-3.87,2.99-5.8,4.48
	c-0.46,0.36-1.05,0.65-1.33,1.12c-1.09,1.85-3.06,2.29-4.86,3.36c-0.96-1.84-1.97-3.51-2.71-5.28c-1.25-3-3.04-5.68-4.73-8.42
	c-0.57-0.91-1.1-1.85-1.66-2.76c-0.2-0.32-0.39-0.74-0.69-0.89c-0.27-0.14-0.74-0.05-1.04,0.11c-0.15,0.08-0.26,0.6-0.15,0.77
	c1.12,1.83,2.3,3.63,3.45,5.44c0.26,0.41,0.47,0.85,0.71,1.28L90.83,161.13z"/>
<path class="st0" d="M107.38,22.27c0.73,0.2,1.57,0.43,2.41,0.67c1.72,0.5,3.37,1.09,4.12,2.94c2.52,2.46,3.84,5.6,5.01,8.84
	c0.53,1.48,1.2,2.96,2.49,3.91c1.37,0.99,2.03,2.32,2.39,3.6c-0.42,2.03-0.81,3.83-1.14,5.63c-0.47,2.49-0.91,4.99-1.32,7.49
	c-0.11,0.67-0.11,1.37-0.08,2.05c0.02,0.75,0.42,1.28,1.36,1.56c0.5-0.52,1.07-1.1,1.66-1.71c0.45,0.61,0.18,1.13-0.14,1.39
	c-0.86,0.74-1.7,1.57-3.08,1.25c-0.5-0.12-1.2,0.13-1.66,0.43c-1.77,1.14-3.47,0.75-5.26,0.05c-1.56-0.61-3.05-1.26-4.25-2.31
	c-0.17-0.88,0.6-1.02,0.89-1.48c0.35-0.55,0.03-1.33-0.57-1.33c-1.47,0.01-2.94-0.01-4.4,0.13c-1.7,0.16-3.27-0.13-4.87-0.74
	c-3.93-1.49-7.9-2.85-11.92-4.29c-1.65-2.45-0.07-4.8,0.48-7.34c-1.24-1.2-1.16-2.71-0.77-4.29c0.4-1.61,0.78-3.22,1.1-4.84
	c0.47-2.39,1.93-4.07,3.95-5.2c3.22-1.8,6.52-3.45,9.82-5.1c0.57-0.29,1.32-0.2,1.95-0.4C106.08,23.03,106.55,22.7,107.38,22.27z
	 M90.47,49.34c0.94-0.04,0.98-0.66,0.83-1.21c-0.19-0.69-0.67-1.12-1.67-0.71C89.92,48.08,90.21,48.73,90.47,49.34z"/>
<path class="st0" d="M93.62,127.24c-0.59-0.72-1.02-1.23-1.4-1.69c1.18-2.81,1.17-2.78-1.64-3.84c-0.81-0.3-1.66-0.69-2.29-1.26
	c-2.47-2.22-4.89-4.5-7.26-6.82c-1.89-1.86-2.52-4.11-1.76-6.71c0.22-0.75,0.38-1.53,0.41-2.3c0.17-3.4,2.4-5.68,4.39-8.07
	c0.28-0.33,1.23-0.52,1.59-0.3c2.46,1.46,4.97,0.29,7.44,0.26c0.57-0.01,1.15-0.33,1.72-0.31c4.31,0.1,8.55-0.67,12.84-0.83
	c0.73-0.03,1.57,0.2,2.2,0.59c2.92,1.78,5.77,3.66,8.65,5.5c0.82,0.53,1.69,1.02,1.84,2.27c-0.56,1.12-1.18,2.33-1.76,3.56
	c-0.83,1.77-1.58,3.57-2.45,5.32c-1.31,2.61-2.69,5.19-4.06,7.8c-2.83,0.45-5.51,0.91-8.2,1.29c-0.95,0.13-1.73,0.43-2.08,1.36
	c-0.36,0.97-1.22,1.33-2.02,1.53C97.58,125.12,95.39,125.59,93.62,127.24z"/>
<path class="st0" d="M109.71,90.49c0.13-1.59,1.75-1.05,2.55-2.01c0.39-6.79,2.52-13.4,4.21-19.99c3.86-2.19,7.58-4.31,11.3-6.42
	c1.1-0.62,1.1-0.63,1.43-2.23c0.91,0.43,1.31,0.92,0.99,2.04c-0.37,1.27,0.01,1.81,1.18,2.25c0.82,0.31,1.68,0.49,2.48,0.84
	c2.98,1.31,4.97,3.74,6.89,6.22c0.38,0.49,0.53,1.25,0.55,1.9c0.03,1.07-0.04,2.16-0.24,3.21c-0.71,3.74-1.5,7.47-2.26,11.2
	c-0.66,3.24-1.33,6.48-1.99,9.69c-5.15,2.84-9.35,4.78-13.21,5.04c-1.22-1.61-2.59-3.26-3.79-5.02c-1.24-1.81-2.78-3.29-4.48-4.61
	C113.69,91.32,111.87,90.38,109.71,90.49z"/>
<path class="st0" d="M146.51,109.53c-0.72,1.36-1.35,2.65-2.32,3.77c-1.53,1.78-2.98,3.62-4.46,5.44c-0.76,0.94-1.68,1.78-2.88,1.85
	c-1.15,0.06-2.05,0.38-2.88,1.16c-0.97,0.91-2.19,1.23-3.52,1.17c-0.76-0.03-1.52,0.04-2.36,0.07c-0.28,0.84-0.52,1.55-0.76,2.25
	c-0.2,0-0.43,0.07-0.57-0.01c-1.41-0.88-2.78-1.81-4.19-2.68c-1.9-1.17-3.82-2.31-5.86-3.53c0.46-1.39,0.8-2.82,1.41-4.13
	c0.94-2.04,2.11-3.96,2.58-6.19c0.14-0.68,0.68-1.11,1.37-1.41c3.55-1.6,7.1-3.21,10.61-4.91c1.56-0.76,3.02-1.73,4.5-2.59
	c0.22,0.11,0.46,0.14,0.55,0.28c2.08,3.26,5.26,5.49,7.78,8.33C145.82,108.74,146.13,109.1,146.51,109.53z"/>
<path class="st0" d="M153.88,92.84c-1.46,3.83-2.91,7.67-4.37,11.5c-0.1,0.27-0.25,0.52-0.38,0.78c-2.64-0.53-3.54-1.13-9.23-6.13
	c0.44-1.23,1.33-2.21,2.29-3.16c-0.57-5.03,0.49-9.97,0.61-14.96c0.04-1.63,0.63-3.25,0.94-4.89c0.18-0.93,0.79-1.8,0.24-2.83
	c-0.13-0.24,0.09-0.76,0.3-1.04c0.42-0.58,0.61-1.18,0.67-1.89c0.04-0.43,0.31-0.94,0.64-1.24c2.13-2,4.3-3.97,6.49-5.9
	c0.33-0.29,0.86-0.35,1.4-0.55c1.61,2.28,1.22,4.96,1.92,7.34c0.73,2.48,0.63,5.05,0.46,7.58c-0.16,2.43-0.44,4.85-1.15,7.21
	c-0.72,2.41-1.8,4.71-2.34,7.24c0.58,0.38,1.05,0.7,1.52,1C153.88,92.89,153.88,92.84,153.88,92.84z"/>
<path class="st0" d="M113.71,139.31c-1.04,0.92-2.18,0.54-3.21,0.61c-1.07,0.07-2.1,0.2-3.16,0.38c-1.71,0.29-3.53,0.34-5.24,0.09
	c-4.26-0.62-8.41-1.81-12.56-2.93c-0.72-0.19-1.56-0.34-1.98-1.38c0.63-0.35,1.29-0.7,1.93-1.08c1.01-0.6,1.98-1.2,2.54-2.34
	c0.87-1.77,2.49-2.71,4.21-3.49c1.06-0.49,2.12-0.98,3.18-1.5c0.88-0.43,1.74-0.79,2.74-0.94c1.63-0.25,3.2-0.82,4.82-1.2
	c1.04-0.24,2.11-0.42,3.17-0.56c1.07-0.14,2.14-0.2,3.14-0.29c0.97-0.93,1.88-1.79,2.76-2.63c1.57,0.31,2.48,0.99,3.18,2.4
	c1.54,3.11,4.34,4.77,7.7,5.19c1.54,0.19,2.73,0.7,3.97,1.64c-2.17,2.65-5.04,3.81-8.07,4.64c-3.51,0.97-7.14,1.16-10.76,1.37
	c-3.53,0.2-7.04,0.03-10.55-0.28c-0.97-0.09-1.95-0.04-2.93,0.02c-0.22,0.01-0.62,0.41-0.58,0.48c0.13,0.31,0.37,0.6,0.62,0.83
	c0.12,0.11,0.37,0.1,0.57,0.11C103.98,138.73,108.77,139.01,113.71,139.31z"/>
<path class="st0" d="M139.51,41.75c2.72,2.99,5.47,5.89,8.06,8.92c1.06,1.24,1.76,2.79,2.67,4.17c0.63,0.97,1.33,1.9,2.04,2.92
	c-2.46,3.88-5.89,6.62-10.59,7.9c0.16,0.69,0.32,1.39,0.61,2.67c-2.88-2.67-5.39-4.91-7.8-7.25c-2.38-2.31-5.2-4.04-7.79-6.05
	c-0.57-3.37,0.35-6.61,0.72-9.89c0.07-0.57,0.32-1.13,0.51-1.68c0.32-0.93,0.95-1.44,1.98-1.4c2.34,0.09,4.69,0.05,7,0.31
	C137.82,42.48,138.39,42.06,139.51,41.75z"/>
<path class="st0" d="M134.01,36.75c-2.9,1.51-5.57,0.43-8.07,0.8c-2.8-2.37-4.16-5.43-4.86-8.87c0.49-0.46,0.88-0.02,1.28,0.18
	C126.44,30.96,129.95,33.89,134.01,36.75z"/>
<path class="st0" d="M61.1,403.94c0.69,2.11,0.47,4.07,0.59,6.01c0.17,2.72,0.36,5.44,0.6,8.15c0.06,0.66,0.39,1.29,0.65,2.12
	c-0.98,1.95-2.03,4.02-3.13,6.22c-0.73-0.39-1.31-0.7-1.88-1c0.46-2.63,0.9-5.11,1.32-7.6c0.11-0.67,0.14-1.35,0.25-2.02
	c0.13-0.76,0.18-1.56,0.48-2.25c0.76-1.76,0.92-3.57,0.71-5.44C60.53,406.77,60.29,405.4,61.1,403.94z"/>
<path class="st0" d="M31.04,281.05c0.85,1.15,0.92,2.55,1.15,3.87c1.65,9.51,3.25,19.02,5.57,28.4c0.05,0.19,0.16,0.35,0.24,0.53
	l0.03-0.05c-0.64-0.17-0.96-0.67-1.1-1.25c-1.06-4.45-2.12-8.89-3.16-13.35c-1.36-5.8-1.85-11.73-2.56-17.62
	c-0.02-0.19-0.12-0.37-0.18-0.55L31.04,281.05z"/>
<path class="st0" d="M8.21,589.59c-1.18,3.64-2.19,7.32-2.53,11.2c0.58-1.43,1.17-2.86,1.74-4.29
	C7.42,594.14,7.7,591.84,8.21,589.59z"/>
<path class="st0" d="M67.43,130.95c-1.64-0.4-2.71-0.54-3.67-0.94c-0.78-0.32-1.54-0.85-2.1-1.48c-1.22-1.36-2.33-2.82-3.44-4.27
	c-0.59-0.76-1.1-1.58-1.62-2.4c-0.13-0.2-0.15-0.48-0.23-0.73c0.2-0.03,0.33-0.08,0.37-0.05C60.15,124.21,63.55,127.36,67.43,130.95
	z"/>
<path class="st0" d="M150.48,558.12c0.67,2.16,1.18,4.4,2.28,6.89c0.02-0.34,0.05-0.58,0.07-0.77
	C152.04,562.21,151.25,560.17,150.48,558.12z"/>
<path class="st0" d="M139.33,132.77c0.29,4.25-0.55,8.34-1.48,12.46c-0.25-2.37-0.54-4.73-0.75-7.1c-0.14-1.67,0.03-3.32,0.73-4.86
	C138.04,132.82,138.37,132.46,139.33,132.77z"/>
<path class="st0" d="M130.76,127.49c0.14-0.12,0.3-0.37,0.41-0.34c0.62,0.14,1.28,0.58,1.83,0.46c1.13-0.26,2.15-0.87,2.89-1.84
	c0.71-0.93,1.7-1.49,2.57-2.17c1.06,0.87,0.51,1.68,0.22,2.58c-0.73,0.47-1.96-0.36-2.51,0.77c-0.4,0.84-0.76,1.7-1.2,2.68
	C133.86,128.23,131.72,129.11,130.76,127.49z"/>
<path class="st0" d="M94.87,171.96c-0.28-0.2-0.56-0.31-0.71-0.52c-0.72-1.02-1.45-2.05-2.08-3.14c-0.11-0.2,0.13-0.7,0.34-0.95
	c0.1-0.11,0.61-0.05,0.78,0.1C94.05,168.26,94.76,170.23,94.87,171.96z"/>
<path class="st0" d="M106.46,292.45c-1.17-1.92-2.35-3.84-3.49-5.78c-0.11-0.19,0.03-0.52,0.06-0.8c0.24,0.06,0.48,0.06,0.54,0.16
	c1.14,2.01,2.25,4.03,3.37,6.04C106.77,292.2,106.61,292.32,106.46,292.45z"/>
<path class="st0" d="M47.62,338.74c0.38,2.75,0.76,5.51,1.18,8.58C47.74,344.98,47.36,342.8,47.62,338.74z"/>
<path class="st0" d="M67.91,328.36c0.79-2.24,1.57-4.48,2.36-6.73C70.05,324.08,69.4,326.39,67.91,328.36z"/>
<path class="st0" d="M114.44,141.71c2-1.36,4.03-0.33,5.97-1.67c-0.35,0.59-0.41,0.81-0.51,0.83
	C118.23,141.14,116.55,141.39,114.44,141.71z"/>
<path class="st0" d="M104.8,622.16c0.12-0.14,0.21-0.37,0.35-0.39c1.43-0.22,2.86-0.42,4.89-0.7
	C106.95,622.38,106.11,622.53,104.8,622.16z"/>
<path class="st0" d="M116.38,97.87c-0.75-0.53-1.51-1.06-2.22-1.56c0.25-0.83,0.76-0.85,1.15-0.52c0.57,0.49,1.02,1.11,1.52,1.68
	C116.68,97.61,116.53,97.74,116.38,97.87z"/>
<path class="st0" d="M102.19,282.82c-0.47-0.03-0.83,0.06-0.98-0.08c-0.6-0.56-0.45-1.19,0.01-1.87
	C101.97,281.16,101.96,281.86,102.19,282.82z"/>
<path class="st0" d="M66.86,335.23c-0.19,0.64-0.38,1.27-0.57,1.91c-0.18,0.6-0.37,1.19-0.74,2.34
	C65.47,337.48,65.83,336.25,66.86,335.23C66.86,335.24,66.86,335.23,66.86,335.23z"/>
<path class="st0" d="M39.13,303.55c0-0.92,0-1.83,0-2.75c0.03,0,0.06,0,0.1,0c0.04,0.92,0.08,1.83,0.13,2.75
	C39.28,303.54,39.2,303.55,39.13,303.55z"/>
<path class="st0" d="M58.41,433.18c0-0.85,0.05-1.5,0.79-1.99C59.37,431.99,59.5,432.7,58.41,433.18z"/>
<path class="st0" d="M117.42,138.77c0.53-0.07,1.06-0.15,2.06-0.28c-0.94,0.36-1.43,0.55-1.92,0.73
	C117.51,139.07,117.46,138.92,117.42,138.77z"/>
<path class="st0" d="M60.81,336.54c-0.12-0.49-0.24-0.99-0.45-1.84C61.29,335.37,60.94,335.99,60.81,336.54z"/>
<path class="st0" d="M102.32,272.28c0.3-0.57,0.6-1.14,1.07-2.02c0.15,1.29-0.23,1.81-1.13,1.96L102.32,272.28z"/>
<path class="st0" d="M62.63,359.67c0-0.33,0-0.67,0-1c0.05,0,0.09,0,0.14,0c0,0.34,0,0.67,0,1.01
	C62.72,359.67,62.67,359.67,62.63,359.67z"/>
<path class="st0" d="M66.86,335.24c-0.09-1.05-0.48-2.15,0.49-3.03l0.02-0.02C67.19,333.2,67.03,334.22,66.86,335.24
	C66.86,335.23,66.86,335.24,66.86,335.24z"/>
<path class="st0" d="M86.4,625.48c0.31,0,0.59,0,0.86,0c-0.21,0.05-0.42,0.12-0.63,0.15C86.57,625.64,86.5,625.55,86.4,625.48z"/>
<path class="st0" d="M129.85,124.34c0.16,0.17,0.34,0.28,0.35,0.39c0.01,0.33-0.55,0.62-0.85,0.43c-0.12-0.07-0.21-0.43-0.16-0.47
	C129.38,124.53,129.63,124.44,129.85,124.34z"/>
<path class="st0" d="M71.08,623.71c0.26,0,0.52,0,0.77,0c0.01,0.05,0.01,0.1,0.02,0.16c-0.27,0.03-0.55,0.06-0.82,0.09
	C71.06,623.88,71.07,623.8,71.08,623.71z"/>
<path class="st0" d="M41.69,495.74c-0.61-0.92-0.43-1.73,0.38-2.42l0.06-0.03c-0.65,0.7-0.43,1.58-0.5,2.41
	C41.65,495.71,41.69,495.74,41.69,495.74z"/>
<path class="st0" d="M114.12,620.89c0.11-0.15,0.22-0.3,0.33-0.45c0.06-0.07,0.12-0.16,0.2-0.2c0.07-0.03,0.16,0.01,0.25,0.01
	c-0.15,0.07-0.31,0.11-0.44,0.21C114.32,620.59,114.23,620.75,114.12,620.89L114.12,620.89z"/>
<path class="st0" d="M114.11,620.9c-0.52,0-1.05,0-1.57,0c0.01-0.11,0.02-0.21,0.03-0.32C113.09,620.68,113.6,620.79,114.11,620.9
	C114.12,620.89,114.11,620.9,114.11,620.9z"/>
<path class="st0" d="M120.18,64.26c0.27-0.29,0.54-0.59,1.01-1.09c-0.12,1.04-0.56,1.09-1.08,1.01L120.18,64.26z"/>
<path class="st0" d="M57.13,73.8c0.08,0.01,0.16,0.02,0.24,0.04c-0.07,0.13-0.1,0.3-0.21,0.38c-0.07,0.05-0.24-0.04-0.36-0.07
	C56.91,74.03,57.02,73.91,57.13,73.8z"/>
<polygon class="st0" points="74.85,623.81 74.62,623.78 74.78,623.74 "/>
<path class="st0" d="M120.1,64.19c-0.17,0.2-0.32,0.42-0.51,0.59c-0.06,0.05-0.24-0.03-0.37-0.05c0.05-0.07,0.1-0.18,0.17-0.21
	c0.26-0.1,0.52-0.17,0.79-0.25C120.18,64.26,120.1,64.19,120.1,64.19z"/>
<path class="st0" d="M77.12,626.25c-0.15-0.06-0.3-0.12-0.46-0.18c0.08-0.05,0.16-0.15,0.23-0.13c0.16,0.03,0.32,0.12,0.47,0.18
	C77.29,626.17,77.21,626.21,77.12,626.25z"/>
<path class="st0" d="M82.17,176.09c-0.62,0.37-0.99,0.18-1.28-0.64c0.53,0.28,0.91,0.47,1.28,0.66V176.09z"/>
<path class="st0" d="M74.25,626.03c0.09,0.01,0.18,0.01,0.26,0.02c-0.1,0.06-0.19,0.13-0.3,0.16c-0.06,0.02-0.14-0.05-0.21-0.08
	C74.09,626.09,74.17,626.06,74.25,626.03z"/>
<path class="st0" d="M38,313.85c0,0.32,0,0.64,0,0.96c-0.06-0.01-0.12-0.02-0.19-0.03c0.06-0.32,0.13-0.64,0.2-0.97
	C38.02,313.81,38,313.85,38,313.85z"/>
<path class="st0" d="M153.96,90.82c0.13-0.12,0.25-0.25,0.39-0.35c0.07-0.04,0.17-0.03,0.26-0.04c-0.04,0.07-0.07,0.18-0.14,0.21
	C154.32,90.72,154.14,90.76,153.96,90.82L153.96,90.82z"/>
<path class="st0" d="M67.34,332.21c0-0.28,0-0.55,0-0.83c0.01,0,0.01,0,0.02,0c0,0.26,0,0.53,0,0.8
	C67.36,332.19,67.34,332.21,67.34,332.21z"/>
<path class="st0" d="M31.03,281.03c0-0.29,0-0.57,0-0.86c0.02,0,0.04,0,0.05,0c-0.01,0.29-0.03,0.58-0.04,0.87
	C31.04,281.05,31.03,281.03,31.03,281.03z"/>
<path class="st0" d="M147.36,110.87c0.07,0.05,0.14,0.1,0.2,0.15c-0.01-0.12-0.02-0.24-0.02-0.36c-0.06,0.06-0.12,0.13-0.17,0.19
	L147.36,110.87z"/>
<polygon class="st0" points="38.68,317.12 38.51,317.13 38.59,316.9 "/>
<path class="st0" d="M153.96,90.81c-0.03,0.66-0.07,1.33-0.09,2.01c0.01,0.02,0.01,0.07,0.01,0.08
	C153.91,92.22,153.94,91.52,153.96,90.81C153.96,90.82,153.96,90.81,153.96,90.81z"/>
<path class="st0" d="M147.37,110.86c0.08,0.15,0.17,0.29,0.24,0.45c0.03,0.07,0.04,0.16,0.06,0.24c-0.06-0.07-0.15-0.12-0.18-0.2
	c-0.06-0.15-0.08-0.31-0.11-0.47C147.36,110.87,147.37,110.86,147.37,110.86z"/>
<path class="st0" d="M55.05,119.49c0.05,0.02,0.14,0.04,0.14,0.07c0.01,0.06-0.03,0.13-0.04,0.19c-0.05-0.02-0.15-0.04-0.15-0.06
	C54.99,119.63,55.03,119.56,55.05,119.49z"/>
<path class="st0" d="M102.26,272.22c0,0.21,0,0.42,0.01,0.63c-0.05-0.04-0.15-0.1-0.14-0.12c0.06-0.15,0.14-0.3,0.21-0.45
	C102.32,272.28,102.26,272.22,102.26,272.22z"/>
<polygon class="st0" points="49.69,84.1 49.89,84.1 49.78,84.35 "/>
<path class="st0" d="M42.07,493.32c-0.04-0.13-0.07-0.27-0.11-0.4c-0.01,0.07-0.04,0.14-0.01,0.19c0.03,0.07,0.11,0.12,0.17,0.17
	C42.13,493.28,42.07,493.32,42.07,493.32z"/>
<path class="st0" d="M89.35,53.18c0.16,0.01,0.33,0.03,0.49,0.04c-0.14-0.04-0.27-0.08-0.42-0.12
	C89.42,53.11,89.35,53.18,89.35,53.18z"/>
<path class="st0" d="M64.93,193.44c-0.06,0.03-0.11,0.06-0.17,0.09c0.09,0.02,0.17,0.04,0.26,0.06c-0.03-0.05-0.06-0.11-0.08-0.17
	C64.95,193.43,64.93,193.44,64.93,193.44z"/>
<path class="st0" d="M67.03,193.3c-0.7,0.05-1.39,0.09-2.09,0.14c-0.01,0,0.01-0.01,0-0.01C65.64,193.38,66.34,193.34,67.03,193.3
	C67.04,193.29,67.03,193.3,67.03,193.3z"/>
<polygon class="st0" points="87.88,179.23 87.67,179.29 87.7,179.12 "/>
<path class="st0" d="M89.84,177.54c-0.02,0.18-0.03,0.36-0.07,0.53c-0.01,0.03-0.17,0.03-0.26,0.04c0.13-0.17,0.27-0.34,0.4-0.52
	C89.91,177.6,89.84,177.54,89.84,177.54z"/>
<path class="st0" d="M89.91,177.6c0.46-0.13,0.92-0.26,1.38-0.38l-0.07-0.08c-0.3,0.64-0.83,0.54-1.37,0.41
	C89.84,177.54,89.91,177.6,89.91,177.6z"/>
<path class="st0" d="M91.3,177.21c0.07-0.14,0.13-0.29,0.22-0.43c0.02-0.03,0.14,0.02,0.22,0.04c-0.17,0.1-0.34,0.21-0.51,0.31
	C91.23,177.14,91.3,177.21,91.3,177.21z"/>
<path class="st0" d="M82.17,176.11c0.03,0.65,0.06,1.3,0.08,1.95c0,0.01,0.01-0.05,0.01-0.04c-0.04-0.63-0.07-1.27-0.09-1.93V176.11
	z"/>
<path class="st0" d="M133.45,125.4c-0.07-0.02-0.19-0.04-0.19-0.07c0-0.08,0.02-0.18,0.07-0.24c0.03-0.03,0.14,0.03,0.22,0.05
	C133.51,125.23,133.48,125.32,133.45,125.4z"/>
<path class="st0" d="M90.75,161.2c0.1,0.15,0.2,0.29,0.3,0.44c-0.53,0.04-0.25-0.29-0.23-0.5C90.83,161.13,90.75,161.2,90.75,161.2z
	"/>
<path d="M38.31,573.61c0.11-0.91,0.11-0.91,1.01-1.5C39.23,572.93,39.23,572.93,38.31,573.61z"/>
<polygon points="133.44,596.58 133.23,596.57 133.34,596.34 "/>
<path d="M67.02,512.65c-0.15,0.63-0.2,1.32-0.47,1.89c-0.36,0.75-0.89,0.59-1.46-0.14c0.41-0.63,0.85-1.32,1.29-2
	C66.59,512.49,66.8,512.57,67.02,512.65z"/>
<polygon points="94.52,426.83 94.6,427.09 94.38,427.07 "/>
<path d="M90.47,49.34c-0.27-0.61-0.55-1.25-0.84-1.92c1-0.41,1.48,0.02,1.67,0.71C91.45,48.68,91.41,49.29,90.47,49.34z"/>
</svg>
