<?xml version="1.0" encoding="utf-8"?>
<!-- Generator: Adobe Illustrator 27.9.0, SVG Export Plug-In . SVG Version: 6.00 Build 0)  -->
<svg version="1.1" id="Warstwa_1" xmlns="http://www.w3.org/2000/svg" xmlns:xlink="http://www.w3.org/1999/xlink" x="0px" y="0px"
	 viewBox="0 0 282.97 715.72" style="enable-background:new 0 0 282.97 715.72;" xml:space="preserve">
<style type="text/css">
	.st0{fill:#FFFFFF;}
</style>
<g>
	<g>
		<path class="st0" d="M201.37,783.31c0.56-0.13,1.11-0.35,1.67-0.36c2.32-0.04,4.63-0.03,6.95,0.01c0.5,0.01,0.99,0.23,1.48,0.35
			C208.1,783.31,204.74,783.31,201.37,783.31z"/>
		<path d="M106.56,0.01c-0.09,0.45-0.19,0.9-0.28,1.34c-0.16,0-0.32,0.01-0.47,0.01c-0.14-0.45-0.27-0.9-0.41-1.36
			C105.78,0.01,106.17,0.01,106.56,0.01z"/>
		<path d="M199.45,448.79c0.18,0.87,0.44,1.49,0.41,2.11c-0.09,2.21-0.57,4.34-1.63,6.32c-0.09,0.17-0.19,0.35-0.23,0.53
			c-0.48,2.54-0.95,5.07-1.42,7.61c-0.06,0.31-0.19,0.69-0.08,0.95c0.86,2.02-0.07,3.94-0.29,5.89c-0.1,0.89-0.31,1.79-0.26,2.67
			c0.21,3.98,0.18,7.96-0.18,11.93c-0.05,0.51,0.04,1.02,0.04,1.54c0,0.65,0.13,1.33-0.05,1.93c-1.25,4.18-1.31,8.53-1.77,12.82
			c-0.11,1.01,0.03,2.06,0.09,3.09c0.3,5.16,0.69,10.32,0.89,15.49c0.14,3.61-0.03,7.23,0.06,10.84c0.04,1.54,0.19,3.12,0.63,4.58
			c0.84,2.78,1.95,5.48,2.9,8.23c0.99,2.87,1.87,5.78,2.91,8.63c1.31,3.58,2.71,7.12,4.14,10.65c0.38,0.95,1.04,1.78,1.55,2.68
			c0.72,1.28,0.71,1.92-0.37,2.91c-0.63,0.58-0.73,1.11-0.56,1.88c0.52,2.35,1.18,4.63,2.53,6.67c0.46,0.7,0.82,1.47,1.16,2.24
			c0.46,1.03,1.12,1.74,2.12,2.39c0.96,0.62,1.66,1.76,2.28,2.79c1.51,2.48,2.82,5.08,4.36,7.55c1.78,2.85,3.69,5.62,5.57,8.4
			c1.52,2.25,3.07,4.46,4.61,6.69c1.42,2.07,1.39,2.5-0.59,4.49c0.79,1.83,1.62,3.77,2.48,5.7c0.87,1.94,1.76,3.87,2.67,5.8
			c1.64,3.44,3.25,6.89,4.97,10.3c0.68,1.34,1.21,2.55,0.25,3.99c-0.22,0.33-0.13,1.01,0.04,1.44c0.55,1.45,1.2,2.86,1.8,4.29
			c2.68,6.3,5.21,12.67,8.27,18.81c1.52,3.06,2.6,6.34,4.07,9.43c1.19,2.5,2.7,4.84,4.04,7.27c0.87,1.58,1.72,3.19,2.52,4.81
			c0.22,0.45,0.33,0.99,0.36,1.49c0.05,0.96-0.77,1.94-1.69,2.06c-0.97,0.13-1.58-0.34-1.95-1.23c-0.49-1.18-1.04-2.34-1.61-3.62
			c-0.42,0.15-0.74,0.19-0.98,0.35c-1.04,0.73-1.01,1.03-0.15,1.92c0.46,0.49,0.91,1.1,1.09,1.73c0.39,1.36-0.29,2.52-1.64,3.06
			c-1.62,0.65-3.27,1.23-4.86,1.94c-1.35,0.6-2.64,1.36-3.96,2.03c-0.46,0.23-0.93,0.57-1.41,0.62c-3.05,0.32-5.18,2.53-7.8,3.73
			c-2.4,1.1-4.7,2.41-7.05,3.61c-1.55,0.79-3.17,1.47-4.67,2.34c-0.96,0.56-1.74,0.55-2.41-0.26c-1.21-1.45-2.5-1.33-3.95-0.42
			c-0.43,0.27-0.94,0.47-1.44,0.56c-3.11,0.61-6.21,1.24-9.33,1.74c-2.54,0.41-5.11,0.66-7.67,0.95c-0.85,0.1-1.48,0.38-1.63,1.34
			c-0.18,1.1-0.85,1.32-1.94,1.36c-1.86,0.06-3.71,0.48-5.57,0.68c-3.01,0.32-6.03,0.58-9.04,0.89c-3.85,0.4-7.7,0.88-11.56,1.24
			c-2.12,0.2-4.26,0.17-6.38,0.36c-2.25,0.2-4.49,0.52-6.73,0.84c-2.62,0.38-5.23,0.84-7.85,1.25c-0.67,0.1-1.31-0.01-1.61-0.75
			c-0.64-1.55-2.03-1.71-3.26-1.3c-4.74,1.59-9.5,0.52-14.24,0.24c-2.9-0.17-5.79-0.5-8.68-0.83c-3.72-0.42-7.44-0.91-11.16-1.36
			c-3.02-0.36-6.07-0.54-9.05-1.09c-4.06-0.75-8.2-1.13-12.09-2.72c-1.18-0.48-2.51-0.59-3.74-0.96c-1.04-0.31-2-0.88-3.05-1.1
			c-5.88-1.24-11.78-2.39-17.66-3.62c-1.7-0.36-3.37-0.88-5.05-1.32c-0.25-0.07-0.5-0.17-0.75-0.17c-2.81-0.02-5.18-1.33-7.59-2.55
			c-1.09-0.55-2.24-1.06-3.42-1.32c-3.36-0.72-6.67-1.56-9.78-3.05c-0.45-0.22-1.01-0.19-1.51-0.32c-0.5-0.12-1.1-0.16-1.46-0.47
			c-1.23-1.04-2.59-1.77-4.05-2.44c-1.09-0.5-1.23-2.3-0.35-3.21c1.3-1.33,2.22-2.84,2.58-4.67c0.01-0.06,0.03-0.13,0.07-0.18
			c1.2-1.52,1.8-3.36,2.68-5.05c0.59-1.14,1.4-2.18,1.94-3.35c1.9-4.1,3.68-8.26,5.6-12.35c1.29-2.75,2.78-5.4,4.11-8.12
			c0.45-0.91,0.63-1.96,1.03-2.9c0.78-1.83,1.62-3.64,2.46-5.45c0.3-0.64,0.76-1.22,0.97-1.89c0.15-0.49,0.17-1.17-0.05-1.6
			c-0.54-1.04-0.15-1.88,0.32-2.74c1.59-2.88,3.21-5.75,4.8-8.63c1.15-2.09,2.16-4.26,3.46-6.25c0.83-1.27,2.03-2.31,3.17-3.35
			c0.52-0.48,1.41-0.73,1.93-0.1c0.34,0.41,0.34,1.18,0.3,1.78c-0.03,0.49-0.35,0.95-0.54,1.41c1.2,0.95,1.2,0.95,2.35-0.87
			c2.02,0.71,4.05,1.51,6.13,2.14c4.38,1.33,8.8,2.54,13.19,3.84c1.59,0.47,3.12,1.15,4.73,1.54c2.53,0.61,5.09,1.1,7.74,1.02
			c1.1-0.03,2.27,0.17,3.29,0.57c0.91,0.36,1.73,0.25,2.63,0.27c2.19,0.06,4.38,0.31,6.57,0.48c1.46,0.11,2.92,0.17,4.37,0.36
			c1.79,0.23,3.57,0.57,5.35,0.84c0.94,0.14,1.95,0.5,2.83,0.31c2.79-0.59,5.43,0.88,8.19,0.42c0.99-0.16,2.07,0.33,2.97-0.49
			c0.14-0.13,0.49-0.04,0.74-0.02c4.11,0.33,8.13-0.23,12.13-1.11c0.95-0.21,1.75-0.41,2.85,0.32c0.94,0.62,2.62,0.31,3.94,0.16
			c4.17-0.48,8.33-1.07,12.5-1.63c1.6-0.21,3.18-0.51,4.78-0.65c5.6-0.47,10.84-2.37,16.15-3.97c3.88-1.17,7.74-2.4,11.63-3.56
			c3.64-1.09,7.31-2.08,10.95-3.19c1.28-0.39,2.49-1.01,3.72-1.56c0.65-0.28,1.27-0.47,1.62,0.36c0.34,0.8-0.22,1.18-0.83,1.49
			c-1.55,0.8-3,1.79-4.79,2.04c-0.69,0.1-1.35,0.43-2.03,0.65c0.14,0.66,0.28,1.34,0.44,2.09c-3.6,1.37-7.28,1.32-10.81,2.13
			c-0.07,0.75-0.14,1.43-0.21,2.26c-1,0.18-1.93,0.43-2.88,0.5c-2,0.15-4,0.17-6,0.32c-0.69,0.05-1.36,0.31-2.04,0.45
			c-0.57,0.12-1.14,0.3-1.71,0.27c-1.91-0.1-3.41,0.37-3.94,2.46c-0.03,0.11-0.17,0.19-0.34,0.38c-1.11-0.39-2.25-0.51-3.37,0.35
			c-0.35,0.27-1.22,0.26-1.6,0.01c-1.79-1.16-3.58-0.56-5.17,0.14c-2.33,1.02-4.93,1.59-6.79,3.55c-0.21,0.23-0.54,0.36-0.83,0.5
			c-0.73,0.35-1.42,0.22-1.93-0.39c-0.52-0.64-0.15-1.21,0.29-1.73c0.24-0.28,0.5-0.56,1.04-1.16c-1-0.05-1.67-0.17-2.33-0.1
			c-2.5,0.28-4.99,0.7-7.49,0.93c-1.54,0.14-2.85,0.83-4.11,1.54c-0.66,0.37-1.2,0.52-1.91,0.49c-1.02-0.04-2.04,0.11-3.06,0.06
			c-1.77-0.08-3.54-0.41-5.3-0.36c-3.29,0.1-6.55-0.88-9.88-0.05c-1.1,0.27-2.44-0.11-3.64-0.27c-0.97-0.13-1.86-0.32-2.84-0.04
			c-0.54,0.15-1.14,0.15-1.72,0.13c-5.06-0.16-10.12-0.35-15.18-0.52c-1.03-0.03-1.03,0-1.89-1.63c-1.77-0.21-3.46-0.43-5.16-0.61
			c-0.3-0.03-0.61,0.1-0.91,0.18c-1.05,0.26-2.03,0.41-3.13-0.08c-0.89-0.4-1.87-0.62-2.99-0.26c-0.76,0.25-1.74-0.14-2.61-0.33
			c-2.01-0.43-4.01-0.94-6.02-1.35c-1.43-0.29-2.88-0.46-4.3-0.76c-0.39-0.08-0.9-0.37-1.06-0.7c-0.98-2.02-2.83-2.55-4.78-2.83
			c-1.01-0.15-2.02-0.02-2.73-1.01c-0.19-0.27-0.69-0.32-1.04-0.48c-0.8-0.36-1.64-0.67-2.41-1.1c-2.08-1.14-2.57-0.63-3.28,1.02
			c-1.5,3.5-3.07,6.98-4.64,10.46c-0.32,0.71-0.78,1.34-1.12,2.04c-0.36,0.74-0.64,1.53-0.98,2.28c-0.96,2.11-1.89,4.24-2.92,6.32
			c-1.07,2.18-0.65,3.3,1.68,4.1c0.48,0.16,1,0.31,1.51,0.32c0.96,0.01,1.72,0.33,2.45,0.97c0.51,0.44,1.21,0.68,1.85,0.95
			c1.72,0.75,3.42,1.54,5.17,2.18c1.74,0.64,3.55,1.1,5.32,1.68c2.15,0.69,4.28,1.46,6.44,2.11c2.54,0.77,5.08,1.52,7.66,2.13
			c1.56,0.37,3.19,0.46,4.79,0.69c0.37,0.05,0.94,0.05,1.06,0.27c0.69,1.25,1.91,1.15,3.03,1.38c3.23,0.66,6.43,1.47,9.68,2
			c2.93,0.48,5.89,0.72,8.85,0.97c2.05,0.17,4.12,0.2,6.18,0.23c2.32,0.04,4.63,0.07,6.95,0.02c2.77-0.06,5.55-0.18,8.32-0.3
			c0.95-0.04,1.89-0.19,2.95-0.3c0.06-0.49,0.12-0.92,0.17-1.34c0.14-1.27,0.7-1.76,1.93-1.43c2.74,0.74,5.52,0.7,8.28,0.45
			c4.81-0.42,9.62-0.97,14.4-1.65c3.32-0.47,6.61-1.23,9.9-1.89c3.92-0.78,7.85-1.53,11.76-2.39c3.24-0.71,6.49-1.38,9.66-2.46
			c2.26-0.76,4.6-1.42,6.96-1.69c4.05-0.46,7.88-1.61,11.69-2.94c0.89-0.31,1.9-0.23,2.82-0.47c2.88-0.75,5.64-1.78,7.93-3.76
			c0.33-0.29,0.69-0.67,0.81-1.07c0.57-1.91,2.17-2.23,3.77-2.66c0.66-0.17,1.23-0.65,1.85-0.98c0.77-0.41,1.6-1.34,2.38-0.78
			c0.62,0.44,0.85,1.52,1.1,2.36c0.23,0.78-0.11,1.5-0.98,1.58c-2.64,0.23-4.3,2.23-6.38,3.45c-0.53,0.31-0.94,1.07-1.11,1.7
			c-0.27,1.01-0.77,1.54-1.81,1.73c-3.62,0.66-7.13,1.71-10.57,3.04c-3.06,1.18-6.21,2.14-9.34,3.14c-1.04,0.33-2.15,0.42-3.2,0.73
			c-0.6,0.18-1.13,0.59-1.7,0.88c-0.51,0.26-1.01,0.63-1.56,0.71c-6.08,0.97-11.85,3.14-17.84,4.45c-2.27,0.5-4.55,0.88-6.69,1.86
			c-0.82,0.37-1.44-0.14-1.72-0.83c-0.47-1.17-1.36-1.28-2.38-1.13c-1.85,0.27-3.69,0.6-5.54,0.85c-3.01,0.41-6.03,0.79-9.04,1.17
			c-2.86,0.35-5.72,0.68-8.59,1.35c1.17,0.03,2.35,0.09,3.52,0.1c0.83,0.01,1.66-0.02,2.49-0.06c3.34-0.19,6.67-0.38,10.01-0.59
			c0.77-0.05,1.55-0.08,2.3-0.24c1.38-0.3,2.73-0.7,4.1-1.05c0.29-0.07,0.6-0.1,0.9-0.16c0.27,1.62-0.41,2.63-1.8,2.4
			c-1.56-0.26-2.93,0.2-4.38,0.52c-0.88,0.19-1.78,0.35-2.68,0.39c-4.88,0.22-9.77,0.44-14.66,0.59c-3.61,0.11-7.22,0.14-10.84,0.15
			c-2.25,0.01-4.51-0.02-6.75-0.14c-1.47-0.08-2.93-0.36-4.4-0.52c-0.45-0.05-0.99-0.14-1.34,0.06c-2,1.14-4.04,0.38-6.05,0.17
			c-1.22-0.13-2.41-0.46-3.63-0.58c-0.88-0.08-1.78,0.07-2.67,0.07c-1.62,0-3.23-0.06-4.85-0.04c-1.03,0.01-2.06,0.05-3.08,0.18
			c-1.48,0.19-2.13,0.02-2.56-1.34c-0.42-1.3-1.26-1.51-2.42-1.79c-4.71-1.12-9.37-2.39-14.06-3.59c-0.99-0.26-2-0.47-3-0.72
			c-4.75-1.19-9.53-2.27-14.23-3.62c-2.95-0.85-5.79-2.09-8.65-3.23c-1.1-0.44-2.13-1.08-3.42-1.75c-1.03,0.56-1.57,1.86-2.22,2.98
			c-1.97,3.34-3.91,6.7-5.68,10.15c-1.54,2.99-2.82,6.1-4.23,9.15c-0.76,1.64-1.47,3.31-2.3,4.91c-0.7,1.35-0.57,2.26,0.86,2.7
			c1.36,0.42,2.38,1.12,3.36,2.12c0.75,0.77,1.77,1.3,2.74,1.81c2.05,1.08,4.07,2.29,6.25,3.07c5.22,1.88,10.49,3.67,15.81,5.24
			c3.59,1.05,7.29,1.75,10.97,2.43c1.7,0.31,3.48,0.26,5.22,0.27c2.29,0.01,4.59-0.04,6.88-0.15c1.01-0.05,2-0.28,2.93-0.42
			c0.13,0.15,0.2,0.2,0.21,0.25c0.48,2.48,0.48,2.42,2.99,2.63c6.51,0.55,13.01,1.17,19.52,1.72c1.67,0.14,3.36,0.06,5.03,0.19
			c6.13,0.47,12.25,1,18.37,1.47c2.45,0.19,4.9,0.27,7.35,0.39c1.28,0.06,2.58-0.03,3.82,0.21c1.66,0.32,3.19-0.04,4.77-0.42
			c0.58-0.14,1.24-0.01,1.86,0.03c0.96,0.06,1.93,0.24,2.89,0.21c1.14-0.04,2.03,0.32,2.74,1.17c0.51,0.61,1.14,0.77,1.9,0.71
			c3.93-0.33,7.87-0.54,11.79-0.98c2.94-0.33,5.87-0.84,8.77-1.47c3.15-0.68,6.25-1.63,9.39-2.37c3.25-0.77,6.53-1.4,9.79-2.15
			c2.83-0.66,5.65-1.4,8.46-2.13c1.87-0.49,3.73-1.02,5.59-1.54c1.49-0.41,3-0.76,4.46-1.27c2.8-0.97,5.53-2.16,8.37-3.01
			c2.23-0.66,4.4-1.46,6.48-2.46c3.47-1.68,7.16-2.93,10.26-5.3c0.2-0.16,0.4-0.34,0.57-0.53c0.74-0.83,1.58-1.25,2.75-1.02
			c1.03,0.19,1.96-0.27,2.61-1.01c0.43-0.49,0.89-1.32,0.76-1.86c-0.37-1.51-0.61-3.21-2.65-3.64c-0.99-0.21-1.57-1.05-2.01-1.97
			c-1.3-2.74-2.65-5.46-3.97-8.2c-1.9-3.96-3.78-7.93-5.69-11.89c-0.59-1.22-1.33-2.37-1.86-3.61c-2.17-5.03-4.3-10.08-6.42-15.14
			c-1.32-3.16-2.6-6.33-3.89-9.5c-0.42-1.03-0.84-2.08,0.51-3.14c0.4,0.53,0.78,1.07,1.19,1.58c0.27,0.33,0.53,0.76,0.9,0.92
			c0.71,0.31,1.35-0.26,1.13-0.99c-0.18-0.61-0.5-1.19-0.79-1.77c-0.73-1.44-1.48-2.87-2.23-4.3c-0.18-0.34-0.33-0.75-0.62-0.98
			c-1.15-0.92-1.9-2.08-2.66-3.35c-0.65-1.07-1.11-2.04-1.38-3.27c-0.35-1.55-1.06-3.05-1.76-4.5c-0.96-1.97-1.97-3.92-3.12-5.78
			c-0.87-1.41-2.49-2.4-2.23-4.38c-1.57-2.11-2.38-4.68-4.31-6.6c-1.07-1.06-1.69-2.57-2.55-3.85c-0.41-0.62-0.88-1.21-1.38-1.88
			c-1.41,1.01-2.65,1.79-3.65,3.07c-1.24,1.6-2.93,2.86-4.42,4.27c-0.24,0.22-0.55,0.38-0.72,0.64c-1.91,2.89-4.69,4.77-7.52,6.61
			c-1.02,0.67-1.96,1.46-2.99,2.12c-2.01,1.29-3.99,2.53-6.38,3.17c-2.22,0.6-4.29,1.77-6.42,2.7c-2.42,1.06-4.91,1.78-7.57,2.08
			c-1.77,0.19-3.48,0.86-5.22,1.3c-0.56,0.14-1.16,0.41-1.7,0.32c-1.85-0.3-3.59,0.2-5.34,0.59c-4.72,1.04-9.49,1.24-14.3,1.02
			c-1.87-0.08-3.81,0.2-5.59-0.22c-2.53-0.59-4.94-0.06-7.4,0.11c-0.25,0.02-0.52,0.02-0.77-0.03c-1.58-0.3-3.17-0.52-4.71-0.96
			c-1.28-0.36-2.52-0.91-3.74-1.48c-1.13-0.52-2.21-0.9-3.51-0.87c-1.1,0.03-2.27-0.32-3.32-0.74c-1.21-0.48-2.29-1.02-3.71-0.68
			c-0.74,0.18-1.64-0.21-2.45-0.43c-1.58-0.44-3.21-0.57-4.81-1.04c-1.76-0.51-3.57-0.92-5.31-1.54c-2.36-0.85-4.75-1.6-7.08-2.51
			c-2.78-1.09-5.34-2.6-7.7-4.45c-0.4-0.32-0.86-0.67-1.34-0.77c-2.23-0.48-3.95-1.74-5.55-3.6c-0.81,1.57-1.65,2.95-2.26,4.42
			c-1.77,4.3-3.45,8.63-5.17,12.96c-0.17,0.42-0.41,0.85-0.44,1.28c-0.15,2.23-1.58,3.9-2.52,5.77c-0.21,0.42-0.69,0.8-1.13,0.99
			c-0.96,0.4-1.85-0.21-1.86-1.26c-0.01-0.57,0.09-1.17,0.26-1.71c1.2-3.68,2.41-7.36,3.66-11.03c0.29-0.85,0.64-1.72,1.14-2.45
			c1.46-2.12,2.28-4.46,2.82-6.95c0.41-1.89,0.99-3.74,1.41-5.63c0.11-0.52,0.08-1.21-0.18-1.65c-0.63-1.08-0.45-2.1-0.08-3.17
			c0.9-2.62,1.81-5.24,2.66-7.87c1.7-5.22,3.2-10.5,4.36-15.87c0.82-3.79,1.83-7.54,2.8-11.29c1.16-4.51,2.31-9.01,3.55-13.5
			c0.68-2.49,1.53-4.93,2.28-7.4c0.17-0.55,0.26-1.11,0.4-1.74c-0.28-0.16-0.49-0.28-0.7-0.4c-1.1-0.65-1.16-1.16-0.42-2.1
			c0.63-0.8,1.23-1.64,1.72-2.53c0.37-0.65,0.23-1.3-0.28-1.96c-1.14-1.47-2.18-2.99-2.81-4.81c-0.37-1.06-1.35-1.89-1.89-2.91
			c-1.3-2.45-2.79-4.75-4.3-7.07c-1.3-1.99-2.41-4.23-3.48-6.39c-1.06-2.13-1.25-4.7-1.74-7.1c-0.35-1.71-0.64-3.43-0.83-5.16
			c-0.32-3.01-0.6-6.03-0.77-9.05c-0.16-2.89-0.1-5.79-0.24-8.69c-0.11-2.24-0.42-4.48-0.54-6.72c-0.1-1.99-0.07-4-0.06-6
			c0.01-2.97,0.11-5.93,0.07-8.9c-0.04-2.44-0.2-4.87-0.36-7.3c-0.11-1.7,0.05-3.32,0.58-4.96c0.65-2.02,1.07-4.13,1.49-6.22
			c0.27-1.34,0.85-2.26,2.32-2.4c0.23-0.02,0.45-0.22,0.82-0.41c-0.25-0.42-0.43-0.81-0.68-1.14c-0.62-0.82-1.28-1.6-1.92-2.41
			c-0.2-0.25-0.33-0.61-0.58-0.77c-1.64-1.04-2.35-2.82-3.45-4.29c-1.47-1.97-2.89-3.98-4.42-5.9c-2.36-2.98-4.8-5.89-7.2-8.84
			c-0.2-0.25-0.36-0.54-0.5-0.83c-1.33-2.71-2.66-5.43-3.96-8.15c-1.19-2.49-2-5.25-3.6-7.44c-1.54-2.1-1.77-4.48-2.63-6.71
			c-0.4-1.03-0.85-1.95-1.67-2.78c-0.57-0.57-0.84-1.57-0.97-2.43c-0.19-1.24-0.57-2.33-1.15-3.45c-0.63-1.23-0.85-2.67-1.23-4.03
			c-0.48-1.73-0.9-3.48-1.42-5.2c-0.33-1.11-0.79-2.18-1.18-3.27c-0.07-0.18-0.13-0.37-0.16-0.56c-0.28-1.84-0.56-3.67-0.83-5.51
			c-0.14-0.95-0.23-1.92-0.4-2.87c-0.32-1.78-0.71-3.55-1.01-5.33c-0.66-4-1.32-8.01-1.9-12.02c-0.2-1.4,0.08-2.89-0.26-4.23
			c-0.56-2.22-0.97-4.37-0.39-6.64c0.07-0.27-0.07-0.67-0.25-0.92c-0.7-0.95-0.5-1.98-0.28-2.99c0.28-1.28,0.31-2.51,0-3.82
			c-0.27-1.17-0.22-2.45-0.12-3.67c0.37-4.51,0.82-9.01,1.25-13.51c0.2-2.11-0.19-4.28,0.62-6.34c0.11-0.28,0.06-0.65,0-0.96
			c-0.58-2.97-0.26-5.92,0.12-8.88c0.03-0.26,0.08-0.52,0.06-0.77c-0.17-2.64-0.05-5.25,0.37-7.89c0.47-2.91,0.48-5.9,0.64-8.86
			c0.06-1.15,0.46-1.99,1.61-2.48c0.71,0.36,0.79,1.08,0.84,1.77c0.17,2,0.32,4,0.46,6c0.04,0.51,0.03,1.04-0.02,1.55
			c-0.31,3.35-0.78,6.69-0.92,10.04c-0.14,3.34,0.08,6.7,0.07,10.05c0,1.41-0.08,2.85-0.34,4.24c-0.33,1.73-0.4,3.43-0.43,5.18
			c-0.05,3.16-0.52,6.31-0.76,9.46c-0.08,1.02-0.01,2.05-0.01,3.07c0,0.58,0.01,1.15,0.03,1.73c0.03,1.16,0.05,2.32,0.1,3.47
			c0.02,0.52,0.19,1.05,0.1,1.55c-0.38,2.03,0.06,3.98,0.52,5.93c0.04,0.19,0.15,0.41,0.09,0.57c-0.82,2.09,0.06,4.05,0.38,6.07
			c0.44,2.81,0.51,5.67,0.94,8.48c0.8,5.11,1.39,10.29,2.75,15.25c1.07,3.9,1.52,7.97,3.12,11.73c0.91,2.13,1.79,4.27,2.61,6.43
			c0.4,1.07,0.69,2.19,0.91,3.31c0.42,2.18,1.17,4.21,2.31,6.12c0.63,1.05,1.2,2.14,1.73,3.24c1.39,2.91,2.76,5.83,4.1,8.77
			c0.45,0.99,0.67,2.09,1.18,3.04c1.38,2.54,2.93,4.98,4.85,7.18c1.74,1.99,3.17,4.25,4.88,6.27c1.79,2.1,3.76,4.04,5.62,6.09
			c0.47,0.51,0.75,1.19,1.16,1.76c2.49,3.46,4.76,7.06,6.76,10.83c0.32,0.61,0.94,1.06,1.37,1.63c1.2,1.59,2.36,3.21,3.55,4.81
			c0.23,0.31,0.49,0.59,0.72,0.89c0.58,0.75,1.16,1.5,1.72,2.27c0.37,0.52,0.7,1.07,1.05,1.61c0.95,1.46,1.91,2.92,2.86,4.39
			c1.12,1.73,2.26,3.44,3.31,5.21c0.69,1.16,1.18,2.45,1.88,3.61c1.48,2.46,3.25,4.72,3.96,7.63c0.53,2.17,1.6,4.2,2.45,6.29
			c0.17,0.41,0.46,0.78,0.61,1.2c0.21,0.59,0.42,1.2,0.48,1.81c0.14,1.47,0.22,2.95,0.29,4.43c0.08,1.8-0.03,3.62,0.23,5.38
			c0.39,2.6-0.29,4.96-0.99,7.39c-0.46,1.6-0.6,3.31-0.74,4.98c-0.36,4.12-1.7,7.89-3.49,11.62c-0.85,1.77-1.2,3.71-2.9,4.98
			c-0.26,0.19-0.27,0.7-0.42,1.06c-0.74,1.86-1.4,3.72-2.59,5.4c-0.87,1.23-1.23,2.79-2.31,3.93c-0.2,0.21-0.22,0.6-0.29,0.91
			c-0.69,3.07-1.19,6.2-2.11,9.19c-0.82,2.68-1.02,5.41-1.46,8.13c-0.66,4.09-1.83,8.05-3.11,11.99c-1.01,3.13-1.59,6.4-2.55,9.55
			c-0.97,3.17-1.17,6.46-1.73,9.69c-0.23,1.33-0.46,2.77-0.18,4.05c0.41,1.84-0.27,2.98-1.64,4.06c-0.67-0.76-1.35-1.53-2.2-2.48
			c-1.16,4.47-2.49,8.65-3.08,13.16c1.59,0.21,2.42,1.31,3.41,2.34c1.18,1.24,2.66,2.23,4.13,3.14c1.97,1.23,4.17,2.11,6.05,3.44
			c3.8,2.69,8.21,3.52,12.59,4.54c0.55,0.13,1.05,0.51,1.6,0.65c1.65,0.42,3.35,0.67,4.95,1.21c1.68,0.56,3.4,0.65,5.12,0.9
			c2.98,0.43,5.94,1.11,8.87,1.81c1.43,0.34,2.75,1.17,4.19,1.43c2.58,0.47,5.2,0.71,7.82,0.98c1.09,0.11,2.22-0.09,3.29,0.11
			c5.02,0.97,10.04,0.69,15.05,0.1c3-0.35,5.98-0.88,8.97-1.32c0.06-0.01,0.13-0.02,0.19-0.02c4,0.45,7.54-1.58,11.36-2.06
			c2.46-0.31,4.77-1.17,6.92-2.16c2.52-1.16,5.14-2.02,7.64-3.18c1.27-0.6,2.49-1.42,3.54-2.34c3.45-3.02,6.94-6.01,10.15-9.27
			c1.83-1.86,3.91-3.57,5.14-5.99c0.3-0.59,0.97-1.02,1.51-1.47c0.62-0.52,0.82-1.06,0.52-1.87c-1.83-5.04-3.63-10.1-5.44-15.14
			c-0.81-2.25-1.55-4.53-2.45-6.74c-2.08-5.15-4.25-10.26-6.34-15.4c-0.6-1.46-1.42-2.86-0.83-4.63c0.23-0.68-0.26-1.62-0.47-2.42
			c-0.31-1.19-0.75-2.35-0.96-3.55c-0.29-1.64,0.49-2.55,2.21-2.66c0.31-4.49,0.47-9-0.04-13.5c-0.15-1.35-0.37-2.69-0.54-4.03
			c-0.04-0.32-0.1-0.67-0.02-0.97c0.73-2.77,0.36-5.55-0.04-8.29c-0.34-2.33,0.33-4.46,0.74-6.67c0.03-0.19,0.05-0.38,0.06-0.56
			c0-0.05-0.06-0.11-0.18-0.29c-2.09,1.39-3.97,2.97-5.49,4.98c-0.39,0.51-0.7,1.15-1.21,1.49c-1.64,1.08-2.48,2.76-3.47,4.34
			c-2.34,3.72-4.56,7.52-7.1,11.09c-1.67,2.35-3.83,4.35-5.78,6.49c-0.43,0.48-0.99,0.85-1.4,1.34c-0.58,0.7-1.06,1.21-2.19,1.21
			c-0.78,0-1.61,0.93-2.34,1.54c-1.72,1.46-3.42,2.94-5.06,4.49c-1.64,1.54-3.18,3.19-4.79,4.77c-0.69,0.68-1.46,1.28-2.16,1.96
			c-0.85,0.81-1.63,1.64-1.35,3.02c0.18,0.9-0.54,1.39-1.2,1.83c-2.47,1.63-4.98,3.2-7.4,4.9c-2.69,1.88-5.3,3.86-7.94,5.81
			c-1.81,1.34-3.62,2.69-5.43,4.03c-0.36,0.27-0.75,0.52-1.11,0.79c-1.73,1.34-3.52,2.62-5.18,4.04c-2.02,1.72-3.9,3.58-5.9,5.31
			c-0.71,0.61-1.58,1.03-2.39,1.52c-0.93,0.57-1.92,1.06-2.81,1.69c-2.25,1.61-4.47,3.27-6.68,4.94c-0.47,0.36-0.96,0.59-1.35,0.1
			c-0.27-0.34-0.48-0.94-0.37-1.34c0.14-0.52,0.52-1.07,0.94-1.41c1.45-1.17,2.96-2.26,4.46-3.38c3.1-2.33,6.19-4.66,9.29-6.98
			c1.91-1.43,3.82-2.86,5.73-4.3c2.06-1.55,4.11-3.11,6.16-4.68c2.31-1.76,4.71-3.42,6.9-5.32c1.98-1.71,4.27-3.1,5.78-5.35
			c0.35-0.53,0.86-0.99,1.38-1.35c2.46-1.71,4.47-3.9,6.51-6.05c0.93-0.98,1.97-1.86,2.94-2.8c2.64-2.56,5.33-5.08,7.89-7.71
			c3.47-3.56,6.91-7.16,10.26-10.85c2.6-2.86,5.03-5.89,7.55-8.83c0.67-0.78,1.44-1.49,2.07-2.3c3.19-4.06,5.23-8.71,6.9-13.55
			c1.64-4.77,3.28-9.54,4.95-14.3c1.42-4.03,2.62-8.08,2.69-12.43c0.04-2.17,0.66-4.33,1.02-6.49c0.02-0.13,0.12-0.24,0.12-0.37
			c0.1-4.1,1.77-7.86,2.6-11.8c0.56-2.64,1.55-5.18,2.34-7.77c0.25-0.8,0.5-1.6,0.71-2.41c0.98-3.88,2.33-7.72,2.81-11.66
			c0.46-3.7,1.72-7.15,2.42-10.75c0.54-2.76,1.83-5.37,2.78-8.05c1.33-3.78,2.78-7.52,3.92-11.35c0.63-2.14,0.72-4.45,1.07-6.68
			c0.27-1.72,0.55-3.44,0.88-5.14c0.1-0.49,0.27-1.08,0.61-1.4c1.59-1.49,1.39-3.51,1.73-5.37c0.08-0.44-0.08-1,0.14-1.32
			c0.85-1.2,1-2.57,1.27-3.95c0.36-1.83,0.93-3.62,1.45-5.41c0.75-2.6,1.52-5.2,2.32-7.79c1.14-3.7,2.31-7.4,3.48-11.09
			c0.93-2.94,1.72-5.94,2.85-8.8c1.23-3.1,2.1-6.34,3.72-9.31c1.16-2.14,1.93-4.49,2.81-6.77c1.15-3.01,2.24-6.05,3.35-9.08
			c0.95-2.59,1.9-5.18,2.85-7.78c0.04-0.12,0.11-0.26,0.08-0.38c-0.51-1.91,0.74-3.41,1.14-5.11c0.3-1.25,0.33-2.55,0.6-3.81
			c0.2-0.93,0.59-1.83,0.89-2.74c0.18-0.55,0.39-1.1,0.51-1.66c0.82-4.04,1.56-8.09,2.45-12.11c0.92-4.16,2.03-8.28,2.96-12.43
			c0.56-2.51,0.93-5.05,1.41-7.58c0.18-0.95,0.42-1.89,0.63-2.83c0.91-4.04,1.85-8.07,2.71-12.11c0.56-2.65,0.97-5.33,1.5-7.99
			c0.78-3.92,1.61-7.83,2.42-11.75c0.44-2.15,0.86-4.3,1.33-6.44c0.22-1,0.45-2.01,0.8-2.98c1.59-4.44,2.95-8.93,3.92-13.56
			c0.77-3.68,1.26-7.36,1.55-11.11c0.24-3.07,0.94-6.14,1.75-9.12c0.95-3.54,1.13-6.92-0.06-10.46c-1.07-3.17-1.68-6.49-1.81-9.87
			c-0.04-1-0.36-1.99-0.61-3.28c-1.07,1.48-1.43,2.79-1.44,4.31c0.48,0.23,0.96,0.47,1.27,0.62c-0.74,1.85-1.34,3.6-2.13,5.26
			c-0.9,1.92-1.95,3.76-2.95,5.63c-1,1.87-2.01,3.74-3.03,5.6c-0.99,1.81-2.04,3.59-2.98,5.42c-0.93,1.81-0.7,3.78-0.55,5.7
			c0.02,0.26,0.52,0.48,0.92,0.82c-1.71,1.25-1.51,3.19-1.9,4.98c-0.68,3.08-1.56,6.12-2.45,9.15c-0.43,1.48-1.07,2.91-1.62,4.36
			c-1.17,3.07-2.23,6.19-3.54,9.2c-0.95,2.18-2.24,4.21-3.37,6.31c-0.18,0.33-0.49,0.65-0.53,1c-0.45,3.59-2.36,6.67-3.47,10.02
			c-0.16,0.49-0.3,0.99-0.38,1.5c-0.41,2.5-1.18,4.84-2.26,7.17c-1.81,3.91-3.51,7.88-4.8,12.02c-0.61,1.96-1.69,3.77-2.5,5.66
			c-0.59,1.36-1.12,2.75-1.63,4.14c-0.73,1.99-1.45,3.99-2.09,6.01c-0.4,1.28-0.65,2.61-0.95,3.92c-0.06,0.25,0.06,0.62-0.07,0.75
			c-1.53,1.44-0.73,3.3-0.93,4.97c-0.34,2.75-0.55,5.52-0.89,8.27c-0.31,2.55-0.71,5.08-1.07,7.63c-0.05,0.32-0.08,0.65-0.18,0.95
			c-0.36,1.13-1.07,1.71-1.91,1.58c-0.96-0.15-2.13-1.33-2.08-2.25c0.04-0.83,0.28-1.65,0.42-2.48c0.27-1.66,0.61-3.31,0.79-4.98
			c0.21-1.99,0.2-4,0.44-5.98c0.17-1.33,0.74-2.62,0.9-3.95c0.17-1.39,0.08-2.81,0.07-4.21c-0.01-3.26-1.5-6.1-2.6-9.05
			c-0.66-1.75-1.37-3.48-1.9-5.27c-0.88-2.95-2.85-5.19-4.66-7.54c-0.94-1.22-1.92-2.43-3.02-3.51c-0.76-0.76-1.72-1.33-2.64-1.93
			c-0.59-0.38-1.28-0.62-1.88-0.98c-1.25-0.75-2.53-1.31-4.02-0.72c-0.12,0.05-0.25,0.06-0.38,0.06c-4.85,0.23-8.17,3.15-11.04,6.58
			c-1.46,1.75-2.47,3.91-3.54,5.96c-0.43,0.83-0.76,1.9-0.65,2.8c0.28,2.28-0.58,4.32-1.05,6.44c-0.27,1.19-0.72,2.36-0.87,3.56
			c-0.4,3.14-0.75,6.28-0.96,9.43c-0.08,1.13,0.35,2.29,0.48,3.45c0.19,1.65,0.24,3.32,0.47,4.96c0.28,2.04,0.68,4.07,1.05,6.1
			c0.11,0.63,0.37,1.24,0.43,1.88c0.23,2.34,0.74,4.59,1.8,6.7c0.2,0.39,0.44,0.87,0.38,1.26c-0.08,0.52-0.32,1.27-0.69,1.43
			c-0.35,0.14-1.09-0.25-1.44-0.61c-0.67-0.68-1.29-1.46-1.74-2.31c-0.7-1.3-1.24-2.68-1.84-4.04c-0.05-0.12-0.1-0.25-0.09-0.37
			c0.46-4.18-1.11-8.15-1.28-12.26c-0.07-1.6-0.26-3.2-0.4-4.93c-1.52,0.35-2.26-0.7-3.13-1.37c-2.11-1.6-3.83-3.58-5.35-5.75
			c-0.25-0.36-0.61-0.65-0.93-0.96c-0.31-0.32-0.8-0.58-0.91-0.96c-0.83-2.9-2.68-5.25-4.13-7.81c-1.72-3.04-2.96-6.28-3.96-9.63
			c-0.53-1.79-1.41-3.47-2.1-5.21c-1.71-4.32-3.36-8.66-3.7-13.37c-0.07-0.96-0.36-1.9-0.58-2.85c-0.56-2.44-1.12-4.85-1.29-7.38
			c-0.24-3.52-0.03-7.04-0.34-10.54c-0.05-0.51-0.1-1.03-0.23-1.52c-0.78-2.85-1.28-5.73-1.13-8.7c0.02-0.31-0.15-0.62-0.2-0.94
			c-0.3-2.16-0.59-4.33-0.87-6.49c-0.02-0.18,0-0.4,0.08-0.56c0.93-1.74,0.89-3.58,0.65-5.47c-0.08-0.63-0.06-1.31,0.1-1.93
			c0.43-1.73,0.4-3.39-0.05-5.15c-0.43-1.68-0.41-3.47-0.7-5.18c-0.24-1.39-0.67-2.74-1-4.11c-0.25-1-0.47-2-0.73-2.99
			c-0.09-0.35-0.28-0.67-0.56-1.31c-0.44,0.88-0.85,1.45-1.03,2.09c-0.59,2.04-1.26,4.07-1.6,6.15c-0.36,2.23,0.55,4.29,1.42,6.29
			c-1.04,1.66-1.04,1.65-2.73,1.13c-0.37-0.11-0.76-0.17-1.13-0.29c-1.3-0.41-1.33-0.58-1.35-1.94c-0.04-2.25-0.41-4.44-1.54-6.44
			c-0.13-0.22-0.24-0.46-0.32-0.7c-1.26-3.66-2.55-7.31-3.77-10.98c-0.85-2.55-3.01-3.37-5.24-4.09c-0.32-0.1-0.78,0.04-1.12,0.2
			c-1.09,0.5-2.26,0.93-3.21,1.63c-1.23,0.91-1.37,2.49-1.54,3.86c-0.46,3.9,0.53,7.46,2.65,10.8c1.52,2.4,3.1,4.74,4.77,7.02
			c1.34,1.82,2.76,3.58,4.08,5.41c1.65,2.3,3.13,4.74,4.88,6.96c1.3,1.66,1.88,3.59,2.75,5.42c1.19,2.5,1.84,5.09,2.06,7.83
			c0.05,0.7,0.13,1.45,0.43,2.08c0.94,1.99,0.98,4.03,0.9,6.2c-0.09,2.5,0.3,5.02,0.57,7.52c0.38,3.53,0.74,7.07,1.31,10.57
			c0.3,1.83,1.01,3.59,1.55,5.37c0.23,0.74,0.71,1.45,0.73,2.18c0.12,3.35,1.41,6.43,2.14,9.63c0.57,2.51,1.3,4.99,2.01,7.46
			c0.39,1.36,0.97,2.67,1.33,4.03c0.79,2.99,1.48,6,2.24,8.99c0.4,1.56,0.87,3.1,1.3,4.65c0.21,0.75,0.4,1.5,0.62,2.24
			c1.16,3.96,2.33,7.91,3.48,11.87c0.25,0.87,0.49,1.75,0.66,2.63c0.47,2.48,0.92,4.96,1.35,7.44c0.16,0.95,0.44,1.92-0.7,2.57
			c-0.25,0.14-0.39,0.65-0.41,1c-0.03,0.84,0.06,1.68,0.06,2.51c0,1.15-0.07,2.29-0.03,3.44c0.05,1.8-0.05,3.65,0.33,5.39
			c0.32,1.49,0.37,2.92,0.33,4.41c-0.03,1.03-0.1,2.07-0.02,3.09c0.15,1.93,0.46,3.84,0.1,5.79c-0.16,0.87-0.08,1.82,0.03,2.71
			c0.65,5.3,0.15,10.57-0.38,15.85c-0.31,3.08-0.63,6.17-0.92,9.25c-0.53,5.59-1.07,11.18-1.57,16.77c-0.13,1.4-0.26,2.82-0.17,4.22
			c0.32,5.03-0.82,9.87-1.64,14.77c-0.58,3.45-1.97,6.53-3.4,9.63c-0.19,0.41-0.36,0.84-0.44,1.28c-0.79,4.55-2.41,8.83-4.3,13.01
			c-1.69,3.74-2.67,7.68-3.7,11.62c-0.69,2.62-1.54,5.19-2.21,7.82c-0.6,2.37-0.99,4.8-1.58,7.18s-1.3,4.73-1.99,7.08
			c-0.51,1.73-1,3.46-1.61,5.16c-1.34,3.77-2.77,7.51-4.1,11.28c-0.45,1.27-0.64,2.64-1.04,3.93c-0.22,0.72-0.59,1.39-0.93,2.06
			c-0.2,0.4-0.52,0.75-0.71,1.16c-1.48,3.16-2.91,6.34-4.41,9.49c-0.72,1.51-1.56,2.97-2.33,4.46c-1.83,3.55-3.6,7.14-5.51,10.65
			c-0.92,1.7-2.13,3.24-3.17,4.88c-0.65,1.03-1.18,2.14-1.81,3.18c-1.27,2.1-2.51,4.21-3.87,6.25c-1.11,1.65-2.47,3.13-3.57,4.78
			c-1.25,1.88-2.25,3.93-3.51,5.8c-1.19,1.76-2.51,3.44-3.88,5.06c-2.28,2.71-4.66,5.33-6.98,8.01c-0.88,1.02-2.39,0.95-3.12-0.19
			c-1-1.58-0.1-3.63,1.72-4.01c0.46-0.1,0.96-0.36,1.28-0.69c3.02-3.1,5.97-6.28,8.43-9.84c1.61-2.33,2.9-4.88,4.45-7.25
			c1.26-1.95,2.54-3.93,4.08-5.65c1.29-1.44,2.03-3.13,2.94-4.76c0.65-1.18,1.19-2.47,2.04-3.49c2.52-3.02,4.2-6.53,6.01-9.95
			c1.97-3.71,3.75-7.51,5.5-11.33c1.75-3.82,3.46-7.66,4.99-11.56c2.1-5.35,4.07-10.76,5.99-16.18c0.75-2.12,1.27-4.34,1.8-6.53
			c1.4-5.84,2.6-11.74,4.17-17.53c1.1-4.03,2.7-7.92,4.05-11.87c1.59-4.64,3.12-9.31,4.72-13.94c0.88-2.55,1.96-5.04,2.79-7.61
			c0.51-1.59,0.71-3.27,1.06-4.91c1.15-5.35,1.11-10.79,1.22-16.22c0.03-1.29,0.27-2.57,0.36-3.86c0.27-3.8,0.45-7.61,0.8-11.41
			c0.33-3.53,0.85-7.05,1.29-10.57c0.01-0.06,0.04-0.13,0.04-0.19c0.1-4.24,0.85-8.46,0.25-12.73c-0.23-1.65,0.01-3.36-0.08-5.04
			c-0.2-3.8-0.53-7.6-0.7-11.4c-0.2-4.32-0.4-8.65-0.37-12.98c0.01-1.89,0.51-3.81,1.7-5.34c-0.75-2.79-1.4-5.56-2.25-8.26
			c-1.27-4.04-2.8-8.01-4-12.07c-0.75-2.53-1.1-5.18-1.62-7.77c-0.13-0.63-0.1-1.33-0.36-1.9c-1.61-3.54-1.93-7.46-3.31-11.06
			c-0.42-1.09-0.99-2.13-1.25-3.25c-0.65-2.81-1.56-5.56-1.9-8.46c-0.18-1.59-0.83-3.12-1.25-4.68c-0.35-1.31-0.73-2.61-1-3.94
			c-0.47-2.32-0.87-4.66-1.32-6.99c-0.03-0.15-0.22-0.27-0.33-0.41c-0.12,0.12-0.3,0.23-0.29,0.27c0.58,1.7-0.2,2.82-1.54,3.75
			c-0.68,0.47-1.31,1.03-2.04,1.61c0.28,0.47,0.53,0.89,0.82,1.37c-0.81,1.01-1.71,1.71-2.98,2.03c-1.18,0.29-2.29,0.83-3.44,1.26
			c-0.48,0.18-0.97,0.48-1.46,0.47c-1.43-0.01-2.48,0.62-3.26,1.8c-1.68-1.49-1.42,1.12-2.63,0.99c-1.63-0.56-3.41-0.77-5.04,0.58
			c-0.1,0.08-0.22,0.15-0.34,0.18c-1.95,0.43-3.89,0.86-5.84,1.28c-1.8,0.39-3.6,0.8-5.41,1.12c-0.8,0.14-1.64,0.08-2.46,0.1
			c-1.08,0.02-2.16,0.02-3.24,0.01c-2.52-0.01-5.03,0.04-7.55-0.06c-1.15-0.04-2.29-0.4-3.44-0.53c-3.54-0.4-6.99-1.11-10.36-2.29
			c-2.05-0.72-4.11-1.36-6.05-2.43c-1.72-0.96-3.67-1.5-5.52-2.24c-1.62-0.65-3.23-1.31-4.83-2.01c-2.3-1-4.58-2.01-6.86-3.05
			c-1.17-0.54-2.32-1.14-3.47-1.72c-0.17-0.09-0.4-0.19-0.46-0.34c-1.03-2.42-3.71-2.5-5.5-3.86c-2.09-1.6-4.43-2.88-6.64-4.33
			c-0.31-0.2-0.61-0.54-0.73-0.88c-0.95-2.61-2.61-4.7-4.63-6.56c-0.61-0.56-1.08-1.29-1.5-2.01c-1.45-2.5-2.85-5.04-4.27-7.56
			c-0.16-0.28-0.31-0.57-0.46-0.86c-1.28-2.45-2.61-4.88-3.83-7.36c-0.73-1.5-1.29-3.08-1.93-4.62c-0.42-1.01-0.8-2.04-1.25-3.03
			c-1.31-2.87-2.7-5.71-3.97-8.61c-0.73-1.65-1.26-3.39-2.49-4.77c-0.04-0.05-0.07-0.11-0.08-0.18c-0.72-5.23-3.95-9.68-4.65-14.91
			c-0.41-3.07-0.72-6.16-1.02-9.24c-0.29-2.96-0.49-5.92-0.75-8.88c-0.03-0.37-0.21-0.72-0.43-1.39c-0.38,0.54-0.71,0.83-0.81,1.19
			c-0.8,2.81-1.84,5.47-3.46,7.95c-0.78,1.19-0.74,2.93-1.06,4.42c-0.16,0.73-0.34,1.46-0.44,2.19c-0.11,0.87-0.2,1.74-0.18,2.61
			c0.01,0.83,0.16,1.65,0.27,2.47c0.52,4.03,0.95,8.08,1.62,12.09c0.47,2.8,1.28,5.54,1.91,8.32c1.13,5.04,2.23,10.09,3.33,15.14
			c0.04,0.17,0,0.36,0,1.01c-0.62-1.26-1.04-2.13-1.46-2.99c-0.12,0.05-0.25,0.1-0.37,0.15c0.15,1.68,0.55,3.37,1.61,4.68
			c1.09,1.35,1.42,2.88,1.7,4.46c0.2,1.14,0.29,2.31,0.4,3.47c0.13,1.37,0.35,2.69,1.39,3.73c0.26,0.26,0.41,0.66,0.52,1.02
			c0.98,3.15,2.99,5.67,4.99,8.19c0.27,0.35,0.6,0.68,0.76,1.08c1.1,2.75,2.45,5.3,4.6,7.44c1.05,1.04,1.63,2.55,2.42,3.85
			c0.33,0.55,0.6,1.15,1.01,1.64c2.56,3.05,5.15,6.08,7.73,9.12c0.25,0.29,0.48,0.66,0.81,0.8c2.4,1.07,3.87,3.28,5.94,4.74
			c1.53,1.08,3.07,2.13,4.59,3.21c0.42,0.3,0.81,0.63,1.21,0.96c0.3,0.24,0.55,0.64,0.88,0.73c2.92,0.79,4.66,3.34,7.14,4.77
			c0.6,0.35,1.25,0.62,1.86,0.96c0.72,0.41,1.47,0.79,2.13,1.29c2.05,1.56,4.05,3.2,6.11,4.76c0.76,0.57,1.65,0.95,2.44,1.49
			c0.78,0.54,1.51,1.15,2.23,1.77c2.34,2.02,4.65,4.1,7.02,6.09c0.73,0.61,1.67,0.97,2.46,1.53c1.63,1.16,3.28,2.3,4.8,3.59
			c1.72,1.46,3.47,2.94,4.94,4.63c2.4,2.77,4.59,5.72,6.87,8.6c1.4,1.77,2.86,3.5,4.15,5.34c2.19,3.11,4.25,6.32,6.43,9.45
			c1.88,2.7,3.82,5.36,5.77,8.01c2.1,2.85,4.7,5.45,6.21,8.58c1.41,2.93,3.75,5.26,4.83,8.35c0.35,0.99,1.24,1.79,1.83,2.71
			c0.8,1.24,1.61,2.49,2.3,3.79c1.15,2.17,2.21,4.38,3.3,6.58c2.13,4.32,2.92,9.1,4.65,13.56c0.66,1.69,1.31,3.38,1.86,5.1
			c0.37,1.15,0.66,2.35,0.83,3.55c0.08,0.59-0.12,1.24-0.29,1.83c-0.23,0.78-0.55,1.53-0.77,2.12c-0.91-1.03-1.86-2.03-2.71-3.1
			c-0.29-0.37-0.59-0.96-0.5-1.36c0.56-2.61-0.38-4.96-1.12-7.35c-0.97-3.14-1.93-6.28-2.91-9.41c-0.1-0.31-0.21-0.61-0.36-0.9
			c-1.46-2.95-2.89-5.92-4.41-8.84c-0.87-1.66-1.88-3.24-2.86-4.84c-2.49-4.07-5.12-8.04-7.35-12.28c-0.98-1.86-2.37-3.57-3.82-5.11
			c-2.02-2.14-3.64-4.52-5.22-6.97c-1.71-2.66-3.49-5.27-5.29-7.87c-1.73-2.49-3.45-4.99-5.3-7.39c-1.77-2.31-3.79-4.43-5.54-6.75
			c-2.39-3.17-5.25-5.89-8.2-8.47c-2.42-2.12-5.16-3.87-7.76-5.78c-0.21-0.15-0.46-0.25-0.65-0.41c-2.43-2.03-4.67-4.33-7.31-6.02
			c-3.01-1.93-5.63-4.29-8.46-6.41c-1.5-1.12-3.34-1.78-4.79-2.94c-3.47-2.79-7.79-4.29-11.03-7.45c-1.65-1.6-3.73-2.74-5.51-4.23
			c-1.43-1.2-2.71-2.58-4-3.93c-1.11-1.17-2.17-2.39-3.19-3.64c-2.52-3.1-5.07-6.18-7.48-9.36c-1.2-1.59-2.07-3.42-3.22-5.06
			c-0.58-0.82-1.45-1.44-2.18-2.16c-0.31-0.31-0.67-0.61-0.88-0.98c-0.71-1.31-1.38-2.63-2.04-3.97c-0.76-1.55-1.27-3.24-2.63-4.47
			c-0.35-0.31-0.46-0.92-0.61-1.41c-0.7-2.28-1.31-4.59-2.06-6.85c-0.96-2.87-2.08-5.69-3.03-8.56c-0.48-1.46-0.79-2.97-1.13-4.48
			c-0.45-2.01-0.91-3.95-2.04-5.79c-0.78-1.28-1.53-2.76-1.59-4.44c-0.06-1.41-0.38-2.81-0.62-4.21c-0.06-0.37-0.18-0.82-0.43-1.04
			c-1.28-1.12-0.96-2.57-0.94-3.97c0.03-2.26-0.01-4.52,0.07-6.77c0.07-1.88-0.03-3.72-0.45-5.57c-0.18-0.77,0.04-1.68,0.25-2.48
			c0.82-3.06,1.72-6.09,2.58-9.14c0.05-0.19,0.12-0.39,0.1-0.57c-0.24-2.52,1.04-4.43,2.4-6.36c1.12-1.59,1.96-3.32,2.3-5.3
			c0.13-0.73,0.69-1.76,1.29-1.96c1.34-0.45,1.39-1.35,1.44-2.41c0.1-2.26,0.19-4.53,0.34-6.79c0.35-5.3,1.08-10.53,2.45-15.67
			c0.52-1.93,0.81-3.92,1.27-5.87c0.25-1.07,0.54-2.14,0.97-3.15c0.43-0.99,0.62-1.91,0.37-2.99c-0.16-0.72-0.11-1.59,0.15-2.28
			c1.62-4.22,3.28-8.42,5.01-12.6c2.22-5.37,4.53-10.71,6.78-16.07c0.51-1.21,1.01-2.33,2.34-2.94c0.51-0.23,0.84-0.95,1.14-1.51
			c3.06-5.78,6.48-11.33,10.61-16.42c2.8-3.46,5.4-7.1,8.37-10.41c2.1-2.34,3.78-5.11,6.52-6.85c0.42-0.27,0.75-0.7,1.11-1.07
			c1.47-1.56,2.06-1.6,3.65-0.21c1.74-1.29,3.48-2.61,5.26-3.88c3.31-2.36,6.65-4.67,10.29-6.54c3.49-1.8,6.84-3.9,10.34-5.69
			c2.18-1.11,4.54-1.86,6.79-2.84c1.47-0.64,2.88-1.42,4.34-2.08c0.51-0.23,1.08-0.38,1.64-0.43c1.48-0.14,2.95-0.24,4.28-1.02
			c0.43-0.25,0.96-0.38,1.46-0.47c3.1-0.59,6.15-1.47,9.35-1.54c1.27-0.03,2.52-0.51,3.79-0.76c2.59-0.5,5.17-1.19,7.79-1.43
			c5.66-0.51,11.34-0.79,17.02-1.17c1.24-0.08,2.37,0.14,3.52,0.74c0.87,0.46,1.97,0.59,2.98,0.65c1.94,0.11,3.88,0.11,5.82,0.04
			c0.58-0.02,1.23-0.33,1.69-0.7c0.71-0.56,1.4-0.88,2.31-0.72c2.61,0.44,5.22,0.85,7.83,1.31c0.76,0.13,1.49,0.42,2.25,0.56
			c1.39,0.27,2.78,0.57,4.18,0.71c5.34,0.51,10.68,0.99,16.02,1.42c4.59,0.37,9.12,1.14,13.51,2.49c3.39,1.04,6.67,2.44,9.99,3.68
			c0.06,0.02,0.11,0.08,0.17,0.09c4.05,1.08,7.7,3.21,11.71,4.38c4.99,1.45,9.69,3.52,13.94,6.54c0.46,0.33,0.8,0.84,1.27,1.34
			c-1.05,0.76-1.82,0.62-2.54,0.07c-3.8-2.9-8.11-4.74-12.62-6.22c-1.19-0.39-2.36-0.87-3.53-1.31c-0.07,0.11-0.14,0.22-0.21,0.33
			c2.77,2.87,5.53,5.76,8.32,8.61c1.22,1.25,2.53,2.41,3.76,3.64c0.55,0.55,1.07,0.77,1.88,0.63c1.81-0.3,3.09,0.58,4.04,2.07
			c2.29,3.58,4.6,7.15,6.9,10.73c0.07,0.11,0.14,0.22,0.19,0.34c2.22,4.93,4.44,9.85,6.66,14.78c1.51,3.36,3.1,6.68,4.5,10.08
			c1.52,3.69,3.33,7.27,3.95,11.3c0.26,1.73,1.07,3.37,1.53,5.07c0.47,1.74,0.95,3.49,1.19,5.26c0.84,6.26,1.57,12.53,2.37,18.8
			c0.08,0.62,0.35,1.23,0.6,1.82c0.56,1.31,1.24,2.57,1.73,3.9c0.31,0.83,0.49,1.76,0.49,2.64c0.01,1.36,0.14,2.52,0.8,3.85
			c0.58,1.17,0.24,2.92-0.02,4.35c-0.59,3.22-1.23,6.44-2.27,9.57c-0.77,2.31-1.14,4.76-1.65,7.15c-0.29,1.35-0.43,2.69,0.41,3.93
			c0.17,0.25,0.22,0.61,0.26,0.92c0.42,3.46,0.79,6.93,1.27,10.39c0.18,1.27,0.57,2.51,0.95,3.74c0.42,1.36,0.82,2.74,1.42,4.02
			s0.62,2.44,0.04,3.71c-0.41,0.9-1.06,1.78-0.71,2.91c0.06,0.19-0.13,0.52-0.3,0.7c-1.55,1.65-1.53,3.81-1.76,5.83
			c-0.18,1.52,0.06,3.09,0.12,4.63c0.01,0.19,0.12,0.4,0.08,0.57c-0.47,2.04,0.08,4.17-0.57,6.2c-0.17,0.54-0.23,1.16-0.18,1.72
			c0.18,2.21-0.54,4.1-1.54,6.05c-1.29,2.5-2.33,5.15-2.78,8c-0.45,2.8-1.18,5.55-1.76,8.32c-0.35,1.7-0.59,3.43-0.96,5.13
			c-0.74,3.4-1.57,6.79-2.31,10.19c-1.03,4.79-1.98,9.6-3.02,14.39c-0.53,2.46-1.19,4.89-1.73,7.34c-0.52,2.39-0.84,4.79-1.61,7.15
			c-0.85,2.62-1.13,5.42-1.68,8.14c-0.15,0.75-0.42,1.49-0.58,2.24c-0.19,0.87-0.32,1.74-0.46,2.62c-0.03,0.19,0.06,0.41-0.01,0.57
			c-1.29,3.09-1.07,6.47-1.83,9.66c-0.09,0.37-0.27,0.72-0.44,1.07c-0.64,1.32-0.8,2.71-0.61,4.16c0.12,0.95,0.24,1.92,0.17,2.87
			c-0.04,0.52-0.37,1.08-0.71,1.51c-0.9,1.16-1.53,2.38-1.42,3.9c0.03,0.35-0.06,0.8-0.27,1.07c-0.91,1.17-1.13,2.58-1.5,3.95
			c-0.75,2.79-1.6,5.53-2.92,8.15c-1.2,2.4-1.87,5.07-2.78,7.61c-0.28,0.78-0.58,1.57-0.91,2.33c-0.8,1.82-1.65,3.62-2.42,5.46
			c-0.42,1.01-0.74,2.06-1.07,3.1c-0.4,1.22-0.7,2.47-1.17,3.66c-1.11,2.82-2.43,5.56-3.43,8.42c-0.74,2.12-1.09,4.38-1.68,6.56
			c-0.25,0.92-0.6,1.83-1.03,2.68c-0.49,0.98-1.05,1.87-1.19,3.02c-0.11,0.93-0.77,1.77-1.05,2.69c-0.45,1.47-0.81,2.98-1.16,4.48
			c-0.3,1.26-0.55,2.53-0.79,3.8c-0.27,1.39-0.5,2.78-0.76,4.17c-0.39,2.1-0.7,4.21-1.19,6.28c-0.78,3.25-1.57,6.51-2.55,9.71
			c-1.18,3.82-2.51,7.6-3.87,11.37c-1.07,2.98-2.48,5.84-3.34,8.87c-1.07,3.77-2.21,7.56-2.34,11.53c-0.01,0.45-0.09,0.9-0.21,1.33
			c-1.21,4.29-2.41,8.57-3.65,12.85c-1.08,3.72-2.23,7.42-3.31,11.14C199.96,446.33,199.7,447.72,199.45,448.79z M253.08,66.78
			c-1.01-2.44-2.06-4.86-3.04-7.31c-1.71-4.27-4.06-8.19-6.47-12.08c-0.48-0.77-0.95-1.54-1.43-2.32c-0.23,0.58-0.19,1.03,0.01,1.4
			c1.56,2.82,2.99,5.73,4.79,8.4c1.73,2.56,2.59,5.47,3.91,8.18c0.63,1.3,0.94,2.81,2.27,3.69c0.32,0.96,0.65,1.91,0.97,2.87
			c0.78,2.3,1.62,4.59,2.33,6.92c0.51,1.65,1.34,3.05,2.73,4.32c0-0.4,0.07-0.63-0.01-0.77c-1.99-3.55-3.24-7.41-4.78-11.16
			C254.05,68.16,253.51,67.49,253.08,66.78z M74.43,242.35c0.31,0.31,0.56,0.74,0.93,0.9c1.78,0.75,3.56,1.52,5.4,2.1
			c2.63,0.83,5.31,1.53,7.99,2.21c3.56,0.9,7.14,1.74,10.84,1.81c1.94,0.04,3.88-0.12,5.82-0.09c3.09,0.04,6.13-0.12,9.08-1.34
			c-2.82,0.32-5.45-0.14-7.97-1.62c0.48-1.22,1.38-0.91,2.13-0.71c4.33,1.14,8.62,0.46,12.84-0.49c2.56-0.58,5.08-1.47,7.52-2.46
			c2.2-0.89,4.36-1.96,6.35-3.24c1.89-1.22,3.53-2.82,5.28-4.24c1.5-1.21,1.95-2.85,1.74-4.66c-0.21-1.85-0.61-3.69-0.82-5.54
			c-0.41-3.52-0.69-7.06-1.15-10.58c-0.19-1.46-0.78-2.86-1.03-4.31c-0.43-2.56-0.94-5.05-2.79-7.06c-0.37-0.4-0.51-1.02-0.73-1.55
			c-0.25-0.6-0.38-1.27-0.73-1.79c-1.47-2.19-2.96-4.37-4.52-6.5c-1.59-2.17-3.65-3.92-4.91-6.41c-1.33-2.63-3.2-4.99-4.77-7.51
			c-0.61-0.98-1.19-2.02-1.55-3.11c-1.18-3.54-0.77-7.15-0.26-10.74c0.03-0.24,0.18-0.48,0.31-0.7c0.59-0.99,1.07-2.09,1.83-2.93
			c0.66-0.72,1.6-1.26,2.51-1.68c0.92-0.42,1.94-0.6,2.93-0.88c0.25-0.07,0.52-0.22,0.74-0.17c1.88,0.44,3.8,0.8,5.62,1.42
			c1.07,0.37,2.08,1.11,1.8,2.6c-0.06,0.3,0.03,0.66,0.16,0.94c0.76,1.64,1.49,3.3,2.35,4.89c0.52,0.95,1.11,1.79,1.23,2.96
			c0.1,1.03,0.69,2.01,1.14,3.22c1.52-2.27,2.87-4.27,2.94-6.88c0.03-1.2,0.97-2.38,1.75-2.53c1-0.19,2.2,0.51,2.8,1.66
			c0.21,0.4,0.47,0.83,0.48,1.25c0.08,2.07,1.28,3.56,2.5,5.06c-0.95,1.77-0.44,3.65,0.14,5.24c1.31,3.57,1.4,7.25,1.46,10.91
			c0.05,3.21-0.18,6.44-0.23,9.66c-0.06,3.81,0.66,7.53,0.71,11.32c0.03,2.23,0.56,4.46,0.77,6.69c0.27,2.82,0.22,2.84,2.54,4.54
			c0.73,0.53,1.53,0.97,2.25,1.51c0.45,0.33,0.73,0.89,0.26,1.32c-0.31,0.29-0.97,0.54-1.32,0.41c-0.7-0.27-1.3-0.82-1.94-1.24
			c-0.33-0.22-0.68-0.42-1.1-0.67c-0.22,2.41-0.25,2.45,1.37,3.64c0.82,0.6,1.74,1.11,2.68,1.5c3.45,1.4,7.15,1.78,10.79,2.15
			c1.61,0.16,3.21,0.19,4.84,0.46c2.26,0.38,4.64,0.24,6.95,0.11c0.71-0.04,1.27-0.13,1.97,0.17c1.28,0.56,1.9,0.21,2.65-0.94
			c0.23-0.35,0.76-0.66,1.18-0.7c2.29-0.21,4.59-0.51,6.87-0.45c3.87,0.11,7.45-1.15,11.1-2.03c2.36-0.57,4.58-1.66,6.88-2.49
			c0.76-0.27,1.57-0.43,2.61-0.72c-1.35-0.87-3.42,0.07-3.8-2.26c0.86,0,1.62,0.08,2.36-0.02c0.94-0.13,1.96-0.23,2.77-0.67
			c2.78-1.49,5.38-3.25,7.85-5.26c2.96-2.41,5.79-4.97,8.36-7.75c2-2.15,4.36-4.03,5.83-6.66c0.15-0.27,0.46-0.45,0.66-0.71
			c1.87-2.46,3.78-4.9,5.58-7.41c0.82-1.15,1.36-2.49,2.15-3.66c1.32-1.94,1.95-4.16,2.93-6.21c-1.59-0.94-1.54-1.09-0.6-2.34
			c1.03-1.38,2.01-2.84,2.71-4.4c0.37-0.83,0.62-1.65,1.29-2.31c0.36-0.35,0.68-0.79,0.9-1.25c1.61-3.31,3.17-6.65,4.81-9.95
			c0.39-0.79,1.01-1.45,1.51-2.19c0.2-0.3,0.42-0.61,0.53-0.94c0.59-1.75,1.14-3.51,1.73-5.26c1.51-4.47,3.09-8.92,4.51-13.42
			c0.48-1.52,0.74-3.17,0.81-4.77c0.31-7.37,0-14.71-1.48-21.97c-0.08-0.38-0.14-0.77-0.16-1.15c-0.08-1.87,0.02-3.76-0.23-5.61
			c-0.43-3.33-0.77-6.71-1.69-9.91c-1.12-3.9-2.97-7.58-4.21-11.45c-0.97-3.01-2.2-5.73-4.92-7.71c0.56-0.51,1.1-1,1.64-1.49
			c-1.8-4.12-3.51-8.17-5.34-12.16c-0.78-1.7-1.78-3.29-2.73-4.91c-2.17-3.71-3.5-7.9-6.52-11.11c-0.08-0.09-0.12-0.23-0.17-0.34
			c-1.45-3.75-4.01-6.73-6.77-9.56c-1.58-1.62-3.37-3.04-4.85-4.74c-2.39-2.73-5.37-4.72-8.48-6.37c-3.34-1.77-6.75-3.55-10.5-4.43
			c-0.6-0.14-1.17-0.53-1.69-0.91c-0.52-0.37-0.73-0.94-0.33-1.53c0.4-0.59,0.96-0.85,1.68-0.57c1.55,0.6,3.12,1.16,4.66,1.8
			c1.85,0.77,3.66,1.61,5.89,2.59c-0.51-0.56-0.69-0.85-0.94-1.03c-1.09-0.78-2.21-1.53-3.32-2.28c-0.16-0.11-0.33-0.21-0.51-0.26
			c-2.71-0.78-5.41-1.64-8.15-2.31c-4.01-0.97-8.05-1.81-12.08-2.67c-1.13-0.24-2.28-0.42-3.43-0.56c-1-0.13-2.03-0.08-3.02-0.28
			c-2.28-0.45-4.52-1.16-6.81-1.47c-5.76-0.77-11.53-1.6-17.33-1.98c-6.19-0.41-12.42-0.39-18.63-0.43
			c-3.03-0.02-6.07,0.17-9.09,0.43c-2.77,0.24-5.53,0.62-8.27,1.09c-3.04,0.52-6.15,0.81-8.96,2.31c-0.62,0.33-1.45,0.29-2.19,0.4
			c-0.88,0.13-1.8,0.15-2.65,0.38c-2.03,0.56-4.04,1.21-6.05,1.85c-1.32,0.42-2.62,0.87-4.27,1.43c0.62,0.63,0.94,1.13,1.4,1.38
			c0.99,0.56,2.05,1,3.08,1.49c3.9,1.86,7.81,3.72,11.71,5.57c0.75,0.36,1.43,0.6,2.38,0.29c1.53-0.5,2.16,0,2.81,1.5
			c0.22,0.5,0.56,1.09,1,1.32c2.04,1.06,3.9,2.45,6.22,3.02c3.14,0.77,6.19,1.68,9.52,1.13c4.8-0.79,9.52-1.74,13.9-3.97
			c1.71-0.87,3.5-1.58,5.2-2.47c3.42-1.79,6.25-4.07,6.95-8.24c0.22-1.29,0.83-2.61,1.59-3.68c1.04-1.46,2.48-1.29,3.37,0.28
			c1.01,1.77,2.68,2.81,4.48,3.05c1.85,0.26,3.36,0.8,5,1.71c1.4,0.78,2.35,1.63,3.05,2.97c0.4,0.77,1.03,1.35,2.01,1.24
			c1.64-0.18,3.04,0.49,4.41,1.22c1.08,0.57,2.03,1.53,3.16,1.82c1.91,0.5,3.35,1.67,4.86,2.75c2.89,2.07,3.77,4.73,2.8,7.92
			c-0.13,0.43-0.36,0.84-0.46,1.28c-0.3,1.32-0.88,2.67-0.77,3.96c0.36,4.26,2.74,6.17,6.4,4.63c2.02-0.85,3.19-0.63,4.85,0.84
			c1.09,0.96,1.99,2.17,3.56,2.58c3.57,0.92,6.73,2.69,9.46,5.13c2.79,2.49,5.38,5.22,8.21,7.65c1.99,1.71,3.16,3.91,4.26,6.15
			c0.9,1.84,0.26,2.79-1.78,3.04c-0.49,0.06-1.01-0.08-1.5-0.19c-1.13-0.25-2.14,0.1-2.8,0.93c-0.76,0.94-1.4,2.03-1.85,3.15
			c-0.57,1.43-0.82,2.98-1.36,4.43c-0.35,0.93-0.32,1.71,0.14,2.56c1.13-0.31,2.28-0.87,3.15,0.14c0.92,1.06,1.35,2.22,0.56,3.72
			c-0.78,1.48-0.33,3.06,0.52,4.43c1.01,1.64,2.1,3.22,3.18,4.81c0.61,0.91,1.26,1.79,1.89,2.68c1.38,1.97,1.18,5-0.48,6.78
			c-1.02,1.09-2.11,2.1-3.09,3.22c-0.7,0.81-1.54,1.28-2.53,1.63c-1.89,0.67-3.66,1.45-4.69,3.45c-0.91,1.77-2.05,3.45-3.3,5
			c-0.97,1.21-1.52,2.53-1.92,3.97c-0.24,0.87-0.53,1.74-0.64,2.62c-0.14,1.09-0.58,1.61-1.74,1.61c-0.9,0-1.69,0.49-1.78,1.44
			c-0.21,2.18-0.38,4.37-0.39,6.56c-0.02,3.24-0.02,3.38,2.87,4.68c1.74,0.78,2.22,2.07,2.27,3.68c0.07,2.59-0.8,4.93-2.21,7.08
			c-0.73,1.11-1.66,1.87-3.03,2.23c-2.16,0.56-3.9,3.25-3.84,5.44c0.05,1.93,0.05,3.87-0.02,5.8c-0.03,0.69-0.18,1.46-0.54,2.02
			c-0.69,1.06-1.55,2-2.38,2.96c-1.37,1.58-2.87,2.83-5.2,2.13c-0.42-0.13-0.91-0.19-1.34-0.11c-1.85,0.33-3.58-0.08-5.3-0.7
			c-0.93-0.33-1.43-1.01-1.06-1.91c0.28-0.67,0.87-1.22,1.37-1.78c0.42-0.47,1.09-0.8,1.33-1.34c1.41-3.1,1.56-6.31-0.04-9.35
			c-1.22-2.34-2.65-4.62-5.61-5.24c-0.73-0.15-1.44-0.62-2.03-1.09c-0.47-0.38-1.03-0.96-1.07-1.49c-0.09-1.24-0.79-2.13-1.26-3.18
			c-1.2-2.66-3.34-3.38-5.96-3.43c-0.39-0.01-0.87,0.09-1.14-0.1c-1.12-0.76-2.2-0.67-3.49-0.42c-1.94,0.37-2.94-0.55-2.98-2.32
			c-0.01-0.51,0.1-1.03,0.11-1.54c0.01-0.61-0.28-1.03-0.95-0.89c-2.03,0.43-3.94-0.02-5.87-0.63c-0.94-0.3-1.96-0.91-2.97-0.32
			c-0.97,0.57-1.84,0.41-2.76-0.03c-2.25-1.1-4.51-2.19-6.73-3.27c-1.1,0.22-2.23,0.43-3.36,0.67c-1.93,0.42-3.61-0.2-5.07-1.38
			c-1.84-1.49-3.4-3.2-3.51-5.78c-0.02-0.51-0.31-1.01-0.31-1.51c-0.01-1.19-0.78-1.61-1.73-1.73c-1.53-0.19-3.07-0.29-4.61-0.33
			c-1.63-0.04-3.25-0.28-4.58-1.2c-0.87-0.6-1.37-1.73-2.21-2.41c-1.08-0.88-2.31-1.59-3.52-2.27c-0.29-0.16-0.85-0.03-1.19,0.15
			c-1.25,0.65-1.51,0.62-2.45-0.37c-0.62-0.65-1.22-1.36-1.97-1.81c-1.54-0.92-3.18-1.68-4.77-2.51c-0.4-0.21-0.81-0.42-1.16-0.7
			c-1.32-1.05-1.31-2.51,0.09-3.5c0.87-0.61,1.87-1.05,2.85-1.59c-0.06-0.35-0.06-0.68-0.17-0.97c-1.03-2.78-2.11-5.55-3.1-8.34
			c-0.95-2.67-0.93-5.32,0.35-7.92c0.34-0.7,0.75-1.34,1.59-1.04c0.92,0.33,0.4,0.98,0.22,1.6c-0.63,2.2-1.5,4.4-0.19,6.68
			c0.25,0.43,0.19,1.02,0.38,1.49c1.1,2.61,2.32,5.17,3.34,7.8c0.95,2.47,3.14,3.91,4.59,5.95c0.13,0.19,0.42,0.39,0.63,0.39
			c0.94-0.02,1.34,0.59,1.78,1.26c0.27,0.4,0.71,0.77,1.16,0.95c2.02,0.82,3.7,2.07,5.21,3.63c0.85,0.88,1.85,1.58,3.19,1.64
			c2.06,0.09,4.11,0.3,6.17,0.37c2.38,0.08,2.74,0.55,3.09,2.99c0.24,1.7,0.66,3.47,1.49,4.94c0.65,1.16,1.98,1.99,3.12,2.8
			c0.56,0.39,1.38,0.35,2.18,0c-0.23-0.25-0.3-0.37-0.41-0.43c-0.22-0.13-0.46-0.25-0.7-0.32c-2.79-0.86-3.95-2.93-4.25-5.66
			c-0.06-0.6-0.13-1.22,0.71-1.3c0.7-0.07,1.32,0.58,1.3,1.36c-0.01,0.34-0.14,0.69-0.22,1.04c1.3,0.78,2.55,1.24,3.63,2.29
			c2.55,2.5,5.45,4.58,9.37,4.44c1.04-0.04,2.11,0.42,3.15,0.73c0.59,0.18,1.12,0.55,1.7,0.76c2.55,0.91,5.19,0.85,7.84,0.65
			c1.64-0.12,2.11,0.34,2.07,1.95c-0.02,0.56-0.08,1.12-0.12,1.67c1.48,0.32,2.06-0.77,2.85-1.54c1.21,0.72,2.72,0.91,3.33,2.28
			c0.48,1.08,1.24,1.57,2.35,1.74c1.6,0.26,3.01,1.06,3.96,2.29c1.29,1.67,2.81,3.38,2.24,5.86c2.1,0.82,3.96,1.97,5.51,3.7
			c0.88,0.98,1.67,1.92,2.18,3.14c0.32,0.77,0.82,1.47,1.26,2.18c0.97,1.53,1.4,3.3,1.22,4.99c-0.19,1.76-0.99,3.45-1.52,5.18
			c-0.12,0.4-0.21,0.8-0.35,1.36c1.19,0.21,2.19,0.5,3.2,0.52c0.82,0.02,1.6-0.31,2.16-1.09c1.12-1.58,0.65-3.35,1.05-5.31
			c-1.59,1.22-1.6,1.22-1.83,2.91c-0.1,0.73-0.21,1.5-1.01,1.7c-0.45,0.11-1.27,0.03-1.41-0.23c-0.26-0.5-0.39-1.32-0.14-1.78
			c1.06-1.98,2.06-4.06,3.5-5.75c1.83-2.16,3.28-4.42,4.21-7.09c0.83-2.38,1.98-4.63,3.93-6.36c0.59-0.53,1.12-0.97,2-1
			c0.71-0.02,1.41-0.39,2.54-0.72c-0.78-0.72-1.19-1.17-1.68-1.51c-0.47-0.33-1.03-0.55-1.56-0.79c-1.15-0.53-1.62-1.44-2.02-2.64
			c-0.72-2.21-0.51-4.48-0.8-6.71c-0.25-1.88-0.08-3.68,0.69-5.42c0.45-1.02,1-1.94,2.11-2.41c0.51-0.22,1.07-0.59,1.35-1.04
			c0.9-1.48,1.98-2.95,2.44-4.57c0.66-2.31,1.97-4.18,3.25-6.1c0.81-1.22,1.47-2.63,2.9-3.31c1.16-0.55,2.36-1.03,3.56-1.48
			c1.94-0.72,3.05-2.34,4.26-3.84c0.83-1.02,0.41-2.29,0.15-3.36c-0.79-3.24-2.7-5.67-5.81-7.04c-1.26-0.55-2.16-1.33-2.5-2.72
			c-0.2-0.81-0.65-1.57-0.79-2.39c-0.32-1.89-0.74-3.8-0.74-5.71c0.01-3.37,1.44-6.42,2.76-9.43c0.92-2.08,2.24-3.98,4.89-4.18
			c0.22-0.02,0.42-0.22,0.62-0.32c-1.95-4.49-5.66-7.39-8.83-10.73c-0.13-0.14-0.31-0.26-0.49-0.31c-1.06-0.26-1.83-0.88-2.41-1.8
			c-0.16-0.26-0.43-0.51-0.7-0.65c-1.71-0.88-3.45-1.72-5.16-2.6c-1.54-0.79-3.26-1.39-4.55-2.49c-1.33-1.14-2.51-1.21-4.08-0.87
			c-1.3,0.28-2.75,0.46-4.01,0.17c-4.45-1.03-5.81-5.81-5-8.78c0.47-1.74,0.8-3.53,1.26-5.28c0.35-1.36-0.03-2.41-1.14-3.24
			c-0.93-0.7-1.96-1.31-2.74-2.15c-1.18-1.26-2.59-1.51-4.19-1.61c-3.49-0.22-6.48-1.45-8.78-4.27c-1.02-1.25-2.3-2.36-3.97-2.86
			c-0.4,0.63-0.63,1.19-1.04,1.58c-0.34,0.32-0.95,0.69-1.32,0.58c-1.45-0.4-3.1-0.56-3.85-2.23c-0.15-0.34-0.45-0.64-0.73-0.9
			c-0.78-0.7-1.65-0.62-2.03,0.34c-0.76,1.92-2.24,3.14-3.9,4.16c-2.69,1.66-5.43,3.24-8.15,4.84c-0.33,0.19-0.71,0.3-1.07,0.45
			c-1.86,0.74-3.69,1.57-5.58,2.21c-5.41,1.83-10.88,3.36-16.68,2.01c-2.51-0.59-5.1-0.95-7.31-2.44c-1.76-1.19-3.48-2.44-5.25-3.61
			c-0.53-0.35-1.16-0.55-1.75-0.8c-3.85-1.63-7.75-3.17-11.55-4.93c-2.99-1.38-5.83-2.97-9.25-3.24c-1.81-0.14-3.3,0.19-4.71,1.23
			c-0.47,0.35-0.88,0.91-1.39,1.03c-2.68,0.59-4.37,3.11-7.09,3.59c-0.05,0.01-0.07,0.22-0.14,0.46c1.25,0.3,2.49,0.65,3.75,0.9
			c2.46,0.51,4.94,1.35,7.46,0.94c2.91-0.47,5.33,0.58,7.68,1.96c0.95,0.56,2.02,1.25,1.74,2.78c-0.5,0.12-0.97,0.23-1.62,0.38
			c0.13,0.56,0.16,1.08,0.37,1.52c0.85,1.78,2.04,3.4,2.48,5.38c0.08,0.37,0.27,0.73,0.49,1.05c1.46,2.13,2.91,4.26,4.43,6.35
			c1.47,2.02,2.74,4.19,4.48,6.02c0.17,0.18,0.29,0.43,0.4,0.66c0.46,0.98,0.12,2.71-0.66,3.41c-0.54,0.48-1.97,0.43-2.91-0.08
			c-0.32-0.18-0.72-0.5-0.99-0.43c-1.15,0.31-2.27,0.74-3.3,1.09c1.12,2.59,2.17,5,3.2,7.42c0.15,0.35,0.18,0.75,0.29,1.12
			c0.23,0.72,0.48,1.44,0.73,2.16c0.31,0.9,0.63,1.81,0.94,2.71c0.15,0.43,0.2,0.9,0.43,1.28c1.95,3.28,2.84,7.02,4.72,10.37
			c1.08,1.92,2.07,3.67,3.99,4.79c0.91,0.53,1.46,1.26,1.23,2.4c-0.24,1.15-0.9,1.81-2.04,1.93c-1.68-1.39-3.1-2.75-3.68-5
			c-0.49-1.9-1.76-3.58-2.57-5.41c-1.53-3.48-2.97-7-4.46-10.55c-0.46-0.15-1-0.32-1.55-0.5c-2.46-0.78-3.99-2.4-4.75-4.9
			c-0.71-2.34-1.58-4.63-2.47-6.91c-0.96-2.45-0.69-3.22,1.97-3.47c2.17-0.2,4.07-1.16,6.17-1.53c1.4-0.24,1.54-0.93,0.7-2.06
			c-0.77-1.03-1.54-2.07-2.28-3.12c-0.7-1.01-1.29-2.1-2.05-3.06c-2.58-3.25-3.82-7.14-5.32-10.91c-0.45-1.14-0.62-2.25,0.64-3.07
			c-1.61-1.34-3.21-1.85-5.16-1.59c-3.38,0.46-6.68-0.01-9.9-1.17c-3.76-1.35-7.41-1.2-10.94,0.96c-2.91,1.78-5.97,3.31-8.93,5.02
			c-2.07,1.19-4.09,2.47-6.1,3.76c-1.57,1.01-2.99,2.3-4.65,3.13c-1.78,0.89-2.93,2.45-4.47,3.56c-0.35,0.25-0.45,0.83-0.85,1.65
			c1.1-0.17,1.85-0.21,2.55-0.4c1.56-0.42,3.13-0.83,4.63-1.41c1.73-0.67,3.57-1.29,5.04-2.37c1.24-0.91,2.52-1.54,3.94-1.96
			c1.36-0.4,2.74-0.79,4.14-1.03c2.59-0.44,5.03-0.29,6.79,2.11c0.37,0.51,1.05,0.78,1.74,1.27c0.03,0.58,0.23,1.38,0.09,2.11
			c-0.41,2.17-0.42,4.35-0.35,6.54c0.07,2,0.11,4,0.23,6c0.07,1.09,0.44,2.18,0.4,3.26c-0.07,1.69,0.38,3.19,1.08,4.67
			c0.78,1.67,2.25,3.14,1.68,5.25c-0.04,0.17,0.04,0.39,0.12,0.56c0.93,2.03,1.81,4.09,3.14,5.9c1.33-0.86,1.9-0.98,2.56-0.51
			c0.79,0.57,0.46,1.35,0.45,2.12c-0.02,1.74-0.17,3.53,0.17,5.22c1.08,5.38,3.29,10.28,6.88,14.48c2.01,2.35,4.09,4.68,6.94,6.07
			c1.8,0.88,3.59,1.84,5.64,0.5c1.07-0.7,2.15-0.14,3.06,0.49c0.83,0.57,1.53,1.33,2.25,1.97c-0.64,1.57-0.79,2.98,0.06,4.39
			c0.15,0.25,0.22,0.6,0.21,0.9c-0.13,2.19,0.29,4.33,0.78,6.43c0.43,1.86-0.37,3.33-2.25,3.57c-0.7,0.09-1.43,0.06-2.12,0.2
			c-0.54,0.11-1.21,0.24-1.55,0.61c-2.25,2.48-4.45,5.01-6.61,7.58c-0.53,0.63-0.87,1.42-1.25,2.16c-1,1.94-2.4,3.8-2.83,5.86
			c-0.47,2.24-1.51,4.07-2.52,5.98c-0.51,0.96-1.08,1.89-1.49,2.88c-1.52,3.76-2.59,7.7-4.58,11.27c-0.21,0.38-0.25,0.86-0.35,1.3
			c-0.52,2.2-0.89,4.44-1.6,6.58c-0.81,2.45-1.89,4.8-2.92,7.18c-0.41,0.94-1.27,1.77-1.39,2.73c-0.17,1.29-0.88,1.79-1.9,2.08
			c-0.73,0.21-1.5,0.27-2.26,0.37c-1.14,0.16-2.34,0.14-3.42,0.49c-1.08,0.36-2.11,0.57-3.22,0.34c-1.86-0.39-3.48,0.15-4.77,1.48
			c-0.94,0.97-1.72,2.09-2.62,3.1c-0.69,0.78-1.03,1.64-0.88,2.67c0.22,1.47,0.64,2.92,0.69,4.39c0.1,3.03,1.53,5.21,3.78,7.09
			c2.03,1.69,3.46,3.82,4.14,6.42c0.43,1.68,0.92,3.35,1.26,4.57c0.95,1,1.62,1.71,2.25,2.38c-0.42,0.8-0.88,1.38-1.06,2.04
			c-0.52,1.93-0.95,3.88-1.36,5.84c-0.21,0.99-0.43,1.87-1.62,2.14c-0.4,0.09-0.85,0.4-1.08,0.74c-1.59,2.33-2.32,5.01-2.84,7.72
			c-0.15,0.76,0.51,1.7,0.33,2.44c-0.19,0.79-0.95,1.44-1.55,2.29c1.51,0.52,2.55,1.45,4.05,1.6c1.18,0.12,2.57,0.18,3.51,1.34
			c-0.4,0.85-1.04,1-1.8,0.83c-0.57-0.12-1.12-0.31-1.68-0.46c-0.83-0.37-1.67-0.74-2.5-1.1c-0.05,0.17-0.11,0.35-0.16,0.52
			C72.63,241.99,73.53,242.17,74.43,242.35z M20.09,138.96c-0.15,0.49-0.25,0.85-0.37,1.2c-0.92,2.51-1.57,5.06-1.35,7.77
			c0.05,0.64,0.06,1.29,0.06,1.93c-0.01,1.6-0.1,3.2-0.05,4.79c0.05,1.41,0.32,2.82,0.39,4.24c0.08,1.39,0.79,2.78,0.04,4.18
			c-0.03,0.05-0.01,0.13,0,0.19c0.36,2.69,0.64,5.39,1.12,8.05c0.6,3.36,1.99,6.56,1.99,10.04c0,0.5,0.19,1.01,0.38,1.49
			c1.44,3.53,2.89,7.05,4.35,10.56c0.42,1.02,0.78,2.07,1.29,3.04c1.39,2.65,3.63,4.86,4.05,8.02c0.06,0.42,0.43,0.78,0.64,1.18
			c0.33,0.63,0.62,1.28,0.97,1.9c0.78,1.41,1.56,2.82,2.39,4.19c0.53,0.88,1.22,1.66,1.73,2.55c1.15,2,1.96,4.21,3.45,6.01
			c0.41,0.49,0.72,1.16,1.25,1.43c1.71,0.89,3.45,1.72,5.25,2.41c3.56,1.36,7.21,2.49,10.73,3.95c1.38,0.57,2.74,0.73,4.13,0.78
			c2.17,0.08,2.21,0.02,2.6,2.32c1.18-0.16,2.37-0.42,3.57-0.46c0.94-0.03,1.4-0.45,1.75-1.22c0.7-1.53,1.36-3.07,2.18-4.54
			c1.54-2.77,2.58-5.6,2.1-8.86c-0.73-4.98-2.14-9.54-6.42-12.77c-1.29-0.97-2.65-2.16-2.23-4.18c0.05-0.23-0.11-0.49-0.18-0.74
			c-0.6-2.24-1.17-4.49-1.82-6.71c-0.25-0.86-0.21-1.59,0.18-2.41c1.26-2.63,3.29-4.56,5.43-6.45c1.58-1.39,3.36-1.85,5.35-1.87
			c1.68-0.02,3.36,0.01,5.04,0.03c1.55,0.02,2.76-0.59,3.6-1.89c0.73-1.14,1.47-2.28,2.16-3.44c0.43-0.71,0.92-1.43,1.15-2.21
			c0.52-1.8,0.99-3.62,1.32-5.46c0.54-3.01,1.37-5.89,2.94-8.55c0.86-1.45,1.35-3.05,1.33-4.8c-0.01-0.64,0.3-1.36,0.67-1.92
			c1.94-2.95,4.12-5.78,4.47-9.48c0.03-0.37,0.25-0.73,0.43-1.06c1.86-3.46,3.73-6.92,5.62-10.37c0.21-0.39,0.53-0.74,0.85-1.05
			c1.62-1.56,3.26-3.11,4.89-4.66c0.79-0.75,1.52-1.6,2.39-2.23c0.87-0.63,1.29-1.41,1.41-2.42c0.08-0.7,0.27-1.44,0.15-2.11
			c-0.28-1.58-0.58-3.18-1.13-4.67c-0.26-0.7-1.2-1.11-1.71-1.75c-0.81-1.04-1.84-1.48-3.12-1.68c-1.14-0.17-2.38-0.38-3.33-0.97
			c-3.91-2.45-7.42-5.31-9.69-9.49c-1.12-2.07-2.61-3.95-3.33-6.23c-0.9-2.87-2.33-5.63-2.12-8.76c0.06-0.89-0.37-1.51-0.98-2
			c-1.48-1.18-2.2-2.84-2.99-4.47c-1.2-2.49-2.27-5.06-4.48-6.9c-0.94-0.79-0.92-1.75-0.5-2.82c0.25-0.64,0.52-1.37,0.46-2.03
			c-0.18-1.91-0.22-3.87-1.13-5.65c-0.19-0.38-0.2-0.88-0.2-1.32c-0.01-3.47-0.02-6.94,0.02-10.41c0.01-1.2-0.14-2.35-0.92-3.28
			c-0.34-0.4-0.87-0.8-1.37-0.87c-1.75-0.24-3.47,0.01-5.09,0.74c-1.58,0.71-3.13,1.51-4.71,2.22c-3.23,1.46-6.45,2.98-9.74,4.29
			c-1.88,0.75-3.88,0.58-5.73-0.09c-1.36,0.81-2.69,1.59-4,2.4c-0.81,0.5-1.71,0.93-2.37,1.59c-3.86,3.88-6.69,8.54-9.59,13.11
			s-5.43,9.38-8.09,14.1c-0.5,0.88-0.71,1.95-1.3,2.76c-0.56,0.77-0.63,1.34-0.09,2.07c0.61,0.83,0.42,1.57-0.08,2.49
			c-1.38,2.53-2.85,5.05-3.61,7.87c-0.27,1-0.6,1.99-0.74,3.01c-0.45,3.37-2.18,6.51-1.75,10.04c0.04,0.34-0.18,0.74-0.34,1.08
			c-0.47,1.05-1.13,2.01-0.75,3.3c0.11,0.36-0.36,0.91-0.6,1.36c-0.4,0.76-0.94,1.47-0.86,2.45c0.44-0.1,0.72-0.17,1.06-0.25
			c0.02,1.47-2.57,1.77-1.47,3.69c0.29-0.23,0.56-0.45,1.09-0.87c-0.59,2.72-1.11,5.15-1.64,7.59c-0.08,0.37-0.36,0.93-0.21,1.08
			c0.88,0.93,0.1,1.85,0.07,2.76c-0.01,0.51-0.24,1.01-0.26,1.52c-0.1,2.64-0.19,5.28-0.25,7.93c-0.03,1.51,0.01,3.03,0.85,4.4
			c0.16-0.42,0.16-0.84,0.16-1.25c0-1.16-0.03-2.33,0-3.49c0.01-0.29,0.22-0.83,0.31-0.82c0.82,0.06,0.73-0.54,0.77-1
			c0.08-1.02,0.1-2.05,0.17-3.07c0.01-0.17,0.14-0.34,0.2-0.47C18.89,138.7,19.37,138.81,20.09,138.96z M216.84,228.06
			c0.61,0.44,1.05,0.76,1.53,1.11c2.86-1.86,5.12-4.22,7.43-6.6c-1.44-0.98-1.44-0.98-0.51-2.15c1.84,0.88,1.89,0.87,3.34-0.55
			c0.14-0.14,0.32-0.24,0.43-0.39c2.4-3.12,4.86-6.2,7.16-9.4c1.52-2.12,2.81-4.42,4.2-6.64c-0.12-0.09-0.25-0.18-0.37-0.27
			c-1.94,3.13-5.03,5.28-6.94,8.44c-0.46,0.76-1.53,1.19-1.09,2.4c0.07,0.19-0.37,0.64-0.66,0.86c-1.28,0.98-2.6,1.89-3.87,2.87
			c-2.81,2.16-5.4,4.59-8.58,6.27c-1.81,0.96-3.4,2.36-5.23,3.28c-1.58,0.8-3.34,1.28-5.06,1.75c-1.3,0.35-2.75,0.24-3.99,0.71
			c-4.43,1.68-9.13,2.16-13.7,3.19c-0.59,0.13-1.4,0.35-1.63,0.78c-0.47,0.87-1.15,0.93-1.92,1.02c-1.84,0.2-3.68,0.4-5.52,0.6
			c-1.92,0.2-3.85,0.29-5.75,0.61c-4.89,0.82-9.76,0.67-14.63-0.05c-0.67-0.1-1.37-0.41-1.91-0.82c-0.32-0.24-0.56-0.94-0.45-1.31
			c0.2-0.68,0.88-0.67,1.47-0.42c2.08,0.9,4.31,0.74,6.48,0.93c1.29,0.12,2.61-0.08,4.19-0.15c-1.08-1.07-2.2-1.28-3.25-1.31
			c-3.32-0.08-6.49-0.86-9.6-1.91c-1.38-0.47-2.76-0.94-4.36-1.49c0.23,3.36,0.42,6.61,1.72,9.69c0.27,0.65,0.53,1.32,0.68,2
			c0.69,3.09,1.42,6.15,2.97,8.95c0.22,0.39,0.34,0.84,0.48,1.26c0.72,2.2,1.38,4.42,2.16,6.6c0.48,1.33,0.95,2.73,1.76,3.85
			c1.75,2.41,2.42,5.43,4.53,7.61c0.17,0.17,0.21,0.47,0.34,0.7c0.63,1.12,1.1,2.39,1.95,3.31c1.45,1.58,3.14,2.95,4.93,4.6
			c0.18-0.84,0.34-1.44,0.43-2.04c0.16-1.15,0.19-2.33,0.44-3.46c0.45-2.04,0.55-4.08,0.4-6.16c-0.04-0.54,0.19-1.14,0.42-1.65
			c0.42-0.94,1.15-1.78,1.35-2.75c0.49-2.33,0.87-4.7,1.04-7.07c0.09-1.24,0.44-2.06,1.43-2.74c1.01-0.7,1.76-1.57,2.19-2.83
			c0.27-0.8,1.14-1.44,1.83-2.05c0.51-0.46,1.33-0.63,1.72-1.15c0.78-1.03,1.62-1.95,2.9-2.15c1.56-0.25,2.72-1.37,4.36-1.62
			c2.52-0.39,4.91-0.7,7.3,0.34c0.82,0.36,1.67,0.7,2.42,1.18c1.4,0.89,2.9,1.71,4.05,2.87c1.78,1.77,3.32,3.77,4.92,5.71
			c1.65,2.01,3.01,4.19,3.85,6.67c0.39,1.16,0.69,2.37,1.26,3.43c0.95,1.77,1.72,3.58,2.07,5.57c0.07,0.42,0.25,0.81,0.47,1.48
			c0.36-0.52,0.63-0.79,0.75-1.11c0.46-1.2,0.83-2.45,1.32-3.64c1.42-3.47,2.89-6.91,4.34-10.37c0.55-1.31,1.15-2.6,1.66-3.93
			c1.09-2.83,2.11-5.69,3.19-8.52c1.04-2.7,2.54-5.24,2.94-8.17c0.1-0.7,0.23-1.42,0.48-2.07c2.46-6.53,4.57-13.2,7.85-19.39
			c0.66-1.25,0.87-2.74,1.55-3.97c1.95-3.48,2.79-7.35,4.14-11.04c0.05-0.14-0.08-0.34-0.18-0.75c-0.49,0.64-0.89,1.12-1.24,1.63
			c-1.22,1.8-2.41,3.62-3.65,5.41c-1.38,1.99-3.2,3.62-4.27,5.89c-0.85,1.78-2.16,3.37-3.4,4.93c-0.83,1.04-1.94,1.87-2.88,2.84
			c-0.63,0.65-1.12,1.42-1.76,2.05c-2.75,2.73-5.48,5.49-8.33,8.11c-1.26,1.16-2.45,2.51-4.26,2.93
			C216.97,230.77,216.38,230.16,216.84,228.06z M89.32,517.9c0.63-1.66,1.11-2.92,1.58-4.17c0.2-0.54,0.31-1.12,0.59-1.61
			c0.74-1.28,1.52-2.54,2.33-3.78c0.49-0.75,0.66-1.45,0.41-2.37c-1.02-3.67-2-7.35-2.93-11.04c-1.17-4.62-2.27-9.27-3.42-13.9
			c-1.49-6.03-2.71-12.1-2.37-18.37c0.19-3.48,0.33-6.97,0.69-10.44c0.17-1.65,0.59-3.33,1.24-4.85c0.52-1.21,0.37-2.11-0.34-3.04
			c-1.05-1.38-1.86-2.94-3.35-3.99c-0.54-0.38-0.89-1.08-1.25-1.69c-1.47-2.49-3.06-4.88-5.55-6.49c0.4-1.78-0.55-3.92-1.92-4.56
			c-0.27,0.68-0.55,1.37-0.8,2.06c-0.13,0.36-0.23,0.73-0.32,1.1c-1,4.04-0.75,8.19-0.96,12.29c-0.11,2.12,0.08,4.25,0.07,6.37
			c-0.01,1.87-0.24,3.74-0.17,5.6c0.17,4.13,0.54,8.24,0.69,12.37c0.14,3.87,0.08,7.75,0.13,11.62c0.01,0.96,0.01,1.93,0.16,2.88
			c0.36,2.34,1,4.66,1.17,7.02c0.23,3.21,1.11,6.24,2.27,9.16c0.75,1.9,2.01,3.6,3.03,5.39c1.16,2.02,2.32,4.03,3.46,6.05
			c1.28,2.25,2.51,4.52,3.83,6.74C87.92,516.8,88.51,517.14,89.32,517.9z M96.99,502.41c0.29-0.64,0.48-0.95,0.58-1.29
			c0.43-1.42,0.73-2.89,1.27-4.26c1.6-4.09,2.26-8.33,2.21-12.7c-0.01-0.7,0.11-1.41,0.18-2.12c0.31-2.76,0.68-5.52-0.41-8.23
			c-0.33-0.83-0.69-1.75-0.62-2.61c0.11-1.5-0.36-2.83-0.88-4.12c-0.93-2.3-1.26-4.91-3.36-6.65c-0.46-0.38-0.63-1.11-0.91-1.69
			c-0.4-0.81-0.71-1.66-1.18-2.42c-0.65-1.03-1.28-2.01-1.55-3.27c-0.21-0.97-1.06-1.79-1.8-2.98c-0.35,1.69-0.65,2.94-0.86,4.2
			c-0.59,3.44-0.98,6.86-0.4,10.37c0.39,2.4,0.27,4.88,0.43,7.32c0.08,1.28,0.25,2.55,0.44,3.81c0.11,0.7,0.4,1.36,0.52,2.06
			c1.18,6.68,2.53,13.32,4.52,19.81c0.22,0.73,0.68,1.39,0.96,2.11C96.42,500.53,96.63,501.31,96.99,502.41z M69.58,238.86
			c-0.25-1.44-0.48-2.74-0.68-4.04c-0.11-0.67-0.24-1.27-1.1-1.33c-1.21-0.09-2.46-0.09-3.63-0.38c-1.62-0.39-3.37-0.71-4.73-1.58
			c-3.91-2.5-8.41-3.49-12.66-5.53c-0.12,0.89-0.21,1.56-0.32,2.39C53.9,232.54,61.06,237.21,69.58,238.86z M63.27,38.9
			c0.07,0.13,0.15,0.25,0.22,0.38c0.72-0.39,1.46-0.75,2.16-1.17c2.05-1.21,4.04-2.53,6.14-3.65c2.66-1.42,5.39-2.7,8.12-4
			c1.38-0.66,1.72-1.75,1.6-3.34C74.91,30.48,68.76,34.19,63.27,38.9z M17.04,169.23c0.16-0.04,0.33-0.08,0.49-0.12
			c-2.52-11.53-2.84-23.2-2.02-34.93c-1.1-0.01-1.37,0.59-1.42,1.37c-0.16,2.43-0.6,4.86,0.13,7.3c0.18,0.59,0.07,1.27,0.07,1.91
			c0,2.63-0.47,5.37,0.1,7.88c0.58,2.55,0.41,5.1,0.81,7.62c0.29,1.78,0.4,3.6,0.74,5.37C16.16,166.85,16.66,168.03,17.04,169.23z
			 M4.7,173.59c-0.12-0.01-0.25-0.02-0.37-0.03c-0.07,0.09-0.19,0.19-0.19,0.28c0.08,3.02,0.12,6.05,0.27,9.07
			c0.07,1.39,0.15,2.83,0.55,4.15c0.47,1.59,1.25,3.08,1.95,4.59c0.1,0.22,0.54,0.45,0.75,0.39c0.22-0.06,0.44-0.44,0.5-0.71
			c0.05-0.21-0.08-0.53-0.23-0.71c-1.12-1.28-1.41-2.85-1.66-4.45c-0.4-2.52-1.3-4.99-0.95-7.61c0.03-0.22-0.11-0.47-0.17-0.71
			c-0.15-0.6-0.37-1.2-0.42-1.81C4.65,175.24,4.7,174.41,4.7,173.59z M112.86,72.12c-0.09-2.66-2.75-8.68-4.39-10.03
			C108.02,65.13,110.08,71.75,112.86,72.12z M99.07,18.98c1.05-0.11,1.74-0.07,2.35-0.28c2.33-0.77,4.6-1.73,6.95-2.4
			c3.22-0.92,6.3-2.34,9.65-2.8c0.66-0.09,1.29-0.49,1.93-0.75C111.81,13.97,101.69,17.03,99.07,18.98z M86.02,27.27
			c2.85-1.97,5.42-4.31,8.72-5.52c0.54-0.2,1.07-0.48,1.5-0.85c0.31-0.26,0.43-0.74,0.64-1.11c-3.1,1.07-5.92,2.3-8.71,3.59
			c-0.35,0.16-0.84,0.71-0.77,0.94C87.84,25.75,86.97,26.46,86.02,27.27z M187.75,493.52c1.49-1.19,2.75-2.17,3.96-3.19
			c0.27-0.23,0.54-0.64,0.55-0.97c0.02-1.91-0.05-3.83-0.09-6.02C190.64,486.86,189.25,490.08,187.75,493.52z M115.56,708
			c3.57,0.63,6.92,1.36,10.58,0.57c-0.08-0.34-0.33-0.43-0.58-0.47c-1.2-0.17-2.43-0.57-3.6-0.44c-1.65,0.19-3.18,0.14-4.7-0.51
			C116.67,706.91,116.12,706.9,115.56,708z M129.6,708.98c1.51,0.42,3.03,0.98,4.76-0.22C132.58,708.33,131.07,708.03,129.6,708.98z
			 M99.7,705.25c-0.03,0.21-0.06,0.42-0.09,0.63c1.49-0.15,2.9,0.7,4.41,0.31c0.02-0.16,0.03-0.33,0.05-0.49
			C102.61,705.54,101.15,705.39,99.7,705.25z M213.04,701.8c-1.38-0.98-1.61-0.92-2.96,0.96
			C211.26,702.41,212.27,702.68,213.04,701.8z M36.17,690.03c-0.65-1.02-1.32-1.55-2.44-1.27C34.21,690.2,34.6,690.42,36.17,690.03z
			 M109.61,706.77c-1.05-0.47-2.12-0.66-3.22-0.22C107.43,707.12,108.52,706.98,109.61,706.77z M206.61,702.29
			c0.29,0.45,0.42,0.9,0.64,0.95c0.65,0.15,1.2-0.1,1.59-0.95C208.07,702.29,207.47,702.29,206.61,702.29z M8.6,196.76
			c-0.16,0.67-0.45,1.36,0.41,1.89C9.59,197.82,9.61,197.19,8.6,196.76z M228.88,213.15c-1.28,0.47-1.96,1.06-2.35,2.37
			C227.38,214.66,228.01,214.03,228.88,213.15z M225.58,216.5c-0.11-0.11-0.23-0.22-0.34-0.32c-0.52,0.67-1.72,0.71-1.81,2.23
			C224.31,217.62,224.95,217.06,225.58,216.5z M16.53,126.67c-0.15-0.02-0.3-0.03-0.45-0.05c-0.06,0.43-0.11,0.85-0.2,1.55
			C16.81,127.64,16.82,127.19,16.53,126.67z M15.91,129.15c-0.1,0-0.21,0-0.31,0.01c0,0.44,0,0.87,0,1.31c0.1,0,0.21-0.01,0.31-0.01
			C15.91,130.02,15.91,129.58,15.91,129.15z M257.56,167.71c-0.07-0.01-0.14-0.02-0.21-0.04c-0.19,0.54-0.38,1.08-0.57,1.61
			c0.44-0.16,0.67-0.43,0.77-0.74C257.63,168.29,257.56,167.99,257.56,167.71z M18.44,173.19c0.16-0.01,0.31-0.02,0.47-0.03
			c-0.03-0.32-0.06-0.64-0.09-0.96c-0.11,0.01-0.21,0.01-0.32,0.02C18.49,172.54,18.46,172.86,18.44,173.19z M250.89,686.09
			c0.15-0.19,0.34-0.34,0.32-0.44c-0.02-0.14-0.21-0.25-0.33-0.38c-0.11,0.12-0.31,0.23-0.32,0.35
			C250.56,685.75,250.74,685.88,250.89,686.09z M228.81,697.95c-0.19-0.15-0.34-0.35-0.46-0.33c-0.14,0.02-0.33,0.22-0.35,0.36
			c-0.01,0.11,0.22,0.36,0.32,0.35C228.47,698.31,228.6,698.12,228.81,697.95z M153.91,711.1c0.01,0.1,0.03,0.21,0.04,0.32
			c0.35-0.04,0.71-0.08,1.06-0.12c0-0.05-0.01-0.09-0.01-0.14C154.64,711.14,154.27,711.12,153.91,711.1z M79.09,632.1
			c0.18-0.2,0.37-0.32,0.39-0.46c0.01-0.11-0.23-0.33-0.34-0.32c-0.14,0.02-0.32,0.2-0.36,0.35
			C78.75,631.76,78.95,631.91,79.09,632.1z M149.32,711.71c0.14-0.19,0.24-0.33,0.34-0.46c-0.11-0.06-0.23-0.18-0.32-0.16
			c-0.16,0.03-0.3,0.14-0.44,0.22C149.02,711.42,149.14,711.54,149.32,711.71z"/>
		<path d="M98.61,542.77c-0.5,0.08-1.12,0.39-1.47,0.2c-1.12-0.61-1.86,0-2.6,0.6c-0.65,0.53-1.22,1.16-1.85,1.71
			c-1.7,1.47-3.41,2.94-5.15,4.38c-0.52,0.43-1.09,0.62-1.75,0.1c-0.93-0.73-0.93-1.89,0.19-2.25c1.75-0.56,2.95-1.81,4.26-2.96
			c2.37-2.09,4.7-4.24,7.15-6.23c2.9-2.35,5.85-4.67,8.92-6.79c3.06-2.11,5.66-4.69,8.29-7.26c1.2-1.17,2.36-2.38,3.49-3.62
			c0.95-1.05,1.84-2.16,2.18-3.61c0.08-0.36,0.36-0.68,0.59-0.98c2.7-3.38,5.43-6.74,8.1-10.14c2.07-2.64,4.08-5.34,6.1-8.02
			c0.23-0.31,0.42-0.65,0.7-1.09c-1.34-1.43-0.47-2.51,0.53-3.68c0.87-1.02,1.53-2.21,2.35-3.29c3.78-5,7.6-9.97,11.35-14.99
			c0.52-0.7,0.84-1.58,1.14-2.41c0.28-0.77,0.67-1.23,1.44-1.65c0.91-0.49,1.76-1.32,2.33-2.2c3.18-4.88,6.8-9.4,10.66-13.74
			c0.34-0.38,0.57-0.87,0.89-1.27c1.25-1.58,2.54-1.36,3.45,0.66c-0.19,0.2-0.37,0.49-0.63,0.65c-1.4,0.84-2.25,1.87-1.69,3.67
			c0.15,0.47-0.2,1.11-0.38,1.65c-0.31,0.92-0.71,1.8-1.02,2.72c-0.3,0.88-0.33,1.72,0.24,2.59c0.96,1.47,0.5,3.17,0.48,4.74
			c-0.04,2.51-0.44,5.02-0.68,7.52c-0.04,0.45-0.15,0.93-0.02,1.34c0.92,2.93-0.04,5.64-1.09,8.26c-1.83,4.55-3.84,9.02-5.78,13.53
			c-0.39,0.91-0.89,1.56-1.93,1.98c-0.87,0.36-1.54,1.33-2.15,2.13c-2.28,2.97-4.36,6.11-6.79,8.95c-2.77,3.22-5.84,6.18-8.77,9.26
			c-0.22,0.23-0.46,0.49-0.55,0.79c-0.95,3.14-3.04,5.68-4.52,8.54c-1.3,2.52-2.91,4.87-4.22,7.39c-0.85,1.63-1.4,3.42-2.13,5.24
			c-0.7-0.33-1.31-0.62-1.94-0.93c-2.9,3.21-5.65,6.48-8.64,9.5c-4.09,4.12-8.33,8.09-12.57,12.06c-1.45,1.36-3.11,2.49-4.64,3.76
			c-0.74,0.61-1.33,1.42-2.1,1.97c-0.73,0.52-1.94,0.08-2.33-0.68c-0.37-0.72-0.13-1.75,0.6-2.21c0.42-0.26,0.98-0.58,1.41-0.51
			c1.44,0.26,2.25-0.64,3.24-1.39c4.77-3.61,8.85-7.95,12.87-12.33c3.84-4.19,7.46-8.58,11.17-12.89c0.84-0.98,1.66-1.98,2.49-2.96
			c1.89-2.22,2.74-4.96,3.79-7.59c1.46-3.68,3.03-7.29,5.4-10.49c1.35-1.81,2.75-3.6,4.23-5.3c3.6-4.14,7.32-8.19,10.87-12.37
			c1.49-1.75,3.11-3.48,3.69-5.84c0.06-0.25,0.21-0.47,0.33-0.7c0.87-1.67,0.99-1.72,2.95-1.01c0.56-1.5,1.13-3,1.69-4.5
			c0.04-0.12,0.08-0.27,0.04-0.38c-0.9-2.44-0.16-4.94-0.22-7.41c-0.06-2.45,0.06-4.92,0.32-7.36c0.22-2.04,0.75-4.06,1.16-6.08
			c0.12-0.62,0.3-1.22,0.54-2.22c-0.63,0.39-0.99,0.51-1.18,0.75c-2.5,3.11-4.96,6.25-7.46,9.36c-2.18,2.71-4.48,5.32-6.58,8.09
			c-1.75,2.31-3.34,4.75-4.92,7.19c-2.99,4.6-5.83,9.29-9.29,13.57c-2.07,2.56-3.92,5.28-5.91,7.91c-0.81,1.07-1.69,2.09-2.84,3.5
			c0.83-0.46,1.23-0.79,1.68-0.89c0.37-0.08,0.96,0,1.15,0.24c0.18,0.23,0.11,0.94-0.12,1.14c-1.2,1.06-2.4,2.19-3.77,2.98
			c-2.5,1.43-4.39,3.55-6.57,5.34c-0.2,0.16-0.35,0.4-0.57,0.51c-2.05,1.12-3.43,2.92-4.92,4.63c-0.41,0.47-0.98,0.8-1.48,1.18
			c-1.78,1.37-3.84,2.49-5.28,4.16c-1.64,1.91-3.46,3.63-5.15,5.48C99.11,542.57,98.86,542.67,98.61,542.77z M164.83,459.74
			c-0.11-0.06-0.22-0.12-0.34-0.19c-3.09,3.94-6.17,7.88-9.26,11.82c0.14,0.11,0.27,0.22,0.41,0.34c2.72-3.27,5.45-6.53,8.16-9.81
			c0.37-0.44,0.65-0.96,0.93-1.46C164.84,460.24,164.8,459.97,164.83,459.74z M148.93,510.22c-0.14-0.11-0.29-0.22-0.43-0.33
			c-3.03,3.54-6.06,7.07-9.09,10.61c0.1,0.08,0.19,0.17,0.29,0.25C143.18,517.59,146.17,514,148.93,510.22z M162.63,480.93
			c1.2-1.93,1.93-7.98,1.15-10.09C163.42,474.07,163.05,477.29,162.63,480.93z M153.53,474c0.08,0.06,0.16,0.11,0.24,0.17
			c0.13-0.18,0.26-0.36,0.39-0.54c-0.08-0.06-0.16-0.11-0.24-0.17C153.79,473.63,153.66,473.81,153.53,474z"/>
		<path d="M66.49,368.68c-0.01-1.47,0.55-2.55,1.23-2.69c1.01-0.21,1.73,0.14,2.17,1.15c0.22,0.51,0.76,0.88,1.07,1.36
			c2.02,3.07,3.98,6.2,6.05,9.24c1.41,2.07,2.87,4.13,4.51,6.04c3.58,4.18,6.79,8.58,9.33,13.48c1.24,2.39,2.45,4.82,4.38,6.77
			c0.13,0.14,0.24,0.31,0.33,0.48c1.49,2.72,3.04,5.41,4.43,8.18c0.6,1.19,0.87,2.55,1.28,3.84c0.12,0.37,0.16,0.76,0.3,1.12
			c1.5,3.77,3.15,7.49,4.48,11.33c0.86,2.47,1.89,4.86,2.78,7.31c0.47,1.27,0.76,2.6,1.18,3.88c0.69,2.08,1.42,4.16,2.16,6.23
			c1.18,3.3,1.45,6.8,2.22,10.19c0.2,0.88,0.44,1.74,0.66,2.62c0.12,0.5,0.37,1.01,0.32,1.49c-0.04,0.36-0.42,0.85-0.75,0.95
			s-0.9-0.1-1.16-0.37c-0.28-0.29-0.33-0.81-0.46-1.24c-0.83-2.65-1.66-5.3-2.47-7.95c-1.17-3.89-2.27-7.8-3.5-11.67
			c-0.74-2.33-1.72-4.58-2.54-6.88c-1.34-3.77-2.61-7.56-3.96-11.32c-0.27-0.76-0.89-1.39-1.2-2.14c-0.57-1.36-0.98-2.78-1.54-4.14
			c-0.61-1.48-1.21-2.98-2.01-4.35c-2.19-3.72-4.71-7.26-6.67-11.09c-1.51-2.94-3.23-5.69-5.05-8.42c-1.58-2.37-3.53-4.42-5.4-6.54
			c-1.4-1.59-2.53-3.42-3.7-5.2c-2.31-3.5-4.55-7.04-7.58-10.01C66.85,369.8,66.65,368.98,66.49,368.68z"/>
		<path d="M133.73,576.59c-1.7,1.04-3.44,2-5.08,3.12c-3.52,2.4-6.99,4.88-10.48,7.33c-0.87,0.61-1.73,1.06-1.81,2.47
			c-0.09,1.51-3.37,2.63-4.66,1.79c-0.6-0.39-0.82-1.24-0.36-1.87c0.33-0.45,0.8-0.91,1.31-1.11c3.18-1.21,5.81-3.36,8.58-5.21
			c5.15-3.44,10.16-7.1,15.18-10.74c2.56-1.85,5.15-3.68,7.64-5.59c5.12-3.93,9.98-8.19,14.9-12.38c2.09-1.79,4.11-3.67,6.03-5.64
			c3.59-3.68,6.31-8.01,8.94-12.39c0.76-1.26,0.84-2.55-0.01-3.76c0.89-1.35,2.02-2.1,3.76-2.28c0.72,1.53,0.49,3.1-0.21,4.52
			c-2.77,5.52-6.51,10.37-10.72,14.86c-0.3,0.32-0.46,0.75-0.72,1.12c-0.59,0.84-1.06,1.81-1.81,2.47
			c-2.46,2.18-5.06,4.21-7.53,6.37c-2.58,2.25-5.07,4.59-7.61,6.89c-2.1,1.91-4.14,3.89-6.32,5.7c-3.02,2.52-6.1,4.97-9.24,7.34
			c-2.31,1.75-4.82,3.24-7.11,5.02c-1.89,1.47-4.28,2.4-5.43,4.73c-0.27,0.55-0.7,0.74-1.28,0.48c-0.6-0.27-0.97-0.73-0.73-1.38
			c0.17-0.46,0.45-0.95,0.83-1.24c1.65-1.23,3.38-2.36,5.04-3.59c2.8-2.08,5.56-4.2,8.33-6.32c0.23-0.17,0.35-0.49,0.52-0.74
			c0.36-0.2,0.72-0.4,1.09-0.6c-0.07-0.1-0.14-0.19-0.21-0.29C134.28,575.97,134,576.28,133.73,576.59z"/>
		<path d="M174.58,577.64c-0.45-0.51-0.83-0.93-1.38-1.56c-1,1.31-1.93,2.54-2.9,3.82c-1-0.54-0.84-1.25-0.46-1.98
			c0.74-1.44,1.49-2.87,2.27-4.29c0.43-0.78,0.73-1.46-0.03-2.27c-0.71-0.75-0.25-1.55,0.19-2.31c1.46-2.51,2.93-5.01,4.33-7.55
			c1.85-3.36,2.98-7.01,4.09-10.65c1.04-3.39,2.06-6.79,2.62-10.3c0.4-2.49,0.95-4.95,1.37-7.43c0.45-2.67,0.81-5.35,1.25-8.02
			c0.29-1.74,0.39-3.43-0.05-5.19c-0.49-1.95,0.33-2.71,2.25-2.33c0.72,0.14,1.19,0.5,1.26,1.25c0.2,2.18,0.7,4.34,0.16,6.55
			c-0.35,1.44-0.6,2.91-0.79,4.38c-0.1,0.81-0.09,1.67,0.09,2.45c0.19,0.85,0.12,1.46-0.56,2.07c-0.39,0.35-0.67,0.94-0.77,1.46
			c-0.8,3.98-1.41,8.01-2.35,11.95c-0.66,2.75-1.76,5.4-2.65,8.09c-1.3,3.91-2.65,7.81-3.88,11.75c-0.69,2.2-1.16,4.48-1.78,6.71
			C176.48,575.55,176.27,576.96,174.58,577.64z"/>
		<path d="M98.61,542.77c0.25-0.1,0.5-0.2,0.75-0.3c3.3-1.48,6.46-3.22,9.41-5.33c0.99-0.71,1.88-1.57,2.81-2.37
			c0.25-0.21,0.45-0.55,0.72-0.62c0.45-0.12,1.09-0.27,1.39-0.05c0.56,0.4,0.39,1.05-0.07,1.52c-1.81,1.87-3.86,3.4-6.17,4.61
			c-0.67,0.35-1.25,0.88-1.9,1.26c-1.11,0.65-2.23,1.27-3.37,1.87c-0.4,0.21-0.86,0.28-1.26,0.48
			C99.39,544.62,99.12,544.5,98.61,542.77z"/>
		<path d="M249.94,660.13c1.16,1.62,2.26,2.8,2.54,4.59C250.66,663.8,249.69,662.19,249.94,660.13z"/>
		<path d="M271.88,733.6c0.58-0.91,1.26-1.25,2.06-1.22c0.64,0.03,1.14,0.41,1.03,1.13c-0.11,0.66-0.63,0.74-1.2,0.59
			C273.21,733.96,272.66,733.81,271.88,733.6z"/>
		<path d="M338.86,678.17c-1.38-0.23-2.23,0.9-3.42,0.36C336.15,677.03,337.1,676.87,338.86,678.17z"/>
		<path d="M358.79,659.25c-1.23-1.25-0.59-2.55-1.34-3.91C358.78,656.17,358.8,656.25,358.79,659.25z"/>
		<path d="M27.64,572.94c-0.18,1.63-1.02,2.29-2.45,2.83C25.59,574.33,26.44,573.68,27.64,572.94z"/>
		<path d="M200.72,772.89c-0.55-0.73-0.53-1.23,0.13-1.55c0.15-0.07,0.56,0.06,0.62,0.2C201.77,772.21,201.38,772.56,200.72,772.89z
			"/>
		<path d="M162.89,509.65c-0.17-0.68-0.33-1.36-0.5-2.04c1.03,0.42,1.36,1.05,1.05,1.9C163.26,509.56,163.08,509.61,162.89,509.65z"
			/>
		<path d="M224.67,670.5c0.09-0.61,0.18-1.22,0.27-1.83c0.89,0.71,0.7,1.31,0.22,1.89C224.99,670.55,224.83,670.52,224.67,670.5z"/>
		<path d="M271.75,610.62c-1.31-0.43-1.24-1.03-1.14-1.63c0.14-0.06,0.28-0.11,0.41-0.17C271.22,609.31,271.41,609.79,271.75,610.62
			z"/>
		<path d="M26.6,627.46c-0.46-0.56-0.46-1.1,0.41-2.04c0.07,0.93,0.1,1.46,0.14,1.99C26.96,627.43,26.78,627.44,26.6,627.46z"/>
		<path d="M150.41,573.67c-0.11-0.52-0.21-1.04-0.38-1.85c1.22,0.51,1.13,1.08,0.89,1.71C150.75,573.58,150.58,573.63,150.41,573.67
			z"/>
		<path d="M282.29,463.36c-0.02-0.44-0.04-0.88-0.06-1.33c0.17-0.02,0.34-0.04,0.51-0.06c0.08,0.44,0.15,0.87,0.23,1.31
			C282.74,463.31,282.51,463.34,282.29,463.36z"/>
		<path d="M379.01,90.37c0.3-0.3,0.6-0.59,1.1-1.08c0.1,0.49,0.24,0.83,0.17,0.87c-0.33,0.21-0.71,0.35-1.07,0.51
			C379.15,90.57,379.08,90.47,379.01,90.37z"/>
		<path d="M60.95,491.21c0.3-0.09,0.61-0.18,0.91-0.26c0.02,0.17,0.07,0.49,0.05,0.5c-0.29,0.07-0.59,0.09-0.89,0.12
			C61,491.44,60.97,491.32,60.95,491.21z"/>
		<path d="M198.68,762.76c-0.12-0.2-0.28-0.35-0.27-0.48c0.01-0.14,0.19-0.26,0.29-0.4c0.14,0.16,0.31,0.3,0.39,0.48
			C199.11,762.42,198.86,762.59,198.68,762.76z"/>
		<path d="M305.94,702.87c-0.18-0.23-0.35-0.36-0.38-0.51c-0.02-0.12,0.14-0.26,0.22-0.4c0.12,0.12,0.3,0.23,0.34,0.37
			C306.16,702.46,306.03,702.63,305.94,702.87z"/>
		<path d="M260.06,70.33c0.32-0.13,0.64-0.26,0.96-0.39c0.05,0.12,0.1,0.24,0.15,0.36c-0.32,0.13-0.65,0.25-0.97,0.38
			C260.16,70.56,260.11,70.44,260.06,70.33z"/>
		<path d="M434.2,74.32c0.2,0.24,0.39,0.39,0.45,0.58c0.03,0.09-0.25,0.39-0.29,0.37c-0.2-0.09-0.39-0.23-0.51-0.41
			C433.81,74.82,434.01,74.6,434.2,74.32z"/>
		<path d="M214.88,425.2c0.02,0.38,0.04,0.77,0.07,1.15c-0.12,0.02-0.24,0.03-0.35,0.05c-0.07-0.38-0.15-0.75-0.22-1.13
			C214.54,425.25,214.71,425.23,214.88,425.2z"/>
		<path d="M218.85,649.12c-0.08-0.08-0.22-0.15-0.23-0.23c-0.01-0.11,0.08-0.23,0.12-0.34c0.11,0.1,0.24,0.18,0.32,0.31
			C219.08,648.88,218.92,649.02,218.85,649.12z"/>
		<path d="M341.58,675.76c-0.1-0.06-0.26-0.1-0.28-0.18c-0.03-0.09,0.06-0.22,0.1-0.33c0.14,0.08,0.28,0.16,0.41,0.24
			C341.74,675.58,341.66,675.67,341.58,675.76z"/>
		<path d="M306.3,704.82c-0.07-0.07-0.13-0.14-0.19-0.21c0.08-0.05,0.16-0.11,0.24-0.16c0.01,0,0.1,0.09,0.09,0.12
			C306.4,704.66,306.35,704.74,306.3,704.82z"/>
		<path class="st0" d="M208.03,770.86c1.41,0,2.45,0,3.63,0c-0.28,1.28-1.23,1.79-1.96,2.42c-0.16,0.14-0.93-0.11-1.08-0.37
			C208.32,772.39,208.26,771.73,208.03,770.86z"/>
		<path class="st0" d="M206.08,775.82c-0.49,0.34-0.83,0.74-1.04,0.69c-0.36-0.09-0.65-0.48-0.96-0.74c0.3-0.27,0.58-0.74,0.9-0.76
			C205.27,774.98,205.6,775.44,206.08,775.82z"/>
		<path class="st0" d="M214.91,770.15c-0.38,0.24-0.6,0.46-0.86,0.5c-0.11,0.02-0.44-0.41-0.41-0.47c0.14-0.23,0.37-0.46,0.62-0.55
			C214.36,769.59,214.59,769.89,214.91,770.15z"/>
		<path class="st0" d="M337.49,684.16c0.51-0.19,0.81-0.4,1.07-0.36c0.22,0.03,0.54,0.34,0.56,0.55c0.02,0.2-0.28,0.44-0.44,0.66
			C338.46,684.85,338.24,684.69,337.49,684.16z"/>
		<path class="st0" d="M354.62,673.58c-0.16-0.32-0.32-0.52-0.35-0.73c-0.01-0.09,0.23-0.22,0.36-0.33c0.14,0.19,0.32,0.36,0.4,0.57
			C355.06,673.16,354.84,673.33,354.62,673.58z"/>
		<path class="st0" d="M357.39,666.49c0.09-0.04,0.19-0.09,0.28-0.11c0.02,0,0.1,0.12,0.08,0.14c-0.05,0.09-0.13,0.16-0.2,0.24
			C357.5,666.67,357.44,666.58,357.39,666.49z"/>
		<path class="st0" d="M74.39,242.39c0.56,0.16,1.11,0.35,1.68,0.47c0.75,0.16,1.4,0.02,1.8-0.83c-0.94-1.15-2.32-1.21-3.51-1.34
			c-1.5-0.16-2.55-1.08-4.05-1.6c0.61-0.85,1.36-1.5,1.55-2.29c0.18-0.74-0.48-1.67-0.33-2.44c0.52-2.71,1.25-5.39,2.84-7.72
			c0.23-0.34,0.68-0.65,1.08-0.74c1.19-0.27,1.41-1.15,1.62-2.14c0.41-1.96,0.84-3.91,1.36-5.84c0.18-0.66,0.63-1.24,1.06-2.04
			c-0.64-0.67-1.31-1.38-2.25-2.38c-0.34-1.22-0.82-2.89-1.26-4.57c-0.67-2.6-2.11-4.73-4.14-6.42c-2.25-1.87-3.68-4.06-3.78-7.09
			c-0.05-1.47-0.47-2.93-0.69-4.39c-0.16-1.02,0.18-1.89,0.88-2.67c0.9-1.01,1.68-2.13,2.62-3.1c1.3-1.33,2.91-1.87,4.77-1.48
			c1.11,0.23,2.13,0.02,3.22-0.34c1.08-0.36,2.28-0.34,3.42-0.49c0.76-0.11,1.53-0.16,2.26-0.37c1.02-0.3,1.73-0.79,1.9-2.08
			c0.13-0.95,0.98-1.79,1.39-2.73c1.02-2.37,2.11-4.73,2.92-7.18c0.71-2.13,1.08-4.38,1.6-6.58c0.1-0.44,0.14-0.92,0.35-1.3
			c1.99-3.57,3.05-7.51,4.58-11.27c0.4-1,0.98-1.93,1.49-2.88c1.02-1.92,2.06-3.74,2.52-5.98c0.43-2.06,1.83-3.92,2.83-5.86
			c0.38-0.74,0.72-1.53,1.25-2.16c2.16-2.56,4.36-5.09,6.61-7.58c0.34-0.37,1.01-0.5,1.55-0.61c0.69-0.14,1.41-0.11,2.12-0.2
			c1.88-0.24,2.68-1.71,2.25-3.57c-0.49-2.1-0.91-4.24-0.78-6.43c0.02-0.3-0.05-0.65-0.21-0.9c-0.84-1.41-0.7-2.82-0.06-4.39
			c-0.72-0.64-1.42-1.39-2.25-1.97c-0.91-0.63-1.99-1.19-3.06-0.49c-2.05,1.35-3.85,0.39-5.64-0.5c-2.85-1.4-4.93-3.72-6.94-6.07
			c-3.59-4.19-5.8-9.1-6.88-14.48c-0.34-1.68-0.19-3.47-0.17-5.22c0.01-0.77,0.34-1.55-0.45-2.12c-0.66-0.47-1.23-0.36-2.56,0.51
			c-1.34-1.81-2.21-3.87-3.14-5.9c-0.08-0.17-0.17-0.4-0.12-0.56c0.57-2.12-0.9-3.58-1.68-5.25c-0.7-1.48-1.15-2.98-1.08-4.67
			c0.05-1.08-0.33-2.17-0.4-3.26c-0.12-2-0.16-4-0.23-6c-0.07-2.19-0.06-4.37,0.35-6.54c0.14-0.73-0.06-1.52-0.09-2.11
			c-0.68-0.49-1.36-0.77-1.74-1.27c-1.76-2.4-4.2-2.56-6.79-2.11c-1.4,0.24-2.78,0.63-4.14,1.03c-1.42,0.42-2.69,1.05-3.94,1.96
			c-1.47,1.08-3.3,1.7-5.04,2.37c-1.5,0.58-3.07,0.98-4.63,1.41c-0.7,0.19-1.45,0.23-2.55,0.4c0.41-0.81,0.51-1.4,0.85-1.65
			c1.54-1.12,2.69-2.68,4.47-3.56c1.66-0.82,3.08-2.11,4.65-3.13c2.01-1.29,4.03-2.57,6.1-3.76c2.96-1.71,6.02-3.24,8.93-5.02
			c3.53-2.16,7.18-2.31,10.94-0.96c3.23,1.16,6.52,1.62,9.9,1.17c1.94-0.26,3.55,0.25,5.16,1.59c-1.26,0.82-1.1,1.93-0.64,3.07
			c1.5,3.77,2.74,7.66,5.32,10.91c0.76,0.96,1.35,2.05,2.05,3.06c0.74,1.06,1.51,2.09,2.28,3.12c0.84,1.13,0.7,1.82-0.7,2.06
			c-2.09,0.37-4,1.33-6.17,1.53c-2.66,0.24-2.93,1.02-1.97,3.47c0.89,2.28,1.77,4.57,2.47,6.91c0.76,2.5,2.29,4.12,4.75,4.9
			c0.55,0.18,1.1,0.35,1.55,0.5c1.49,3.55,2.93,7.07,4.46,10.55c0.8,1.83,2.08,3.51,2.57,5.41c0.58,2.25,2,3.61,3.68,5
			c1.15-0.13,1.81-0.78,2.04-1.93c0.24-1.14-0.32-1.87-1.23-2.4c-1.92-1.12-2.91-2.87-3.99-4.79c-1.88-3.34-2.77-7.09-4.72-10.37
			c-0.22-0.38-0.28-0.85-0.43-1.28c-0.31-0.91-0.63-1.81-0.94-2.71c-0.25-0.72-0.5-1.44-0.73-2.16c-0.12-0.37-0.15-0.77-0.29-1.12
			c-1.03-2.42-2.08-4.83-3.2-7.42c1.03-0.35,2.15-0.78,3.3-1.09c0.28-0.07,0.67,0.25,0.99,0.43c0.95,0.52,2.37,0.57,2.91,0.08
			c0.78-0.7,1.12-2.43,0.66-3.41c-0.11-0.23-0.23-0.48-0.4-0.66c-1.74-1.82-3.01-3.99-4.48-6.02c-1.51-2.09-2.96-4.22-4.43-6.35
			c-0.22-0.32-0.41-0.68-0.49-1.05c-0.43-1.98-1.63-3.6-2.48-5.38c-0.21-0.44-0.24-0.95-0.37-1.52c0.65-0.15,1.12-0.27,1.62-0.38
			c0.28-1.53-0.79-2.22-1.74-2.78c-2.34-1.39-4.76-2.44-7.68-1.96c-2.52,0.41-5-0.43-7.46-0.94c-1.26-0.26-2.5-0.6-3.75-0.9
			c0.07-0.24,0.08-0.45,0.14-0.46c2.72-0.48,4.41-3.01,7.09-3.59c0.51-0.11,0.92-0.68,1.39-1.03c1.4-1.04,2.9-1.38,4.71-1.23
			c3.41,0.27,6.26,1.86,9.25,3.24c3.8,1.75,7.69,3.29,11.55,4.93c0.59,0.25,1.22,0.45,1.75,0.8c1.77,1.17,3.49,2.43,5.25,3.61
			c2.21,1.49,4.8,1.85,7.31,2.44c5.8,1.36,11.27-0.18,16.68-2.01c1.89-0.64,3.72-1.47,5.58-2.21c0.36-0.14,0.74-0.25,1.07-0.45
			c2.73-1.6,5.47-3.18,8.15-4.84c1.66-1.02,3.14-2.24,3.9-4.16c0.38-0.96,1.26-1.05,2.03-0.34c0.28,0.26,0.58,0.56,0.73,0.9
			c0.75,1.67,2.39,1.83,3.85,2.23c0.37,0.1,0.98-0.26,1.32-0.58c0.41-0.38,0.64-0.95,1.04-1.58c1.66,0.5,2.95,1.61,3.97,2.86
			c2.3,2.82,5.29,4.05,8.78,4.27c1.61,0.1,3.02,0.36,4.19,1.61c0.79,0.84,1.81,1.45,2.74,2.15c1.1,0.83,1.49,1.87,1.14,3.24
			c-0.45,1.75-0.78,3.53-1.26,5.28c-0.81,2.97,0.55,7.75,5,8.78c1.26,0.29,2.72,0.12,4.01-0.17c1.56-0.34,2.75-0.26,4.08,0.87
			c1.29,1.1,3.01,1.7,4.55,2.49c1.71,0.88,3.45,1.72,5.16,2.6c0.28,0.14,0.54,0.39,0.7,0.65c0.58,0.92,1.35,1.54,2.41,1.8
			c0.18,0.04,0.36,0.17,0.49,0.31c3.18,3.34,6.88,6.24,8.83,10.73c-0.2,0.11-0.4,0.31-0.62,0.32c-2.65,0.2-3.98,2.1-4.89,4.18
			c-1.33,3.01-2.76,6.06-2.76,9.43c0,1.9,0.41,3.81,0.74,5.71c0.14,0.82,0.59,1.57,0.79,2.39c0.34,1.39,1.24,2.17,2.5,2.72
			c3.11,1.36,5.02,3.8,5.81,7.04c0.26,1.07,0.68,2.34-0.15,3.36c-1.21,1.5-2.32,3.12-4.26,3.84c-1.2,0.45-2.4,0.93-3.56,1.48
			c-1.43,0.67-2.09,2.08-2.9,3.31c-1.28,1.92-2.59,3.79-3.25,6.1c-0.46,1.63-1.54,3.1-2.44,4.57c-0.28,0.46-0.84,0.82-1.35,1.04
			c-1.12,0.48-1.66,1.39-2.11,2.41c-0.77,1.74-0.94,3.53-0.69,5.42c0.3,2.23,0.08,4.49,0.8,6.71c0.39,1.2,0.87,2.11,2.02,2.64
			c0.53,0.24,1.08,0.46,1.56,0.79c0.49,0.34,0.9,0.79,1.68,1.51c-1.13,0.34-1.83,0.7-2.54,0.72c-0.88,0.03-1.41,0.47-2,1
			c-1.95,1.74-3.1,3.99-3.93,6.36c-0.93,2.68-2.38,4.93-4.21,7.09c-1.44,1.69-2.43,3.77-3.5,5.75c-0.25,0.46-0.12,1.28,0.14,1.78
			c0.14,0.27,0.97,0.34,1.41,0.23c0.81-0.2,0.92-0.97,1.01-1.7c0.23-1.69,0.24-1.69,1.83-2.91c-0.4,1.96,0.07,3.73-1.05,5.31
			c-0.55,0.78-1.33,1.1-2.16,1.09c-1.01-0.02-2.01-0.31-3.2-0.52c0.14-0.56,0.23-0.96,0.35-1.36c0.53-1.73,1.33-3.42,1.52-5.18
			c0.18-1.7-0.25-3.46-1.22-4.99c-0.45-0.71-0.94-1.41-1.26-2.18c-0.51-1.21-1.3-2.16-2.18-3.14c-1.55-1.73-3.41-2.88-5.51-3.7
			c0.57-2.48-0.95-4.19-2.24-5.86c-0.94-1.23-2.35-2.03-3.96-2.29c-1.1-0.18-1.87-0.66-2.35-1.74c-0.61-1.37-2.12-1.56-3.33-2.28
			c-0.78,0.77-1.36,1.86-2.85,1.54c0.04-0.55,0.11-1.11,0.12-1.67c0.04-1.62-0.43-2.08-2.07-1.95c-2.65,0.2-5.29,0.26-7.84-0.65
			c-0.58-0.21-1.11-0.58-1.7-0.76c-1.03-0.31-2.11-0.77-3.15-0.73c-3.92,0.14-6.82-1.94-9.37-4.44c-1.08-1.06-2.33-1.52-3.63-2.29
			c0.08-0.35,0.21-0.7,0.22-1.04c0.01-0.78-0.6-1.43-1.3-1.36c-0.83,0.08-0.77,0.7-0.71,1.3c0.29,2.73,1.46,4.8,4.25,5.66
			c0.24,0.08,0.48,0.2,0.7,0.32c0.1,0.06,0.18,0.18,0.41,0.43c-0.79,0.35-1.62,0.39-2.18,0c-1.15-0.81-2.47-1.64-3.12-2.8
			c-0.82-1.47-1.25-3.25-1.49-4.94c-0.34-2.44-0.71-2.91-3.09-2.99c-2.06-0.07-4.11-0.28-6.17-0.37c-1.34-0.06-2.34-0.76-3.19-1.64
			c-1.51-1.56-3.19-2.81-5.21-3.63c-0.45-0.18-0.89-0.55-1.16-0.95c-0.45-0.67-0.85-1.29-1.78-1.26c-0.21,0.01-0.5-0.2-0.63-0.39
			c-1.45-2.04-3.64-3.48-4.59-5.95c-1.02-2.64-2.24-5.2-3.34-7.8c-0.2-0.47-0.14-1.06-0.38-1.49c-1.31-2.28-0.44-4.48,0.19-6.68
			c0.18-0.62,0.7-1.28-0.22-1.6c-0.84-0.3-1.25,0.34-1.59,1.04c-1.27,2.6-1.29,5.25-0.35,7.92c0.99,2.8,2.07,5.56,3.1,8.34
			c0.11,0.29,0.11,0.62,0.17,0.97c-0.99,0.54-1.98,0.98-2.85,1.59c-1.4,0.98-1.41,2.45-0.09,3.5c0.35,0.28,0.76,0.49,1.16,0.7
			c1.59,0.83,3.23,1.59,4.77,2.51c0.75,0.45,1.35,1.16,1.97,1.81c0.95,0.99,1.2,1.03,2.45,0.37c0.34-0.18,0.91-0.31,1.19-0.15
			c1.22,0.68,2.44,1.4,3.52,2.27c0.84,0.68,1.34,1.8,2.21,2.41c1.33,0.92,2.94,1.16,4.58,1.2c1.54,0.04,3.08,0.14,4.61,0.33
			c0.95,0.12,1.72,0.54,1.73,1.73c0,0.5,0.29,1.01,0.31,1.51c0.11,2.58,1.67,4.29,3.51,5.78c1.46,1.18,3.14,1.79,5.07,1.38
			c1.13-0.24,2.27-0.45,3.36-0.67c2.22,1.08,4.48,2.18,6.73,3.27c0.92,0.45,1.79,0.6,2.76,0.03c1.01-0.59,2.04,0.02,2.97,0.32
			c1.93,0.61,3.84,1.06,5.87,0.63c0.67-0.14,0.95,0.28,0.95,0.89c0,0.51-0.12,1.03-0.11,1.54c0.04,1.77,1.04,2.69,2.98,2.32
			c1.28-0.24,2.37-0.33,3.49,0.42c0.28,0.19,0.76,0.09,1.14,0.1c2.61,0.05,4.76,0.77,5.96,3.43c0.47,1.05,1.17,1.94,1.26,3.18
			c0.04,0.53,0.6,1.12,1.07,1.49c0.6,0.47,1.31,0.94,2.03,1.09c2.96,0.61,4.38,2.9,5.61,5.24c1.59,3.04,1.44,6.24,0.04,9.35
			c-0.24,0.54-0.91,0.86-1.33,1.34c-0.5,0.56-1.09,1.11-1.37,1.78c-0.37,0.89,0.13,1.58,1.06,1.91c1.72,0.61,3.45,1.03,5.3,0.7
			c0.43-0.08,0.92-0.02,1.34,0.11c2.32,0.7,3.83-0.55,5.2-2.13c0.83-0.96,1.69-1.91,2.38-2.96c0.36-0.56,0.51-1.34,0.54-2.02
			c0.07-1.93,0.08-3.87,0.02-5.8c-0.06-2.19,1.68-4.88,3.84-5.44c1.37-0.36,2.3-1.12,3.03-2.23c1.42-2.14,2.28-4.48,2.21-7.08
			c-0.04-1.61-0.52-2.89-2.27-3.68c-2.89-1.3-2.89-1.44-2.87-4.68c0.01-2.19,0.18-4.38,0.39-6.56c0.09-0.95,0.88-1.44,1.78-1.44
			c1.15,0,1.6-0.52,1.74-1.61c0.11-0.89,0.4-1.75,0.64-2.62c0.4-1.44,0.95-2.76,1.92-3.97c1.25-1.55,2.38-3.23,3.3-5
			c1.03-1.99,2.81-2.77,4.69-3.45c1-0.36,1.83-0.82,2.53-1.63c0.97-1.12,2.07-2.13,3.09-3.22c1.66-1.78,1.86-4.81,0.48-6.78
			c-0.63-0.89-1.28-1.78-1.89-2.68c-1.08-1.59-2.18-3.17-3.18-4.81c-0.84-1.37-1.3-2.96-0.52-4.43c0.79-1.49,0.36-2.66-0.56-3.72
			c-0.87-1.01-2.02-0.44-3.15-0.14c-0.46-0.84-0.49-1.62-0.14-2.56c0.54-1.44,0.79-3,1.36-4.43c0.45-1.12,1.1-2.21,1.85-3.15
			c0.66-0.83,1.67-1.18,2.8-0.93c0.49,0.11,1.02,0.25,1.5,0.19c2.05-0.25,2.68-1.2,1.78-3.04c-1.1-2.25-2.27-4.44-4.26-6.15
			c-2.84-2.43-5.42-5.16-8.21-7.65c-2.73-2.44-5.9-4.21-9.46-5.13c-1.57-0.4-2.47-1.61-3.56-2.58c-1.66-1.47-2.83-1.69-4.85-0.84
			c-3.65,1.54-6.04-0.38-6.4-4.63c-0.11-1.29,0.47-2.64,0.77-3.96c0.1-0.44,0.33-0.85,0.46-1.28c0.98-3.19,0.1-5.85-2.8-7.92
			c-1.51-1.08-2.95-2.25-4.86-2.75c-1.13-0.3-2.08-1.25-3.16-1.82c-1.37-0.73-2.77-1.4-4.41-1.22c-0.98,0.11-1.61-0.47-2.01-1.24
			c-0.7-1.35-1.65-2.19-3.05-2.97c-1.63-0.91-3.14-1.46-5-1.71c-1.79-0.25-3.47-1.28-4.48-3.05c-0.89-1.57-2.33-1.74-3.37-0.28
			c-0.76,1.07-1.38,2.39-1.59,3.68c-0.7,4.17-3.52,6.45-6.95,8.24c-1.7,0.89-3.49,1.6-5.2,2.47c-4.38,2.23-9.1,3.18-13.9,3.97
			c-3.33,0.55-6.38-0.36-9.52-1.13c-2.32-0.57-4.18-1.96-6.22-3.02c-0.45-0.23-0.79-0.82-1-1.32c-0.65-1.5-1.27-2-2.81-1.5
			c-0.95,0.31-1.63,0.06-2.38-0.29c-3.91-1.85-7.81-3.71-11.71-5.57c-1.03-0.49-2.09-0.93-3.08-1.49c-0.46-0.26-0.78-0.75-1.4-1.38
			c1.65-0.55,2.96-1.01,4.27-1.43c2.01-0.64,4.02-1.29,6.05-1.85c0.85-0.24,1.77-0.25,2.65-0.38c0.74-0.11,1.57-0.07,2.19-0.4
			c2.81-1.5,5.92-1.79,8.96-2.31c2.74-0.47,5.5-0.85,8.27-1.09c3.02-0.26,6.06-0.45,9.09-0.43c6.21,0.04,12.44,0.02,18.63,0.43
			c5.8,0.38,11.57,1.21,17.33,1.98c2.3,0.31,4.53,1.02,6.81,1.47c0.99,0.19,2.02,0.15,3.02,0.28c1.15,0.15,2.3,0.32,3.43,0.56
			c4.03,0.87,8.07,1.7,12.08,2.67c2.74,0.66,5.44,1.53,8.15,2.31c0.18,0.05,0.36,0.15,0.51,0.26c1.11,0.75,2.23,1.5,3.32,2.28
			c0.25,0.18,0.43,0.46,0.94,1.03c-2.23-0.99-4.05-1.82-5.89-2.59c-1.54-0.64-3.11-1.2-4.66-1.8c-0.73-0.28-1.28-0.02-1.68,0.57
			s-0.19,1.16,0.33,1.53c0.51,0.37,1.08,0.77,1.69,0.91c3.76,0.88,7.16,2.66,10.5,4.43c3.11,1.65,6.08,3.63,8.48,6.37
			c1.48,1.7,3.27,3.12,4.85,4.74c2.76,2.82,5.32,5.8,6.77,9.56c0.05,0.12,0.08,0.26,0.17,0.34c3.02,3.21,4.35,7.4,6.52,11.11
			c0.94,1.62,1.95,3.21,2.73,4.91c1.83,3.99,3.54,8.04,5.34,12.16c-0.54,0.49-1.08,0.98-1.64,1.49c2.73,1.97,3.95,4.69,4.92,7.71
			c1.24,3.87,3.09,7.55,4.21,11.45c0.92,3.2,1.26,6.59,1.69,9.91c0.24,1.85,0.15,3.74,0.23,5.61c0.02,0.39,0.08,0.77,0.16,1.15
			c1.48,7.26,1.79,14.6,1.48,21.97c-0.07,1.6-0.33,3.24-0.81,4.77c-1.42,4.5-3,8.94-4.51,13.42c-0.59,1.75-1.13,3.51-1.73,5.26
			c-0.11,0.34-0.33,0.64-0.53,0.94c-0.5,0.73-1.12,1.4-1.51,2.19c-1.64,3.3-3.2,6.64-4.81,9.95c-0.22,0.46-0.54,0.89-0.9,1.25
			c-0.67,0.66-0.92,1.48-1.29,2.31c-0.7,1.56-1.68,3.02-2.71,4.4c-0.94,1.25-0.99,1.4,0.6,2.34c-0.98,2.05-1.61,4.27-2.93,6.21
			c-0.79,1.17-1.33,2.52-2.15,3.66c-1.8,2.51-3.71,4.95-5.58,7.41c-0.19,0.26-0.5,0.43-0.66,0.71c-1.47,2.63-3.83,4.51-5.83,6.66
			c-2.57,2.77-5.4,5.33-8.36,7.75c-2.47,2.01-5.06,3.77-7.85,5.26c-0.81,0.44-1.83,0.54-2.77,0.67c-0.74,0.1-1.51,0.02-2.36,0.02
			c0.38,2.33,2.45,1.39,3.8,2.26c-1.04,0.28-1.84,0.44-2.61,0.72c-2.3,0.82-4.53,1.92-6.88,2.49c-3.65,0.88-7.24,2.14-11.1,2.03
			c-2.29-0.07-4.59,0.23-6.87,0.45c-0.42,0.04-0.95,0.35-1.18,0.7c-0.74,1.15-1.36,1.5-2.65,0.94c-0.69-0.3-1.26-0.21-1.97-0.17
			c-2.31,0.13-4.69,0.27-6.95-0.11c-1.63-0.28-3.23-0.3-4.84-0.46c-3.65-0.37-7.34-0.75-10.79-2.15c-0.94-0.38-1.86-0.89-2.68-1.5
			c-1.62-1.19-1.59-1.23-1.37-3.64c0.42,0.25,0.76,0.45,1.1,0.67c0.65,0.42,1.24,0.97,1.94,1.24c0.35,0.13,1-0.12,1.32-0.41
			c0.47-0.44,0.19-0.99-0.26-1.32c-0.73-0.54-1.53-0.98-2.25-1.51c-2.31-1.7-2.27-1.71-2.54-4.54c-0.21-2.24-0.74-4.46-0.77-6.69
			c-0.05-3.78-0.77-7.5-0.71-11.32c0.05-3.22,0.28-6.45,0.23-9.66c-0.06-3.66-0.16-7.35-1.46-10.91c-0.58-1.59-1.09-3.47-0.14-5.24
			c-1.22-1.5-2.42-2.98-2.5-5.06c-0.02-0.42-0.28-0.85-0.48-1.25c-0.6-1.15-1.81-1.85-2.8-1.66c-0.78,0.15-1.71,1.34-1.75,2.53
			c-0.07,2.6-1.42,4.61-2.94,6.88c-0.45-1.21-1.04-2.19-1.14-3.22c-0.11-1.17-0.71-2.01-1.23-2.96c-0.86-1.59-1.59-3.24-2.35-4.89
			c-0.13-0.28-0.21-0.65-0.16-0.94c0.28-1.49-0.72-2.23-1.8-2.6c-1.82-0.63-3.74-0.98-5.62-1.42c-0.22-0.05-0.5,0.1-0.74,0.17
			c-0.98,0.28-2.01,0.45-2.93,0.88c-0.91,0.42-1.85,0.95-2.51,1.68c-0.76,0.84-1.24,1.93-1.83,2.93c-0.13,0.22-0.27,0.46-0.31,0.7
			c-0.51,3.59-0.92,7.2,0.26,10.74c0.36,1.09,0.94,2.13,1.55,3.11c1.57,2.52,3.44,4.88,4.77,7.51c1.26,2.49,3.32,4.24,4.91,6.41
			c1.56,2.13,3.05,4.3,4.52,6.5c0.35,0.52,0.48,1.2,0.73,1.79c0.22,0.53,0.36,1.15,0.73,1.55c1.85,2.01,2.36,4.49,2.79,7.06
			c0.24,1.45,0.84,2.85,1.03,4.31c0.46,3.52,0.74,7.05,1.15,10.58c0.22,1.85,0.61,3.69,0.82,5.54c0.21,1.82-0.24,3.45-1.74,4.66
			c-1.75,1.42-3.39,3.02-5.28,4.24c-1.99,1.28-4.15,2.35-6.35,3.24c-2.44,0.99-4.96,1.88-7.52,2.46c-4.22,0.95-8.5,1.64-12.84,0.49
			c-0.75-0.2-1.65-0.51-2.13,0.71c2.52,1.48,5.15,1.94,7.97,1.62c-2.95,1.22-6,1.38-9.08,1.34c-1.94-0.02-3.88,0.13-5.82,0.09
			c-3.7-0.07-7.28-0.9-10.84-1.81c-2.68-0.68-5.35-1.38-7.99-2.21c-1.84-0.58-3.62-1.35-5.4-2.1c-0.37-0.16-0.62-0.59-0.93-0.9
			L74.39,242.39z M225.62,70.06c0.08-0.12,0.17-0.24,0.25-0.36c-0.99-1.31-2.8-2.24-4.2-1.96
			C223.11,68.59,224.37,69.33,225.62,70.06z M247.62,88.85c-0.14-0.05-0.28-0.09-0.42-0.14c-0.17,0.53-0.35,1.06-0.52,1.59
			c0.13,0.04,0.26,0.08,0.39,0.13C247.25,89.9,247.44,89.37,247.62,88.85z"/>
		<path class="st0" d="M20.09,138.96c-0.72-0.16-1.2-0.26-1.72-0.38c-0.06,0.13-0.19,0.3-0.2,0.47c-0.07,1.02-0.09,2.05-0.17,3.07
			c-0.04,0.46,0.05,1.06-0.77,1c-0.09-0.01-0.3,0.53-0.31,0.82c-0.03,1.16-0.01,2.33,0,3.49c0,0.41,0,0.82-0.16,1.25
			c-0.84-1.37-0.88-2.89-0.85-4.4c0.05-2.64,0.14-5.29,0.25-7.93c0.02-0.51,0.25-1.01,0.26-1.52c0.02-0.91,0.81-1.83-0.07-2.76
			c-0.15-0.15,0.13-0.71,0.21-1.08c0.53-2.44,1.05-4.88,1.64-7.59c-0.53,0.43-0.8,0.64-1.09,0.87c-1.1-1.91,1.49-2.21,1.47-3.69
			c-0.34,0.08-0.62,0.14-1.06,0.25c-0.08-0.98,0.46-1.69,0.86-2.45c0.24-0.45,0.71-0.99,0.6-1.36c-0.38-1.29,0.28-2.25,0.75-3.3
			c0.15-0.35,0.38-0.74,0.34-1.08c-0.43-3.53,1.3-6.67,1.75-10.04c0.14-1.02,0.47-2.01,0.74-3.01c0.75-2.83,2.22-5.34,3.61-7.87
			c0.5-0.91,0.69-1.65,0.08-2.49c-0.54-0.74-0.47-1.31,0.09-2.07c0.59-0.81,0.8-1.87,1.3-2.76c2.66-4.72,5.19-9.53,8.09-14.1
			c2.89-4.57,5.73-9.23,9.59-13.11c0.66-0.66,1.56-1.09,2.37-1.59c1.31-0.81,2.64-1.58,4-2.4c1.85,0.67,3.85,0.84,5.73,0.09
			c3.29-1.31,6.5-2.83,9.74-4.29c1.58-0.71,3.13-1.51,4.71-2.22c1.62-0.73,3.34-0.98,5.09-0.74c0.49,0.07,1.03,0.47,1.37,0.87
			c0.78,0.93,0.93,2.08,0.92,3.28c-0.04,3.47-0.03,6.94-0.02,10.41c0,0.44,0.01,0.94,0.2,1.32c0.91,1.78,0.96,3.74,1.13,5.65
			c0.06,0.66-0.21,1.38-0.46,2.03c-0.42,1.07-0.44,2.03,0.5,2.82c2.21,1.84,3.28,4.42,4.48,6.9c0.79,1.63,1.5,3.29,2.99,4.47
			c0.61,0.49,1.04,1.11,0.98,2c-0.21,3.14,1.21,5.89,2.12,8.76c0.72,2.29,2.21,4.16,3.33,6.23c2.27,4.18,5.78,7.05,9.69,9.49
			c0.95,0.59,2.19,0.79,3.33,0.97c1.28,0.19,2.3,0.64,3.12,1.68c0.51,0.64,1.45,1.06,1.71,1.75c0.55,1.49,0.86,3.09,1.13,4.67
			c0.12,0.67-0.07,1.41-0.15,2.11c-0.12,1.01-0.53,1.79-1.41,2.42s-1.6,1.48-2.39,2.23c-1.63,1.55-3.27,3.1-4.89,4.66
			c-0.32,0.31-0.64,0.66-0.85,1.05c-1.89,3.45-3.75,6.91-5.62,10.37c-0.18,0.34-0.39,0.7-0.43,1.06c-0.35,3.7-2.53,6.53-4.47,9.48
			c-0.36,0.55-0.67,1.28-0.67,1.92c0.02,1.75-0.47,3.35-1.33,4.8c-1.57,2.66-2.41,5.54-2.94,8.55c-0.33,1.84-0.8,3.66-1.32,5.46
			c-0.23,0.78-0.72,1.5-1.15,2.21c-0.7,1.16-1.43,2.3-2.16,3.44c-0.84,1.31-2.06,1.91-3.6,1.89c-1.68-0.02-3.36-0.05-5.04-0.03
			c-1.98,0.02-3.77,0.48-5.35,1.87c-2.14,1.89-4.17,3.82-5.43,6.45c-0.39,0.82-0.43,1.55-0.18,2.41c0.65,2.22,1.22,4.47,1.82,6.71
			c0.07,0.25,0.22,0.52,0.18,0.74c-0.42,2.02,0.94,3.21,2.23,4.18c4.27,3.23,5.68,7.79,6.42,12.77c0.48,3.26-0.56,6.09-2.1,8.86
			c-0.81,1.46-1.48,3.01-2.18,4.54c-0.35,0.78-0.82,1.2-1.75,1.22c-1.19,0.04-2.38,0.3-3.57,0.46c-0.39-2.29-0.43-2.23-2.6-2.32
			c-1.39-0.05-2.75-0.21-4.13-0.78c-3.52-1.46-7.17-2.59-10.73-3.95c-1.8-0.69-3.54-1.52-5.25-2.41c-0.52-0.27-0.84-0.94-1.25-1.43
			c-1.49-1.81-2.3-4.01-3.45-6.01c-0.51-0.89-1.2-1.68-1.73-2.55c-0.83-1.38-1.61-2.78-2.39-4.19c-0.35-0.62-0.64-1.27-0.97-1.9
			c-0.21-0.4-0.59-0.77-0.64-1.18c-0.42-3.15-2.66-5.37-4.05-8.02c-0.51-0.97-0.87-2.02-1.29-3.04c-1.45-3.52-2.91-7.04-4.35-10.56
			c-0.19-0.47-0.38-0.99-0.38-1.49c0.01-3.49-1.39-6.69-1.99-10.04c-0.48-2.67-0.75-5.37-1.12-8.05c-0.01-0.06-0.03-0.14,0-0.19
			c0.75-1.4,0.04-2.79-0.04-4.18c-0.08-1.42-0.34-2.82-0.39-4.24c-0.06-1.59,0.03-3.19,0.05-4.79c0-0.64,0-1.29-0.06-1.93
			c-0.22-2.71,0.43-5.26,1.35-7.77C19.84,139.81,19.94,139.45,20.09,138.96z M27.41,88.4c1.97-1.94,2.59-3.4,2.16-4.81
			C28.83,85.26,28.12,86.83,27.41,88.4z M21.26,109.19c0.23-0.3,0.39-0.42,0.4-0.56c0.01-0.18-0.09-0.37-0.14-0.55
			c-0.09,0.02-0.17,0.03-0.26,0.05C21.26,108.41,21.26,108.69,21.26,109.19z M41.12,65.79c0.08-0.17,0.16-0.32,0.23-0.47
			c-0.11-0.03-0.24-0.11-0.32-0.07c-0.09,0.04-0.18,0.18-0.19,0.28C40.84,65.6,40.99,65.68,41.12,65.79z"/>
		<path class="st0" d="M216.84,228.06c-0.46,2.11,0.13,2.72,1.83,2.32c1.81-0.42,3-1.77,4.26-2.93c2.85-2.62,5.58-5.38,8.33-8.11
			c0.64-0.63,1.13-1.41,1.76-2.05c0.94-0.97,2.04-1.79,2.88-2.84c1.25-1.56,2.56-3.15,3.4-4.93c1.07-2.27,2.89-3.9,4.27-5.89
			c1.24-1.79,2.43-3.61,3.65-5.41c0.35-0.51,0.75-0.99,1.24-1.63c0.11,0.42,0.23,0.62,0.18,0.75c-1.35,3.69-2.19,7.56-4.14,11.04
			c-0.69,1.23-0.89,2.72-1.55,3.97c-3.29,6.2-5.39,12.87-7.85,19.39c-0.25,0.66-0.38,1.37-0.48,2.07c-0.41,2.93-1.91,5.47-2.94,8.17
			c-1.09,2.83-2.11,5.69-3.19,8.52c-0.51,1.33-1.1,2.62-1.66,3.93c-1.45,3.45-2.91,6.9-4.34,10.37c-0.49,1.19-0.86,2.44-1.32,3.64
			c-0.12,0.32-0.39,0.59-0.75,1.11c-0.22-0.67-0.39-1.07-0.47-1.48c-0.35-1.98-1.12-3.8-2.07-5.57c-0.57-1.06-0.87-2.28-1.26-3.43
			c-0.84-2.48-2.2-4.67-3.85-6.67c-1.6-1.94-3.15-3.94-4.92-5.71c-1.16-1.15-2.66-1.98-4.05-2.87c-0.75-0.48-1.6-0.82-2.42-1.18
			c-2.39-1.04-4.78-0.73-7.3-0.34c-1.64,0.26-2.79,1.37-4.36,1.62c-1.27,0.21-2.12,1.13-2.9,2.15c-0.39,0.52-1.21,0.69-1.72,1.15
			c-0.69,0.61-1.56,1.25-1.83,2.05c-0.43,1.26-1.18,2.13-2.19,2.83c-0.99,0.68-1.35,1.51-1.43,2.74c-0.16,2.37-0.55,4.74-1.04,7.07
			c-0.2,0.97-0.94,1.82-1.35,2.75c-0.23,0.52-0.46,1.11-0.42,1.65c0.16,2.08,0.06,4.12-0.4,6.16c-0.25,1.13-0.28,2.31-0.44,3.46
			c-0.09,0.61-0.25,1.21-0.43,2.04c-1.79-1.65-3.48-3.02-4.93-4.6c-0.85-0.92-1.32-2.2-1.95-3.31c-0.13-0.22-0.17-0.52-0.34-0.7
			c-2.11-2.17-2.79-5.2-4.53-7.61c-0.81-1.12-1.29-2.52-1.76-3.85c-0.78-2.18-1.44-4.4-2.16-6.6c-0.14-0.43-0.26-0.87-0.48-1.26
			c-1.55-2.8-2.28-5.87-2.97-8.95c-0.15-0.69-0.41-1.35-0.68-2c-1.3-3.08-1.49-6.33-1.72-9.69c1.6,0.55,2.97,1.02,4.36,1.49
			c3.12,1.05,6.28,1.83,9.6,1.91c1.05,0.03,2.17,0.24,3.25,1.31c-1.58,0.07-2.9,0.27-4.19,0.15c-2.17-0.2-4.41-0.04-6.48-0.93
			c-0.59-0.25-1.26-0.26-1.47,0.42c-0.11,0.37,0.13,1.07,0.45,1.31c0.54,0.41,1.24,0.72,1.91,0.82c4.87,0.72,9.74,0.87,14.63,0.05
			c1.9-0.32,3.83-0.41,5.75-0.61c1.84-0.19,3.68-0.4,5.52-0.6c0.77-0.08,1.46-0.14,1.92-1.02c0.23-0.43,1.04-0.65,1.63-0.78
			c4.57-1.03,9.27-1.51,13.7-3.19c1.24-0.47,2.69-0.36,3.99-0.71c1.72-0.47,3.48-0.95,5.06-1.75c1.83-0.92,3.41-2.33,5.23-3.28
			c3.18-1.68,5.77-4.11,8.58-6.27c1.27-0.98,2.6-1.89,3.87-2.87c0.29-0.22,0.73-0.67,0.66-0.86c-0.44-1.21,0.64-1.64,1.09-2.4
			c1.92-3.16,5-5.31,6.94-8.44c0.12,0.09,0.25,0.18,0.37,0.27c-1.39,2.22-2.67,4.52-4.2,6.64c-2.3,3.2-4.76,6.28-7.16,9.4
			c-0.12,0.15-0.29,0.25-0.43,0.39c-1.45,1.42-1.49,1.42-3.34,0.55c-0.94,1.18-0.94,1.18,0.51,2.15c-2.3,2.38-4.56,4.74-7.43,6.6
			C217.89,228.82,217.45,228.5,216.84,228.06z"/>
		<path class="st0" d="M89.32,517.9c-0.81-0.75-1.4-1.1-1.71-1.62c-1.32-2.22-2.56-4.49-3.83-6.74c-1.15-2.02-2.31-4.03-3.46-6.05
			c-1.03-1.79-2.28-3.49-3.03-5.39c-1.16-2.93-2.05-5.95-2.27-9.16c-0.17-2.35-0.81-4.67-1.17-7.02c-0.15-0.94-0.14-1.92-0.16-2.88
			c-0.05-3.87,0.01-7.75-0.13-11.62c-0.15-4.13-0.52-8.24-0.69-12.37c-0.08-1.86,0.16-3.73,0.17-5.6c0.01-2.12-0.18-4.25-0.07-6.37
			c0.21-4.11-0.04-8.25,0.96-12.29c0.09-0.37,0.19-0.74,0.32-1.1c0.26-0.69,0.53-1.38,0.8-2.06c1.37,0.64,2.32,2.78,1.92,4.56
			c2.5,1.61,4.08,4,5.55,6.49c0.36,0.6,0.7,1.31,1.25,1.69c1.49,1.04,2.29,2.61,3.35,3.99c0.71,0.93,0.86,1.82,0.34,3.04
			c-0.65,1.52-1.08,3.2-1.24,4.85c-0.35,3.47-0.5,6.96-0.69,10.44c-0.34,6.26,0.88,12.33,2.37,18.37c1.14,4.63,2.25,9.27,3.42,13.9
			c0.93,3.69,1.91,7.37,2.93,11.04c0.25,0.91,0.08,1.62-0.41,2.37c-0.81,1.24-1.6,2.49-2.33,3.78c-0.28,0.49-0.39,1.08-0.59,1.61
			C90.43,514.98,89.95,516.23,89.32,517.9z"/>
		<path class="st0" d="M96.99,502.41c-0.36-1.1-0.58-1.88-0.87-2.64c-0.28-0.72-0.74-1.38-0.96-2.11
			c-1.99-6.49-3.35-13.13-4.52-19.81c-0.12-0.7-0.41-1.36-0.52-2.06c-0.19-1.26-0.36-2.54-0.44-3.81c-0.16-2.44-0.04-4.92-0.43-7.32
			c-0.58-3.52-0.19-6.94,0.4-10.37c0.22-1.27,0.51-2.52,0.86-4.2c0.75,1.18,1.59,2.01,1.8,2.98c0.28,1.26,0.91,2.23,1.55,3.27
			c0.47,0.76,0.78,1.61,1.18,2.42c0.28,0.58,0.45,1.31,0.91,1.69c2.11,1.74,2.43,4.36,3.36,6.65c0.53,1.29,1,2.62,0.88,4.12
			c-0.06,0.85,0.29,1.78,0.62,2.61c1.09,2.71,0.72,5.46,0.41,8.23c-0.08,0.7-0.19,1.41-0.18,2.12c0.06,4.37-0.61,8.61-2.21,12.7
			c-0.54,1.38-0.84,2.84-1.27,4.26C97.47,501.46,97.29,501.77,96.99,502.41z"/>
		<path class="st0" d="M69.58,238.86c-8.52-1.66-15.67-6.33-23.12-10.47c0.11-0.83,0.2-1.5,0.32-2.39
			c4.25,2.04,8.75,3.04,12.66,5.53c1.36,0.87,3.12,1.19,4.73,1.58c1.17,0.28,2.41,0.29,3.63,0.38c0.86,0.06,0.99,0.66,1.1,1.33
			C69.1,236.12,69.33,237.42,69.58,238.86z"/>
		<path class="st0" d="M63.27,38.9c5.5-4.71,11.64-8.42,18.25-11.78c0.12,1.59-0.22,2.68-1.6,3.34c-2.72,1.3-5.46,2.58-8.12,4
			c-2.1,1.12-4.09,2.44-6.14,3.65c-0.71,0.42-1.44,0.78-2.16,1.17C63.42,39.15,63.34,39.03,63.27,38.9z"/>
		<path class="st0" d="M17.04,169.23c-0.38-1.2-0.88-2.38-1.12-3.61c-0.34-1.77-0.45-3.58-0.74-5.37c-0.4-2.52-0.23-5.06-0.81-7.62
			c-0.57-2.5-0.1-5.24-0.1-7.88c0-0.64,0.11-1.32-0.07-1.91c-0.72-2.43-0.28-4.86-0.13-7.3c0.05-0.78,0.32-1.38,1.42-1.37
			c-0.82,11.73-0.49,23.4,2.02,34.93C17.37,169.15,17.2,169.19,17.04,169.23z"/>
		<path class="st0" d="M4.7,173.59c0,0.83-0.05,1.66,0.02,2.48c0.05,0.61,0.27,1.21,0.42,1.81c0.06,0.24,0.2,0.48,0.17,0.71
			c-0.35,2.62,0.55,5.08,0.95,7.61c0.25,1.6,0.54,3.17,1.66,4.45c0.16,0.18,0.28,0.5,0.23,0.71c-0.06,0.27-0.28,0.65-0.5,0.71
			c-0.2,0.06-0.65-0.18-0.75-0.39c-0.7-1.51-1.48-3.01-1.95-4.59c-0.39-1.32-0.48-2.76-0.55-4.15c-0.15-3.02-0.19-6.05-0.27-9.07
			c0-0.09,0.13-0.19,0.19-0.28C4.45,173.57,4.58,173.58,4.7,173.59z"/>
		<path class="st0" d="M112.86,72.12c-2.78-0.37-4.84-6.98-4.39-10.03C110.11,63.44,112.78,69.46,112.86,72.12z"/>
		<path class="st0" d="M99.07,18.98c2.62-1.95,12.74-5.01,20.89-6.22c-0.64,0.26-1.26,0.65-1.93,0.75c-3.36,0.47-6.43,1.88-9.65,2.8
			c-2.35,0.67-4.62,1.63-6.95,2.4C100.81,18.91,100.12,18.87,99.07,18.98z"/>
		<path class="st0" d="M253.12,66.73c-1.33-0.87-1.64-2.39-2.27-3.69c-1.32-2.72-2.18-5.62-3.91-8.18c-1.8-2.66-3.23-5.58-4.79-8.4
			c-0.2-0.36-0.23-0.82-0.01-1.4c0.48,0.77,0.95,1.55,1.43,2.32c2.41,3.89,4.77,7.81,6.47,12.08c0.98,2.45,2.02,4.88,3.04,7.31
			C253.08,66.78,253.12,66.73,253.12,66.73z"/>
		<path class="st0" d="M86.02,27.27c0.95-0.81,1.82-1.51,1.38-2.95c-0.07-0.22,0.43-0.78,0.77-0.94c2.79-1.29,5.6-2.52,8.71-3.59
			c-0.21,0.38-0.33,0.85-0.64,1.11c-0.43,0.37-0.96,0.66-1.5,0.85C91.44,22.95,88.87,25.29,86.02,27.27z"/>
		<path class="st0" d="M187.75,493.52c1.49-3.44,2.89-6.65,4.42-10.19c0.04,2.2,0.1,4.11,0.09,6.02c0,0.33-0.27,0.74-0.55,0.97
			C190.5,491.35,189.25,492.32,187.75,493.52z"/>
		<path class="st0" d="M115.56,708c0.57-1.1,1.12-1.09,1.7-0.85c1.52,0.65,3.06,0.69,4.7,0.51c1.17-0.13,2.4,0.26,3.6,0.44
			c0.26,0.04,0.5,0.13,0.58,0.47C122.48,709.36,119.13,708.63,115.56,708z"/>
		<path class="st0" d="M253.08,66.78c0.43,0.71,0.97,1.38,1.29,2.14c1.53,3.74,2.78,7.61,4.78,11.16c0.08,0.14,0.01,0.37,0.01,0.77
			c-1.39-1.27-2.22-2.67-2.73-4.32c-0.72-2.32-1.55-4.61-2.33-6.92c-0.32-0.96-0.65-1.91-0.97-2.87
			C253.12,66.73,253.08,66.78,253.08,66.78z"/>
		<path class="st0" d="M129.6,708.98c1.47-0.94,2.98-0.65,4.76-0.22C132.63,709.96,131.11,709.39,129.6,708.98z"/>
		<path class="st0" d="M99.7,705.25c1.46,0.15,2.91,0.3,4.37,0.45c-0.02,0.16-0.03,0.33-0.05,0.49c-1.51,0.39-2.92-0.46-4.41-0.31
			C99.64,705.67,99.67,705.46,99.7,705.25z"/>
		<path class="st0" d="M213.04,701.8c-0.77,0.88-1.78,0.61-2.96,0.96C211.44,700.88,211.67,700.82,213.04,701.8z"/>
		<path class="st0" d="M36.17,690.03c-1.56,0.39-1.95,0.17-2.44-1.27C34.85,688.48,35.51,689.01,36.17,690.03z"/>
		<path class="st0" d="M109.61,706.77c-1.09,0.22-2.18,0.35-3.22-0.22C107.49,706.1,108.56,706.3,109.61,706.77z"/>
		<path class="st0" d="M206.61,702.29c0.86,0,1.46,0,2.23,0c-0.39,0.85-0.94,1.1-1.59,0.95
			C207.02,703.19,206.89,702.74,206.61,702.29z"/>
		<path class="st0" d="M8.6,196.76c1.01,0.43,0.99,1.06,0.41,1.89C8.14,198.12,8.44,197.43,8.6,196.76z"/>
		<path class="st0" d="M228.88,213.15c-0.87,0.88-1.5,1.51-2.35,2.37C226.92,214.21,227.6,213.62,228.88,213.15z"/>
		<path class="st0" d="M225.58,216.5c-0.64,0.56-1.27,1.13-2.15,1.9c0.09-1.52,1.29-1.56,1.81-2.23
			C225.35,216.28,225.47,216.39,225.58,216.5z"/>
		<path class="st0" d="M16.53,126.67c0.28,0.52,0.28,0.97-0.66,1.5c0.09-0.69,0.15-1.12,0.2-1.55
			C16.23,126.64,16.38,126.66,16.53,126.67z"/>
		<path class="st0" d="M74.43,242.35c-0.9-0.18-1.8-0.36-2.71-0.54c0.05-0.17,0.11-0.35,0.16-0.52c0.83,0.37,1.67,0.74,2.5,1.1
			C74.39,242.39,74.43,242.35,74.43,242.35z"/>
		<path class="st0" d="M15.91,129.15c0,0.43,0,0.87,0,1.3c-0.1,0-0.21,0.01-0.31,0.01c0-0.44,0-0.87,0-1.31
			C15.7,129.15,15.81,129.15,15.91,129.15z"/>
		<path class="st0" d="M257.56,167.71c0,0.28,0.07,0.58-0.02,0.83c-0.1,0.31-0.33,0.58-0.77,0.74c0.19-0.54,0.38-1.08,0.57-1.61
			C257.42,167.68,257.49,167.7,257.56,167.71z"/>
		<path class="st0" d="M18.44,173.19c0.02-0.32,0.05-0.65,0.07-0.97c0.11-0.01,0.21-0.01,0.32-0.02c0.03,0.32,0.06,0.64,0.09,0.96
			C18.75,173.17,18.6,173.18,18.44,173.19z"/>
		<path class="st0" d="M250.89,686.09c-0.15-0.21-0.33-0.34-0.33-0.47c0-0.12,0.2-0.23,0.32-0.35c0.12,0.12,0.31,0.24,0.33,0.38
			C251.23,685.75,251.04,685.9,250.89,686.09z"/>
		<path class="st0" d="M228.81,697.95c-0.21,0.17-0.34,0.37-0.49,0.38c-0.1,0.01-0.33-0.24-0.32-0.35c0.01-0.14,0.21-0.34,0.35-0.36
			C228.46,697.6,228.61,697.8,228.81,697.95z"/>
		<path class="st0" d="M153.91,711.1c0.36,0.02,0.73,0.04,1.09,0.06c0,0.05,0.01,0.09,0.01,0.14c-0.35,0.04-0.71,0.08-1.06,0.12
			C153.94,711.31,153.92,711.21,153.91,711.1z"/>
		<path class="st0" d="M79.09,632.1c-0.14-0.18-0.33-0.34-0.31-0.44c0.03-0.14,0.22-0.33,0.36-0.35c0.11-0.01,0.35,0.22,0.34,0.32
			C79.46,631.77,79.26,631.9,79.09,632.1z"/>
		<path class="st0" d="M149.32,711.71c-0.18-0.17-0.3-0.29-0.43-0.41c0.15-0.08,0.29-0.19,0.44-0.22c0.09-0.02,0.21,0.11,0.32,0.16
			C149.56,711.38,149.46,711.52,149.32,711.71z"/>
		<path class="st0" d="M164.83,459.74c-0.03,0.24,0.01,0.51-0.09,0.7c-0.27,0.51-0.56,1.02-0.93,1.46
			c-2.71,3.28-5.44,6.54-8.16,9.81c-0.14-0.11-0.27-0.22-0.41-0.34c3.09-3.94,6.17-7.88,9.26-11.82
			C164.6,459.61,164.72,459.67,164.83,459.74z"/>
		<path class="st0" d="M148.93,510.22c-2.76,3.79-5.75,7.37-9.23,10.52c-0.1-0.08-0.19-0.17-0.29-0.25
			c3.03-3.54,6.06-7.07,9.09-10.61C148.64,509.99,148.78,510.11,148.93,510.22z"/>
		<path class="st0" d="M162.63,480.93c0.42-3.64,0.78-6.86,1.15-10.09C164.57,472.95,163.84,479.01,162.63,480.93z"/>
		<path class="st0" d="M153.53,474c0.13-0.18,0.26-0.36,0.39-0.55c0.08,0.06,0.16,0.11,0.24,0.17c-0.13,0.18-0.26,0.36-0.39,0.54
			C153.69,474.11,153.61,474.05,153.53,474z"/>
		<path class="st0" d="M133.73,576.59c0.28-0.31,0.55-0.62,0.83-0.93c0.07,0.1,0.14,0.19,0.21,0.29c-0.36,0.2-0.72,0.4-1.09,0.6
			C133.68,576.55,133.73,576.59,133.73,576.59z"/>
		<path d="M225.62,70.06c-1.25-0.74-2.51-1.48-3.94-2.32c1.4-0.28,3.21,0.65,4.2,1.96C225.79,69.82,225.7,69.94,225.62,70.06z"/>
		<path d="M247.62,88.85c-0.18,0.53-0.37,1.05-0.55,1.58c-0.13-0.04-0.26-0.08-0.39-0.13c0.17-0.53,0.35-1.06,0.52-1.59
			C247.34,88.76,247.48,88.8,247.62,88.85z"/>
		<path d="M27.41,88.4c0.71-1.57,1.42-3.15,2.16-4.81C30,85.01,29.39,86.46,27.41,88.4z"/>
		<path d="M21.26,109.19c0-0.5,0-0.78,0-1.05c0.09-0.02,0.17-0.03,0.26-0.05c0.05,0.18,0.16,0.37,0.14,0.55
			C21.65,108.77,21.49,108.89,21.26,109.19z"/>
		<path d="M41.12,65.79c-0.13-0.11-0.28-0.19-0.27-0.26c0-0.1,0.1-0.24,0.19-0.28c0.08-0.04,0.21,0.04,0.32,0.07
			C41.27,65.47,41.2,65.62,41.12,65.79z"/>
	</g>
</g>
</svg>
