<?xml version="1.0" encoding="utf-8"?>
<!-- Generator: Adobe Illustrator 27.9.0, SVG Export Plug-In . SVG Version: 6.00 Build 0)  -->
<svg version="1.1" id="Warstwa_1" xmlns="http://www.w3.org/2000/svg" xmlns:xlink="http://www.w3.org/1999/xlink" x="0px" y="0px"
	 viewBox="0 0 254.75 636.37" style="enable-background:new 0 0 254.75 636.37;" xml:space="preserve">
<style type="text/css">
	.st0{fill:#FFFFFF;}
</style>
<path d="M222.74,39.16c0.36-0.05,0.84,0.02,1.06-0.18c0.49-0.45,0.86-1.04,1.23-1.53c0.77,0.06,0.81,0.57,0.82,1.05
	c0.03,1-0.14,1.94-0.72,2.79c-0.71,1.05-1.34,2.16-2.05,3.21c-0.7,1.05-1.45,2.06-2.29,3.24c0.51,0.36,0.93,0.76,1.42,0.98
	c0.62,0.28,1.33,0.35,1.94,0.63c0.93,0.42,1.36,1.31,1.14,2.14c-0.23,0.87-0.92,1.27-2.07,1.18c-0.64-0.05-1.3-0.59-1.9,0.09
	c0.04,0.18,0.01,0.45,0.12,0.52c0.62,0.42,1.55,0.52,1.65,1.49c0.13,1.26,0.35,2.55-0.5,3.68c-1.23,1.64-2.47,3.29-3.71,4.92
	c-0.71,0.93-1.46,1.83-2.15,2.78c-1.91,2.59-3.81,5.18-5.99,7.57c-0.8,0.87-1.55,1.75-2.79,2.03c-0.33,0.08-0.6,0.46-0.9,0.71
	c0.04,1.02,0.95,1.22,1.46,1.74c1.02,1.04,1.32,2.18,0.61,3.46c-0.47,0.84-0.89,1.91-1.64,2.36c-2.23,1.31-3.93,3.22-5.88,4.83
	c-2.8,2.31-5.63,4.55-8.94,6.11c-2.38,1.12-4.59,2.64-7.21,3.21c-0.38,0.08-0.75,0.19-1.24,0.32c-0.37-0.22-0.82-0.42-1.18-0.72
	c-1.08-0.89-2.24-1.12-3.56-0.65c-0.36,0.13-0.76,0.18-1.15,0.2c-0.75,0.04-1.03-0.47-0.94-1.64c0.7-0.87,1.73-0.77,2.68-0.97
	c1.91-0.4,3.87-0.7,5.71-1.33c2.4-0.82,4.71-1.9,7.03-2.94c0.88-0.4,1.7-0.96,2.51-1.5c1.39-0.92,2.72-1.9,4.12-2.8
	c1.24-0.79,2.53-1.49,3.79-2.24c1.21-0.71,2.17-1.63,2.59-2.91c-0.34-0.89-0.76-1.48-1.69-1.59c-0.12,0.36-0.18,0.64-0.3,0.89
	c-0.66,1.39-2.04,1.63-2.98,0.49c-0.25-0.29-0.38-0.68-0.59-1.01c-1.21-1.92-2.62-3.71-4.43-5.05c-3.47-2.58-7.52-4.17-11.23-6.36
	c-0.32-0.19-0.75-0.2-1.13-0.3c-3.67-1.04-7.37-1.93-11.14-2.47c-0.68-0.1-1.4-0.12-2.02-0.37c-3.96-1.58-8.14-2.07-12.33-2.49
	c-1.56-0.16-3.12-0.25-4.69-0.3c-1.86-0.07-3.72,0.01-5.58-0.13c-4.79-0.37-9.58-0.39-14.37-0.01c-2.64,0.21-5.27,0.64-7.91,0.62
	c-1.89-0.02-3.69,0.17-5.48,0.69c-0.19,0.05-0.39,0.04-0.58,0.07c-6.89,0.94-13.79,1.77-20.65,2.86c-3.28,0.52-6.57,0.91-9.84,1.6
	c-2.69,0.57-5.31,1.23-7.88,2.16c-0.55,0.2-1.13,0.32-1.7,0.49c-3.84,1.15-7.71,2.23-11.52,3.47c-2.6,0.84-5.08,2.11-7.71,2.82
	c-3.46,0.92-6.55,2.57-9.73,4.1c-0.86,0.42-1.71,0.84-2.66,1.31c0.52,0.49,0.89,0.83,1.46,1.36c-1.11,0.54-1.96,1.02-2.85,1.38
	c-2.32,0.95-4.24,2.41-5.8,4.37c-1.3,1.63-1.21,2.6,0.55,3.89c1.66,1.23,3.44,2.27,5.42,2.91c0.18,0.06,0.38,0.01,0.68,0.01
	c0.47-0.35,1.01-0.76,1.5-1.13c1.11-0.05,1.95,0.44,2.82,0.91c2.67,1.46,5.45,2.72,8.49,3.15c2.91,0.42,5.84,0.64,8.77,0.92
	c0.68,0.06,1.37,0.01,2.06-0.03c0.29-0.02,0.65-0.05,0.84-0.22c0.32-0.31,0.67-0.71,0.75-1.12c0.09-0.45-0.08-0.97-0.2-1.44
	c-0.71-2.95-1.38-5.92-2.15-8.85c-0.67-2.55-0.54-5.06,0.18-7.55c0.33-1.13,0.91-2.16,2.03-2.75c1.55,0.17,2.13,1.22,2.5,2.53
	c0.67,2.36,1.38,4.7,2.07,7.05c0.25,0.86,0.55,1.71,1.45,2.1c1.36,0.58,1.82,1.69,1.92,3.04c0.08,1.12,0.49,2.09,1.34,2.85
	c0.71,0.63,0.94,1.49,0.99,2.38c0.12,1.95,0.17,3.91,0.24,5.87c0.05,1.47,0.12,2.94,0.12,4.4c0,1.13,0.28,2.12,1.07,2.96
	c0.64,0.67,0.93,1.49,0.91,2.41c-0.06,3.03,0.25,6.07-0.26,9.1c-0.31,1.84-0.69,3.69-0.71,5.54c-0.04,3.29-0.65,6.38-2.06,9.36
	c-0.93,1.97-0.8,4.22-1.29,6.29c-0.72,3.03-1.63,6.11-3.03,8.88c-2.16,4.26-3.96,8.77-7.25,12.39c-0.2,0.22-0.36,0.47-0.49,0.73
	c-2.11,4.25-5.39,7.69-7.93,11.63c-0.95,1.47-1.89,2.95-2.74,4.27c0.79,2.77,0.56,3.51-1.41,5.04c-0.31,0.24-0.64,0.45-0.95,0.69
	c-0.7,0.54-1.43,1.04-2.08,1.64c-2.25,2.04-4.47,4.12-6.7,6.17c-1.51,1.39-3.02,2.79-4.56,4.15c-0.75,0.66-1.63,0.72-2.14,0.24
	c-0.63-0.61-0.76-1.38-0.47-2.16c0.16-0.44,0.46-0.87,0.8-1.2c0.34-0.34,0.82-0.53,1.22-0.82c2.74-2.04,5.44-4.13,7.49-6.9
	c-0.2-0.38-0.33-0.63-0.47-0.88c-0.19-0.34-0.43-0.66-0.56-1.02c-0.41-1.17-0.22-1.8,0.8-2.53c3.3-2.34,5.92-5.4,8.62-8.35
	c1.92-2.09,3.56-4.43,5.24-6.72c1.1-1.5,2.14-3.05,3.02-4.68c1.67-3.1,3.22-6.27,4.8-9.42c0.96-1.93,1.87-3.88,2.84-5.8
	c0.49-0.98,0.9-1.99,0.74-3.1c-0.17-1.2,0.25-2.09,1.15-2.85c0.71-0.6,1-1.42,1.19-2.31c0.44-2.11,0.95-4.21,1.37-6.32
	c0.11-0.54,0.02-1.11,0.02-1.72c-1.11-0.35-1.99,0.14-2.91,0.39c-1.03,0.28-2.07,0.55-3.13,0.68c-2.5,0.32-4.89-0.31-7.17-1.22
	c-1.57-0.63-3.11-1.15-4.8-1.25c-0.58-0.03-1.2-0.11-1.72-0.36c-1.42-0.69-2.79-0.8-4.22-0.03c-0.41,0.22-0.95,0.21-1.43,0.31
	c-1.18,0.24-2.23,0.61-2.86,1.8c-0.3,0.57-0.87,1.14-1.45,1.4c-2.92,1.28-4.87,3.92-7.7,5.32c-0.84,0.42-1.66,1.19-1.78,2.23
	c-0.2,1.72-0.29,3.45-0.35,5.18c-0.1,2.89-0.58,5.65-2.37,8.04c-0.75,1.01-1.42,2.08-2.26,3.31c1.63,1.49,1.22,3.1,0.44,4.84
	c-0.6,1.33-0.82,2.83-1.36,4.19c-0.96,2.41-1.61,4.81-0.79,7.4c0.06,0.18,0.01,0.39,0.03,0.59c0.13,2.05,0.16,4.11,0.43,6.14
	c0.39,3-0.04,5.89-0.99,8.68c-1.49,4.36-3.32,8.55-5.9,12.44c-2.16,3.25-4.32,6.27-8.19,7.64c-1.07,0.38-1.42,1.66-1.03,2.75
	c0.96,2.67,2.32,3.11,4.68,1.48c0.24-0.17,0.47-0.36,0.69-0.55c1.57-1.34,3.13-2.68,4.69-4.01c1.81-1.54,3.36-3.3,4.63-5.3
	c1.85-2.92,2.43-5.92,0.32-9.03c-0.68-1.01-0.55-1.78,0.21-2.67c1.05-1.22,2.37-1.36,3.62-0.35c1.04,0.84,1.68,1.91,1.67,3.29
	c-0.01,0.78-0.05,1.57-0.06,2.35c-0.01,3.56-1.16,6.7-3.35,9.52c-1.63,2.11-3.57,3.86-5.55,5.63c-2.79,2.49-5.74,4.74-8.8,6.86
	c-1.21-0.18-2.42-0.36-3.69-0.55c-1.29,2.69-1.67,5.53-2.02,8.39c0.01,0.34,0.01,0.66,0.01,0.98c0.06-0.01,0.12-0.02,0.18-0.03
	c-0.08-0.34-0.15-0.67-0.23-1.01c0.68-0.02,0.97-0.54,1.35-0.98c1.78-2.08,3.02-4.5,4.33-6.87c0.48,0.07,1,0.04,1.44,0.21
	c1.74,0.69,2.06,1.88,0.98,3.46c-1.05,1.53-2.17,3.02-3.16,4.59c-0.67,1.07-1.2,2.24-1.73,3.38c-0.41,0.89-0.78,1.8-1.09,2.73
	c-1.09,3.35-2.27,6.68-3.19,10.08c-1.06,3.87-1.88,7.8-2.81,11.71c-0.41,1.71-0.83,3.42-1.26,5.13c-0.32,1.25-0.5,2.44,0.09,3.71
	c0.31,0.68,0.38,1.55,0.3,2.31c-0.35,3.61-0.63,7.23-1.21,10.81c-1.09,6.68-2.03,13.37-2.48,20.12c-0.11,1.56-0.16,3.07,0.69,4.56
	c0.45,0.79,0.42,1.89,0.5,2.86c0.24,2.73,0.41,5.46,0.64,8.19c0.3,3.6,0.2,7.24,1.08,10.78c0.05,0.19,0.03,0.39,0.04,0.59
	c0.04,3.26,0.56,6.43,1.71,9.5c0.2,0.55,0.42,1.14,0.39,1.71c-0.11,2.7,0.44,5.25,1.57,7.7c0.16,0.35,0.18,0.76,0.27,1.14
	c1.18,5.05,2.35,10.1,3.56,15.14c1,4.19,2.08,8.36,3.73,12.37c0.48,1.16,0.98,2.08,2.28,2.42c1.35,0.34,1.73,1.35,1.81,2.67
	c0.07,1.16,0.25,2.36,0.67,3.43c1.62,4.2,2.54,8.62,4.38,12.76c1.59,3.57,2.63,7.38,4.1,11c2.32,5.72,4.55,11.47,7.36,16.98
	c1.16,2.26,2.12,4.63,3.11,6.98c2.05,4.85,4.08,9.71,6.69,14.29c0.33,0.58,0.43,1.3,0.76,1.89c0.47,0.84,0.92,1.78,1.63,2.37
	c0.98,0.8,1.42,1.83,1.87,2.92c0.41,0.99,0.84,1.97,1.33,2.92c0.77,1.47,1.61,2.9,2.42,4.35c0.71,1.28,1.42,2.57,2.14,3.84
	c0.43,0.76,0.89,1.51,1.34,2.27c1.3,2.19,2.57,4.4,3.92,6.55c0.4,0.64,0.95,1.27,1.58,1.69c2.08,1.4,3.63,3.27,4.95,5.36
	c1.04,1.65,1.8,3.52,3.04,5c1.93,2.29,3.06,5.01,4.43,7.57c1.84,3.44,3.55,6.98,4.78,10.71c0.62,1.86,1.3,3.69,1.82,5.58
	c1,3.67,1.9,7.38,2.93,11.38c0.6,0.51,1.66,1.13,2.35,2.04c1.04,1.37,2.4,1.96,3.98,2.23c1.25,0.22,2.54,0.28,3.78,0.52
	c7.33,1.41,14.74,2.11,22.2,2.24c6.86,0.11,13.73,0.22,20.54-0.72c3.8-0.52,7.61-0.71,11.41-0.82c5.64-0.16,11.06-1.23,16.4-2.88
	c1.68-0.52,3.33-1.06,4.68-2.33c0.76-0.72,1.83-1.22,2.98-0.82c0.99,0.34,1.03,1.34,1.36,2.13c0.02,0.06,0.15,0.07,0.34,0.15
	c0.95-0.45,1.87-0.95,1.3-2.47c-0.81-0.2-1.64-0.4-2.49-0.61c-0.72-1.45-1-2.8,0.1-4.16c0.23-0.28,0.37-0.74,0.34-1.1
	c-0.19-2.22,0.71-4.23,1.17-6.32c0.4-1.81,0.91-3.62,1.56-5.35c1-2.65,2.19-5.24,3.26-7.87c1.32-3.26,2.65-6.53,3.86-9.83
	c0.49-1.36,0.9-2.83,0.89-4.25c0-1.02,0.16-1.91,0.45-2.84c1.32-4.25,3.59-8.04,5.82-11.84c1.63-2.79,3.38-5.51,4.96-8.33
	c1.62-2.9,3.64-5.55,5.29-8.44c1.94-3.4,4.05-6.7,5.88-10.17c3.62-6.85,7.12-13.74,10.3-20.81c0.92-2.05,2.1-3.98,3.16-5.96
	c0.41-0.77,0.86-1.53,1.2-2.34c1.17-2.8,2.16-5.68,3.45-8.42c2.69-5.69,4.77-11.58,6.45-17.63c0.63-2.26,1.08-4.57,1.67-6.85
	c0.35-1.33,1.07-2.08,1.58-1.78c0.79,0.47,0.9,1.32,0.78,2.08c-0.31,1.93-0.63,3.86-1.17,5.74c-1.05,3.67-2.26,7.29-3.38,10.94
	c-0.09,0.3-0.01,0.65-0.01,1.21c1.37-1.58,1.93-2.5,2.31-3.95c0.85-3.2,2.4-6.23,2.47-9.63c0-0.19,0.12-0.37,0.16-0.56
	c1.41-6.1,2.87-12.2,4.22-18.32c0.93-4.21,1.66-8.46,2.54-12.68c0.96-4.61,1.67-9.23,1.73-13.96c0.02-1.49-0.03-2.9-0.62-4.19
	c1.14-2.71,1.61-5.34,0.61-8.1c-0.33-0.9-0.51-1.89-0.1-2.88c1.24-2.97,1.09-6.15,1.23-9.25c0.13-2.63-0.17-5.28-0.37-7.92
	c-0.14-1.85-0.45-3.69-0.67-5.54c-0.35-2.92-0.73-5.84-0.99-8.76c-0.06-0.73,0.13-1.58,0.5-2.21c0.21-0.36,0.99-0.4,1.68-0.64
	c-0.22-0.83-0.46-1.56-0.59-2.3c-0.17-0.95-0.43-1.95-0.31-2.88c0.22-1.7,0.01-3.33-0.31-4.96c-0.67-3.46-1.42-6.91-2.13-10.36
	c-0.34-1.63-0.56-3.27-1.5-4.73c-0.34-0.53-0.42-1.31-0.43-1.98c-0.04-2-0.7-3.84-1.36-5.69c-0.46-1.29-0.97-2.57-1.35-3.89
	c-0.18-0.63-0.34-1.42-0.11-1.97c0.5-1.19,0.35-2.28,0.03-3.43c-0.31-1.13-0.45-2.32-0.82-3.43c-0.57-1.76-1.13-3.56-1.97-5.2
	c-0.54-1.06-1-2.11-1.33-3.24c-0.61-2.06-1.19-4.13-1.87-6.17c-0.89-2.65-2.98-4.58-4.41-6.91c-0.86-1.4-1.96-2.32-3.74-2.49
	c-2.12-0.21-3.93-1.43-5.35-2.86c-1.35-1.37-2.42-3.12-3.22-4.88c-1.46-3.2-2.87-6.44-3.66-9.89c-0.3-1.29-0.84-2.38-2.02-3.1
	c-2.96-1.81-5.16-4.48-7.61-6.87c-1.33-1.29-2.71-2.54-4.1-3.78c-0.73-0.65-1.54-1.1-2.53-1.39c-2.28-0.67-4.26-1.83-5.68-3.89
	c-0.83-1.19-1.89-2.26-3-3.21c-0.91-0.77-1.68-1.59-2.39-2.54c-0.88-1.16-1.95-2.18-2.97-3.24c-0.1-0.11-0.35-0.07-0.6-0.11
	c-0.25,0.97,0.58,1.6,0.74,2.42c0.13,0.63,0.35,1.34-0.58,1.82c-0.93-1.03-1.7-2.11-2.4-3.28c-0.86-1.41-1.7-3-2.97-3.96
	c-2.37-1.79-3.41-4.2-4.19-6.85c-0.55-1.87-0.98-3.78-1.51-5.66c-0.3-1.03-0.64-2.07-1.57-2.76c-1.04-0.76-1.33-1.86-1.46-3.08
	c-0.14-1.36-0.38-2.71-0.57-4.07c-0.07-0.48-0.22-0.99-0.12-1.45c0.66-3.08,0.09-6.02-0.84-8.95c-0.29-0.92-0.36-1.92-0.48-2.9
	c-0.28-2.24-0.49-4.48-0.79-6.72c-0.37-2.69-0.11-5.25,1.18-7.7c0.4-0.76,0.69-1.63,0.78-2.48c0.31-3.12,0.6-6.24,0.74-9.37
	c0.21-4.51,0.88-8.95,1.45-13.42c0.19-1.49,0.68-2.97,0.44-4.52c-1.01,2.34-1.93,4.69-2.66,7.09c-0.21,0.68,0.16,1.52,0.23,2.29
	c0.02,0.29-0.06,0.58-0.09,0.88c-0.16,1.65-0.36,3.3-0.46,4.96c-0.05,0.81-0.18,1.54-0.65,2.21c-0.6,0.85-1.37,1.1-2.29,0.72
	c-1.04-0.43-1.44-1.01-1.26-2.03c0.24-1.35,0.58-2.67,0.84-4.02c0.21-1.06,0.39-2.12,0.56-3.18c0.12-0.72-0.02-1.38-0.67-1.82
	c-0.99-0.66-1.08-1.64-0.76-2.61c0.64-1.94,1.31-3.89,2.14-5.76c1.31-2.95,2.73-5.84,4.34-8.66c0.75-1.32,1.57-2.12,2.92-2.47
	c1.67,0.84,2.34,1.94,2.03,3.83c-0.41,2.43-0.26,2.47,2.34,3.45c0.62,0.23,0.94,0.65,1.08,1.27c0.2,0.91,0.07,1.72-0.46,2.51
	c-0.6,0.89-1.3,1.79-1.58,2.79c-0.64,2.26-1.07,4.57-1.52,6.88c-0.09,0.44,0.13,0.95,0.2,1.42c-0.91,1.19-1.4,2.49-1.48,4.02
	c-0.08,1.55-0.39,3.11-0.72,4.63c-0.27,1.24-0.38,2.46-0.23,4.03c1.37-1.03,2.51-1.9,3.67-2.76c1.88-1.41,3.69-2.94,5.67-4.18
	c3.66-2.29,7.73-3.22,12.03-3.2c1.31,0.01,2.49,0.51,3.64,1.06c1.08,0.52,1.64,1.38,1.58,2.58c-0.07,1.57-0.23,3.11-1.16,4.48
	c-0.42,0.62-0.69,1.34-1.04,2.03c0.34,0.13,0.53,0.29,0.68,0.25c1.51-0.39,3.06-0.7,4.51-1.26c1.51-0.58,3-0.84,4.6-0.69
	c1.46,0.13,2.93,0.2,4.4,0.29c2.23,0.13,4.17,1.02,5.92,2.35c2.53,1.92,3.32,5.65,1.77,8.44c-0.19,0.34-0.46,0.63-0.68,0.96
	c-0.21,0.31-0.39,0.62-0.68,1.08c0.62,0.2,1.07,0.4,1.53,0.49c4.12,0.82,7.7,2.78,11.06,5.22c0.9,0.65,1.59,1.43,2.06,2.44
	c1.02,2.2,0.41,4.23-1.73,5.5c-1.33,0.79-2.7,1.53-4.01,2.27c0,0.76,0.55,0.86,0.99,0.99c4.89,1.47,8.49,4.78,11.9,8.32
	c1.39,1.44,2.08,3.31,2.73,5.16c0.52,1.48,1.08,2.96,1.42,4.48c0.23,1.02,0.23,2.13,0.14,3.19c-0.1,1.07-0.9,1.74-2.03,1.74
	c-0.97,0.01-1.94-0.2-2.91-0.3c-0.54-0.06-1.09-0.08-1.63-0.12c0,0.38-0.07,0.61,0.01,0.76c0.76,1.48,1.53,2.95,2.33,4.41
	c0.7,1.29,1.44,2.55,2.13,3.85c0.83,1.55,1.48,3.23,2.48,4.66c1.38,1.96,1.36,3.78,0.03,5.89c-0.46-0.05-1.01-0.18-1.56-0.15
	c-0.56,0.03-1.32,0.03-1.62,0.37c-1.26,1.45-2.98,1.31-4.6,1.53c-0.46,0.06-0.93,0.01-1.64,0.01c0.44,1.78,0.71,3.37,1.83,4.67
	c2.76,3.22,2.72,6.83,1.11,10.45c-0.76,1.69-2.15,3.02-4.24,3.27c-0.66,0.08-1.29,0.42-1.92,0.69c-0.15,0.06-0.24,0.29-0.49,0.6
	c0.49,1.48,1.45,2.85,2.23,4.29c0.71,1.32,1.06,2.69,1.26,4.18c0.24,1.74-0.26,3.08-1.52,4.21c-0.44,0.39-0.89,0.76-1.33,1.13
	c0.23,1.27,0.67,2.14,1.66,2.79c0.62,0.41,1.17,1.04,1.53,1.7c1.23,2.24,2.52,4.38,4.61,6c1.03,0.8,1.69,2.08,2.58,3.22
	c-0.61,0.72-1.34,1.28-1.67,2.03c-0.39,0.87,0.55,1.63,0.67,2.43c0.52,3.51,2.04,6.71,3,10.08c1.54,5.37,2.83,10.81,3.68,16.31
	c0.79,5.12,1.82,10.21,2.31,15.37c0.38,3.89,0.55,7.81,0.81,11.71c0.01,0.19-0.03,0.39-0.01,0.59c0.42,4.69,0.04,9.39,0.12,14.09
	c0.02,1.11,0.03,2.17,1.11,2.8c-1.09,1.59-1.08,1.59-1.07,3.28c0.01,1.84-0.02,3.69,0.01,5.53c0.01,0.36,0.19,0.74,0.37,1.07
	c0.27,0.5,0.62,0.97,1.01,1.57c-1.4,1.26-1.6,2.82-1.59,4.55c0.02,1.85-0.24,3.71-0.43,5.55c-0.14,1.37-0.16,2.71,0.25,4.06
	c0.22,0.73,0.3,1.55,0.21,2.31c-0.43,3.59-0.65,7.21-1.48,10.76c-1.07,4.58-2.26,9.15-2.91,13.79c-0.42,3.05-1.59,5.81-2.31,8.73
	c-0.77,3.13-1.39,6.29-2.06,9.44c-0.06,0.29-0.01,0.63-0.16,0.86c-1.41,2.14-1.2,4.7-1.87,7.04c-0.16,0.56-0.18,1.18-0.42,1.71
	c-1.21,2.69-1.88,5.56-2.73,8.36c-0.16,0.54-0.33,1.22-0.16,1.7c0.46,1.26,0,2.29-0.46,3.39c-1.06,2.52-1.77,5.18-3.23,7.54
	c-3.35,5.41-6.6,10.88-9.88,16.33c-0.55,0.92-1.05,1.88-1.55,2.84c-0.23,0.43-0.61,0.93-0.54,1.34c0.29,1.9-0.95,3.07-1.88,4.42
	c-0.5,0.72-0.85,1.54-1.31,2.29c-0.93,1.49-1.91,2.95-2.86,4.44c-0.94,1.47-1.96,2.86-2.64,4.54c-1.02,2.53-2.47,4.88-3.72,7.32
	c-2.06,4-4.09,8.01-6.16,12c-1.44,2.78-2.92,5.54-4.38,8.31c-1.83,3.46-3.81,6.85-5.45,10.4c-1.6,3.45-3.17,6.94-3.95,10.72
	c-0.53,2.58-1.17,5.14-2.41,7.51c-0.13,0.25-0.18,0.57-0.17,0.86c0.05,1.81-0.62,3.45-1.09,5.15c-0.76,2.73-1.36,5.5-2.06,8.25
	c-0.19,0.75-0.44,1.51-0.8,2.2c-0.2,0.39-0.63,0.73-1.02,0.96c-1.42,0.84-1.58,1.25-0.57,2.58c0.51,0.67,0.89,1.35,0.79,2.14
	c-0.22,1.73-0.4,3.5-0.9,5.16c-0.69,2.33-1.66,4.57-2.48,6.78c0.81,1.2,1.49,2.26,2.23,3.28c0.34,0.47,0.71,0.99,1.19,1.27
	c1.36,0.8,1.97,2.12,2.64,3.44c2.88,5.62,4.67,11.6,6.21,17.69c0.74,2.93,1.35,5.92,2.88,8.6c0.47,0.82,0.31,1.7,0.08,2.58
	c-0.62,2.42-0.03,5.22,1.68,7.05c0.94,1,1.49,2.02,1.42,3.39c-0.02,0.38,0.03,0.8,0.18,1.14c0.97,2.12,1.98,4.22,3.04,6.48
	c1.19-0.44,2.25-0.14,3.09,0.87c1,1.2,2.32,1.78,3.84,1.87c1.08,0.07,1.74,0.69,2.44,1.43c1.38,1.47,2.04,3.34,2.91,5.08
	c0.49,0.98,0.91,1.93,2.04,2.36c0.69,0.26,1,0.91,1.13,1.61c0.2,1.06,0.39,2.12,0.61,3.17c0.26,1.23,0.21,2.53,1.01,3.64
	c0.25,0.34,0.2,0.92,0.22,1.4c0.03,0.77,0.02,1.55,0,2.33c-0.02,0.68,0.04,1.39-0.15,2.02c-0.38,1.22-0.83,2.39-0.76,3.71
	c0.02,0.36-0.17,0.77-0.36,1.1c-0.58,1.04-1.98,1.1-2.64,0.12c-0.32-0.48-0.56-1.01-0.92-1.67c-0.6,0.28-1.19,0.42-1.59,0.78
	c-2.97,2.56-6.07,4.91-9.67,6.54c-2.4,1.09-4.67,2.42-7.17,3.35c-3.08,1.15-6.24,1.64-9.44,2.04c-1.19,0.15-2.29,0.41-3.39,0.86
	c-1.09,0.44-2.23,0.73-3.32,1.18c-0.85,0.35-1.64,0.42-2.56,0.25c-0.84-0.16-1.76-0.07-2.62,0.08c-1.92,0.33-3.82,0.79-5.75,1.13
	c-1.54,0.27-3.1,0.44-4.65,0.64c-4.27,0.54-8.55,1.04-12.82,1.6c-2.81,0.37-5.62,0.81-8.43,1.22c-0.48,0.07-1.05-0.03-1.45,0.19
	c-2.26,1.24-4.72,1.14-7.16,1.23c-2.53,0.09-5.06,0.26-7.6,0.35c-2.06,0.07-4.1,0.01-6.09-0.67c-0.73-0.25-1.52-0.39-2.3-0.46
	c-4.29-0.41-8.58-0.83-12.88-1.15c-1.3-0.1-2.52-0.24-3.64-0.95c-0.33-0.21-0.7-0.41-1.08-0.45c-3.5-0.4-6.9-1.53-10.46-1.41
	c-0.88,0.03-1.77,0.02-2.63-0.1c-3.3-0.46-6.59-0.96-9.88-1.45c-4.85-0.72-9.61-1.74-14.21-3.52c-1.91-0.74-3.95-1.14-5.92-1.71
	c-0.94-0.28-1.86-0.61-2.79-0.93c-1.41-0.48-2.54-1.16-2.13-2.95c-1.37-4.57-0.74-9.11,0.21-13.65c0.1-0.48,0.24-0.95,0.3-1.44
	c0.15-1.15-0.19-1.44-1.71-1.5c-0.09,0-0.17-0.08-0.43-0.22c-0.03-0.45-0.19-1.04-0.07-1.55c0.64-2.65,2.15-4.81,4.08-6.68
	c0.98-0.96,2.03-1.85,3.06-2.76c0.77-0.68,1.36-1.48,1.25-2.54c-0.12-1.19,0.23-2.07,1.21-2.79c0.94-0.7,1.93-0.84,2.94-0.53
	c1.47-1.03,2.07-2.52,2.65-3.95c0.27-0.66,0.14-1.53,0.05-2.29c-0.12-0.95,0.08-1.8,0.7-2.46c0.92-1,1.84-2.09,2.97-2.79
	c1.12-0.69,1.76-1.5,1.95-2.73c0.21-1.35,0.36-2.72,0.63-4.06c0.76-3.74,1.6-7.47,2.33-11.22c0.85-4.33,2.15-8.5,3.8-12.6
	c0.98-2.44,1.71-4.98,3.06-7.27c0.68-1.16,1.26-1.61,2.36-1.16c2.37,0.99,3.91-0.19,5.46-1.66c0.12-1.35-0.6-2.46-0.99-3.65
	c-0.22-0.65-0.69-1.26-0.73-1.91c-0.14-2.19-0.74-4.23-1.78-5.93c0.09-0.44,0.06-0.68,0.17-0.81c1.2-1.34,1.59-2.73,0.98-4.55
	c-0.78-2.31-1.24-4.73-1.88-7.09c-0.34-1.27-1.02-2.27-2.26-2.92c-1.13-0.59-2-1.44-2.48-2.77c-0.25-0.69-1.21-1.13-1.84-1.68
	c0-3.86-1.65-7.18-3.42-10.46c-0.6-1.12-1.31-2.18-1.89-3.3c-1.08-2.09-2.21-4.14-3.73-5.97c-0.69-0.82-1.17-1.8-1.76-2.71
	c-0.74-1.15-1.49-2.3-2.25-3.44c-0.22-0.33-0.57-0.6-0.68-0.95c-0.76-2.27-2.33-4.06-3.52-6.07c-1.4-2.36-2.78-4.7-4.97-6.48
	c-0.71-0.58-1.15-1.57-1.57-2.44c-1.84-3.9-3.78-7.73-5.97-11.45c-1.72-2.94-3.37-5.91-4.49-9.22c-1.05-3.11-2.8-6.05-4.61-8.82
	c-1.32-2-2.35-4.08-2.95-6.33c-0.51-1.93-1.49-3.61-2.21-5.42c-0.54-1.36-1.26-2.65-1.84-3.99c-0.7-1.63-1.49-3.17-2.65-4.55
	c-0.66-0.79-1.17-1.85-1.39-2.86c-0.76-3.49-2.61-6.55-3.68-9.91c-0.12-0.36-0.32-0.76-0.6-0.99c-1.42-1.2-2.02-2.87-2.65-4.51
	c-1.51-3.93-2.99-7.88-4.41-11.84c-0.6-1.68-1.3-3.27-2.64-4.69c0.51-1.72,0.1-3.44-0.31-5.14c-1.13-4.66-2.32-9.32-3.48-13.97
	c-0.07-0.28-0.16-0.58-0.17-0.86c-0.07-3.04-1.52-5.64-2.7-8.3c-0.53-1.18-1-2.34-0.98-3.65c0.04-2.28-0.61-4.45-1.1-6.66
	c-0.59-2.68-1.25-5.36-1.57-8.07C3.89,324.93,3.44,319.46,2.9,314c-0.28-2.83-0.58-5.65-0.85-8.48c-0.07-0.68-0.26-1.41-0.1-2.05
	c0.9-3.58-0.08-7.21,0.45-10.8c0.34-2.31,0.46-4.66,0.7-7.22c-0.91,0.28-0.91,0.88-0.95,1.35c-0.07,0.87,0.01,1.75-0.06,2.62
	c-0.02,0.21-0.35,0.5-0.58,0.54s-0.62-0.09-0.75-0.28c-0.27-0.39-0.52-0.86-0.57-1.32c-0.12-1.17-0.23-2.35-0.17-3.52
	c0.23-4.01,0.52-8.02,0.82-12.03c0.07-0.97,0.25-1.94,0.45-2.9c1.67-8.16,3.8-16.21,5.94-24.27c0.5-1.89,0.91-3.81,1.35-5.72
	c1.07-4.68,2.16-9.36,3.2-14.04c0.37-1.66,1.06-3.15,2.1-4.48c0.66-0.84,1.42-1.62,1.61-2.46c-0.85-1.91-1.57-3.61-2.37-5.28
	c-0.38-0.78-0.8-1.6-1.4-2.2c-1.96-1.95-2.61-4.36-2.5-6.98c0.18-4.3,0.16-8.63,1.34-12.84c0.05-0.17-0.06-0.38-0.13-0.73
	c-0.22-0.14-0.52-0.45-0.86-0.51c-2.61-0.42-3.58-2.44-3.95-4.57c-0.55-3.18-0.73-6.43,0.84-9.49c0.53-1.04,0.82-2.2,1.21-3.31
	c0.27-0.76,0.16-1.48-0.06-2.28c-0.42-1.5-0.67-3.05-0.9-4.6c-0.19-1.29,0.06-2.53,0.75-3.67c0.86-1.43,1.67-2.88,2.55-4.3
	c0.82-1.33,1.69-2.6,2.04-4.2c0.31-1.43,1.51-2.26,2.76-2.89c1.56-0.79,2.58-2.08,3.45-3.51c0.14-0.23,0.12-0.55,0.2-0.97
	c-1.45-0.83-2.95-1.53-4.59-1.75c-1.94-0.26-3.27-1.16-3.91-3.04c-0.13-0.37-0.33-0.71-0.52-1.05c-1.9-3.34-1.16-6.44,0.99-9.31
	c1.42-1.9,3.18-3.43,5.56-4.16c1.1-0.34,2.11-0.96,3.28-1.51c-0.14-0.61-0.26-1.06-0.34-1.51c-0.06-0.38-0.25-0.87-0.08-1.13
	c0.98-1.52,1.11-3.03,0.37-4.7c-0.13-0.3,0.22-0.95,0.53-1.27c0.54-0.56,1.19-1.01,1.84-1.46c0.48-0.33,1.1-0.5,1.52-0.88
	c2.09-1.88,4.77-2.19,7.34-2.75c0.74-0.16,1.55-0.04,2.33,0.04c1.95,0.19,3.89,0.48,5.85,0.65c2.57,0.23,5.04,0.78,7.29,2.07
	c1,0.57,1.82,0.52,2.66-0.26c3.29-3.09,7.21-3.68,11.49-2.92c2.12,0.38,4.23,0.71,6.34,1.22c3.34,0.82,6.13,2.51,8.84,4.48
	c0.87,0.63,1.8,1.18,2.73,1.71c0.31,0.17,0.72,0.15,1.01,0.2c0.23-0.26,0.45-0.4,0.46-0.55c0.16-2.33,0.46-4.65-1.05-6.78
	c-0.46-0.65-0.46-1.66-0.57-2.51c-0.29-2.22-0.09-4.5-0.81-6.61c-0.63-0.22-0.81,0.14-0.8,0.53c0.02,0.78,0.19,1.56,0.16,2.33
	c-0.01,0.32-0.31,0.73-0.6,0.91c-0.48,0.3-0.98,0.04-1.27-0.38c-0.28-0.39-0.43-0.87-0.62-1.32c-0.27-0.62-0.52-1.25-0.77-1.86
	c-1.26-0.41-2.43-0.21-3.57-0.02c-2.06,0.34-4.1,0.29-6.15,0.08c-6.37-0.63-12.55-2.12-18.63-4.07c-1.11-0.36-2.14-0.97-3.24-1.38
	c-1.19-0.45-2.4-0.85-3.62-1.2c-2.55-0.73-3.56-2.8-2.37-5.19c0.47-0.95,1.19-1.79,1.8-2.68c0.26-0.38,0.51-0.76,0.89-1.33
	c-1.05-0.06-1.83,0.01-2.55-0.16c-0.94-0.22-1.85-0.61-2.76-0.95c-0.7-0.26-1.16-0.78-1.25-1.51c-0.58-4.3-2.01-8.38-3.19-12.52
	c-0.75-2.64-1.54-5.26-2.31-7.89c-0.72-2.48-0.71-5.03-0.78-7.58c-0.04-1.35,0.98-2.04,1.95-3.02c-1.11-0.24-1.78,0.16-2.44,0.51
	c-0.95,0.51-1.83,1.15-2.8,1.62c-1.38,0.67-2.81-0.13-3.11-1.65c-0.15-0.76,0.11-1.4,0.75-1.77c0.59-0.33,1.28-0.48,1.91-0.75
	c2.42-1.05,4.85-2.11,7.25-3.21c0.51-0.24,0.94-0.67,1.52-1.1c-0.59-2.35-0.69-4.76-1.63-7.48c-0.36,0.74-0.63,1.04-0.65,1.36
	c-0.07,1.17-0.1,2.35-0.06,3.53c0.04,1.17-0.42,2.09-1.23,2.87c-0.61,0.59-1.58,0.48-1.99-0.3c-0.27-0.51-0.47-1.08-0.57-1.65
	c-0.14-0.76-0.16-1.54-0.24-2.45c-0.61-0.13-1.17-0.22-1.71-0.36c-1.64-0.44-2.14-2.2-0.97-3.41c0.27-0.28,0.64-0.45,0.94-0.7
	c0.75-0.62,1.51-1.21,2.2-1.89c0.52-0.51,1.04-0.94,1.78-0.84c2.26,0.32,4.06-0.7,5.58-2.12c1.26-1.18,2.7-1.89,4.26-2.52
	c2.27-0.92,4.55-1.77,6.93-2.4c1.98-0.52,3.88-1.34,5.83-1.95c2.43-0.76,4.9-1.4,7.31-2.19c2.88-0.94,5.75-1.88,8.74-2.49
	c2.19-0.45,4.31-1.3,6.43-2.07c1.79-0.65,3.63-0.87,5.49-0.65c1.03,0.12,1.96,0.06,2.84-0.42c1.03-0.57,1.99-1.31,3.28-1
	c2.84-1.15,5.97-0.91,8.87-1.86c2.26-0.74,2.31-0.58,4.05,1.41c1.3-0.5,2.58-1.16,3.69-2.1c1.31-1.11,2.65-1.67,4.24-0.54
	c0.82,0.58,1.67,0.34,2.52,0.01c1.28-0.49,2.55-1.01,3.87-1.38c0.73-0.2,1.53-0.15,2.3-0.14c1.07,0.02,1.82,1.73,3.12,0.59
	c1.15,0.2,2.27,0.35,3.46,0.15c1.14-0.2,2.35-0.01,3.52-0.1c4.39-0.32,8.78-0.74,13.18-1c2.04-0.12,4.1,0.07,6.15,0.11
	c0.58,0.01,1.2,0.11,1.75-0.03c2.83-0.71,5.67-0.48,8.48-0.03c7.15,1.15,14.33,2.12,21.37,3.87c3.32,0.83,6.7,1.45,10.06,2.11
	c0.87,0.17,1.74,0.25,2.47,0.82c0.15,0.12,0.36,0.23,0.53,0.22c1.86-0.17,3.47,0.43,4.89,1.6c2.27,0.09,4.32,1.08,6.47,1.64
	c1.15,0.3,2.19-0.81,3.43-0.13c0.92,0.5,2.03,0.69,3.07,0.96c4.5,1.14,8.71,3,12.62,5.45c1.69,1.06,3.41,1.84,5.33,2.36
	c1.84-1.33,3.71-2.59,4.18-5.21c-2.18-1.3-4.12-2.95-6.47-3.92c-4.87-2.01-9.73-4.05-14.63-5.99c-4.26-1.69-8.75-2.82-13.15-4.17
	c-1.59-0.49-3.18-0.98-4.79-1.39c-3.22-0.82-6.48-1.52-9.69-2.41c-1.72-0.47-3.45-0.6-5.19-0.82c-3.5-0.43-6.99-0.93-10.48-1.43
	c-1.64-0.23-3.27-0.53-4.91-0.77c-0.48-0.07-0.98-0.1-1.47-0.1c-5.29-0.01-10.57,0-15.86,0c-0.29,0-0.6-0.05-0.88,0.01
	c-2.93,0.66-5.82,0.22-8.76-0.09c-2.41-0.25-4.89,0.01-7.33,0.14c-3.81,0.2-7.63,0.28-11.43,0.87c-1.9,0.29-3.9-0.07-5.86-0.1
	c-0.97-0.01-1.94,0.06-2.91,0.1c-0.1,0-0.19,0.05-0.29,0.06c-5.49,0.37-10.77,2.06-16.22,2.65c-2.24,0.24-4.5,0.33-6.63,1.2
	c-0.34,0.14-0.8,0.16-1.15,0.07c-1.81-0.5-3.49,0.08-5.2,0.5c-2.57,0.64-5.15,1.2-7.71,1.85c-1.99,0.51-3.93,1.2-5.93,1.66
	c-3.54,0.82-6.92,2.12-10.33,3.31c-2.13,0.74-4.3,1.35-6.39,2.17c-3.46,1.35-6.89,2.78-10.3,4.25c-0.96,0.41-1.88,0.97-2.71,1.86
	c0.53,0.47,0.95,0.83,1.36,1.18c-2.07,3.26-4.14,3.81-7.74,1.97c-0.9,1.27-1.56,2.62-1.62,4.24c-0.04,1.08-0.11,2.15-0.23,3.22
	c-0.07,0.61-0.4,1.2-1.06,1.23c-0.42,0.02-1.08-0.2-1.26-0.52c-1.36-2.36-2.74-4.6-2.09-7.66c0.67-3.2,1.72-6.21,3.02-9.17
	c0.34-0.78,0.9-1.52,1.52-2.1c0.86-0.79,1.87-0.51,2.41,0.54c0.21,0.42,0.3,0.9,0.45,1.37c1.26,0.23,2.22-0.24,3.18-0.69
	c2.57-1.21,5.1-2.5,7.71-3.59c1.71-0.71,3.55-1.1,5.31-1.66c1.12-0.36,2.21-0.78,3.32-1.17c0.46-0.16,0.92-0.38,1.39-0.43
	c3.63-0.4,7.07-1.56,10.58-2.46c1.42-0.36,2.9-0.53,4.3-0.95c3.84-1.16,7.66-2.4,11.47-3.65c1.1-0.36,2.17-0.63,3.33-0.72
	c0.11,1.56-1.29,1.6-1.75,2.41c0.01,0.08,0,0.18,0.05,0.22c0.07,0.05,0.19,0.09,0.27,0.07c1.34-0.27,2.68-0.54,4.01-0.84
	c5.74-1.28,11.55-2.12,17.36-2.96c4.25-0.61,8.52-1.1,12.73-2.04c2.47-0.56,5.05-0.6,7.58-0.93c5.63-0.74,11.28-1.37,16.97-1.31
	c0.39,0,0.79-0.07,1.17-0.01c3.01,0.49,6.04,0.64,9.07,0.73c2.24,0.07,4.48,0.28,6.72,0.41c2.54,0.15,5.08,0.29,7.62,0.42
	c0.78,0.04,1.56,0.11,2.34,0.05c1.03-0.08,1.9,0.22,2.75,0.79c0.63,0.42,1.36,0.82,2.1,0.93c2.13,0.31,4.28,0.47,6.42,0.7
	c2.72,0.29,5.45,0.55,8.17,0.9c1.84,0.23,3.66,0.49,5.54,0.47c1.83-0.02,3.69,0.45,5.5,0.85c2.39,0.52,4.74,1.19,7.12,1.77
	c2.65,0.65,5.29,1.32,7.96,1.88c1.63,0.35,2.99,0.88,3.46,2.7c0.28,1.1,1.35,1.41,2.22,1.75c2,0.78,4.06,1.42,6.1,2.08
	c0.93,0.3,1.89,0.5,2.83,0.79c0.36,0.11,0.86,0.28,0.98,0.56c0.68,1.6,2.24,1.76,3.57,2.27c1.2,0.46,2.33,0.93,3.19,1.98
	c0.48,0.58,1.18,1.05,1.88,1.36c1.07,0.47,1.7,1.3,2.24,2.24c0.83,1.42,0.52,2.58-1.02,3.33c-0.66,0.32-1.09,0.71-1.45,1.34
	c-1.25,2.2-2.35,4.48-4.46,6.12c-0.78,0.61-1.1,1.81-1.61,2.75c0,0.62-0.01,1.22-0.03,1.82c-0.18,0.06-0.37,0.12-0.55,0.18
	c0.16-0.09,0.32-0.18,0.47-0.28C222.96,40.36,223.11,39.77,222.74,39.16z M80.29,589.35c0.74,0.05,0.98-0.48,1.19-1.05
	c0.01-0.09,0.04-0.19,0.03-0.28c-0.01-0.07-0.07-0.13-0.11-0.19c0.04,0.18,0.09,0.37,0.13,0.55c-0.42,0.33-0.83,0.65-1.25,0.99
	c0.04,0.4,0.08,0.8,0.12,1.2c0.08-0.02,0.16-0.03,0.24-0.05C80.53,590.14,80.41,589.75,80.29,589.35z M76.38,490.14
	c0.02-0.14,0.03-0.28,0.04-0.31c0,0.02-0.03,0.15-0.06,0.29c0.22,0.27,0.43,0.54,0.65,0.81c0.07-0.09,0.14-0.18,0.21-0.26
	C76.93,490.49,76.66,490.32,76.38,490.14z M78.56,558.91c-0.84,0.52-1.14,1.29-1.25,2.87c0.57-1.38,0.88-2.15,1.18-2.94
	c0.12-0.36,0.31-0.72,0.34-1.09c0.04-0.41,0.6-0.82-0.1-1.4C78.41,557.25,78.28,558.06,78.56,558.91z M135.84,597.11
	c0.05-0.47,0.09-0.95,0.16-1.42c0.08-0.52,0.2-1.03,0.3-1.54c-0.87-0.23-1.35,0.15-1.25,0.81c0.11,0.72,0.54,1.4,0.83,2.1
	c0.22,1.44,0.32,2.91,0.69,4.31c0.36,1.37,1.04,1.48,2.68,0.68c0.04-0.28,0.12-0.56,0.13-0.85
	C139.42,598.04,139.08,597.66,135.84,597.11z M225.64,414.67c0.65,0.05,1.15-0.21,1.46-0.77c0.94-1.71,1.94-3.39,2.77-5.15
	c0.42-0.88,0.81-1.72,1.41-2.52c0.99-1.31,1.87-2.68,2.29-4.36c0.52-2.07,1.39-4.05,2.09-6.07c0.06-0.18,0.09-0.4,0.04-0.56
	s-0.22-0.28-0.36-0.39c-0.06-0.05-0.21-0.07-0.28-0.02c-0.23,0.16-0.51,0.31-0.65,0.54c-2.25,3.89-3.92,8.06-5.78,12.14
	c-0.12,0.26-0.16,0.56-0.2,0.85c-0.31,2.38-1.41,4.42-2.73,6.38c0,0.19-0.01,0.38,0.01,0.56c0,0.04,0.1,0.07,0.15,0.1
	C225.8,415.16,225.72,414.92,225.64,414.67z M76.26,579.89c2.19,0.84,4.28,1.66,6.37,2.44c0.91,0.34,1.9,0.52,2.77,0.95
	c3.9,1.91,8.05,2.98,12.29,3.82c1.8,0.36,3.71,0.43,5.32,1.54c0.37,0.26,0.92,0.32,1.4,0.36c4.38,0.43,8.76,0.89,13.15,1.23
	c3.41,0.26,6.83,0.37,10.25,0.54c0.68,0.03,1.37,0.05,2.05-0.01c4.58-0.38,9.16-0.76,13.73-1.17c1.56-0.14,3.11-0.33,4.66-0.51
	c4.95-0.58,9.91-1.16,14.86-1.74c2.04-0.24,4.09-0.39,6.11-0.77c6.49-1.2,12.53-3.73,18.52-6.4c1.68-0.75,2.8-1.89,3.72-3.52
	c0.85-1.49,1.07-2.87,0.79-4.48c-0.23-1.34-0.23-2.73-0.51-4.06c-0.71-3.3-0.63-6.85-2.88-9.7c-0.17-0.22-0.33-0.53-0.33-0.8
	c-0.03-2.01-1.1-3.75-1.46-5.66c-0.36-1.96-1.13-3.74-2.03-5.48c-0.5-0.96-0.95-1.9-1.15-2.99c-0.31-1.66-1.13-3.14-2.17-4.45
	c-0.34-0.43-0.9-0.88-1.4-0.93c-1.75-0.17-2.87-1.15-3.72-2.54c-0.71-1.16-2.25-1.07-3.05-2.08c-0.02-0.03-0.16,0.04-0.25,0.06
	c-0.42,0.63-0.84,1.26-1.24,1.86c-0.74,0-1.33-0.07-1.89,0.02c-0.96,0.15-2.07,0.16-2.81,0.67c-1.3,0.91-2.62,1.16-4.13,1.12
	c-1.36-0.04-2.73,0.07-4.09,0.2c-0.96,0.09-1.98,0.17-2.85,0.56c-1.21,0.53-2.44,0.76-3.71,0.79c-3.03,0.06-6.07,0.02-9.1,0.06
	c-1.46,0.02-3.04-0.2-4.36,0.27c-1.46,0.52-2.71,0.51-4.21,0.36c-3.49-0.35-7.02-0.47-10.53-0.39c-1.47,0.03-2.91,0-4.37-0.16
	c-1.07-0.12-2.14-0.3-3.21-0.31c-4.7-0.04-9.38,0.08-14.01,1.07c-1.66,0.36-2.54-0.31-2.86-2.01c-0.07-0.35-0.11-0.71-0.18-1.16
	c-1.02-0.04-1.92-0.22-2.75-0.05c-0.6,0.12-1.06,0.87-1.68,1.07c-1.64,0.54-2.76,1.81-4.05,2.79c-3.4,2.55-6.24,5.45-7.32,9.91
	c-1.59,6.57-4.07,12.86-6.81,19.05c-0.98,2.21-1.58,4.59-2.31,6.78C76.35,577.92,76.35,577.92,76.26,579.89z M218.51,50.91
	c-0.62-0.35-1.09-0.78-1.63-0.91c-3.08-0.75-5.8-2.3-8.55-3.78c-0.34-0.18-0.75-0.25-1.09-0.42c-0.78-0.4-1.67-0.71-2.3-1.29
	c-1.62-1.51-3.58-2.32-5.61-3.04c-1.48-0.52-2.91-1.18-4.41-1.62c-2.62-0.78-5.27-1.49-7.93-2.14c-1.69-0.41-3.33-1.16-5.16-0.94
	c-0.46,0.05-1-0.07-1.43-0.27c-1.74-0.81-3.61-0.81-5.45-1.06c-1.64-0.22-3.34-0.39-4.86-0.98c-1.78-0.69-3.55-1.05-5.42-1.1
	c-7.74-0.18-15.46-0.72-23.18-1.11c-3.31-0.17-6.65,0.13-9.98,0.16c-2.64,0.02-5.33,0.26-7.91-0.15c-3.47-0.55-6.83-0.22-10.23,0.21
	c-1.75,0.22-3.49,0.5-5.23,0.77c-4.35,0.65-8.73,1.04-12.97,2.34c-2.91,0.89-3.33,0.69-5.2-1.71c-0.47,0-0.96-0.04-1.44,0.01
	c-5.75,0.59-11.45,1.48-16.96,3.33c-2.69,0.9-5.36,1.85-8.07,2.7c-1.77,0.56-3.6,0.89-5.36,1.47c-4.09,1.34-8.15,2.76-12.22,4.16
	c-0.37,0.13-0.7,0.35-1.04,0.55c-4.07,2.36-8.14,4.71-12.19,7.1c-0.76,0.45-1.43,1.04-2.16,1.53c-0.92,0.61-1.25,1.46-1.1,2.53
	c0.3,2.13,0.55,4.27,0.88,6.4c0.6,3.78,1.3,7.53,2.97,11.02c0.29,0.62,0.47,1.29,0.75,1.92c0.79,1.79,1.55,3.6,2.43,5.34
	c0.5,1,1.31,1.31,2.2,0.87c2.98-1.47,6.19-2.45,8.99-4.33c3.76-2.52,7.92-4.27,12.03-6.11c4.2-1.89,8.5-3.51,12.96-4.72
	c1.79-0.49,3.55-1.09,5.35-1.56c4.73-1.24,9.44-2.62,14.24-3.55c2.29-0.44,4.6-0.88,6.9-1.24c7.06-1.09,14.04-2.62,21.21-3.13
	c5.19-0.37,10.37-0.69,15.55-0.43c3.69,0.18,7.44,0.15,10.98,1.53c0.26,0.1,0.59,0.09,0.87,0.03c2.75-0.55,5.45,0.49,8.19,0.23
	c5.6,0.92,11.28,1.28,16.81,2.64c0.38,0.09,0.77,0.11,1.16,0.17c2.99,0.5,6.06,0.75,8.97,1.56c3.24,0.9,6.51,1.68,9.27,4.08
	c2.7,2.35,6.02,4,9.09,5.92c0.46,0.29,1.07,0.34,1.63,0.51c0.46-0.8,0.8-1.51,1.26-2.13c0.45-0.62,0.94-1.29,1.57-1.69
	c1.45-0.93,2.43-2.27,3.43-3.59c1.19-1.56,2.36-3.13,3.45-4.76c1.36-2.02,2.97-3.9,3.56-6.38c0.17-0.72,0.66-1.42,1.16-2.01
	C217.93,53.02,218.4,52.21,218.51,50.91z M164.59,629.19c0.6-0.03,1.09,0,1.56-0.08c3.66-0.62,7.33-1.22,10.98-1.92
	c0.94-0.18,1.81-0.66,2.72-1.02c0.9-0.35,1.78-0.84,2.71-1.04c1.18-0.25,2.19-0.74,3.18-1.42c0.88-0.6,1.85-1.41,2.82-1.47
	c2.16-0.12,3.9-1.12,5.64-2.14c1.69-0.98,3.29-2.11,4.93-3.17c3.2-2.07,6.43-4.11,9.6-6.23c0.96-0.65,1.69-1.62,2.62-2.32
	c0.99-0.75,2.09-1.35,3.16-2.04c-0.26-2.3-1.85-3.98-2.21-6.15c-0.42,0.51-0.76,0.99-1.16,1.39c-0.41,0.41-0.87,0.79-1.35,1.13
	c-1.22,0.88-2.45,0.69-3.27-0.6c-0.41-0.64-0.62-1.42-0.85-2.17c-0.36-1.22-0.59-2.48-1-3.69c-0.47-1.37-0.99-2.74-2.18-3.66
	c-2.22,0.79-4.41,1.34-5.97,3.16c-0.35,0.41-1.02,0.56-1.56,0.78c-0.64,0.25-1.32,0.39-1.94,0.68c-1.83,0.83-3.46,2.27-5.7,1.87
	c-2.86,1.19-6.08,1.47-8.62,3.48c-0.42,0.33-1.1,0.42-1.67,0.45c-2.56,0.12-5.04,0.75-7.48,1.41s-5.02,0.84-7.32,2
	c-0.45,1-0.52,2.17-1.74,2.89c-0.5-0.03-1.17-0.07-1.85-0.13c-1.07-0.09-2.14-0.28-3.21-0.26c-4.72,0.05-9.38-0.51-14-1.44
	c-1.43-0.29-2.91-0.36-4.36-0.53c-0.87-0.1-1.75-0.19-2.62-0.28c-0.48-0.05-1.02-0.27-1.44-0.14c-1.67,0.55-3.31,0.01-4.95-0.08
	c-0.99-0.06-1.88-0.23-2.79,0.43c-0.39,0.28-1.14,0.27-1.66,0.13c-1.5-0.41-2.95-1.02-4.45-1.44c-1.12-0.31-2.35-0.77-3.43-0.59
	c-1.27,0.21-2.3-0.12-3.42-0.44c-0.55-0.16-1.18-0.34-1.71-0.22c-1.03,0.23-1.91-0.2-2.86-0.31c-2.42-0.29-4.77-0.95-7.23-1.1
	c-2.62-0.16-5.22-0.76-7.79-1.32c-0.7-0.15-1.25-0.26-1.93,0.01c-0.8,0.31-1.54,0.03-2.08-0.67c-0.76-1-1.79-1.54-3.02-1.6
	c-2.59-0.13-4.96-0.98-7.33-1.98c-1.68-0.71-3.37-1.58-5.34-1.33c-0.41,0.05-0.9-0.26-1.31-0.49c-0.42-0.24-0.74-0.65-1.16-0.88
	c-2.12-1.13-4.68-0.95-5.98,0.61c-1.25,1.49-2.39,3.1-3.4,4.76c-0.87,1.41-1.5,2.97-2.23,4.46c-1.04,2.13-1.64,4.37-1.92,6.74
	c-0.24,2.03-0.14,4.07-0.51,6.11c-0.3,1.66,0.52,3.22,2.3,4.01c0.3-0.21,0.56-0.34,0.76-0.53c1.45-1.33,1.47-1.33,2.98-0.48
	c0.77,0.43,1.52,0.9,2.33,1.24c2.62,1.09,5.24,2.17,7.9,3.17c0.61,0.23,1.35,0.24,2,0.14c0.82-0.12,1.57-0.04,2.27,0.34
	c1.33,0.7,2.76,0.94,4.22,1.17c2.03,0.31,4.04,0.77,6.07,1.1c3.77,0.61,7.54,1.23,11.32,1.74c1.83,0.25,3.7,0.18,5.44,1.01
	c0.58,0.28,1.35,0.25,2.02,0.23c2.94-0.08,5.87-0.2,8.81-0.33c1.95-0.09,3.9-0.24,5.85-0.34c0.97-0.05,1.95-0.04,2.93-0.08
	c3.91-0.15,7.83-0.35,11.74-0.46c1.86-0.05,3.72,0.13,5.58,0.06c4.11-0.14,8.22-0.27,12.32-0.6c3-0.24,6.09-0.29,8.81-1.93
	c0.27-0.16,0.73-0.02,1.18-0.02C163.8,627.62,164.18,628.38,164.59,629.19z M223.39,139.07c-0.95-0.71-1.88-0.74-2.88-0.47
	c-1.73,0.47-3.42,0.64-4.96-0.63c-0.35-0.29-0.89-0.43-1.36-0.46c-1.49-0.1-2.8-0.76-4.19-1.21c-2.64-0.87-4.7-2.79-7.18-3.96
	c-0.55-0.26-0.95-0.97-1.25-1.56c-0.49-0.95-0.26-1.77,0.65-2.27c2.12-1.16,4.44-1.48,6.81-1.36c0.62,0.03,1.07,0.45,1.13,1.14
	c0.05,0.59-0.36,1.15-0.99,1.24c-0.58,0.09-1.17,0.08-1.76,0.13c-0.47,0.04-1,0-1.17,0.62c1.38,1.62,4.91,3.43,8.38,4.31
	c0.76-0.32,0.92-0.96,0.85-1.69c-0.08-0.88-0.26-1.75-0.31-2.62c-0.03-0.59,0.07-1.22,0.8-1.37c0.66-0.13,1.16,0.24,1.47,0.75
	c0.3,0.49,0.48,1.07,0.64,1.62c0.3,1.02,0.54,2.06,0.8,3.08c1.72,0.7,3.23-0.14,4.7-0.42c1.79-0.34,3.52-1.15,5.2-1.93
	c0.94-0.44,1.87-1.05,2.38-1.92c0.04-1.26-0.53-2.07-1.41-2.57c-2.12-1.21-4.23-2.5-6.48-3.43c-1.59-0.66-3.34-1.08-5.16-0.78
	c-0.95,0.16-1.96,0.01-2.93,0.03c-2.06,0.05-4.07,0.24-6.01,1.11c-1.68,0.76-3.39,1.53-5.35,1.26c-0.46-0.06-0.96,0.16-1.44,0.25
	c-1.92,0.36-3.84,0.8-5.78,1.04c-2.54,0.32-4.81-0.36-6.78-2.1c-1.19-1.06-1.9-2.38-2.49-3.93c-0.53,0.28-0.89,0.42-1.19,0.64
	c-1.7,1.32-3.45,2.59-5.07,4.01c-1.49,1.3-3.07,2.05-5.08,1.62c-0.65-0.14-1.32-0.18-2.13-0.28c-0.21,0.66-0.49,1.2-0.53,1.75
	c-0.16,2.15-0.19,4.29,0.29,6.43c0.66,2.96,1.41,5.93,1.78,8.93c0.41,3.35,1.41,6.5,2.53,9.62c0.5,1.38,0.99,2.92,2.66,3.66
	c0.82,0.36,1.41,1.32,2.02,2.07c1.3,1.59,2.63,3.12,4.2,4.49c1.83,1.59,3.46,3.42,5.12,5.2c2.07,2.21,4.07,4.48,6.13,6.7
	c0.52,0.57,1.14,1.04,1.68,1.52c0.57-0.12,1.03-0.21,1.41-0.29c0.59,0.71,1.13,1.38,1.7,2.02c0.97,1.1,1.94,2.2,2.96,3.26
	c2.36,2.47,4.74,4.93,7.13,7.37c0.68,0.69,1.46,1.27,2.62,1.28c0.1-0.45,0.13-0.84,0.26-1.19c0.51-1.42,1.7-1.89,2.97-1.12
	c1.08,0.65,2.12,1.37,3.17,2.07c0.36,0.24,0.64,0.76,1.01,0.44c-0.83-2.08-1.68-4.05-2.4-6.07c-1.42-3.98-2.23-8.12-3.02-12.26
	c-0.29-1.52-0.18-2.91,0.23-4.32c0.27-0.93,0.64-1.79,0.69-2.82c0.06-1.26,1.32-1.83,2.6-1.4c0.32,0.11,0.63,0.24,1.11,0.42
	c-0.04-0.53,0.04-0.85-0.09-1.07c-1.57-2.65-2.33-5.58-3.05-8.54c-0.24-0.99-0.26-1.89,0.08-2.87c0.51-1.47,0.87-3,1.27-4.44
	c-0.12-0.25-0.18-0.44-0.29-0.6c-0.46-0.67-0.83-1.34-0.29-2.15c0.55-0.82,1.36-1.13,2.28-1.04c0.57,0.05,1.13,0.29,1.69,0.48
	c0.48,0.16,0.93,0.28,1.33-0.34C224.58,142.47,223.97,140.73,223.39,139.07z M97.92,532.02c1.08,0.09,2.5-0.01,3.79,0.37
	c3.5,1.03,7.11,1.29,10.67,1.83c2.89,0.44,5.87,0.46,8.7-0.54c0.96-0.34,1.73-0.14,2.49,0.34c0.74,0.47,1.43,0.94,2.39,0.98
	c1.86,0.07,3.7,0.35,5.56,0.43c1.06,0.04,2.15-0.02,3.17-0.28c0.81-0.21,1.52-0.21,2.29,0c0.47,0.13,0.96,0.3,1.43,0.28
	c2.64-0.11,5.28-0.27,7.91-0.42c0.61-0.03,1.12-0.19,1.47-0.78c0.63-1.09,1.57-1.01,2.54-0.53c1.55,0.78,3.19,0.84,4.88,0.74
	c1.27-0.07,2.54-0.08,3.81-0.1c0.99-0.01,1.98-0.07,2.81-0.67c0.98-0.7,1.98-1.17,3.23-1.16c0.55,0,1.13-0.32,1.64-0.59
	c3.05-1.58,5.46-3.97,8.43-6.55c-0.99,0.08-1.44,0.13-1.88,0.16c-1.46,0.09-2.93,0.16-4.4,0.25c-1.75,0.1-3.51,0.19-5.26,0.32
	c-0.87,0.07-1.74,0.21-2.61,0.34c-2.99,0.46-5.92,1.27-8.98,1.3c-0.28,0-0.56,0.19-0.84,0.24c-2.31,0.42-4.61,0.95-6.97,0.85
	c-0.57-0.02-1.3,0.01-1.67-0.31c-0.87-0.77-1.77-0.63-2.75-0.53c-4.56,0.48-9.13,0.92-13.7,1.41c-2.23,0.24-4.47,0.51-6.68,0.88
	c-3.03,0.51-6.06,0.35-9.08,0.02c-1.04-0.11-2.1-0.51-3.01-1.03c-1.07-0.61-2.24-0.9-3.36-0.89c-3.15,0.03-6.22-0.39-9.26-1.15
	c-0.61-0.15-1.28-0.02-1.98-0.02c-0.2,1.68,0.73,2.46,1.92,3.07C95.67,530.82,96.68,531.36,97.92,532.02z M79.58,122.45
	c-1.32,1.34-2.45,1.55-3.54,0.77c-0.54-0.38-1.08-0.9-1.35-1.48c-0.68-1.48-1.86-2.2-3.33-2.65c-1.03-0.31-2.22-0.47-3.01-1.1
	c-2.28-1.83-5.12-1.82-7.7-2.65c-1.17-0.38-2.33-0.27-3.44,0.23c-1.01,0.46-1.96,0.63-3.11,0.32c-1.36-0.37-2.21,0.58-2.07,2
	c0.33,3.14,1.74,5.56,4.6,7.05c1.56,0.81,3.19,1.54,4.65,2.5c2.17,1.42,4.51,2.37,6.98,3.02c3.18,0.84,6.36,1.08,9.5-0.3
	c0.99-0.44,1.69-0.99,1.84-2.07C79.85,126.46,80.02,124.82,79.58,122.45z M36.49,147.41c-1.23-0.26-2.28-0.75-3.26-0.63
	c-2.81,0.33-5.63,0.75-7.95,2.65c-1.51,1.24-2.96,2.59-4.63,3.57c-2.06,1.22-3.74,2.78-5.27,4.56c-0.44,0.51-0.86,1.07-1.19,1.65
	c-0.92,1.6-1.8,3.22-2.68,4.85c-0.98,1.81-0.36,4.1,1.48,4.92c1.98,0.88,4.07,0.96,5.83-0.49c1.95-1.61,4.1-2.99,5.6-5.13
	c0.54-0.78,1.38-1.39,2.18-1.93c3.19-2.16,5.93-4.69,7.91-8.08C35.59,151.52,36.36,149.73,36.49,147.41z M179.5,111.17
	c-0.22,0.3-0.31,0.53-0.46,0.59c-1.8,0.7-3.02,2.13-4.35,3.42c-0.4,0.39-0.79,0.94-0.88,1.46c-0.26,1.54-0.38,3.1-0.51,4.65
	c-0.08,0.97,0.36,1.67,1.24,2.14c0.92,0.49,1.85,0.69,2.8,0.18c1.46-0.79,2.94-1.55,4.32-2.47c5.02-3.34,8.94-7.89,13.16-12.09
	c1.48-1.47,2.2-3.46,2.88-5.4c0.39-1.1-0.26-1.96-1.43-2.03c-0.68-0.04-1.39-0.04-2.05,0.1c-3.93,0.82-7.89,1.56-11,4.44
	c-0.57,0.52-1.32,0.84-1.97,1.27c-0.57,0.38-1.14,0.77-1.66,1.21c-0.48,0.41-0.66,0.95-0.41,1.58
	C179.31,110.56,179.42,110.91,179.5,111.17z M196.78,124.06c0.53-0.07,1.21-0.13,1.88-0.24c4.83-0.79,9.47-2.26,13.98-4.16
	c1.43-0.6,2.77-1.41,4.12-2.19c0.5-0.29,0.94-0.7,1.31-1.14c0.77-0.91,0.86-1.9,0.24-2.98c-1.35-2.37-3.63-3.36-6.1-3.49
	c-2.11-0.11-4.24,0.53-6.38,0.73c-2.21,0.21-4.02,1.46-6.02,2.18c-3.31,1.19-5.71,3.65-8.22,5.96c-0.21,0.19-0.37,0.46-0.51,0.71
	c-0.4,0.74-0.42,1.52-0.03,2.25c0.56,1.07,1.32,1.94,2.65,2.05C194.68,123.83,195.65,123.95,196.78,124.06z M29.77,180.53
	c-0.63,0.38-0.94,0.48-1.1,0.69c-2.31,2.97-5.33,5.18-8.18,7.56c-1.51,1.26-3.3,2.11-5.39,2.01c-0.36-0.02-0.72,0.16-0.94,0.21
	c-0.46,1.29-0.8,2.4-1.25,3.48c-0.65,1.56-1.16,3.12-0.79,4.85c0.1,0.47-0.01,0.98,0.03,1.46c0.14,1.76,0.23,3.52,0.48,5.26
	c0.18,1.26,1.21,1.74,2.42,1.29c0.18-0.07,0.36-0.15,0.54-0.24c1.55-0.76,2.87-2.07,4.81-1.92c0.3,0.02,0.69-0.36,0.95-0.64
	c0.67-0.71,1.44-1.38,1.92-2.21c2.46-4.34,4.97-8.65,6.27-13.55C30.22,186.12,30.04,183.57,29.77,180.53z M44.99,133.59
	c-1.56-0.5-2.9-0.46-4.25-0.48c-2.74-0.04-5.48,0.08-8.19-0.54c-1.52-0.34-3.08-0.55-4.63-0.71c-1.19-0.12-2.35-0.28-3.33-1.01
	c-1.21-0.9-2.54-0.95-3.93-0.71c-2.68,0.45-5.11,1.36-6.71,3.75c-1.19,1.79-1.11,3.6,0.48,5.03c1.37,1.24,2.81,2.42,4.66,2.99
	c3.29,1.02,6.51,0.95,9.75-0.29c2.19-0.84,4.44-1.51,6.66-2.26c1.95-0.66,3.87-1.38,5.5-2.71C42.2,135.69,43.44,134.77,44.99,133.59
	z M241.96,173.18c-0.25-0.56-0.56-1.36-0.95-2.12c-0.3-0.6-0.84-1.1-1.02-1.72c-1.36-4.61-3.83-8.52-7.41-11.7
	c-1.67-1.49-3.43-2.87-5.19-4.26c-0.69-0.54-1.45-0.99-2.22-1.42c-0.83-0.47-1.79-0.16-2.19,0.73c-0.24,0.52-0.49,1.13-0.44,1.67
	c0.22,2.32,0.59,4.62,1.95,6.61c0.16,0.24,0.35,0.51,0.6,0.62c0.98,0.46,1.36,1.3,1.72,2.24c0.52,1.36,1.28,2.58,2.23,3.74
	c0.9,1.09,1.18,2.68,2.04,3.81c1.24,1.62,2.74,3.04,4.18,4.5c0.32,0.32,0.82,0.5,1.27,0.63c0.75,0.22,1.51,0.38,2.28,0.51
	c1.58,0.27,2.37-0.24,2.81-1.82C241.76,174.65,241.81,174.06,241.96,173.18z M28.35,125.63c0.85,1.57,2.37,2.11,4.07,2.41
	c2.31,0.4,4.61,0.84,6.92,1.29c2.94,0.57,5.83,0.39,8.65-0.64c2.07-0.76,2.17-1.32,0.8-3.11c-1.1-1.44-2.58-2.68-2.58-4.77
	c0-0.84-0.68-1.45-1.49-1.62c-3.14-0.67-6.21-1.6-9.43-1.96c-3.57-0.4-6.52,0.81-9.21,2.92c-0.88,0.69-1.33,1.69-1.62,2.74
	c-0.29,1.02,0.2,2.04,1.22,2.36C26.4,125.47,27.2,125.47,28.35,125.63z M29.93,169c-1.16,0.51-1.77,0.77-2.38,1.04
	c-0.8,0.36-1.56,0.84-2.4,1.06c-2.48,0.63-4.35,2.1-5.94,4.02c-0.86,1.03-1.32,1.21-2.52,0.75c-1.19-0.46-2.33-1.02-3.51-1.5
	c-1.75-0.72-2.12-0.56-3.2,0.87c-1.87,2.48-2.57,5.23-2.08,8.23c0.64,0.77,1.21,1.54,1.86,2.23c0.39,0.41,0.88,0.78,1.39,1.01
	c1.24,0.56,2.43,0.35,3.67-0.21c3.57-1.59,6.33-4.21,9.09-6.85c2.53-2.42,4.05-5.49,5.46-8.62C29.58,170.59,29.64,170.11,29.93,169z
	 M232.77,194.06c0.28-0.06,0.56-0.12,0.84-0.17c1.7-0.36,2.44-1.33,2.15-3.55c-0.14-1.06-0.42-2.11-0.78-3.12
	c-1.11-3.13-2.46-6.18-4.18-9.02c-1.93-3.2-4.16-6.14-7.81-7.62c-0.98-0.4-1.76-0.08-1.96,0.97c-0.09,0.48-0.17,0.99-0.1,1.46
	c0.2,1.25,0.45,2.49,0.76,3.72c0.47,1.89,1.07,3.75,1.51,5.65c0.6,2.6,1.73,4.93,3.27,7.09c0.08,0.12,0.33,0.11,0.5,0.16
	c0.42-0.36,0.83-0.72,1.35-1.17C229.91,190.38,230.88,192.57,232.77,194.06z M217.6,192.18c0.34,1.65,0.54,2.8,0.82,3.92
	c1.12,4.51,3.54,8.44,5.69,12.49c0.71,1.34,1.95,2.2,3.19,2.98c0.89,0.56,1.86,1.11,2.97,0.23c0.29-0.23,0.93-0.02,1.4,0.02
	c0.68,0.05,1.19-0.32,1.44-0.83c0.28-0.58,0.49-1.3,0.43-1.93c-0.26-2.86-1.64-5.26-3.66-7.17c-0.92-0.86-1.79-1.78-2.7-2.65
	C224.45,196.59,221.15,194.69,217.6,192.18z M217.4,46.36c-1.02-1.15-1.23-2.25-0.42-3.54c0.52-0.82,0.98-1.68,1.48-2.52
	c0.7-1.15,1.58-2.2,1.85-3.01c-1.08-1.33-1.93-2.38-2.79-3.45c-0.34,0.18-0.7,0.24-0.83,0.45c-0.94,1.58-2.11,3.06-2.29,5
	c-0.13,1.36-1.05,2.03-2.29,2.34c-1.26,0.32-2.38-0.78-2.05-2.05c0.09-0.37,0.27-0.73,0.48-1.05c0.76-1.14,1.55-2.26,2.31-3.39
	c0.49-0.73,1-1.45,1.43-2.21c0.37-0.64,0.2-0.84-1.04-1.35c-0.73,1.1-1.59,2.17-2.21,3.36c-0.71,1.36-1.23,2.82-1.82,4.22
	c-0.39,0.04-0.68,0.1-0.96,0.1c-2.05,0.02-2.53-1.77-1.32-3.29c0.48-0.61,1.12-1.09,1.66-1.66c0.99-1.05,1.94-2.13,2.25-3.73
	c-0.66-0.28-1.17-0.57-1.72-0.72c-0.83-0.23-1.69-0.36-2.49-0.52c-2.55,2.65-3.69,5.82-4.47,9.15c0.15,0.19,0.23,0.42,0.39,0.49
	c1.7,0.73,3.38,1.54,5.14,2.1c0.77,0.25,1.37,0.57,2.01,1.05C212.02,43.92,214.65,45.17,217.4,46.36z M126,28.12
	c0.9,0.04,1.57,0.16,2.23,0.09c3.5-0.33,7-0.71,10.49-1.05c1.03-0.1,1.66-0.67,1.78-1.64c0.16-1.33,0.79-2.39,1.52-3.45
	c0.67-0.98,1.17-2.03,1.01-3.26c-0.79-0.79-1.79-0.8-2.76-0.87c-0.98-0.07-1.97,0.01-2.93-0.12c-1.71-0.23-2.85,0.44-3.46,2.01
	c-0.24,0.62-0.39,1.26-0.58,1.89c0.43,0.46,0.77,0.81,1.09,1.17c1.03,1.18,1.04,2.48,0.02,3.64c-1.19,1.35-3.16,0.98-3.75-0.72
	c-0.37-1.06-0.31-2.15,0.17-3.15c0.51-1.05,1.15-2.04,1.72-3.06c0.22-0.39,0.39-0.81,0.62-1.3c-0.49-0.14-0.75-0.26-1.02-0.28
	c-0.58-0.04-1.18-0.08-1.76-0.04c-2.51,0.16-3.67,1.18-4.11,3.72c-0.15,0.85-0.3,1.82-0.04,2.61
	C126.64,25.58,126.65,26.76,126,28.12z M165.04,29.05c0.37,0.22,0.51,0.37,0.67,0.4c4.14,0.71,8.38,0.88,12.41,2.22
	c0.45,0.15,0.97,0.15,1.46,0.14c1.5-0.03,2.87,0.4,4.29,0.85c2.79,0.89,5.64,1.62,8.47,2.39c0.26,0.07,0.56,0.01,0.76,0.01
	c0.74-1.43,1.49-2.79,2.16-4.19c0.66-1.38,2.19-2.28,2.3-3.89c-0.19-0.27-0.27-0.47-0.42-0.57c-0.32-0.22-0.66-0.44-1.02-0.57
	c-2.88-1.07-3.02-0.96-4.19,1.97c-0.33,0.83-0.63,1.61-0.58,2.53c0.08,1.59-0.62,2.6-2.34,2.73c-0.25-0.17-0.51-0.32-0.73-0.5
	c-0.22-0.19-0.43-0.41-0.6-0.64c-0.84-1.14-0.86-1.63,0-2.9c0.77-1.14,1.6-2.23,2.36-3.37c0.53-0.79,0.22-1.63-0.7-1.8
	c-1.44-0.27-2.89-0.45-4.39-0.68c-1.52,1.39-2.58,2.95-2.4,5.11c0.03,0.29,0.02,0.59,0,0.88c-0.14,1.52-0.77,2.07-2.33,1.88
	c-2.33-0.29-4.65-0.65-6.97-0.99c-0.29-0.04-0.56-0.17-0.83-0.28c-2.13-0.85-4.42-0.77-6.62-1.15
	C165.64,28.61,165.46,28.81,165.04,29.05z M227.11,139.4c0.39,3.06,1.71,5.26,3,7.42c2.57,4.32,5.11,7.58,10.18,9.61
	c0.63,0.25,1.32,0.43,2-0.3c0.28-0.95,0.1-2-0.23-3.02c-0.3-0.93-0.59-1.88-1.03-2.74c-1.18-2.27-2.59-4.42-4.71-5.89
	c-2.17-1.5-4.47-2.8-6.75-4.13C228.92,139.97,228.15,139.79,227.11,139.4z M171.1,589.89c-1.03,0.25-1.98,0.41-2.89,0.7
	c-3.47,1.09-3.1,0.78-3.22,4.15c-0.08,2.44,0.85,4.5,1.94,6.71c0.89-0.18,1.64-0.32,2.38-0.49c1.08-0.24,1.66-0.96,1.89-2
	c0.06-0.29,0.17-0.57,0.18-0.86c0.07-2.34,0.14-4.68,0.17-7.02C171.56,590.73,171.3,590.39,171.1,589.89z M162.45,20.36
	c-2.04-1.04-2.03-1.02-4.12-0.73c-0.47,0.06-0.96-0.04-1.44-0.09c-0.58-0.07-1.16-0.25-1.74-0.23c-0.46,0.01-1.1,0.12-1.32,0.43
	c-0.74,1.02-1.43,2.12-1.2,3.48c0.14,0.83,0.35,1.65,0.57,2.68c2.18-0.16,4.39,0.58,6.73-0.1
	C160.74,24.04,161.55,22.29,162.45,20.36z M172.01,27.48c2.21,0.52,4.08,0.96,6.02,1.41c0.66-1.35,1.23-2.53,2.37-3.43
	c0.84-0.66,1.45-1.76,1.68-2.92c-2.15-0.8-6.61-1.24-8.76-0.9c-0.37,0.74-0.76,1.51-1.15,2.28
	C172.83,25.05,172.26,26.19,172.01,27.48z M123.36,28.32c-1.49-2.02-1.32-3.76-0.41-5.5c0.27-0.51,0.75-0.92,1.01-1.43
	c0.38-0.76,0.96-1.53,0.28-2.58c-1.87-0.4-3.79,0.01-5.66,0.48c-1.09,0.28-1.41,2.04-0.66,2.96c0.28,0.34,0.67,0.59,0.99,0.86
	c-0.4,1.12-0.66,2.07-1.07,2.95c-0.38,0.83-0.92,1.58-1.52,2.59c1.44,0,2.59,0.04,3.74-0.01C121.03,28.6,122,28.46,123.36,28.32z
	 M160.17,592.94c-0.4,0.08-0.87,0.2-1.34,0.25c-2.41,0.27-2.59,0.56-2.63,3.24c-0.01,0.48-0.02,1,0.15,1.44
	c0.57,1.53,1.21,3.03,1.84,4.57c1.36-0.21,2.62-0.16,3.67-0.79c-0.07-2.09-0.15-4.03-0.19-5.97
	C161.63,594.55,161.31,593.59,160.17,592.94z M129.09,594.15c-0.05,2.31-0.14,4.55-0.12,6.79c0.01,0.99,0.46,1.41,1.37,1.62
	c1.48,0.34,2.65-0.45,2.52-1.95c-0.19-2.16-0.06-4.24,0.88-6.22C131.3,593.48,131.3,593.48,129.09,594.15z M181.4,588.48
	c0.27,2.86-0.53,5.72,1.14,8.27c2.58-1.07,2.89-1.37,2.86-3.54c-0.03-2.49-0.19-4.99-0.8-7.85
	C183.97,588.75,184.25,588.09,181.4,588.48z M192.49,583.32c0.36,1.51,0.6,2.84,1.01,4.11c0.43,1.33,0.22,2.92,1.5,3.98
	c0.61-0.37,1.18-0.72,1.75-1.07c1.81-1.11,2.1-2.46,0.64-3.99c-0.98-1.02-1.59-2.17-2.12-3.41c-0.06-0.14-0.31-0.2-0.59-0.37
	C194.14,582.75,193.51,582.96,192.49,583.32z M84.61,29.86c1.51,0.37,2.69-0.04,3.8-0.65c0.32-0.18,0.73-0.47,0.81-0.78
	c0.42-1.64,0.92-3.3,0.39-5.02c-5.81,0.54-5.03,0.63-5.22,5.46C84.38,29.14,84.51,29.42,84.61,29.86z M60.86,35.63
	c0.1-2.17,0.2-4.01,0.27-5.86c0.02-0.58-0.01-1.18-0.09-1.75c-0.16-1.04-0.79-1.43-1.91-1.26c-1.34,0.21-1.67,0.66-1.57,1.92
	c0.1,1.36,0.11,2.72,0.18,4.08c0.05,0.87,0.08,1.76,0.23,2.62c0.13,0.75,0.78,1.1,1.56,0.88C59.98,36.13,60.39,35.85,60.86,35.63z
	 M71.34,25.15c0.12,1.45,0.17,2.71,0.33,3.97c0.15,1.22-0.48,2.53,0.32,3.64c0.26,0.08,0.45,0.17,0.63,0.17
	c0.29,0,0.59-0.02,0.86-0.1c1.43-0.44,1.72-0.83,1.46-2.34c-0.28-1.68-0.17-3.3,0.3-4.92c0.13-0.44,0.17-0.9,0.27-1.46
	C73.89,23.62,72.75,24.36,71.34,25.15z M116.3,601.17c1.43,0.47,2.63,0.57,3.99,0.06c0.18-2.18,0.83-4.36-0.85-6.4
	c-0.66,0-1.32-0.02-1.99,0.01c-0.17,0.01-0.34,0.15-0.62,0.29C115.91,596.95,116.01,598.94,116.3,601.17z M51.17,29.91
	c0.07,1.88,0.15,3.53,0.17,5.17c0.01,0.68-0.25,1.37-0.17,2.03c0.07,0.52,0.36,1.24,0.75,1.42s1.15-0.08,1.54-0.39
	c0.41-0.32,0.74-0.93,0.81-1.44c0.18-1.45,0.22-2.91,0.27-4.37c0.03-1.09-0.13-2.14-0.92-2.99C52.69,28.98,51.92,29.25,51.17,29.91z
	 M68.21,26.53c-0.76,0.17-1.66,0.21-2.4,0.57c-0.55,0.27-1.2,0.9-1.28,1.45c-0.31,2.01-0.4,4.06,0.83,5.91
	c1.08,0.13,1.96-0.11,2.77-0.8c0.15-2.17,0.31-4.31,0.44-6.44C68.58,27.06,68.4,26.89,68.21,26.53z M147.43,26.2
	c0.64-1.68,1.19-3.12,1.74-4.57c0.98-2.55,0.27-3.59-2.53-3.65c-0.26-0.01-0.52,0.2-0.82,0.33c-0.62,2.27-0.99,4.52-0.29,6.84
	C145.85,26.24,145.79,26.26,147.43,26.2z M176.41,598.43c1.29,0.02,1.72-0.5,1.69-1.45c-0.07-1.94-0.13-3.89-0.25-5.83
	c-0.05-0.74-0.26-1.47-0.43-2.38c-0.92,0.1-1.63,0.18-2.43,0.27C174.85,592.39,173.98,595.62,176.41,598.43z M114.88,20.3
	c-0.93-0.75-0.95-0.83-1.39-0.73c-1.43,0.33-3.15-0.38-4.41,1.17c0.81,1.57,0.2,3.51,1.47,4.93c1.99,0.15,2.19,0.05,2.73-1.34
	C113.81,23,114.35,21.65,114.88,20.3z M44.62,33.05c1.27,2.43,0.33,5.21,1.35,7.68c2.3-0.82,2.44-1.02,2.35-2.8
	c-0.08-1.56-0.05-3.12-0.16-4.67c-0.04-0.52-0.35-1.02-0.52-1.5C46.45,31.77,45.52,31.94,44.62,33.05z M98.28,22.16
	c-1.94-0.19-3.43,0.02-4.88,0.51c-0.77,1.94-1.41,3.77,0.7,5.37c0.93-0.29,1.83-0.58,2.63-0.83C97.25,25.49,97.7,24.01,98.28,22.16z
	 M101.71,21.06c-0.37,1.28-0.67,2.28-0.97,3.34c0.61,0.73,1.16,1.38,1.78,2.12c0.88-0.17,1.72-0.33,2.6-0.51
	c0.27-1.36,0.56-2.58,0.74-3.82c0.06-0.42-0.18-0.88-0.33-1.5C104.25,20.81,103.11,20.92,101.71,21.06z M149.97,595.38
	c-0.47,1.31-0.49,2.57-0.25,3.79c0.18,0.93,0.61,1.82,1.01,2.69c0.27,0.59,0.86,0.78,1.47,0.62c0.54-0.14,0.7-0.6,0.7-1.12
	c-0.01-1.35,0.01-2.71-0.02-4.06c-0.02-0.73,0.33-1.54-0.43-2.27C151.68,595.14,150.83,595.26,149.97,595.38z M6.68,263.39
	c-0.21-0.04-0.43-0.08-0.64-0.12c-0.32,0.9-0.75,1.78-0.95,2.71c-0.84,3.92-1.62,7.85-2.38,11.78c-0.13,0.66-0.05,1.36-0.03,2.05
	c0.01,0.35-0.01,0.81,0.68,0.74c0.13-0.32,0.33-0.66,0.4-1.03c0.89-4.61,1.77-9.23,2.63-13.85C6.53,264.92,6.59,264.15,6.68,263.39z
	 M80.96,22.44c-2.03,0.34-2.3,0.51-2.43,1.87c-0.1,1.06-0.22,2.16-0.06,3.19c0.18,1.13,0.63,2.22,1.07,3.28
	c0.08,0.2,0.67,0.28,1.01,0.25c0.17-0.02,0.46-0.44,0.43-0.64c-0.22-1.28,0.07-2.48,0.33-3.72C81.6,25.26,81.62,23.8,80.96,22.44z
	 M33.09,43.25c0.82,0.5,1.4,0.85,1.98,1.2c0.08,0.05,0.18,0.15,0.25,0.13c0.45-0.07,0.96-0.05,1.31-0.28
	c0.21-0.14,0.32-0.77,0.18-1.02c-0.77-1.48-1.41-2.97-1.49-4.68c-0.05-1.08-0.9-1.38-1.91-0.88c-0.72,0.35-0.99,0.95-0.91,1.67
	C32.64,40.64,32.88,41.88,33.09,43.25z M167.26,26.61c1-1.97,2.26-3.48,2.7-5.46c-1.43-1.11-2.96-1.07-4.52-0.81
	c-0.49,0.08-0.91,0.34-0.84,0.96c0.46,0.33,1.07,0.57,1.3,1.01c0.25,0.47,0.24,1.13,0.18,1.7c-0.06,0.65-0.3,1.29-0.49,2.06
	C166.15,26.25,166.59,26.39,167.26,26.61z M41.2,34.4c-0.51,0.08-0.9,0.09-1.24,0.22c-1.47,0.55-1.73,0.97-1.39,2.4
	c0.18,0.76,0.45,1.5,0.78,2.21c0.24,0.52,0.67,0.96,0.96,1.47c0.32,0.55,0.58,1.14,0.85,1.69c0.84-0.21,1.01-0.73,0.99-1.36
	c-0.04-1.07-0.08-2.15-0.14-3.22C41.94,36.73,41.91,35.65,41.2,34.4z M146.41,599.46c-0.05-0.51-0.07-1.2-0.21-1.86
	c-0.17-0.81-0.97-1.26-1.79-1.12c-1.06,0.19-1.87,0.97-1.73,2c0.16,1.13,0.55,2.25,0.94,3.34c0.22,0.62,0.83,0.79,1.46,0.71
	c0.67-0.09,1.04-0.58,1.18-1.16C146.4,600.82,146.36,600.22,146.41,599.46z M196.72,36.34c0.51,0.9,1.06,1.07,1.84,0.49
	c0.26-1.03,0.07-2.27,1-3.18c0.62-0.61,1.11-1.34,1.66-2.02c0.48-0.61,1-1.2,1.42-1.84c0.45-0.68,0.27-1.47-0.29-1.79
	c-0.62-0.34-1.35-0.21-1.79,0.44c-0.43,0.64-0.83,1.32-1.06,2.05C198.83,32.6,198.2,34.72,196.72,36.34z M189.14,585.55
	c-0.23,0-0.41-0.02-0.41,0c-0.6,2.64-0.37,5.21,0.8,7.66c0.08,0.17,0.44,0.21,0.94,0.43C190.63,590.67,190.24,588.05,189.14,585.55z
	 M85.17,587.27c-0.41,1.19-0.88,2.27-1.15,3.4c-0.2,0.84-0.2,1.73-0.2,2.6c0,0.21,0.3,0.54,0.52,0.59c0.21,0.05,0.67-0.12,0.72-0.29
	c0.52-1.67,1.03-3.35,1.42-5.06C86.62,587.92,86.24,587.39,85.17,587.27z M125.86,594.03c-2.33,1.72-2.53,5-0.77,8.03
	c0.25-0.51,0.55-0.89,0.59-1.28c0.11-1.34,0.14-2.7,0.17-4.05C125.87,595.97,125.86,595.21,125.86,594.03z M75.12,591.14
	c0.68,0.43,1.22,0.33,1.42-0.12c0.77-1.76,1.45-3.55,2.11-5.35c0.06-0.16-0.2-0.57-0.41-0.66c-0.2-0.1-0.65-0.04-0.77,0.12
	c-0.34,0.45-0.62,0.97-0.82,1.5C76.14,588.06,75.67,589.52,75.12,591.14z M106.8,593.23c-0.69,2.12,0.48,4.35-0.62,6.34
	c-0.05,0.09,0.25,0.52,0.46,0.59c0.21,0.06,0.69-0.1,0.71-0.23c0.38-1.99,0.78-3.97,1-5.98C108.41,593.38,107.77,593,106.8,593.23z
	 M111.68,600.87c0.41-0.26,1.04-0.44,1.07-0.7c0.19-1.54,0.3-3.1,0.3-4.65c0-0.62-0.46-1.06-1.21-0.8
	C110.97,597.56,110.94,598.28,111.68,600.87z M98.57,591.38c-0.36,0.24-0.64,0.35-0.78,0.55c-0.76,1.08-0.66,2.37-0.75,3.59
	c-0.01,0.2,0.49,0.61,0.77,0.62s0.77-0.3,0.83-0.55c0.24-0.92,0.4-1.88,0.45-2.83C99.11,592.35,98.78,591.91,98.57,591.38z
	 M101.69,29.48c2.51-0.12,5.01-0.22,7.52-0.36c0.14-0.01,0.27-0.25,0.4-0.38c-0.09-0.15-0.2-0.43-0.27-0.42
	C106.8,28.64,104.13,28.07,101.69,29.48z M89.06,595.93c0.64-2.05,1.21-3.58,1.34-5.22c0.03-0.38-0.02-0.79-0.57-0.78
	C88.2,592.76,88.02,593.73,89.06,595.93z M74.49,92.29c-0.14,0.03-0.28,0.07-0.43,0.1c0.29,1.69,0.55,3.39,0.9,5.07
	c0.13,0.64,0.48,1.24,0.76,1.85c0.01,0.03,0.31-0.07,0.64-0.15C75.73,96.87,75.11,94.58,74.49,92.29z M92.18,596.08
	c0.53-0.03,0.83,0.02,0.87-0.07c0.69-1.23,0.93-3.09,0.57-4.78C93.12,592.91,92.69,594.36,92.18,596.08z M103.4,593.41
	c-0.13-0.16-0.17-0.26-0.25-0.3c-0.08-0.03-0.23-0.02-0.28,0.03c-0.99,1.11-0.89,2.41-0.69,4.45
	C102.72,595.74,103.07,594.54,103.4,593.41z M126.14,632.49c0,0.07,0,0.15,0,0.22c1.33,0,2.66,0.01,3.99-0.01
	c0.17,0,0.35-0.13,0.55-0.21C129.15,632.49,127.64,632.49,126.14,632.49z M152.99,591.61c-1.09-0.51-1.81-0.58-2.71-0.22
	C151.12,592.28,151.84,592.35,152.99,591.61z M113.81,28.65c-0.65-0.77-1.19-0.77-1.75-0.61c-0.14,0.04-0.3,0.25-0.31,0.39
	s0.18,0.4,0.28,0.4C112.53,28.82,113.04,28.74,113.81,28.65z M177.04,523.73c0.28-0.61,1.45-0.8,0.87-1.81
	C176.86,522.3,176.86,522.3,177.04,523.73z M132.84,632.56c0.83-0.08,1.35-0.12,1.87-0.19c0.05-0.01,0.11-0.16,0.12-0.24
	c0-0.08-0.05-0.22-0.11-0.23C134.1,631.7,133.48,631.52,132.84,632.56z M183.24,509.32c0.13,0.04,0.26,0.08,0.38,0.12
	c0.15-0.34,0.3-0.67,0.45-1.01c-0.08-0.04-0.16-0.09-0.24-0.13C183.64,508.64,183.44,508.98,183.24,509.32z M69.94,578.77
	c-0.09-0.1-0.19-0.2-0.28-0.3c-0.12,0.13-0.27,0.24-0.34,0.39c-0.02,0.05,0.17,0.19,0.27,0.29
	C69.71,579.02,69.83,578.89,69.94,578.77z M99.35,29.89c-0.16-0.11-0.24-0.21-0.29-0.2c-0.2,0.05-0.39,0.13-0.59,0.2
	C98.73,29.89,99,29.89,99.35,29.89z M137.65,632.04c0-0.07,0-0.18-0.01-0.19c-0.08-0.02-0.17,0-0.26,0c0,0.06,0,0.18,0.01,0.18
	C137.48,632.06,137.57,632.04,137.65,632.04z M73.31,88.86l0.11-0.21l-0.17-0.03L73.31,88.86z M111.06,61.53
	c-0.07,0.04-0.13,0.07-0.2,0.11c0.06,0.04,0.13,0.1,0.19,0.1c0.07,0,0.13-0.07,0.2-0.11C111.19,61.6,111.12,61.56,111.06,61.53z
	 M156.87,590.79l0.13-0.16l-0.26,0.01L156.87,590.79z M72.17,589.6c-0.02,0.12-0.04,0.24-0.06,0.36c0.04-0.05,0.12-0.1,0.13-0.16
	C72.25,589.74,72.2,589.67,72.17,589.6z"/>
<path d="M46.41,618c0.17-3.43,1.72-8.14,3.52-10.87c0.65,0.09,0.39,0.55,0.3,0.86c-0.36,1.32-0.77,2.62-1.15,3.93
	c-0.3,1.03-0.57,2.07-0.87,3.1C47.9,616.11,47.52,617.18,46.41,618z"/>
<path d="M20.81,12.56c0.28,0.16,0.63,0.32,0.92,0.55c0.11,0.08,0.14,0.38,0.08,0.52c-0.07,0.14-0.33,0.32-0.45,0.29
	c-0.36-0.11-0.71-0.28-1.01-0.49c-0.11-0.08-0.16-0.39-0.1-0.53C20.3,12.76,20.54,12.71,20.81,12.56z"/>
<path d="M361.49-108.33c-0.11,0.13-0.2,0.35-0.33,0.38c-0.11,0.03-0.28-0.16-0.42-0.25c0.11-0.13,0.2-0.35,0.33-0.38
	C361.19-108.6,361.35-108.42,361.49-108.33z"/>
<path d="M-124.49,129.27c0.25-0.12,0.33-0.2,0.4-0.19c0.26,0.04,0.52,0.08,0.77,0.18c0.04,0.02-0.02,0.29-0.03,0.44
	c-0.26-0.04-0.51-0.06-0.77-0.12C-124.19,129.56-124.25,129.47-124.49,129.27z"/>
<path d="M36.78,446.22c0.12-0.11,0.25-0.21,0.37-0.32c0.13,0.19,0.25,0.38,0.38,0.57c-0.16,0.06-0.35,0.19-0.49,0.16
	C36.93,446.59,36.86,446.36,36.78,446.22z"/>
<path d="M295.04-18.14c-0.11-0.09-0.23-0.18-0.34-0.28c0.11-0.12,0.21-0.25,0.32-0.37c0.11,0.09,0.32,0.21,0.3,0.28
	C295.29-18.38,295.14-18.26,295.04-18.14z"/>
<path d="M-44.83,476.28c-0.05-0.05-0.11-0.1-0.16-0.14c0.1-0.06,0.2-0.12,0.3-0.18c0.01,0.07,0.06,0.16,0.04,0.21
	C-44.68,476.23-44.78,476.25-44.83,476.28z"/>
<path d="M352.93,237.64c-0.05,0.06-0.1,0.11-0.15,0.17c-0.04-0.07-0.11-0.14-0.11-0.2c0.01-0.06,0.09-0.11,0.15-0.17
	C352.85,237.5,352.89,237.57,352.93,237.64z"/>
<path class="st0" d="M20.26,220.94c3.06-2.13,6-4.38,8.79-6.86c1.98-1.77,3.92-3.52,5.55-5.63c2.19-2.82,3.33-5.96,3.35-9.52
	c0-0.78,0.05-1.57,0.06-2.35c0.01-1.38-0.62-2.45-1.67-3.29c-1.25-1.01-2.57-0.87-3.62,0.35c-0.77,0.89-0.89,1.66-0.21,2.67
	c2.11,3.11,1.53,6.1-0.32,9.03c-1.26,2-2.82,3.76-4.63,5.3c-1.57,1.33-3.13,2.68-4.69,4.01c-0.22,0.19-0.45,0.38-0.69,0.55
	c-2.35,1.62-3.72,1.19-4.68-1.48c-0.39-1.08-0.04-2.37,1.03-2.75c3.87-1.36,6.03-4.39,8.19-7.64c2.58-3.89,4.41-8.07,5.9-12.44
	c0.95-2.8,1.38-5.69,0.99-8.68c-0.26-2.03-0.29-4.09-0.43-6.14c-0.01-0.2,0.03-0.41-0.03-0.59c-0.82-2.59-0.17-4.99,0.79-7.4
	c0.54-1.36,0.77-2.86,1.36-4.19c0.78-1.74,1.19-3.36-0.44-4.84c0.84-1.24,1.51-2.31,2.26-3.31c1.79-2.39,2.27-5.15,2.37-8.04
	c0.06-1.73,0.15-3.47,0.35-5.18c0.12-1.04,0.94-1.81,1.78-2.23c2.83-1.41,4.78-4.05,7.7-5.32c0.58-0.26,1.15-0.83,1.45-1.4
	c0.63-1.2,1.68-1.56,2.86-1.8c0.48-0.1,1.02-0.09,1.43-0.31c1.43-0.77,2.8-0.66,4.22,0.03c0.51,0.25,1.14,0.32,1.72,0.36
	c1.69,0.1,3.23,0.62,4.8,1.25c2.28,0.91,4.67,1.54,7.17,1.22c1.06-0.13,2.1-0.41,3.13-0.68c0.92-0.25,1.8-0.74,2.91-0.39
	c0,0.61,0.09,1.19-0.02,1.72c-0.43,2.11-0.93,4.21-1.37,6.32c-0.19,0.89-0.48,1.71-1.19,2.31c-0.89,0.75-1.31,1.64-1.15,2.85
	c0.15,1.11-0.25,2.11-0.74,3.1c-0.97,1.92-1.88,3.88-2.84,5.8c-1.58,3.15-3.13,6.32-4.8,9.42c-0.88,1.63-1.93,3.18-3.02,4.68
	c-1.68,2.29-3.33,4.64-5.24,6.72c-2.7,2.95-5.32,6.01-8.62,8.35c-1.02,0.72-1.22,1.36-0.8,2.53c0.13,0.36,0.37,0.68,0.56,1.02
	c0.14,0.25,0.27,0.51,0.47,0.88c-2.05,2.77-4.75,4.86-7.49,6.9c-0.39,0.29-0.87,0.48-1.22,0.82c-0.34,0.33-0.64,0.76-0.8,1.2
	c-0.29,0.79-0.16,1.56,0.47,2.16c0.5,0.49,1.39,0.42,2.14-0.24c1.54-1.36,3.04-2.76,4.56-4.15c2.24-2.06,4.45-4.13,6.7-6.17
	c0.65-0.59,1.38-1.1,2.08-1.64c0.31-0.24,0.64-0.45,0.95-0.69c1.97-1.53,2.2-2.27,1.41-5.04c0.85-1.32,1.79-2.79,2.74-4.27
	c2.54-3.95,5.82-7.39,7.93-11.63c0.13-0.26,0.3-0.52,0.49-0.73c3.29-3.61,5.1-8.12,7.25-12.39c1.4-2.77,2.31-5.84,3.03-8.88
	c0.49-2.07,0.36-4.31,1.29-6.29c1.41-2.98,2.01-6.08,2.06-9.36c0.02-1.85,0.4-3.7,0.71-5.54c0.52-3.02,0.2-6.06,0.26-9.1
	c0.02-0.93-0.27-1.74-0.91-2.41c-0.79-0.83-1.07-1.83-1.07-2.96c-0.01-1.47-0.07-2.94-0.12-4.4c-0.07-1.96-0.13-3.92-0.24-5.87
	c-0.05-0.89-0.28-1.75-0.99-2.38c-0.85-0.76-1.26-1.73-1.34-2.85c-0.1-1.36-0.55-2.47-1.92-3.04c-0.91-0.38-1.2-1.24-1.45-2.1
	c-0.69-2.35-1.41-4.69-2.07-7.05c-0.37-1.31-0.95-2.36-2.5-2.53c-1.12,0.59-1.7,1.62-2.03,2.75c-0.72,2.49-0.85,5-0.18,7.55
	c0.77,2.94,1.45,5.9,2.15,8.85c0.11,0.47,0.29,0.99,0.2,1.44c-0.08,0.41-0.43,0.81-0.75,1.12c-0.18,0.18-0.55,0.21-0.84,0.22
	c-0.68,0.04-1.38,0.09-2.06,0.03c-2.92-0.28-5.86-0.5-8.77-0.92c-3.04-0.43-5.81-1.7-8.49-3.15c-0.87-0.48-1.71-0.96-2.82-0.91
	c-0.49,0.37-1.03,0.77-1.5,1.13c-0.3,0-0.51,0.05-0.68-0.01c-1.98-0.64-3.75-1.68-5.42-2.91c-1.76-1.3-1.85-2.26-0.55-3.89
	c1.56-1.96,3.48-3.42,5.8-4.37c0.89-0.36,1.73-0.84,2.85-1.38c-0.57-0.54-0.94-0.88-1.46-1.36c0.95-0.47,1.8-0.9,2.66-1.31
	c3.17-1.53,6.27-3.18,9.73-4.1c2.63-0.7,5.11-1.97,7.71-2.82c3.81-1.24,7.68-2.32,11.52-3.47c0.56-0.17,1.14-0.29,1.7-0.49
	c2.57-0.93,5.19-1.59,7.88-2.16c3.27-0.69,6.56-1.08,9.84-1.6c6.86-1.09,13.77-1.92,20.65-2.86c0.19-0.03,0.4-0.02,0.58-0.07
	c1.79-0.52,3.59-0.7,5.48-0.69c2.63,0.02,5.27-0.41,7.91-0.62c4.79-0.37,9.58-0.35,14.37,0.01c1.85,0.14,3.72,0.06,5.58,0.13
	c1.56,0.06,3.13,0.15,4.69,0.3c4.19,0.42,8.37,0.91,12.33,2.49c0.62,0.25,1.34,0.28,2.02,0.37c3.78,0.54,7.48,1.43,11.14,2.47
	c0.38,0.11,0.81,0.11,1.13,0.3c3.71,2.19,7.76,3.78,11.23,6.36c1.81,1.34,3.22,3.13,4.43,5.05c0.21,0.33,0.34,0.71,0.59,1.01
	c0.95,1.13,2.33,0.9,2.98-0.49c0.12-0.25,0.18-0.53,0.3-0.89c0.93,0.1,1.35,0.7,1.69,1.59c-0.42,1.28-1.38,2.2-2.59,2.91
	c-1.26,0.74-2.56,1.45-3.79,2.24c-1.4,0.89-2.74,1.88-4.12,2.8c-0.81,0.54-1.63,1.1-2.51,1.5c-2.32,1.04-4.64,2.11-7.03,2.94
	c-1.84,0.63-3.79,0.93-5.71,1.33c-0.95,0.2-1.98,0.1-2.68,0.97c0.01,0.01,0.07,0.08,0.08,0.09c-0.07-0.47-0.28-0.97-0.19-1.41
	c0.45-2.3,0.89-4.62,1.52-6.88c0.28-1,0.99-1.9,1.58-2.79c0.53-0.79,0.66-1.61,0.46-2.51c-0.14-0.62-0.46-1.04-1.08-1.27
	c-2.6-0.98-2.75-1.02-2.34-3.45c0.32-1.9-0.35-2.99-2.03-3.83c-1.36,0.34-2.17,1.15-2.92,2.47c-1.61,2.81-3.03,5.71-4.34,8.66
	c-0.83,1.87-1.5,3.81-2.14,5.76c-0.32,0.97-0.23,1.95,0.76,2.61c0.65,0.44,0.79,1.09,0.67,1.82c-0.17,1.06-0.35,2.13-0.56,3.18
	c-0.27,1.34-0.6,2.67-0.84,4.02c-0.18,1.01,0.22,1.59,1.26,2.03c0.92,0.38,1.68,0.13,2.29-0.72c0.47-0.67,0.61-1.4,0.65-2.21
	c0.1-1.66,0.3-3.31,0.46-4.96c0.03-0.29,0.11-0.59,0.09-0.88c-0.07-0.77-0.43-1.62-0.23-2.29c0.73-2.41,1.65-4.75,2.66-7.09
	c0.24,1.55-0.25,3.03-0.44,4.52c-0.57,4.46-1.23,8.91-1.45,13.42c-0.15,3.13-0.43,6.25-0.74,9.37c-0.09,0.85-0.38,1.73-0.78,2.48
	c-1.29,2.44-1.55,5.01-1.18,7.7c0.3,2.23,0.52,4.48,0.79,6.72c0.12,0.97,0.19,1.97,0.48,2.9c0.93,2.93,1.49,5.87,0.84,8.95
	c-0.1,0.45,0.06,0.97,0.12,1.45c0.18,1.36,0.43,2.71,0.57,4.07c0.12,1.22,0.42,2.31,1.46,3.08c0.93,0.68,1.28,1.72,1.57,2.76
	c0.54,1.88,0.97,3.79,1.51,5.66c0.78,2.65,1.82,5.06,4.19,6.85c1.27,0.96,2.11,2.55,2.97,3.96c0.71,1.17,1.47,2.25,2.4,3.28
	c0.93-0.48,0.71-1.2,0.58-1.82c-0.16-0.82-0.99-1.45-0.74-2.42c0.25,0.04,0.5,0.01,0.6,0.11c1.01,1.06,2.09,2.08,2.97,3.24
	c0.71,0.95,1.49,1.77,2.39,2.54c1.11,0.94,2.17,2.01,3,3.21c1.42,2.06,3.41,3.22,5.68,3.89c0.99,0.29,1.8,0.74,2.53,1.39
	c1.39,1.23,2.77,2.48,4.1,3.78c2.45,2.38,4.65,5.05,7.61,6.87c1.18,0.72,1.72,1.81,2.02,3.1c0.79,3.45,2.2,6.69,3.66,9.89
	c0.8,1.76,1.87,3.51,3.22,4.88c1.42,1.44,3.23,2.65,5.35,2.86c1.77,0.18,2.88,1.09,3.74,2.49c1.43,2.33,3.51,4.25,4.41,6.91
	c0.69,2.04,1.26,4.11,1.87,6.17c0.34,1.13,0.8,2.18,1.33,3.24c0.84,1.64,1.39,3.44,1.97,5.2c0.36,1.11,0.51,2.3,0.82,3.43
	c0.32,1.16,0.46,2.25-0.03,3.43c-0.23,0.55-0.07,1.35,0.11,1.97c0.38,1.32,0.88,2.6,1.35,3.89c0.66,1.85,1.32,3.69,1.36,5.69
	c0.01,0.67,0.09,1.44,0.43,1.98c0.94,1.46,1.17,3.1,1.5,4.73c0.71,3.45,1.46,6.9,2.13,10.36c0.32,1.63,0.53,3.27,0.31,4.96
	c-0.12,0.93,0.14,1.93,0.31,2.88c0.13,0.75,0.37,1.48,0.59,2.3c-0.69,0.24-1.47,0.28-1.68,0.64c-0.36,0.63-0.56,1.48-0.5,2.21
	c0.26,2.93,0.65,5.84,0.99,8.76c0.22,1.85,0.52,3.69,0.67,5.54c0.2,2.64,0.5,5.29,0.37,7.92c-0.15,3.1,0,6.28-1.23,9.25
	c-0.41,0.98-0.22,1.97,0.1,2.88c1,2.76,0.53,5.39-0.61,8.1c0.58,1.28,0.64,2.69,0.62,4.19c-0.06,4.73-0.77,9.35-1.73,13.96
	c-0.88,4.22-1.62,8.47-2.54,12.68c-1.35,6.12-2.8,12.21-4.22,18.32c-0.04,0.19-0.16,0.38-0.16,0.56c-0.07,3.4-1.62,6.43-2.47,9.63
	c-0.38,1.45-0.94,2.37-2.31,3.95c0-0.57-0.08-0.92,0.01-1.21c1.12-3.65,2.33-7.27,3.38-10.94c0.54-1.87,0.86-3.81,1.17-5.74
	c0.12-0.75,0.01-1.6-0.78-2.08c-0.5-0.3-1.23,0.45-1.58,1.78c-0.59,2.27-1.04,4.58-1.67,6.85c-1.68,6.05-3.76,11.94-6.45,17.63
	c-1.3,2.74-2.29,5.62-3.45,8.42c-0.34,0.81-0.79,1.56-1.2,2.34c-1.06,1.99-2.24,3.92-3.16,5.96c-3.18,7.06-6.68,13.96-10.3,20.81
	c-1.83,3.47-3.94,6.77-5.88,10.17c-1.65,2.9-3.67,5.54-5.29,8.44c-1.58,2.82-3.33,5.54-4.96,8.33c-2.23,3.8-4.5,7.59-5.82,11.84
	c-0.29,0.93-0.45,1.82-0.45,2.84c0,1.42-0.4,2.9-0.89,4.25c-1.2,3.31-2.54,6.57-3.86,9.83c-1.06,2.63-2.26,5.21-3.26,7.87
	c-0.65,1.74-1.16,3.54-1.56,5.35c-0.46,2.09-1.36,4.1-1.17,6.32c0.03,0.36-0.11,0.82-0.34,1.1c-1.09,1.36-0.82,2.71-0.1,4.16
	c0.85,0.21,1.68,0.41,2.49,0.61c0.57,1.52-0.34,2.02-1.3,2.47c-0.18-0.08-0.32-0.09-0.34-0.15c-0.32-0.8-0.37-1.79-1.36-2.13
	c-1.15-0.4-2.22,0.1-2.98,0.82c-1.35,1.28-3,1.81-4.68,2.33c-5.34,1.65-10.76,2.72-16.4,2.88c-3.8,0.11-7.61,0.29-11.41,0.82
	c-6.81,0.94-13.68,0.83-20.54,0.72c-7.46-0.12-14.86-0.83-22.2-2.24c-1.25-0.24-2.53-0.31-3.78-0.52c-1.58-0.27-2.94-0.86-3.98-2.23
	c-0.69-0.91-1.75-1.53-2.35-2.04c-1.02-4.01-1.92-7.71-2.93-11.38c-0.51-1.89-1.2-3.72-1.82-5.58c-1.24-3.73-2.94-7.27-4.78-10.71
	c-1.37-2.57-2.5-5.28-4.43-7.57c-1.24-1.48-2-3.35-3.04-5c-1.31-2.09-2.87-3.96-4.95-5.36c-0.63-0.42-1.18-1.04-1.58-1.69
	c-1.35-2.16-2.62-4.36-3.92-6.55c-0.45-0.76-0.91-1.51-1.34-2.27c-0.72-1.28-1.42-2.56-2.14-3.84c-0.81-1.45-1.65-2.88-2.42-4.35
	c-0.5-0.94-0.93-1.93-1.33-2.92c-0.45-1.09-0.89-2.11-1.87-2.92c-0.71-0.58-1.16-1.53-1.63-2.37c-0.33-0.59-0.42-1.3-0.76-1.89
	c-2.61-4.59-4.64-9.45-6.69-14.29c-0.99-2.34-1.95-4.71-3.11-6.98c-2.81-5.51-5.04-11.26-7.36-16.98c-1.47-3.63-2.51-7.43-4.1-11
	c-1.84-4.14-2.76-8.56-4.38-12.76c-0.41-1.07-0.6-2.28-0.67-3.43c-0.08-1.32-0.46-2.33-1.81-2.67c-1.31-0.33-1.8-1.25-2.28-2.42
	c-1.66-4-2.73-8.17-3.73-12.37c-1.2-5.04-2.37-10.09-3.56-15.14c-0.09-0.38-0.11-0.8-0.27-1.14c-1.14-2.44-1.68-4.99-1.57-7.7
	c0.02-0.56-0.19-1.16-0.39-1.71c-1.14-3.07-1.66-6.24-1.71-9.5c0-0.2,0.01-0.4-0.04-0.59c-0.87-3.54-0.78-7.18-1.08-10.78
	c-0.23-2.73-0.4-5.47-0.64-8.19c-0.09-0.97-0.05-2.07-0.5-2.86c-0.85-1.49-0.8-2.99-0.69-4.56c0.46-6.75,1.39-13.44,2.48-20.12
	c0.59-3.57,0.86-7.2,1.21-10.81c0.07-0.76,0.01-1.63-0.3-2.31c-0.58-1.27-0.4-2.47-0.09-3.71c0.43-1.71,0.85-3.42,1.26-5.13
	c0.93-3.9,1.75-7.84,2.81-11.71c0.93-3.4,2.1-6.73,3.19-10.08c0.3-0.93,0.67-1.84,1.09-2.73c0.53-1.15,1.06-2.32,1.73-3.38
	c0.99-1.57,2.11-3.06,3.16-4.59c1.09-1.58,0.76-2.77-0.98-3.46c-0.44-0.17-0.96-0.15-1.44-0.21L20.26,220.94z M119.43,100.34
	c0.99,2.41,1.97,4.83,2.97,7.26c0.29,0.06,0.57,0.13,0.85,0.17c0.82,0.1,1.75,0.9,2.43-0.04c0.58-0.81-0.06-1.69-0.3-2.52
	c-0.1-0.36-0.34-0.72-0.6-0.99C123.24,102.61,121.39,101.38,119.43,100.34z M151.43,230.72c2.74,0.82,3.62,0.86,5.28,0.3
	C155,230.41,153.35,230.21,151.43,230.72z M55.16,245.41c-0.14-0.19-0.24-0.41-0.33-0.41c-0.25,0.01-0.49,0.11-0.73,0.18
	c0.14,0.19,0.25,0.5,0.41,0.53C54.7,245.74,54.93,245.52,55.16,245.41z M51.9,282.74c0.07-0.03,0.16-0.05,0.19-0.11
	c0.03-0.05-0.02-0.14-0.04-0.21c-0.1,0.06-0.21,0.12-0.31,0.18C51.8,282.65,51.85,282.7,51.9,282.74z M160.12,231.06l-0.02,0.17
	l0.18-0.07L160.12,231.06z"/>
<path class="st0" d="M76.26,579.89c0.08-1.97,0.08-1.97-1.41-3.88c0.73-2.18,1.33-4.56,2.31-6.78c2.74-6.19,5.22-12.48,6.81-19.05
	c1.08-4.46,3.92-7.36,7.32-9.91c1.3-0.97,2.41-2.25,4.05-2.79c0.61-0.2,1.07-0.94,1.68-1.07c0.83-0.17,1.74,0.01,2.75,0.05
	c0.07,0.45,0.11,0.81,0.18,1.16c0.32,1.7,1.2,2.36,2.86,2.01c4.62-0.99,9.31-1.11,14.01-1.07c1.07,0.01,2.14,0.18,3.21,0.31
	c1.45,0.17,2.89,0.2,4.37,0.16c3.51-0.08,7.04,0.04,10.53,0.39c1.49,0.15,2.75,0.16,4.21-0.36c1.32-0.47,2.9-0.26,4.36-0.27
	c3.03-0.04,6.07,0.01,9.1-0.06c1.27-0.03,2.5-0.25,3.71-0.79c0.86-0.38,1.88-0.46,2.85-0.56c1.36-0.13,2.73-0.24,4.09-0.2
	c1.52,0.04,2.84-0.22,4.13-1.12c0.74-0.51,1.85-0.52,2.81-0.67c0.57-0.09,1.16-0.02,1.89-0.02c0.4-0.6,0.82-1.23,1.24-1.86
	c0.08-0.02,0.22-0.09,0.25-0.06c0.81,1,2.34,0.92,3.05,2.08c0.85,1.39,1.98,2.37,3.72,2.54c0.5,0.05,1.06,0.5,1.4,0.93
	c1.04,1.32,1.86,2.79,2.17,4.45c0.2,1.09,0.65,2.03,1.15,2.99c0.9,1.74,1.66,3.52,2.03,5.48c0.36,1.91,1.43,3.65,1.46,5.66
	c0,0.27,0.16,0.58,0.33,0.8c2.25,2.85,2.17,6.4,2.88,9.7c0.29,1.33,0.28,2.72,0.51,4.06c0.28,1.61,0.06,2.99-0.79,4.48
	c-0.92,1.62-2.05,2.77-3.72,3.52c-5.99,2.67-12.03,5.2-18.52,6.4c-2.01,0.37-4.07,0.53-6.11,0.77c-4.95,0.58-9.91,1.16-14.86,1.74
	c-1.55,0.18-3.11,0.38-4.66,0.51c-4.58,0.41-9.15,0.79-13.73,1.17c-0.68,0.06-1.37,0.04-2.05,0.01c-3.42-0.16-6.84-0.27-10.25-0.54
	c-4.39-0.34-8.77-0.8-13.15-1.23c-0.48-0.05-1.03-0.11-1.4-0.36c-1.61-1.11-3.51-1.18-5.32-1.54c-4.24-0.84-8.39-1.91-12.29-3.82
	c-0.87-0.43-1.86-0.61-2.77-0.95C80.54,581.55,78.45,580.73,76.26,579.89z M79.53,576.93c-0.08-0.17-0.14-0.34-0.24-0.49
	c-0.04-0.07-0.14-0.1-0.21-0.15c0.01,0.13-0.04,0.32,0.03,0.37c0.14,0.11,0.33,0.13,0.5,0.2c0.31,0.79,0.56,1.62,0.96,2.36
	c0.11,0.21,0.68,0.29,1,0.23c0.42-0.07,0.53-0.91,0.13-1.2C81.02,577.76,80.26,577.37,79.53,576.93z"/>
<path class="st0" d="M218.51,50.91c-0.11,1.3-0.58,2.11-1.23,2.89c-0.49,0.59-0.98,1.29-1.16,2.01c-0.59,2.48-2.19,4.36-3.56,6.38
	c-1.1,1.62-2.27,3.2-3.45,4.76c-1.01,1.32-1.98,2.66-3.43,3.59c-0.63,0.4-1.11,1.07-1.57,1.69c-0.46,0.62-0.79,1.33-1.26,2.13
	c-0.56-0.17-1.17-0.22-1.63-0.51c-3.07-1.92-6.39-3.57-9.09-5.92c-2.76-2.4-6.03-3.18-9.27-4.08c-2.91-0.81-5.97-1.06-8.97-1.56
	c-0.39-0.06-0.78-0.08-1.16-0.17c-5.53-1.36-11.21-1.73-16.81-2.64c-2.74,0.26-5.44-0.78-8.19-0.23c-0.28,0.06-0.61,0.07-0.87-0.03
	c-3.54-1.38-7.29-1.35-10.98-1.53c-5.19-0.25-10.36,0.06-15.55,0.43c-7.16,0.51-14.15,2.04-21.21,3.13c-2.31,0.36-4.62,0.8-6.9,1.24
	c-4.8,0.93-9.5,2.31-14.24,3.55c-1.8,0.47-3.56,1.08-5.35,1.56c-4.46,1.21-8.76,2.83-12.96,4.72c-4.1,1.84-8.27,3.59-12.03,6.11
	c-2.8,1.88-6.01,2.86-8.99,4.33c-0.9,0.44-1.7,0.13-2.2-0.87c-0.88-1.75-1.64-3.55-2.43-5.34c-0.28-0.63-0.45-1.3-0.75-1.92
	c-1.67-3.49-2.37-7.24-2.97-11.02c-0.34-2.13-0.59-4.27-0.88-6.4c-0.15-1.07,0.17-1.92,1.1-2.53c0.73-0.49,1.4-1.08,2.16-1.53
	c4.05-2.38,8.12-4.74,12.19-7.1c0.34-0.2,0.67-0.42,1.04-0.55c4.07-1.4,8.13-2.82,12.22-4.16c1.76-0.58,3.6-0.91,5.36-1.47
	c2.71-0.85,5.38-1.8,8.07-2.7c5.51-1.85,11.21-2.73,16.96-3.33c0.48-0.05,0.97-0.01,1.44-0.01c1.87,2.4,2.29,2.61,5.2,1.71
	c4.24-1.3,8.63-1.69,12.97-2.34c1.74-0.26,3.49-0.55,5.23-0.77c3.4-0.43,6.77-0.76,10.23-0.21c2.58,0.41,5.27,0.17,7.91,0.15
	c3.33-0.03,6.66-0.33,9.98-0.16c7.73,0.39,15.44,0.94,23.18,1.11c1.87,0.04,3.65,0.4,5.42,1.1c1.52,0.59,3.22,0.76,4.86,0.98
	c1.84,0.25,3.71,0.25,5.45,1.06c0.43,0.2,0.96,0.33,1.43,0.27c1.83-0.21,3.46,0.53,5.16,0.94c2.66,0.65,5.31,1.36,7.93,2.14
	c1.5,0.45,2.93,1.1,4.41,1.62c2.03,0.72,3.99,1.53,5.61,3.04c0.63,0.58,1.51,0.89,2.3,1.29c0.35,0.18,0.75,0.24,1.09,0.42
	c2.75,1.49,5.46,3.04,8.55,3.78C217.42,50.14,217.89,50.56,218.51,50.91z"/>
<path class="st0" d="M164.59,629.19c-0.41-0.81-0.8-1.57-1.22-2.4c-0.44,0-0.9-0.14-1.18,0.02c-2.73,1.63-5.81,1.69-8.81,1.93
	c-4.1,0.33-8.21,0.46-12.32,0.6c-1.86,0.06-3.72-0.11-5.58-0.06c-3.92,0.11-7.83,0.3-11.74,0.46c-0.97,0.04-1.95,0.03-2.93,0.08
	c-1.95,0.1-3.9,0.25-5.85,0.34c-2.93,0.13-5.87,0.25-8.81,0.33c-0.68,0.02-1.44,0.04-2.02-0.23c-1.74-0.83-3.61-0.76-5.44-1.01
	c-3.78-0.51-7.55-1.13-11.32-1.74c-2.03-0.33-4.04-0.79-6.07-1.1c-1.46-0.23-2.9-0.47-4.22-1.17c-0.71-0.38-1.45-0.46-2.27-0.34
	c-0.65,0.1-1.4,0.09-2-0.14c-2.65-1-5.28-2.08-7.9-3.17c-0.81-0.34-1.57-0.8-2.33-1.24c-1.51-0.85-1.52-0.85-2.98,0.48
	c-0.21,0.19-0.46,0.32-0.76,0.53c-1.78-0.79-2.6-2.35-2.3-4.01c0.37-2.04,0.26-4.08,0.51-6.11c0.28-2.37,0.88-4.61,1.92-6.74
	c0.73-1.49,1.36-3.05,2.23-4.46c1.02-1.66,2.15-3.27,3.4-4.76c1.3-1.55,3.86-1.74,5.98-0.61c0.42,0.23,0.75,0.64,1.16,0.88
	c0.4,0.23,0.9,0.55,1.31,0.49c1.97-0.25,3.66,0.62,5.34,1.33c2.37,1,4.73,1.85,7.33,1.98c1.23,0.06,2.26,0.6,3.02,1.6
	c0.54,0.7,1.27,0.98,2.08,0.67c0.68-0.26,1.23-0.16,1.93-0.01c2.57,0.56,5.17,1.16,7.79,1.32c2.46,0.15,4.81,0.81,7.23,1.1
	c0.95,0.11,1.83,0.55,2.86,0.31c0.53-0.12,1.16,0.06,1.71,0.22c1.12,0.32,2.15,0.65,3.42,0.44c1.08-0.18,2.31,0.28,3.43,0.59
	c1.5,0.42,2.95,1.02,4.45,1.44c0.51,0.14,1.27,0.15,1.66-0.13c0.91-0.66,1.8-0.49,2.79-0.43c1.64,0.09,3.28,0.64,4.95,0.08
	c0.42-0.14,0.96,0.08,1.44,0.14c0.87,0.09,1.75,0.18,2.62,0.28c1.46,0.17,2.93,0.24,4.36,0.53c4.62,0.93,9.28,1.49,14,1.44
	c1.07-0.01,2.14,0.18,3.21,0.26c0.67,0.05,1.35,0.09,1.85,0.13c1.21-0.72,1.29-1.89,1.74-2.89c2.3-1.16,4.88-1.34,7.32-2
	c2.45-0.66,4.92-1.3,7.48-1.41c0.57-0.03,1.25-0.12,1.67-0.45c2.54-2.01,5.76-2.29,8.62-3.48c2.24,0.4,3.86-1.04,5.7-1.87
	c0.62-0.28,1.3-0.42,1.94-0.68c0.54-0.22,1.21-0.37,1.56-0.78c1.56-1.83,3.74-2.37,5.97-3.16c1.19,0.92,1.71,2.29,2.18,3.66
	c0.41,1.2,0.64,2.47,1,3.69c0.22,0.74,0.44,1.52,0.85,2.17c0.81,1.29,2.05,1.48,3.27,0.6c0.47-0.34,0.94-0.72,1.35-1.13
	c0.41-0.41,0.74-0.88,1.16-1.39c0.36,2.17,1.95,3.85,2.21,6.15c-1.07,0.68-2.17,1.29-3.16,2.04c-0.93,0.7-1.66,1.68-2.62,2.32
	c-3.17,2.13-6.39,4.16-9.6,6.23c-1.64,1.06-3.25,2.18-4.93,3.17c-1.75,1.02-3.48,2.02-5.64,2.14c-0.97,0.05-1.95,0.86-2.82,1.47
	c-0.99,0.68-2,1.17-3.18,1.42c-0.93,0.2-1.81,0.69-2.71,1.04s-1.78,0.84-2.72,1.02c-3.65,0.7-7.31,1.3-10.98,1.92
	C165.68,629.19,165.19,629.16,164.59,629.19z"/>
<path class="st0" d="M223.39,139.07c0.58,1.66,1.18,3.4,1.77,5.08c-0.39,0.62-0.85,0.5-1.33,0.34c-0.56-0.19-1.12-0.42-1.69-0.48
	c-0.92-0.09-1.73,0.22-2.28,1.04c-0.54,0.81-0.17,1.48,0.29,2.15c0.11,0.16,0.17,0.35,0.29,0.6c-0.41,1.44-0.76,2.97-1.27,4.44
	c-0.34,0.98-0.32,1.88-0.08,2.87c0.72,2.96,1.48,5.89,3.05,8.54c0.13,0.21,0.05,0.54,0.09,1.07c-0.48-0.18-0.79-0.31-1.11-0.42
	c-1.28-0.43-2.54,0.15-2.6,1.4c-0.05,1.02-0.42,1.89-0.69,2.82c-0.42,1.41-0.52,2.8-0.23,4.32c0.79,4.15,1.6,8.28,3.02,12.26
	c0.72,2.02,1.57,3.99,2.4,6.07c-0.37,0.32-0.65-0.2-1.01-0.44c-1.05-0.7-2.09-1.42-3.17-2.07c-1.28-0.76-2.46-0.3-2.97,1.12
	c-0.13,0.35-0.16,0.74-0.26,1.19c-1.16-0.01-1.94-0.59-2.62-1.28c-2.4-2.44-4.77-4.9-7.13-7.37c-1.01-1.06-1.98-2.16-2.96-3.26
	c-0.57-0.64-1.1-1.31-1.7-2.02c-0.38,0.08-0.85,0.18-1.41,0.29c-0.53-0.48-1.15-0.96-1.68-1.52c-2.06-2.22-4.06-4.49-6.13-6.7
	c-1.66-1.78-3.29-3.61-5.12-5.2c-1.57-1.36-2.9-2.9-4.2-4.49c-0.62-0.75-1.2-1.71-2.02-2.07c-1.68-0.74-2.17-2.27-2.66-3.66
	c-1.12-3.12-2.12-6.28-2.53-9.62c-0.37-3-1.12-5.97-1.78-8.93c-0.48-2.14-0.45-4.28-0.29-6.43c0.04-0.55,0.32-1.09,0.53-1.75
	c0.8,0.1,1.48,0.14,2.13,0.28c2.01,0.43,3.59-0.32,5.08-1.62c1.62-1.41,3.36-2.69,5.07-4.01c0.29-0.23,0.66-0.36,1.19-0.64
	c0.58,1.55,1.29,2.87,2.49,3.93c1.97,1.75,4.23,2.43,6.78,2.1c1.94-0.25,3.85-0.69,5.78-1.04c0.48-0.09,0.98-0.31,1.44-0.25
	c1.96,0.27,3.67-0.51,5.35-1.26c1.94-0.87,3.95-1.07,6.01-1.11c0.98-0.02,1.98,0.13,2.93-0.03c1.83-0.3,3.58,0.12,5.16,0.78
	c2.25,0.94,4.36,2.22,6.48,3.43c0.87,0.5,1.44,1.31,1.41,2.57c-0.5,0.87-1.44,1.49-2.38,1.92c-1.68,0.78-3.4,1.59-5.2,1.93
	c-1.47,0.28-2.98,1.12-4.7,0.42c-0.26-1.02-0.51-2.06-0.8-3.08c-0.16-0.56-0.34-1.13-0.64-1.62c-0.31-0.51-0.81-0.88-1.47-0.75
	c-0.74,0.15-0.84,0.78-0.8,1.37c0.05,0.88,0.22,1.75,0.31,2.62c0.07,0.73-0.09,1.37-0.85,1.69c-3.47-0.87-7-2.69-8.38-4.31
	c0.17-0.62,0.7-0.58,1.17-0.62c0.59-0.05,1.18-0.05,1.76-0.13c0.63-0.09,1.05-0.66,0.99-1.24c-0.06-0.69-0.51-1.11-1.13-1.14
	c-2.38-0.12-4.7,0.19-6.81,1.36c-0.91,0.5-1.14,1.32-0.65,2.27c0.3,0.59,0.71,1.3,1.25,1.56c2.48,1.17,4.54,3.09,7.18,3.96
	c1.38,0.46,2.69,1.11,4.19,1.21c0.47,0.03,1.01,0.17,1.36,0.46c1.54,1.27,3.23,1.1,4.96,0.63
	C221.51,138.33,222.44,138.36,223.39,139.07z"/>
<path class="st0" d="M97.92,532.02c-1.24-0.65-2.26-1.19-3.28-1.72c-1.19-0.61-2.12-1.39-1.92-3.07c0.7,0,1.38-0.13,1.98,0.02
	c3.04,0.76,6.11,1.19,9.26,1.15c1.12-0.01,2.28,0.28,3.36,0.89c0.91,0.52,1.98,0.92,3.01,1.03c3.02,0.33,6.05,0.48,9.08-0.02
	c2.21-0.37,4.45-0.64,6.68-0.88c4.56-0.49,9.13-0.93,13.7-1.41c0.98-0.1,1.88-0.24,2.75,0.53c0.36,0.32,1.1,0.29,1.67,0.31
	c2.37,0.09,4.67-0.43,6.97-0.85c0.29-0.05,0.56-0.24,0.84-0.24c3.05-0.03,5.99-0.83,8.98-1.3c0.87-0.14,1.74-0.28,2.61-0.34
	c1.75-0.13,3.5-0.22,5.26-0.32c1.46-0.09,2.93-0.16,4.4-0.25c0.45-0.03,0.89-0.07,1.88-0.16c-2.97,2.59-5.38,4.97-8.43,6.55
	c-0.52,0.27-1.1,0.59-1.64,0.59c-1.25-0.01-2.26,0.46-3.23,1.16c-0.83,0.59-1.82,0.66-2.81,0.67c-1.27,0.01-2.54,0.02-3.81,0.1
	c-1.68,0.1-3.33,0.03-4.88-0.74c-0.97-0.49-1.91-0.57-2.54,0.53c-0.34,0.6-0.86,0.75-1.47,0.78c-2.64,0.15-5.27,0.31-7.91,0.42
	c-0.47,0.02-0.96-0.16-1.43-0.28c-0.77-0.2-1.49-0.21-2.29,0c-1.02,0.26-2.11,0.32-3.17,0.28c-1.86-0.08-3.7-0.36-5.56-0.43
	c-0.97-0.03-1.65-0.51-2.39-0.98c-0.76-0.48-1.53-0.68-2.49-0.34c-2.83,1.01-5.81,0.98-8.7,0.54c-3.56-0.54-7.18-0.81-10.67-1.83
	C100.43,532.01,99.01,532.11,97.92,532.02z"/>
<path class="st0" d="M79.58,122.45c0.44,2.37,0.26,4.01,0.03,5.65c-0.15,1.08-0.85,1.63-1.84,2.07c-3.15,1.38-6.32,1.14-9.5,0.3
	c-2.47-0.65-4.81-1.61-6.98-3.02c-1.47-0.96-3.09-1.69-4.65-2.5c-2.86-1.49-4.28-3.91-4.6-7.05c-0.15-1.42,0.7-2.37,2.07-2
	c1.15,0.31,2.1,0.14,3.11-0.32c1.11-0.51,2.27-0.61,3.44-0.23c2.58,0.83,5.42,0.82,7.7,2.65c0.79,0.63,1.98,0.79,3.01,1.1
	c1.47,0.45,2.65,1.17,3.33,2.65c0.27,0.58,0.81,1.1,1.35,1.48C77.14,124,78.26,123.79,79.58,122.45z"/>
<path class="st0" d="M36.49,147.41c-0.13,2.32-0.9,4.11-1.98,5.94c-1.99,3.39-4.72,5.92-7.91,8.08c-0.8,0.54-1.64,1.15-2.18,1.93
	c-1.49,2.14-3.65,3.52-5.6,5.13c-1.76,1.45-3.84,1.37-5.83,0.49c-1.84-0.82-2.46-3.1-1.48-4.92c0.88-1.62,1.76-3.25,2.68-4.85
	c0.34-0.59,0.75-1.14,1.19-1.65c1.53-1.77,3.22-3.34,5.27-4.56c1.66-0.99,3.12-2.34,4.63-3.57c2.32-1.9,5.14-2.32,7.95-2.65
	C34.21,146.66,35.26,147.15,36.49,147.41z"/>
<path class="st0" d="M179.5,111.17c-0.09-0.25-0.19-0.61-0.33-0.95c-0.25-0.63-0.06-1.17,0.41-1.58c0.52-0.44,1.09-0.83,1.66-1.21
	c0.65-0.44,1.4-0.75,1.97-1.27c3.12-2.87,7.07-3.61,11-4.44c0.66-0.14,1.37-0.14,2.05-0.1c1.17,0.07,1.82,0.93,1.43,2.03
	c-0.68,1.94-1.4,3.93-2.88,5.4c-4.23,4.2-8.14,8.76-13.16,12.09c-1.38,0.92-2.86,1.68-4.32,2.47c-0.94,0.51-1.88,0.32-2.8-0.18
	c-0.88-0.47-1.32-1.17-1.24-2.14c0.13-1.55,0.26-3.12,0.51-4.65c0.09-0.53,0.48-1.08,0.88-1.46c1.32-1.29,2.55-2.72,4.35-3.42
	C179.19,111.7,179.28,111.47,179.5,111.17z"/>
<path class="st0" d="M196.78,124.06c-1.13-0.12-2.1-0.23-3.07-0.32c-1.33-0.11-2.09-0.98-2.65-2.05c-0.39-0.73-0.37-1.51,0.03-2.25
	c0.14-0.26,0.3-0.52,0.51-0.71c2.5-2.31,4.91-4.77,8.22-5.96c2.01-0.72,3.81-1.97,6.02-2.18c2.13-0.2,4.27-0.85,6.38-0.73
	c2.47,0.13,4.74,1.11,6.1,3.49c0.62,1.08,0.53,2.07-0.24,2.98c-0.37,0.44-0.82,0.86-1.31,1.14c-1.35,0.78-2.69,1.59-4.12,2.19
	c-4.5,1.9-9.14,3.37-13.98,4.16C197.98,123.93,197.31,124,196.78,124.06z"/>
<path class="st0" d="M29.77,180.53c0.27,3.05,0.45,5.6-0.25,8.24c-1.3,4.9-3.8,9.21-6.27,13.55c-0.47,0.83-1.24,1.5-1.92,2.21
	c-0.26,0.28-0.65,0.66-0.95,0.64c-1.94-0.15-3.26,1.17-4.81,1.92c-0.18,0.09-0.35,0.17-0.54,0.24c-1.2,0.46-2.24-0.02-2.42-1.29
	c-0.25-1.74-0.34-3.51-0.48-5.26c-0.04-0.49,0.07-1-0.03-1.46c-0.37-1.73,0.15-3.28,0.79-4.85c0.45-1.08,0.79-2.19,1.25-3.48
	c0.22-0.05,0.58-0.23,0.94-0.21c2.09,0.1,3.88-0.75,5.39-2.01c2.85-2.37,5.87-4.59,8.18-7.56C28.84,181,29.15,180.91,29.77,180.53z"
	/>
<path class="st0" d="M44.99,133.59c-1.55,1.19-2.79,2.1-3.99,3.07c-1.63,1.32-3.55,2.05-5.5,2.71c-2.22,0.75-4.47,1.43-6.66,2.26
	c-3.23,1.24-6.45,1.31-9.75,0.29c-1.84-0.57-3.29-1.76-4.66-2.99c-1.59-1.44-1.67-3.25-0.48-5.03c1.6-2.4,4.04-3.3,6.71-3.75
	c1.38-0.23,2.72-0.19,3.93,0.71c0.97,0.73,2.14,0.89,3.33,1.01c1.55,0.16,3.11,0.36,4.63,0.71c2.71,0.61,5.45,0.5,8.19,0.54
	C42.09,133.13,43.43,133.09,44.99,133.59z"/>
<path class="st0" d="M241.96,173.18c-0.15,0.88-0.2,1.47-0.36,2.03c-0.43,1.58-1.22,2.09-2.81,1.82c-0.77-0.13-1.53-0.29-2.28-0.51
	c-0.45-0.13-0.95-0.31-1.27-0.63c-1.44-1.46-2.94-2.88-4.18-4.5c-0.86-1.13-1.15-2.71-2.04-3.81c-0.95-1.16-1.71-2.38-2.23-3.74
	c-0.36-0.95-0.74-1.79-1.72-2.24c-0.24-0.11-0.44-0.39-0.6-0.62c-1.35-1.99-1.72-4.29-1.95-6.61c-0.05-0.54,0.21-1.15,0.44-1.67
	c0.4-0.89,1.36-1.2,2.19-0.73c0.76,0.43,1.53,0.88,2.22,1.42c1.76,1.39,3.52,2.77,5.19,4.26c3.58,3.18,6.04,7.09,7.41,11.7
	c0.18,0.62,0.72,1.13,1.02,1.72C241.4,171.82,241.71,172.62,241.96,173.18z"/>
<path class="st0" d="M28.35,125.63c-1.16-0.15-1.96-0.15-2.68-0.39c-1.02-0.33-1.5-1.35-1.22-2.36c0.3-1.05,0.74-2.05,1.62-2.74
	c2.7-2.12,5.64-3.32,9.21-2.92c3.22,0.36,6.29,1.29,9.43,1.96c0.81,0.17,1.49,0.79,1.49,1.62c0,2.09,1.48,3.33,2.58,4.77
	c1.36,1.79,1.27,2.35-0.8,3.11c-2.82,1.03-5.7,1.21-8.65,0.64c-2.3-0.44-4.61-0.88-6.92-1.29C30.73,127.74,29.2,127.2,28.35,125.63z
	"/>
<path class="st0" d="M29.93,169c-0.3,1.12-0.35,1.6-0.55,2.02c-1.41,3.13-2.93,6.2-5.46,8.62c-2.76,2.64-5.52,5.26-9.09,6.85
	c-1.24,0.55-2.43,0.77-3.67,0.21c-0.51-0.23-1-0.6-1.39-1.01c-0.65-0.69-1.22-1.45-1.86-2.23c-0.49-3,0.21-5.74,2.08-8.23
	c1.08-1.43,1.45-1.59,3.2-0.87c1.18,0.49,2.32,1.05,3.51,1.5c1.2,0.46,1.66,0.28,2.52-0.75c1.59-1.92,3.46-3.39,5.94-4.02
	c0.84-0.21,1.6-0.7,2.4-1.06C28.16,169.77,28.77,169.51,29.93,169z"/>
<path class="st0" d="M232.77,194.06c-1.89-1.49-2.86-3.69-4.46-5.62c-0.52,0.45-0.93,0.81-1.35,1.17c-0.16-0.05-0.41-0.04-0.5-0.16
	c-1.54-2.15-2.68-4.48-3.27-7.09c-0.43-1.9-1.03-3.76-1.51-5.65c-0.31-1.23-0.56-2.47-0.76-3.72c-0.08-0.47,0-0.98,0.1-1.46
	c0.2-1.06,0.98-1.37,1.96-0.97c3.65,1.48,5.88,4.42,7.81,7.62c1.72,2.85,3.06,5.89,4.18,9.02c0.36,1.01,0.64,2.06,0.78,3.12
	c0.29,2.22-0.44,3.19-2.15,3.55C233.33,193.95,233.05,194,232.77,194.06z"/>
<path class="st0" d="M217.6,192.18c3.55,2.51,6.85,4.4,9.59,7.06c0.9,0.88,1.78,1.79,2.7,2.65c2.02,1.9,3.4,4.31,3.66,7.17
	c0.06,0.63-0.15,1.35-0.43,1.93c-0.24,0.51-0.76,0.88-1.44,0.83c-0.48-0.04-1.12-0.25-1.4-0.02c-1.12,0.88-2.08,0.32-2.97-0.23
	c-1.24-0.78-2.48-1.64-3.19-2.98c-2.15-4.05-4.56-7.98-5.69-12.49C218.14,194.98,217.95,193.84,217.6,192.18z"/>
<path class="st0" d="M217.4,46.36c-2.74-1.19-5.38-2.44-7.71-4.21c-0.64-0.48-1.23-0.81-2.01-1.05c-1.76-0.56-3.44-1.37-5.14-2.1
	c-0.16-0.07-0.24-0.3-0.39-0.49c0.77-3.33,1.92-6.5,4.47-9.15c0.8,0.16,1.66,0.29,2.49,0.52c0.55,0.15,1.06,0.44,1.72,0.72
	c-0.31,1.59-1.26,2.68-2.25,3.73c-0.54,0.57-1.17,1.05-1.66,1.66c-1.21,1.52-0.73,3.31,1.32,3.29c0.29,0,0.57-0.06,0.96-0.1
	c0.59-1.4,1.1-2.86,1.82-4.22c0.63-1.19,1.48-2.26,2.21-3.36c1.24,0.51,1.41,0.71,1.04,1.35c-0.44,0.76-0.94,1.48-1.43,2.21
	c-0.77,1.13-1.56,2.25-2.31,3.39c-0.21,0.32-0.39,0.68-0.48,1.05c-0.32,1.27,0.79,2.37,2.05,2.05c1.24-0.31,2.16-0.98,2.29-2.34
	c0.18-1.95,1.35-3.42,2.29-5c0.12-0.21,0.48-0.27,0.83-0.45c0.86,1.07,1.71,2.12,2.79,3.45c-0.27,0.8-1.16,1.85-1.85,3.01
	c-0.5,0.83-0.96,1.69-1.48,2.52C216.17,44.1,216.38,45.21,217.4,46.36z"/>
<path class="st0" d="M126,28.12c0.65-1.36,0.64-2.54,0.22-3.81c-0.26-0.78-0.11-1.75,0.04-2.61c0.43-2.54,1.59-3.56,4.11-3.72
	c0.58-0.04,1.17,0,1.76,0.04c0.27,0.02,0.53,0.14,1.02,0.28c-0.23,0.49-0.4,0.91-0.62,1.3c-0.57,1.02-1.21,2.01-1.72,3.06
	c-0.48,1-0.54,2.09-0.17,3.15c0.59,1.7,2.57,2.07,3.75,0.72c1.02-1.16,1.01-2.46-0.02-3.64c-0.32-0.36-0.66-0.71-1.09-1.17
	c0.19-0.62,0.34-1.27,0.58-1.89c0.61-1.57,1.75-2.24,3.46-2.01c0.97,0.13,1.96,0.05,2.93,0.12c0.97,0.07,1.97,0.08,2.76,0.87
	c0.17,1.23-0.34,2.28-1.01,3.26c-0.72,1.06-1.36,2.12-1.52,3.45c-0.11,0.97-0.74,1.54-1.78,1.64c-3.5,0.34-6.99,0.72-10.49,1.05
	C127.57,28.28,126.89,28.17,126,28.12z"/>
<path class="st0" d="M165.04,29.05c0.42-0.24,0.61-0.44,0.75-0.42c2.21,0.38,4.5,0.3,6.62,1.15c0.27,0.11,0.55,0.23,0.83,0.28
	c2.32,0.35,4.64,0.71,6.97,0.99c1.56,0.19,2.19-0.36,2.33-1.88c0.03-0.29,0.03-0.59,0-0.88c-0.19-2.16,0.87-3.72,2.4-5.11
	c1.5,0.23,2.95,0.41,4.39,0.68c0.92,0.17,1.23,1.01,0.7,1.8c-0.77,1.14-1.59,2.23-2.36,3.37c-0.85,1.26-0.84,1.76,0,2.9
	c0.17,0.23,0.38,0.45,0.6,0.64s0.47,0.33,0.73,0.5c1.71-0.13,2.42-1.14,2.34-2.73c-0.05-0.92,0.25-1.7,0.58-2.53
	c1.17-2.94,1.31-3.04,4.19-1.97c0.36,0.13,0.7,0.35,1.02,0.57c0.15,0.1,0.23,0.3,0.42,0.57c-0.1,1.62-1.64,2.51-2.3,3.89
	c-0.67,1.4-1.42,2.76-2.16,4.19c-0.2,0-0.5,0.06-0.76-0.01c-2.83-0.78-5.68-1.5-8.47-2.39c-1.41-0.45-2.79-0.88-4.29-0.85
	c-0.49,0.01-1.01,0.01-1.46-0.14c-4.03-1.34-8.27-1.51-12.41-2.22C165.54,29.43,165.4,29.28,165.04,29.05z"/>
<path class="st0" d="M227.11,139.4c1.04,0.39,1.81,0.57,2.47,0.95c2.28,1.33,4.58,2.63,6.75,4.13c2.13,1.47,3.53,3.63,4.71,5.89
	c0.45,0.86,0.74,1.81,1.03,2.74c0.33,1.02,0.51,2.07,0.23,3.02c-0.69,0.73-1.37,0.55-2,0.3c-5.07-2.03-7.62-5.29-10.18-9.61
	C228.82,144.65,227.5,142.46,227.11,139.4z"/>
<path class="st0" d="M171.1,589.89c0.2,0.5,0.46,0.84,0.45,1.18c-0.02,2.34-0.09,4.68-0.17,7.02c-0.01,0.29-0.11,0.57-0.18,0.86
	c-0.23,1.04-0.82,1.76-1.89,2c-0.75,0.17-1.5,0.31-2.38,0.49c-1.09-2.2-2.03-4.27-1.94-6.71c0.12-3.36-0.25-3.05,3.22-4.15
	C169.12,590.31,170.07,590.14,171.1,589.89z"/>
<path class="st0" d="M162.45,20.36c-0.9,1.93-1.71,3.68-2.53,5.43c-2.34,0.68-4.54-0.06-6.73,0.1c-0.22-1.03-0.43-1.85-0.57-2.68
	c-0.23-1.36,0.47-2.46,1.2-3.48c0.22-0.31,0.86-0.41,1.32-0.43c0.58-0.02,1.16,0.16,1.74,0.23c0.48,0.06,0.97,0.16,1.44,0.09
	C160.42,19.34,160.41,19.32,162.45,20.36z"/>
<path class="st0" d="M172.01,27.48c0.26-1.29,0.82-2.43,0.16-3.57c0.39-0.77,0.77-1.54,1.15-2.28c2.15-0.34,6.61,0.1,8.76,0.9
	c-0.23,1.16-0.84,2.26-1.68,2.92c-1.13,0.9-1.7,2.08-2.37,3.43C176.08,28.44,174.21,28,172.01,27.48z"/>
<path class="st0" d="M123.36,28.32c-1.36,0.14-2.32,0.27-3.29,0.32c-1.15,0.05-2.3,0.01-3.74,0.01c0.6-1.01,1.13-1.76,1.52-2.59
	c0.41-0.88,0.67-1.83,1.07-2.95c-0.32-0.27-0.71-0.52-0.99-0.86c-0.75-0.92-0.43-2.68,0.66-2.96c1.87-0.47,3.78-0.88,5.66-0.48
	c0.68,1.05,0.1,1.82-0.28,2.58c-0.26,0.52-0.75,0.92-1.01,1.43C122.04,24.56,121.87,26.3,123.36,28.32z"/>
<path class="st0" d="M160.17,592.94c1.15,0.66,1.47,1.61,1.49,2.75c0.04,1.94,0.12,3.88,0.19,5.97c-1.05,0.63-2.32,0.58-3.67,0.79
	c-0.63-1.55-1.27-3.05-1.84-4.57c-0.16-0.44-0.15-0.96-0.15-1.44c0.04-2.68,0.22-2.97,2.63-3.24
	C159.3,593.14,159.76,593.01,160.17,592.94z"/>
<path class="st0" d="M225.68,414.71c1.35-1.93,2.45-3.97,2.77-6.35c0.04-0.29,0.08-0.59,0.2-0.85c1.86-4.08,3.52-8.25,5.78-12.14
	c0.13-0.23,0.42-0.38,0.65-0.54c0.06-0.04,0.21-0.03,0.28,0.02c0.14,0.11,0.31,0.24,0.36,0.39c0.05,0.17,0.02,0.39-0.04,0.56
	c-0.71,2.02-1.57,4-2.09,6.07c-0.42,1.68-1.3,3.05-2.29,4.36c-0.6,0.79-1,1.64-1.41,2.52c-0.83,1.76-1.83,3.44-2.77,5.15
	c-0.31,0.56-0.81,0.82-1.46,0.77L225.68,414.71z"/>
<path class="st0" d="M129.09,594.15c2.21-0.68,2.21-0.68,4.64,0.24c-0.94,1.97-1.06,4.05-0.88,6.22c0.13,1.5-1.04,2.29-2.52,1.95
	c-0.91-0.21-1.37-0.63-1.37-1.62C128.95,598.7,129.04,596.47,129.09,594.15z"/>
<path class="st0" d="M181.4,588.48c2.85-0.39,2.57,0.26,3.2-3.12c0.62,2.87,0.78,5.36,0.8,7.85c0.02,2.17-0.29,2.47-2.86,3.54
	C180.87,594.21,181.67,591.35,181.4,588.48z"/>
<path class="st0" d="M192.49,583.32c1.02-0.35,1.65-0.57,2.18-0.75c0.29,0.17,0.53,0.23,0.59,0.37c0.54,1.24,1.15,2.39,2.12,3.41
	c1.47,1.53,1.17,2.88-0.64,3.99c-0.57,0.35-1.14,0.69-1.75,1.07c-1.28-1.06-1.07-2.65-1.5-3.98
	C193.09,586.15,192.85,584.83,192.49,583.32z"/>
<path class="st0" d="M84.61,29.86c-0.1-0.43-0.23-0.71-0.22-0.99c0.18-4.84-0.59-4.92,5.22-5.46c0.53,1.72,0.03,3.37-0.39,5.02
	c-0.08,0.31-0.49,0.6-0.81,0.78C87.29,29.81,86.12,30.22,84.61,29.86z"/>
<path class="st0" d="M60.86,35.63c-0.47,0.23-0.88,0.5-1.33,0.63c-0.78,0.22-1.43-0.13-1.56-0.88c-0.15-0.86-0.18-1.74-0.23-2.62
	c-0.07-1.36-0.08-2.72-0.18-4.08c-0.1-1.26,0.23-1.72,1.57-1.92c1.12-0.17,1.75,0.22,1.91,1.26c0.09,0.58,0.12,1.17,0.09,1.75
	C61.06,31.61,60.96,33.46,60.86,35.63z"/>
<path class="st0" d="M71.34,25.15c1.41-0.79,2.55-1.53,4.18-1.04c-0.1,0.56-0.14,1.02-0.27,1.46c-0.47,1.62-0.58,3.24-0.3,4.92
	c0.25,1.51-0.03,1.9-1.46,2.34c-0.27,0.08-0.58,0.11-0.86,0.1c-0.18,0-0.37-0.1-0.63-0.17c-0.79-1.12-0.16-2.42-0.32-3.64
	C71.51,27.87,71.46,26.6,71.34,25.15z"/>
<path class="st0" d="M116.3,601.17c-0.29-2.23-0.39-4.22,0.52-6.04c0.28-0.14,0.45-0.28,0.62-0.29c0.67-0.03,1.33-0.01,1.99-0.01
	c1.68,2.04,1.04,4.22,0.85,6.4C118.93,601.74,117.73,601.64,116.3,601.17z"/>
<path class="st0" d="M51.17,29.91c0.75-0.66,1.52-0.93,2.45-0.58c0.79,0.85,0.96,1.9,0.92,2.99c-0.04,1.46-0.09,2.92-0.27,4.37
	c-0.06,0.52-0.4,1.12-0.81,1.44c-0.4,0.32-1.15,0.57-1.54,0.39c-0.4-0.18-0.69-0.9-0.75-1.42c-0.08-0.66,0.17-1.35,0.17-2.03
	C51.32,33.43,51.24,31.79,51.17,29.91z"/>
<path class="st0" d="M68.21,26.53c0.2,0.36,0.38,0.53,0.37,0.69c-0.13,2.13-0.29,4.27-0.44,6.44c-0.81,0.69-1.69,0.93-2.77,0.8
	c-1.23-1.85-1.14-3.9-0.83-5.91c0.09-0.55,0.73-1.18,1.28-1.45C66.55,26.74,67.44,26.69,68.21,26.53z"/>
<path class="st0" d="M147.43,26.2c-1.64,0.06-1.57,0.04-1.9-1.05c-0.7-2.33-0.33-4.57,0.29-6.84c0.3-0.13,0.57-0.34,0.82-0.33
	c2.8,0.06,3.52,1.1,2.53,3.65C148.61,23.08,148.07,24.52,147.43,26.2z"/>
<path class="st0" d="M176.41,598.43c-2.43-2.8-1.56-6.04-1.43-9.38c0.8-0.09,1.52-0.17,2.43-0.27c0.17,0.9,0.39,1.63,0.43,2.38
	c0.12,1.94,0.18,3.89,0.25,5.83C178.13,597.93,177.7,598.44,176.41,598.43z"/>
<path class="st0" d="M114.88,20.3c-0.53,1.35-1.07,2.69-1.6,4.04c-0.54,1.39-0.73,1.49-2.73,1.34c-1.27-1.42-0.66-3.36-1.47-4.93
	c1.26-1.55,2.97-0.85,4.41-1.17C113.94,19.48,113.95,19.56,114.88,20.3z"/>
<path class="st0" d="M44.62,33.05c0.9-1.11,1.83-1.28,3.02-1.29c0.17,0.47,0.49,0.98,0.52,1.5c0.11,1.55,0.08,3.11,0.16,4.67
	c0.09,1.78-0.05,1.98-2.35,2.8C44.96,38.27,45.9,35.48,44.62,33.05z"/>
<path class="st0" d="M98.28,22.16c-0.57,1.85-1.03,3.33-1.56,5.04c-0.79,0.25-1.7,0.54-2.63,0.83c-2.1-1.6-1.46-3.43-0.7-5.37
	C94.85,22.19,96.34,21.97,98.28,22.16z"/>
<path class="st0" d="M101.71,21.06c1.4-0.13,2.53-0.24,3.8-0.36c0.15,0.62,0.39,1.08,0.33,1.5c-0.17,1.24-0.46,2.46-0.74,3.82
	c-0.88,0.17-1.71,0.33-2.6,0.51c-0.62-0.74-1.17-1.39-1.78-2.12C101.05,23.34,101.34,22.33,101.71,21.06z"/>
<path class="st0" d="M149.97,595.38c0.87-0.12,1.71-0.24,2.48-0.35c0.76,0.74,0.41,1.54,0.43,2.27c0.04,1.35,0.02,2.7,0.02,4.06
	c0,0.52-0.16,0.99-0.7,1.12c-0.61,0.15-1.2-0.03-1.47-0.62c-0.4-0.87-0.82-1.76-1.01-2.69C149.48,597.95,149.5,596.69,149.97,595.38
	z"/>
<path class="st0" d="M6.68,263.39c-0.09,0.76-0.15,1.53-0.29,2.28c-0.86,4.62-1.74,9.23-2.63,13.85c-0.07,0.37-0.28,0.72-0.4,1.03
	c-0.69,0.06-0.66-0.39-0.68-0.74c-0.03-0.68-0.1-1.39,0.03-2.05c0.76-3.94,1.54-7.87,2.38-11.78c0.2-0.93,0.63-1.81,0.95-2.71
	C6.25,263.31,6.47,263.35,6.68,263.39z"/>
<path class="st0" d="M80.96,22.44c0.67,1.36,0.64,2.83,0.35,4.24c-0.26,1.24-0.55,2.44-0.33,3.72c0.03,0.19-0.26,0.62-0.43,0.64
	c-0.34,0.03-0.93-0.05-1.01-0.25c-0.44-1.06-0.89-2.16-1.07-3.28c-0.16-1.04-0.04-2.13,0.06-3.19
	C78.65,22.95,78.93,22.77,80.96,22.44z"/>
<path class="st0" d="M33.09,43.25c-0.22-1.37-0.45-2.61-0.6-3.86c-0.08-0.72,0.19-1.32,0.91-1.67c1.01-0.5,1.86-0.2,1.91,0.88
	c0.08,1.72,0.72,3.2,1.49,4.68c0.13,0.26,0.03,0.88-0.18,1.02c-0.34,0.23-0.86,0.22-1.31,0.28c-0.08,0.01-0.17-0.08-0.25-0.13
	C34.49,44.1,33.91,43.75,33.09,43.25z"/>
<path class="st0" d="M167.26,26.61c-0.67-0.22-1.11-0.36-1.66-0.54c0.19-0.77,0.42-1.41,0.49-2.06c0.05-0.56,0.07-1.23-0.18-1.7
	c-0.24-0.44-0.85-0.67-1.3-1.01c-0.07-0.63,0.34-0.88,0.84-0.96c1.56-0.26,3.08-0.3,4.52,0.81
	C169.52,23.12,168.26,24.63,167.26,26.61z"/>
<path class="st0" d="M20.18,220.87c-1.31,2.37-2.55,4.79-4.33,6.87c-0.38,0.44-0.67,0.97-1.35,0.98l0.03,0.05
	c0.36-2.84,0.73-5.68,2.03-8.38c1.28,0.19,2.48,0.37,3.69,0.55C20.26,220.94,20.18,220.87,20.18,220.87z"/>
<path class="st0" d="M41.2,34.4c0.71,1.25,0.74,2.33,0.8,3.4c0.06,1.07,0.1,2.15,0.14,3.22c0.03,0.64-0.15,1.15-0.99,1.36
	c-0.27-0.55-0.53-1.14-0.85-1.69c-0.29-0.51-0.72-0.94-0.96-1.47c-0.33-0.7-0.6-1.45-0.78-2.21c-0.34-1.43-0.07-1.85,1.39-2.4
	C40.3,34.49,40.7,34.48,41.2,34.4z"/>
<path class="st0" d="M146.41,599.46c-0.05,0.76-0.01,1.36-0.15,1.92c-0.14,0.58-0.51,1.07-1.18,1.16c-0.63,0.08-1.24-0.09-1.46-0.71
	c-0.39-1.09-0.78-2.2-0.94-3.34c-0.14-1.03,0.67-1.81,1.73-2c0.83-0.15,1.62,0.31,1.79,1.12
	C146.34,598.27,146.36,598.95,146.41,599.46z"/>
<path class="st0" d="M196.72,36.34c1.49-1.62,2.12-3.74,2.77-5.85c0.22-0.72,0.63-1.41,1.06-2.05c0.44-0.66,1.18-0.78,1.79-0.44
	c0.57,0.31,0.74,1.1,0.29,1.79c-0.42,0.65-0.94,1.24-1.42,1.84c-0.54,0.68-1.04,1.41-1.66,2.02c-0.93,0.91-0.74,2.15-1,3.18
	C197.77,37.41,197.23,37.24,196.72,36.34z"/>
<path class="st0" d="M135.83,597.12c3.26,0.54,3.59,0.92,3.54,4.07c0,0.29-0.08,0.57-0.13,0.85c-1.64,0.81-2.32,0.7-2.68-0.68
	c-0.37-1.4-0.47-2.87-0.69-4.31L135.83,597.12z"/>
<path class="st0" d="M189.14,585.55c1.1,2.5,1.5,5.12,1.33,8.09c-0.51-0.22-0.86-0.26-0.94-0.43c-1.16-2.45-1.4-5.02-0.8-7.66
	C188.73,585.53,188.91,585.55,189.14,585.55z"/>
<path class="st0" d="M85.17,587.27c1.06,0.12,1.44,0.66,1.31,1.24c-0.39,1.71-0.9,3.38-1.42,5.06c-0.05,0.17-0.51,0.35-0.72,0.29
	c-0.22-0.05-0.52-0.38-0.52-0.59c0-0.87,0-1.76,0.2-2.6C84.3,589.54,84.76,588.46,85.17,587.27z"/>
<path class="st0" d="M125.86,594.03c0,1.18,0.02,1.94,0,2.7c-0.04,1.35-0.06,2.7-0.17,4.05c-0.03,0.39-0.34,0.76-0.59,1.28
	C123.33,599.02,123.52,595.75,125.86,594.03z"/>
<path class="st0" d="M75.12,591.14c0.55-1.62,1.02-3.08,1.55-4.52c0.19-0.53,0.48-1.05,0.82-1.5c0.12-0.16,0.56-0.21,0.77-0.12
	c0.2,0.1,0.46,0.5,0.41,0.66c-0.66,1.8-1.35,3.6-2.11,5.35C76.34,591.47,75.79,591.57,75.12,591.14z"/>
<path class="st0" d="M106.8,593.23c0.97-0.23,1.61,0.14,1.55,0.72c-0.22,2.01-0.62,4-1,5.98c-0.02,0.13-0.51,0.29-0.71,0.23
	c-0.2-0.06-0.51-0.49-0.46-0.59C107.28,597.58,106.1,595.35,106.8,593.23z"/>
<path class="st0" d="M111.68,600.87c-0.74-2.6-0.71-3.32,0.16-6.16c0.75-0.26,1.21,0.18,1.21,0.8c0,1.55-0.11,3.11-0.3,4.65
	C112.72,600.43,112.09,600.62,111.68,600.87z"/>
<path class="st0" d="M98.57,591.38c0.21,0.53,0.54,0.97,0.52,1.38c-0.05,0.95-0.21,1.91-0.45,2.83c-0.06,0.25-0.55,0.56-0.83,0.55
	s-0.79-0.42-0.77-0.62c0.09-1.22,0-2.51,0.75-3.59C97.92,591.73,98.21,591.62,98.57,591.38z"/>
<path class="st0" d="M101.69,29.48c2.43-1.42,5.1-0.84,7.65-1.17c0.07-0.01,0.18,0.27,0.27,0.42c-0.13,0.13-0.26,0.37-0.4,0.38
	C106.71,29.26,104.2,29.37,101.69,29.48z"/>
<path class="st0" d="M89.06,595.93c-1.05-2.2-0.86-3.17,0.77-6c0.56-0.01,0.6,0.4,0.57,0.78C90.27,592.36,89.7,593.88,89.06,595.93z
	"/>
<path class="st0" d="M74.49,92.29c0.62,2.29,1.25,4.58,1.88,6.87c-0.33,0.08-0.63,0.18-0.64,0.15c-0.28-0.61-0.63-1.21-0.76-1.85
	c-0.35-1.68-0.6-3.38-0.9-5.07C74.2,92.36,74.34,92.33,74.49,92.29z"/>
<path class="st0" d="M92.18,596.08c0.51-1.72,0.94-3.17,1.45-4.85c0.36,1.7,0.12,3.55-0.57,4.78C93,596.1,92.71,596.05,92.18,596.08
	z"/>
<path class="st0" d="M103.4,593.41c-0.33,1.14-0.68,2.33-1.22,4.19c-0.2-2.04-0.3-3.34,0.69-4.45c0.05-0.05,0.2-0.06,0.28-0.03
	C103.22,593.14,103.27,593.25,103.4,593.41z"/>
<path class="st0" d="M126.14,632.49c1.5,0,3.01,0,4.55,0c-0.21,0.08-0.38,0.21-0.55,0.21c-1.33,0.02-2.66,0.01-3.99,0.01
	C126.14,632.63,126.14,632.56,126.14,632.49z"/>
<path class="st0" d="M152.99,591.61c-1.14,0.74-1.87,0.68-2.71-0.22C151.18,591.03,151.9,591.09,152.99,591.61z"/>
<path class="st0" d="M135.88,597.05c-0.29-0.7-0.72-1.37-0.83-2.1c-0.1-0.65,0.38-1.04,1.25-0.81c-0.1,0.51-0.22,1.02-0.3,1.54
	c-0.07,0.47-0.11,0.95-0.17,1.42C135.83,597.12,135.88,597.05,135.88,597.05z"/>
<path class="st0" d="M113.81,28.65c-0.77,0.09-1.28,0.17-1.78,0.19c-0.1,0-0.28-0.26-0.28-0.4c0.01-0.14,0.17-0.35,0.31-0.39
	C112.62,27.88,113.16,27.88,113.81,28.65z"/>
<path class="st0" d="M177.04,523.73c-0.18-1.43-0.18-1.43,0.87-1.81C178.48,522.93,177.32,523.12,177.04,523.73z"/>
<path class="st0" d="M132.84,632.56c0.64-1.04,1.26-0.86,1.87-0.66c0.06,0.02,0.11,0.15,0.11,0.23c0,0.08-0.06,0.23-0.12,0.24
	C134.2,632.44,133.67,632.49,132.84,632.56z"/>
<path class="st0" d="M78.52,558.85c-0.32,0.77-0.63,1.55-1.2,2.93c0.11-1.58,0.41-2.34,1.25-2.87
	C78.56,558.91,78.52,558.85,78.52,558.85z"/>
<path class="st0" d="M78.56,558.91c-0.28-0.85-0.16-1.66,0.17-2.57c0.7,0.58,0.14,0.99,0.1,1.4c-0.03,0.37-0.22,0.73-0.33,1.1
	C78.52,558.85,78.56,558.91,78.56,558.91z"/>
<path class="st0" d="M183.24,509.32c0.2-0.34,0.39-0.68,0.59-1.02c0.08,0.04,0.16,0.09,0.24,0.13c-0.15,0.34-0.3,0.67-0.45,1.01
	C183.5,509.4,183.37,509.36,183.24,509.32z"/>
<path class="st0" d="M69.94,578.77c-0.12,0.13-0.23,0.25-0.35,0.38c-0.1-0.1-0.29-0.25-0.27-0.29c0.07-0.15,0.22-0.26,0.34-0.39
	C69.76,578.57,69.85,578.67,69.94,578.77z"/>
<path class="st0" d="M99.35,29.89c-0.35,0-0.62,0-0.88,0c0.2-0.07,0.39-0.16,0.59-0.2C99.11,29.67,99.19,29.78,99.35,29.89z"/>
<path class="st0" d="M76.38,490.15c0.28,0.17,0.56,0.34,0.84,0.51c-0.07,0.09-0.14,0.18-0.21,0.26c-0.22-0.27-0.43-0.54-0.65-0.81
	L76.38,490.15z"/>
<path class="st0" d="M137.65,632.04c-0.09,0-0.18,0.01-0.26-0.01c-0.02,0-0.01-0.12-0.01-0.18c0.09,0,0.18-0.01,0.26,0
	C137.66,631.86,137.65,631.97,137.65,632.04z"/>
<polygon class="st0" points="73.31,88.86 73.24,88.62 73.41,88.65 "/>
<path class="st0" d="M111.06,61.53c0.07,0.04,0.13,0.07,0.2,0.11c-0.07,0.04-0.13,0.1-0.2,0.11c-0.06,0-0.13-0.07-0.19-0.1
	C110.92,61.6,110.99,61.56,111.06,61.53z"/>
<path class="st0" d="M81.5,588.33c-0.23,0.55-0.47,1.08-1.21,1.03v0.01c0.42-0.33,0.83-0.65,1.25-0.98L81.5,588.33z"/>
<path class="st0" d="M80.29,589.35c0.12,0.39,0.24,0.78,0.36,1.18c-0.08,0.02-0.16,0.03-0.24,0.05c-0.04-0.4-0.08-0.8-0.12-1.21
	C80.29,589.36,80.29,589.35,80.29,589.35z"/>
<path class="st0" d="M14.5,228.72c0.08,0.34,0.15,0.67,0.23,1.01c-0.06,0.01-0.12,0.02-0.18,0.03c0-0.32,0-0.65-0.01-0.98
	C14.53,228.77,14.5,228.72,14.5,228.72z"/>
<polygon class="st0" points="156.87,590.79 156.75,590.64 157,590.63 "/>
<path class="st0" d="M72.17,589.6c0.03,0.07,0.08,0.14,0.07,0.2s-0.08,0.11-0.13,0.16C72.13,589.84,72.15,589.72,72.17,589.6z"/>
<path class="st0" d="M81.53,588.38c-0.04-0.18-0.09-0.37-0.13-0.55c0.04,0.06,0.1,0.12,0.11,0.19c0.01,0.09-0.02,0.19-0.02,0.29
	C81.5,588.33,81.53,588.38,81.53,588.38z"/>
<path class="st0" d="M76.36,490.12c0.03-0.13,0.05-0.27,0.06-0.29c0,0.03-0.02,0.17-0.04,0.32L76.36,490.12z"/>
<path class="st0" d="M225.64,414.67c0.08,0.24,0.15,0.49,0.23,0.73c-0.05-0.03-0.15-0.06-0.15-0.1c-0.02-0.19-0.01-0.37-0.02-0.58
	C225.68,414.71,225.64,414.67,225.64,414.67z"/>
<path class="st0" d="M222.7,40.96c-0.16,0.09-0.32,0.18-0.48,0.27c0.18-0.06,0.37-0.12,0.54-0.19
	C222.75,41.03,222.7,40.96,222.7,40.96z"/>
<path class="st0" d="M222.74,39.16c0.38,0.6,0.22,1.19-0.05,1.78c0.01,0.01,0.06,0.08,0.07,0.09c0.02-0.59,0.04-1.19,0.04-1.81
	C222.78,39.21,222.74,39.16,222.74,39.16z"/>
<path d="M55.16,245.41c-0.23,0.12-0.46,0.33-0.65,0.3c-0.16-0.03-0.28-0.34-0.41-0.53c0.24-0.07,0.49-0.17,0.73-0.18
	C54.92,244.99,55.01,245.22,55.16,245.41z"/>
<path d="M51.9,282.74c-0.05-0.05-0.1-0.09-0.15-0.14c0.1-0.06,0.21-0.12,0.31-0.18c0.01,0.07,0.06,0.16,0.04,0.21
	C52.06,282.69,51.96,282.71,51.9,282.74z"/>
<path d="M79.53,576.93c0.73,0.44,1.49,0.83,2.17,1.33c0.4,0.29,0.28,1.13-0.13,1.2c-0.33,0.05-0.89-0.03-1-0.23
	c-0.4-0.74-0.65-1.57-0.96-2.36L79.53,576.93z"/>
<path d="M79.61,576.86c-0.17-0.06-0.37-0.09-0.5-0.2c-0.07-0.05-0.02-0.24-0.03-0.37c0.07,0.05,0.17,0.08,0.21,0.15
	c0.09,0.16,0.16,0.33,0.24,0.49C79.53,576.93,79.61,576.86,79.61,576.86z"/>
</svg>
