<?xml version="1.0" encoding="utf-8"?>
<!-- Generator: Adobe Illustrator 27.9.0, SVG Export Plug-In . SVG Version: 6.00 Build 0)  -->
<svg version="1.1" id="Warstwa_1" xmlns="http://www.w3.org/2000/svg" xmlns:xlink="http://www.w3.org/1999/xlink" x="0px" y="0px"
	 viewBox="0 0 375.11 396.1" style="enable-background:new 0 0 375.11 396.1;" xml:space="preserve">
<style type="text/css">
	.st0{fill:#FFFFFF;}
</style>
<path class="st0" d="M40.94,567.69c0.92-0.41,1.84-0.41,2.76,0C42.78,567.69,41.86,567.69,40.94,567.69z"/>
<path class="st0" d="M45.91,567.69c0.37,0,0.74,0,1.1,0C46.65,567.69,46.28,567.69,45.91,567.69z"/>
<path d="M100.16,373.91c-1.23-0.11-2.3-0.59-3.29-1.31c-2.38-1.72-4.77-3.4-6.87-5.5c-1.67-1.67-3.7-2.99-5.57-4.47
	c-0.58-0.46-1.15-0.92-1.7-1.39c-0.63-0.54-1.19-1.16-1.86-1.64c-3.25-2.29-5.98-5.12-8.49-8.18c-0.52-0.64-1.13-1.21-1.7-1.81
	c-0.32-0.33-0.78-0.62-0.92-1.01c-0.74-2.04-2.58-2.99-4.02-4.37c-2.59-2.46-5.42-4.69-7.57-7.6c-1.34-1.81-3.26-2.95-5-4.29
	c-0.57-0.44-1.12-0.93-1.66-1.41c-0.2-0.18-0.33-0.54-0.55-0.6c-2.13-0.57-3.12-2.46-4.52-3.86c-1.43-1.43-2.75-2.96-4.1-4.47
	c-1.34-1.5-2.6-3.08-3.99-4.54c-0.89-0.94-0.92-2.17-1.27-3.37c-1.07-0.5-2.14-1.01-3.33-1.57c0.03-2.32-1.45-3.85-3.02-5.27
	c-1.96-1.77-3.21-3.96-4.1-6.39c-0.22-0.6-0.52-1.17-0.79-1.74c-0.16-0.33-0.41-0.63-0.51-0.97c-1.37-4.89-4.02-9.25-5.81-13.96
	c-1.6-4.21-3.01-8.49-4.62-12.7c-1.51-3.95-2.96-7.92-3.98-12.03c-0.53-2.14-0.83-4.3-1-6.51c-0.16-2.21-0.21-4.38,0.06-6.59
	c0.09-0.78-0.08-1.68-0.39-2.42c-1.01-2.39-1.56-4.9-2.23-7.38c-0.05-0.17-0.17-0.32-0.49-0.89c0.31,2.24,0.51,4.06,0.86,5.86
	s0.59,3.62,0.84,5.44c0.05,0.34-0.08,0.69-0.11,1c-0.83,0.26-1.2-0.17-1.34-0.72c-0.39-1.51-0.78-3.03-1.04-4.57
	c-0.6-3.53-1.18-7.07-1.67-10.62c-0.56-4.09-1-8.2-1.49-12.3c-0.07-0.55-0.13-1.1-0.2-1.64c-1,0.19-0.6,1.2-1.06,1.7
	c-0.72,0.19-1.01-0.19-1.06-0.84c-0.19-2.56-0.46-5.12-0.54-7.69c-0.09-3.12-0.02-6.25-0.03-9.37c0-2.85-0.06-5.7,0-8.55
	c0.03-1.37,0.26-2.74,0.45-4.1c0.06-0.44,0.18-0.98,0.48-1.25c0.91-0.85,0.97-1.95,1.07-3.04c0.38-4.12,0.99-8.2,1.89-12.25
	c0.47-2.15,0.86-4.33,1.23-6.5c0.21-1.26,0.53-2.52-0.1-3.79c-0.35-0.7-0.06-1.4,0.16-2.13c1.54-4.91,3.01-9.84,4.53-14.76
	c0.59-1.93,1.2-3.86,1.86-5.77c1.81-5.21,3.64-10.41,5.48-15.61c0.24-0.69,0.53-1.37,0.88-2.02c0.51-0.93,1.24-1.19,2.34-0.79
	c0.24,0.09,0.33,0.55,0.54,0.94c0.43-0.82,0.88-1.7,1.35-2.57c0.48-0.89,1.05-1.74,1.45-2.67c1.97-4.57,4.79-8.69,7.03-13.12
	c1.41-2.79,2.71-5.63,4.21-8.37c1.76-3.22,3.68-6.35,5.55-9.51c0.65-1.11,1.37-2.18,2.03-3.28c2.68-4.4,5.86-8.46,8.85-12.64
	c1.28-1.79,2.73-3.45,4.36-5.5c-2,0.83-2.53,2.49-3.58,3.64c-1.1,1.21-2.13,2.47-3.28,3.82c-0.5-0.28-0.93-0.52-1.47-0.81
	c2.41-3.44,5.08-6.44,7.78-9.38c2.73-2.98,5.66-5.77,8.59-8.74c-0.69-1.24,0.03-2.13,0.98-2.98c3.08-2.76,6.21-5.47,9.64-7.81
	c3.03-2.07,6.1-4.1,9.07-6.25c3.79-2.75,7.47-5.66,11.25-8.42c1.7-1.24,3.48-2.41,5.34-3.39c1.74-0.92,3.49-2.05,5.7-1.43
	c0.41,0.12,1-0.33,1.49-0.55c1.67-0.75,3.3-1.59,5-2.26c0.74-0.29,1.6-0.32,2.42-0.37c0.68-0.04,1.11,0.37,1.16,0.92
	c0.06,0.73-0.31,1.32-0.96,1.46c-0.89,0.19-1.78,0.38-2.67,0.54c-2.86,0.53-5.3,2.06-7.79,3.4c-3.56,1.91-7.01,4.02-10.5,6.05
	c-0.79,0.46-1.56,0.96-2.31,1.49c-1.35,0.95-2.66,1.88-4.23,2.53c-1.4,0.58-2.64,1.65-3.81,2.67c-2.7,2.35-5.36,4.77-7.96,7.23
	c-2.26,2.15-4.43,4.4-6.64,6.6c-0.32,0.32-0.65,0.65-0.97,0.98c-3.7,3.83-7.16,7.88-10.61,11.93c-0.29,0.34-0.52,0.74-0.76,1.13
	c-0.62,1.01-1.12,2.12-1.88,3.01c-3.41,3.99-6.35,8.32-9.24,12.68c-1.16,1.75-2.36,3.47-3.52,5.17c0.35,0.53,0.59,0.91,0.86,1.32
	c-0.09,0.24-0.13,0.54-0.29,0.73c-3.53,4.27-6.31,9-8.83,13.91c-0.21,0.41-0.4,0.84-0.68,1.19c-1.95,2.37-3.09,5.21-4.55,7.85
	c-1.15,2.07-1.93,4.35-2.93,6.52c-1.07,2.32-2.19,4.62-3.3,6.93c-0.12,0.25-0.24,0.57-0.45,0.68c-1.58,0.76-2,2.38-2.58,3.76
	c-2.4,5.66-5.12,11.18-7.26,16.96c-1.41,3.79-2.66,7.59-3.43,11.58c-1.02,5.22-2.03,10.45-2.86,15.7c-0.3,1.9-0.35,3.84-0.45,5.77
	c-0.06,1.12-0.18,2.19-0.74,3.19c-0.64,1.15-0.84,2.41-0.9,3.71c-0.05,1.01-0.2,2.01-0.3,3.02c-0.09,0.95-0.6,1.97,0.64,2.67
	c0.25,0.14,0.25,0.85,0.23,1.3c-0.05,1.38-0.08,2.76-0.27,4.13c-0.31,2.3-0.32,4.58-0.05,6.88c0.01,0.09,0.03,0.18,0.03,0.27
	c0.01,5.91,1.58,11.61,2.23,17.44c0.37,3.31,1.43,6.43,2.23,9.63c0.98,3.92,2.12,7.79,3.45,11.59c0.97,2.77,1.59,5.62,2.47,8.41
	c1.07,3.41,2.29,6.78,3.39,10.18c0.24,0.74,0.77,1.47,0.3,2.64c-1.26-2.38-1.77-4.86-3.02-6.92c-1.28-2.11-1.77-4.52-3.1-6.61
	c0.19,1.26,0.29,2.55,0.58,3.79c1.47,6.17,3.15,12.28,5.59,18.14c1.2,2.88,2.62,5.66,3.91,8.5c0.57,1.25,1.07,2.53,1.64,3.88
	c0.41,0.14,0.9,0.32,1.38,0.49c0.36,3.12,1.75,5.83,2.88,8.62c0.19,0.47,0.47,0.76,0.98,0.83c0.63,0.08,1.04,0.54,1.17,1.06
	c1.1,4.44,4.02,7.81,6.64,11.34c2.58,3.47,5.35,6.79,8.04,10.17c0.17,0.21,0.39,0.38,0.63,0.6c0.25-0.06,0.52-0.08,0.75-0.18
	c0.67-0.28,1.29-0.66,2.08-0.21c0.67,0.38,0.67,1.01,0.87,1.62c0.2,0.6,0.53,1.17,0.9,1.68c3.05,4.26,6.06,8.56,9.46,12.55
	c1.9,2.24,3.84,4.48,6.01,6.46c3.39,3.1,6.65,6.33,9.91,9.56c1.83,1.81,3.69,3.6,5.54,5.39c0.33,0.32,0.65,0.84,1.02,0.89
	c1.96,0.25,2.87,1.89,4.14,3.03c2.62,2.35,5.65,4.11,8.56,6.02c2.46,1.61,5.03,3.05,7.57,4.52c2.23,1.28,4.6,2.25,7.02,3.14
	c3.1,1.14,6.09,2.54,9.14,3.81c3.64,1.52,7.24,3.14,10.94,4.51c2.4,0.89,4.92,1.43,7.39,2.11c0.44,0.12,0.92,0.12,1.35,0.27
	c2.61,0.95,5.26,1.65,8.16,1.34c0.47,1.03,1.02,1.65,2.2,1.86c4.07,0.71,8.09,1.66,12.14,2.45c1.35,0.26,2.73,0.39,4.1,0.49
	c3.75,0.27,7.47,1.05,11.31,0.77c0.26-0.31,0.54-0.64,0.86-1.03c1.32,0.22,2.68,0.36,3.99,0.68c2.28,0.55,4.58,0.25,6.87,0.25
	c1.37,0,2.74-0.29,4.11-0.33c5.25-0.16,10.37-1.27,15.5-2.24c0.44-0.08,1.03-0.18,1.24-0.49c0.74-1.1,1.85-1.03,2.93-1.19
	c0.99-0.15,1.98-0.34,2.95-0.59c5.87-1.48,11.7-3.08,17.27-5.54c4.62-2.04,9.3-3.95,13.89-6.05c4.26-1.95,8.41-4.13,12.31-6.75
	c1.29-0.87,2.6-1.72,3.95-2.5c0.62-0.36,1.33-0.64,2.03-0.75c0.99-0.15,1.8-0.6,2.31-1.36c0.85-1.27,2.13-2.02,3.3-2.86
	c1.54-1.12,3.27-1.95,4.86-3.01c2.14-1.42,4.27-2.87,6.31-4.43c2.47-1.9,4.85-3.93,7.26-5.91c0.36-0.29,0.73-0.57,1.04-0.9
	c3.35-3.54,7.08-6.67,10.75-9.87c2.07-1.8,3.85-3.94,5.74-5.95c0.82-0.87,1.6-1.74,2.8-2.16c0.58-0.2,1.07-0.7,1.55-1.12
	c2.31-1.99,4.33-4.24,6.01-6.79c0.61-0.93,1.12-1.88,2.41-2.05c0.39-0.05,0.75-0.5,1.08-0.81c0.46-0.45,0.9-0.92,1.31-1.42
	c2.61-3.2,5.57-6.12,7.88-9.57c0.83-1.24,1.07-1.24,2.87-0.67c0.56-0.66,1.19-1.33,1.74-2.05c4.33-5.6,8.15-11.53,11.69-17.66
	c1.47-2.55,2.89-5.11,4.04-7.82c0.63-0.87,1.26-1.74,1.88-2.6c-0.09-0.1-0.17-0.19-0.26-0.29c0.07-0.03,0.15-0.06,0.22-0.09
	c-0.01,0.14-0.02,0.28-0.03,0.42c-1.17,0.49-2.09,1.14-1.76,2.63c-0.57-0.1-0.79,0.33-1.04,0.7c-0.46,0.69-0.88,1.4-1.38,2.05
	c-0.12,0.16-0.55,0.24-0.73,0.15c-0.19-0.09-0.4-0.49-0.34-0.66c0.2-0.6,0.47-1.19,0.78-1.75c2.91-5.21,5.87-10.4,8.75-15.64
	c1.15-2.09,2.15-4.26,3.16-6.42c0.98-2.08,1.95-4.17,2.81-6.29c1.48-3.66,2.88-7.36,4.3-11.04c0.56-1.45,1.18-2.89,1.61-4.38
	c1.31-4.51,1.92-9.17,2.8-13.77c0.26-1.36,0.52-2.71,0.72-4.08c0.14-1,0.33-2.02,0.25-3.02c-0.38-4.97,0.28-9.92,0.26-14.88
	c-0.01-3.03-0.11-6.07-0.15-9.1c-0.02-1,0-2,0-3.03c0.59-0.24,1.07-0.44,1.62-0.66c0.02-2.95,0.07-5.88-0.23-8.82
	c-0.4-3.93-0.55-7.89-0.94-11.82c-0.42-4.2-0.85-8.4-2.03-12.49c-0.38-1.32-0.76-2.66-0.98-4.02c-0.13-0.79-0.24-1.85,0.17-2.39
	c0.75-0.97,0.59-1.82,0.39-2.83c-0.97-4.96-2.01-9.91-3.59-14.72c-1.38-4.2-3.23-8.21-5.2-12.16c-2.74-5.51-5.7-10.92-8.36-16.47
	c-2.47-5.15-5.36-10.05-8.19-14.99c-1.14-1.99-2.61-3.78-3.97-5.63c-0.32-0.44-0.73-0.85-1.18-1.14c-0.95-0.61-1.62-1.38-2.14-2.42
	c-0.43-0.87-1.34-1.49-2.01-2.25c-1.09-1.24-2.15-2.49-3.21-3.75c-0.35-0.42-0.64-0.9-1.01-1.3c-4.58-5.05-9.44-9.8-14.67-14.18
	c-0.56-0.47-1.19-0.86-1.81-1.27c-1.32-0.87-2.54-1.79-3.25-3.29c-0.26-0.55-0.78-1.04-1.28-1.4c-4.77-3.45-9.53-6.91-14.61-9.89
	c-0.47-0.28-0.99-0.52-1.39-0.88c-2.61-2.41-5.65-4.07-8.97-5.25c-1.43-0.51-2.57-1.23-3.37-2.64c-0.46-0.81-1.44-1.41-2.29-1.91
	c-3.57-2.09-7.18-4.1-10.78-6.15c-0.48-0.27-0.95-0.56-1.4-0.88c-3.76-2.69-7.91-4.64-12.13-6.45c-1.43-0.62-2.82-1.35-4.24-1.97
	c-1.76-0.77-3.54-1.53-5.34-2.21c-0.67-0.25-1.47-0.47-2.15-0.35c-1.39,0.24-2.51-0.34-3.69-0.85c-4.88-2.15-9.87-3.99-15.12-5.07
	c-0.63-0.13-1.29-0.38-1.9-0.3c-1.6,0.2-3.08,0.02-4.49-0.8c-0.42-0.24-0.87-0.23-1.29,0.08c-0.89,0.66-1.85,0.35-2.58-0.16
	c-1.06-0.75-2.22-0.77-3.4-0.92c-3.48-0.44-6.96-0.45-10.45-0.14c-1.45,0.13-2.92,0.08-4.36-0.45c-0.75-0.28-1.62-0.29-2.44-0.3
	c-3.77-0.04-7.54-0.04-11.31-0.07c-0.63,0-1.33,0.04-1.52-0.96c0.9-0.6,1.95-0.82,3.04-0.83c3.95-0.03,7.89-0.18,11.85,0.23
	c2.82,0.29,5.7,0.1,8.55,0.11c0.83,0,1.66,0,2.48-0.04c5.3-0.26,10.41,0.85,15.52,2c1.79,0.4,3.56,0.9,5.32,1.42
	c1.58,0.46,3.12,0.7,4.83,0.64c2.83-0.09,5.59,0.74,8.23,1.91c3.78,1.67,7.58,3.32,11.42,4.84c1.96,0.78,3.9,1.61,5.84,2.41
	c4.61,1.9,8.87,4.4,13.05,7.08c4.25,2.72,8.6,5.31,12.86,8.02c4.8,3.06,9.6,6.14,14.32,9.32c5.87,3.96,11.49,8.27,16.84,12.91
	c2.92,2.53,5.69,5.21,8.55,7.81c0.4,0.37,0.84,0.73,1.33,0.97c2.12,1.03,3.74,2.66,5.33,4.31c5.3,5.51,10.1,11.43,14.74,17.49
	c2.74,3.58,5.23,7.32,7.41,11.26c0.71,1.28,1.17,2.69,1.9,3.96c1.65,2.87,3.35,5.7,5.09,8.51c1.95,3.14,3.37,6.52,4.56,10
	c1.43,4.16,2.83,8.33,4.11,12.54c1.42,4.65,2.7,9.35,4.02,14.04c0.15,0.52,0.35,1.18,0.16,1.61c-0.67,1.49-0.14,2.92,0.16,4.29
	c0.97,4.4,1.38,8.88,2.03,13.33c0.58,3.99,1.1,8,1.53,12.01c0.29,2.74,0.38,5.51,0.53,8.26c0.07,1.29,0.1,2.57,0.14,3.86
	c0.02,0.64,0.12,1.29-0.54,1.73c-0.53,0.35-0.55,0.93-0.55,1.48c0.01,3.31-0.56,6.56-1.01,9.82c-0.35,2.54-0.34,5.13-0.63,7.68
	c-0.43,3.91-1.05,7.8-1.45,11.72c-0.22,2.18-0.13,4.39-0.24,6.59c-0.09,1.92-0.27,3.83-0.41,5.75c-0.08,1.1-0.16,2.2-0.24,3.3
	l0.06-0.08c-0.48,1.86-1.05,3.7-1.43,5.58c-0.53,2.61-1.1,5.19-2.32,7.59c-0.32,0.64-0.4,1.4-0.6,2.1
	c-0.15,0.53-0.24,1.08-0.47,1.57c-1.22,2.66-2.23,5.39-3.18,8.15c-0.6,1.73-1.44,3.37-2.15,5.06c-0.21,0.5-0.36,1.02-0.53,1.54
	c-0.14,0.44-0.14,1.13-0.43,1.27c-1.55,0.78-1.32,2.26-1.49,3.42c-0.6,0.61-1.23,1.03-1.56,1.62c-1.5,2.63-2.84,5.35-4.38,7.95
	c-1.73,2.92-3.62,5.74-5.45,8.61c-0.44,0.7-0.95,1.36-1.35,2.08c-0.25,0.46-0.5,1.02-0.48,1.52c0.04,0.9-0.3,1.61-0.75,2.3
	c-1.55,2.38-3.07,4.79-4.7,7.12c-4.95,7.1-10.47,13.72-16.77,19.66c-3.67,3.46-7.51,6.75-11.27,10.11c-0.89,0.8-1.74,1.64-2.66,2.4
	c-3.19,2.62-6.4,5.22-9.6,7.82c-3.99,3.24-7.92,6.56-11.99,9.7c-2.26,1.75-4.06,3.98-6.33,5.69c-1.32,1-2.67,1.94-3.95,2.99
	c-0.6,0.49-1.54,0.73-1.59,1.75c-0.18-0.01-0.41-0.09-0.53-0.01c-1.89,1.21-3.77,2.41-5.62,3.68c-0.21,0.14-0.16,0.67-0.24,1
	c-0.61-0.41-1.23-0.36-1.82-0.01c-1.02,0.6-2.03,1.22-3.02,1.87c-0.25,0.16-0.67,0.39-0.26,0.77c1.71-0.89,3.39-1.78,5.07-2.66
	c0.72-0.55,1.46-1.07,2.16-1.64c1.34-1.1,3.06-1.67,4.2-3.05c0.42-0.19,0.88-0.31,1.24-0.57c4.33-3.09,8.88-5.89,12.83-9.5
	c1.63-1.49,3.21-3.02,4.83-4.51c0.33-0.3,0.71-0.55,1.32-1.02c0,0.58,0.09,0.92-0.02,1.18c-0.66,1.57-1.89,2.72-3.13,3.8
	c-2.84,2.47-5.66,4.96-8.84,7.02c-3.69,2.4-7.21,5.07-10.89,7.49c-5.3,3.48-10.77,6.66-16.53,9.33c-2.91,1.35-5.71,2.93-8.6,4.34
	c-6.1,2.98-12.31,5.75-18.7,8.04c-3.7,1.33-7.46,2.51-11.21,3.73c-0.8,0.26-1.54,0.47-1.99,1.3c-0.53,0.96-1.5,1.29-2.55,1.4
	c-2.1,0.21-4.21,0.35-6.3,0.65c-2.09,0.3-4.15,0.73-6.22,1.14c-0.53,0.11-1.02,0.45-1.55,0.52c-2.71,0.38-5.43,0.71-8.31,1.07
	c-0.09-0.5-0.16-0.91-0.23-1.33c-0.15-0.08-0.3-0.22-0.46-0.23c-3.3-0.24-6.6-0.39-9.89-0.71c-1.7-0.16-3.27-0.07-4.46,0.9
	c-3.82-0.67-7.43-1.26-11.03-1.94c-3.96-0.75-7.91-1.57-11.86-2.36c-2.43-0.48-4.86-0.96-7.28-1.45c-1.08-0.22-2.16-0.44-3.22-0.73
	c-0.52-0.14-1.17-0.31-1.47-0.7c-0.97-1.27-2.3-1.29-3.7-1.41c-2.56-0.22-5.03-0.91-7.44-1.78c-1.97-0.71-3.82-1.59-6.02-1.77
	c-1.85-0.15-3.7-1.05-5.44-1.84c-3.25-1.49-6.42-3.14-9.63-4.72c-0.66-0.32-1.33-0.62-1.97-0.98c-0.78-0.43-1.6-0.55-2.36-0.09
	c-1.59,0.97-2.58,0.18-3.46-1.07c0.49,0.02,0.98,0.04,1.48,0.05c0.13,0.05,0.26,0.1,0.34,0.13c-0.11-0.02-0.26-0.05-0.41-0.07
	c-0.26-0.24-0.5-0.52-0.8-0.71c-0.18-0.11-0.46-0.06-0.7-0.08C100.04,373.4,100.1,373.65,100.16,373.91z M221.71,385.69
	c-0.54,0.19-1.09,0.38-1.63,0.57c-0.81,0.31-1.64,0.59-2.44,0.94c-0.29,0.13-0.52,0.42-0.8,0.63c-0.15-0.02-0.3-0.05-0.45-0.07
	c0.14,0.03,0.29,0.05,0.43,0.08c0.62-0.14,1.26-0.23,1.86-0.43c0.6-0.19,1.25-0.39,1.4-1.15c0.69,0.33,1.22,0.17,1.6-0.49
	c0.12,0.04,0.23,0.09,0.35,0.13C221.93,385.84,221.82,385.77,221.71,385.69z M58.4,62.03c0.03-0.22,0.08-0.45,0.07-0.67
	c-0.01-0.14,0.52-0.35-0.03-0.42c-0.03,0-0.14,0.27-0.13,0.41c0,0.22,0.07,0.43,0.11,0.64c-0.14,0.02-0.27,0.06-0.41,0.06
	c-0.07,0-0.14-0.08-0.22-0.09c-0.05-0.01-0.11,0.04-0.17,0.07c0.12-0.03,0.25-0.08,0.37-0.08C58.12,61.95,58.26,62,58.4,62.03z
	 M48.52,325.41c0.08-0.5,0.18-1.01-0.73-1.17c0.32,0.45,0.55,0.78,0.78,1.11c0.47,0.71,0.91,1.45,1.78,1.75
	C49.94,326.31,49.67,325.37,48.52,325.41z M317.33,322.59c1.34-1.22,2.68-2.45,4.02-3.67c1.37-1.24,2.83-3.16,3.36-4.83
	C321.86,317.09,319.6,319.77,317.33,322.59z M199.78,391.71c3.57,0.15,7.05-0.21,10.32-1.77
	C206.66,390.53,203.22,391.12,199.78,391.71z M358.94,259.48c0.11-0.12,0.22-0.24,0.32-0.36c-0.12-0.03-0.28-0.12-0.34-0.07
	c-0.1,0.09-0.14,0.25-0.21,0.38C358.79,259.44,358.87,259.46,358.94,259.48z M6.48,233.26l-0.04-0.17l-0.04,0.14L6.48,233.26z
	 M359.75,257.29l0.08,0.19l0.06-0.2L359.75,257.29z M19.62,124.15l0.07,0.17l0.06-0.18L19.62,124.15z"/>
<path d="M260.24,179.8c-0.21-2.99-1.37-5.71-2.43-8.45c-1.22-3.18-2.8-6.19-4.61-9.08c-0.34-0.54-0.67-1.11-0.9-1.7
	c-0.1-0.27,0.06-0.64,0.12-1.17c1.18,0.45,1.88,1.12,2.4,2c0.89,1.5,1.88,2.95,2.64,4.51c1.68,3.46,3.35,6.93,4.27,10.71
	c0.19,0.79,0.61,1.52,0.91,2.28c0.16,0.42,0.43,0.87,0.4,1.28c-0.11,1.33,0.14,2.49,1,3.58c0.29,0.37,0.25,1.06,0.24,1.6
	c-0.02,3.04-0.47,6.03-1.06,9.02c-0.4,2.07-0.69,4.17-0.95,6.26c-0.5,4.12-1.55,8.12-2.93,12.01c-3.36,9.53-8.25,18.21-14.88,25.87
	c-1.98,2.29-3.94,4.61-5.97,6.85c-0.8,0.88-1.8,1.57-2.67,2.38c-0.65,0.61-1.41,1.18-1.45,2.4c1.52-0.26,1.92-1.67,2.83-2.42
	c1.06-0.87,1.99-1.9,2.94-2.89c0.89-0.92,1.74-1.89,2.62-2.83c0.88-0.93,1.81-1.82,2.66-2.77c0.92-1.02,1.77-2.11,2.69-3.13
	c0.82-0.92,1.36-2.11,2.51-2.92c0.54,1.08-0.02,1.7-0.43,2.22c-1.62,2.11-3.19,4.29-5.01,6.23c-4.6,4.89-9.31,9.67-14.01,14.46
	c-0.96,0.98-2.08,1.8-3.13,2.69c-2.14,1.81-4.55,2.28-7.21,1.38c-0.43-0.15-0.87-0.3-1.31-0.44c-2.84,1.05-5.67,2.11-8.51,3.15
	c-0.77,0.28-1.55,0.57-2.36,0.74c-2.69,0.55-5.38,1.14-8.16,1.09c-0.73-0.01-1.48,0.04-2.19,0.19c-0.76,0.17-1.4,0.09-2.11-0.27
	c-0.63-0.32-1.37-0.52-2.07-0.57c-4.33-0.29-8.49-1.35-12.65-2.54c-4.33-1.24-8.55-2.76-12.73-4.41c-2.21-0.87-4.28-2.1-6.47-3.02
	c-4.41-1.86-8.66-3.99-12.66-6.63c-3.72-2.46-7.05-5.27-9.19-9.28c-0.17-0.32-0.53-0.66-0.5-0.96c0.18-1.94-1.27-2.94-2.32-4.15
	c-2.54-2.93-4.84-6.01-6.33-9.64c-0.46-1.11-0.93-2.22-0.57-3.46c0.17-0.6-0.14-1.03-0.41-1.53c-0.61-1.13-1.18-2.28-1.68-3.47
	c-0.47-1.1-0.84-2.19-1.87-2.98c-0.46-0.35-0.68-1.07-0.89-1.67c-0.97-2.9-1.45-5.89-1.37-8.94c0.06-2.14-0.13-4.14-1.04-6.16
	c-0.58-1.28-0.6-2.86-0.65-4.31c-0.05-1.46,0.11-2.94,0.32-4.39c0.21-1.44,0.55-2.88,0.94-4.28c0.45-1.59,1.05-3.14,1.53-4.72
	c0.16-0.52,0.29-1.1,0.22-1.62c-0.45-3.2,0.31-6.24,1.27-9.21c1.46-4.56,3.27-8.98,5.74-13.11c2.13-3.56,4.54-6.9,7.12-10.14
	c0.8-1.01,1.6-2.02,2.43-3c0.31-0.37,0.71-0.56,1.27,0.03c-1.4,1.88-2.78,3.81-4.24,5.68c-4.43,5.7-8.07,11.83-10.15,18.8
	c-0.47,1.58-0.95,3.16-1.37,4.76c-0.13,0.51-0.11,1.05-0.02,1.62c1.56-2.82,2.98-5.7,4.01-8.74c1.31-3.84,3.1-7.47,4.92-11.07
	c0.45-0.89,1.13-1.67,1.75-2.47c0.71-0.91,1.58-1.22,2.62-0.43c1.76-2,3.44-3.94,5.17-5.84c0.48-0.53,1.1-1.3,1.68-1.32
	c1.32-0.03,1.94-0.92,2.71-1.66c1.53-1.47,3.14-2.81,4.98-3.89c1.24-0.73,2.47-1.46,3.14-2.95c0.33-0.73,1.31-1.27,2.11-1.65
	c1.4-0.67,2.86-1.24,4.34-1.72c4.29-1.39,8.68-2.15,13.22-2.24c2.29-0.04,4.56-0.47,6.85-0.68c1.82-0.17,3.65-0.33,5.48-0.39
	c1.93-0.07,3.88-0.19,5.79,0.01c4.73,0.5,9.49,0.9,14.09,2.29c2,0.61,4.05,1.02,5.99,1.86c0.98,0.43,2.18,0.3,3.22,0.61
	c3.62,1.06,7.12,2.44,10.28,4.56c0.3,0.2,0.62,0.39,0.95,0.56c4.89,2.49,8.89,6.11,12.7,9.98c0.12,0.13,0.18,0.32,0.34,0.6
	c-0.18,0.49-0.38,1.07-0.62,1.75c0.71,0.93,1.46,1.85,2.15,2.81c1.01,1.42,2,2.86,2.98,4.3c0.35,0.52,0.02,0.81-0.6,1.11
	c0.79,1.14,1.58,2.24,2.33,3.37c1.69,2.52,3.35,5.05,5.04,7.57c0.74,1.09,1.16,2.3,1.32,3.59c0.23,1.81,0.89,3.53,0.81,5.43
	c-0.05,1.12,0.58,2.27,0.92,3.47c0.55-0.55,1.05-0.81,1.68-0.42c-0.01,0.15-0.01,0.29-0.02,0.44c-0.03-0.06-0.1-0.12-0.09-0.17
	C260.12,179.93,260.19,179.87,260.24,179.8z M126.27,180.65c0.22-0.24,0.46-0.47,0.66-0.73c0.15-0.2,0.26-0.44,0.38-0.66
	c-0.02-0.17-0.04-0.34-0.05-0.51c-0.01-0.09,0-0.18,0-0.26c0.01,0.09,0.04,0.18,0.04,0.26c0,0.17-0.01,0.35-0.02,0.52
	c-0.34,0.46-0.68,0.93-1.02,1.41c0,0.33,0,0.65,0,0.98c0.06-0.01,0.11-0.01,0.17-0.02C126.38,181.3,126.32,180.97,126.27,180.65z
	 M242.74,149.3c0.07,1.01,0.07,1.01,0.82,1.57c-0.25-0.45-0.55-0.99-0.85-1.54c-2.37-2.28-4.74-4.55-7.09-6.85
	c-0.23-0.22-0.29-0.61-0.44-0.92c-0.48-0.22-1.01-0.36-1.42-0.67c-1.62-1.25-3.16-2.61-5.26-3.91c0.26,0.62,0.29,0.93,0.45,1.05
	c1.54,1.13,3.08,2.26,4.68,3.3c0.4,0.26,1.03,0.16,1.55,0.23c-0.43,0.97-0.2,1.77,0.61,2.43c0.64,0.52,1.29,1.01,1.9,1.57
	c1.14,1.05,2.25,2.14,3.38,3.2C241.54,149.21,242.03,149.64,242.74,149.3z M133.47,220.82c-0.6,1.6-0.01,2.71,0.48,3.77
	c0.58,1.24,1.31,2.42,2.03,3.6c1.83,3.01,4.4,5.41,6.72,8.02c0.85,0.96,1.75,1.88,2.71,2.72c4.08,3.59,8.7,6.45,13.18,9.5
	c0.91,0.61,1.93,1.05,2.88,1.6c1.18,0.69,2.3,1.54,3.53,2.13c4.96,2.4,10.05,4.5,15.36,5.99c6.04,1.7,12.19,2.72,18.5,2.35
	c2.11-0.13,4.21-0.4,6.31-0.45c2.95-0.07,5.83-0.61,8.73-1.09c3.88-0.65,7.42-2.04,10.74-4.1c0.22-0.14,0.37-0.38,0.51-0.54
	c-0.18-0.62-0.35-1.19-0.57-1.94c2.02-0.32,3.78-0.92,5.25-2.03c3.6-2.71,7.12-5.56,10-9.05c2.1-2.55,4.08-5.21,5.93-7.94
	c3.88-5.73,6.88-11.93,9.21-18.45c1.73-4.85,3.16-9.79,4.2-14.84c0.13-0.62,0.41-1.41,0.16-1.88c-0.8-1.52-0.32-3.06-0.39-4.59
	c-0.08-1.74-0.2-3.49-0.43-5.22c-0.52-3.94-1.94-7.66-2.87-11.5c-0.18-0.73-0.42-1.4-1.12-1.81c-0.74-0.44-0.89-1.15-0.72-1.92
	c0.21-0.95-0.02-1.8-0.37-2.68c-0.24-0.59-0.46-1.23-0.48-1.86c-0.04-1.08-0.5-1.95-1.08-2.79c-1.66-2.43-3.28-4.89-5.01-7.27
	c-2.67-3.64-5.62-7.07-8.93-10.12c-3.58-3.3-7.33-6.42-11.13-9.47c-3.52-2.83-7.29-5.26-11.89-6.09c-1.8-0.32-3.55-0.92-5.31-1.43
	c-0.83-0.24-0.78-0.85-0.43-1.56c-6.17-1.77-12.46-2.09-18.88-1.79c0.12,0.17,0.17,0.3,0.22,0.31c4.11,0.43,8.1,1.47,12.14,2.31
	c0.66,0.14,1.25,0.34,1.62,0.92c0.32,0.5,0.33,1.05-0.06,1.53c-0.33,0.41-0.77,0.46-1.24,0.27c-0.67-0.28-1.32-0.63-2.01-0.86
	c-3.4-1.17-6.95-1.65-10.49-2.18c-2.54-0.38-5.1-0.65-7.66-0.88c-2.46-0.22-4.94-0.53-7.4,0.13c-2.39,0.64-4.79,1.21-7.15,1.94
	c-1.66,0.51-3.29,1.15-4.85,1.91c-1.39,0.68-2.67,1.59-3.99,2.42c-0.11,0.07-0.14,0.28-0.32,0.65c2.8-1.34,5.51-2.3,8.41-2.77
	c3.34-0.54,6.63-1.34,10.04-1.43c0.54-0.01,1.08-0.21,1.62-0.3c0.45-0.07,0.93-0.22,1.36-0.13c0.39,0.08,0.82,0.38,1.04,0.71
	c0.26,0.39-0.26,0.87-1,0.98c-0.09,0.01-0.18,0.02-0.27,0.03c-3.38,0.39-6.77,0.7-10.13,1.19c-1.9,0.28-3.77,0.81-5.62,1.31
	c-0.48,0.13-1.16,0.5-1.27,0.9c-0.4,1.37-1.53,1.81-2.61,2.23c-2.5,0.97-4.82,2.26-7.12,3.61c-3.81,2.23-7.53,4.61-10.35,8.09
	c-1.67,2.07-3.37,4.13-4.84,6.34c-1.31,1.98-2.34,4.15-3.46,6.25c-0.3,0.56-0.54,1.16-0.76,1.76c-0.12,0.34-0.33,0.81-0.19,1.04
	c0.8,1.34-0.01,2.55-0.33,3.72c-1.42,5.06-2.06,10.25-2.6,15.45c-0.35,3.38-0.4,6.79-0.5,10.19c-0.16,4.98,0.2,9.93,0.99,14.84
	c0.26,1.63,0.93,3.08,1.92,5.07c0.21-2.68-0.37-4.8,0.24-6.79c0.55-0.29,1.08-0.27,1.17,0.28c0.24,1.54,0.43,3.1,0.52,4.65
	c0.41,6.7,3.08,12.36,7.68,17.25c-0.06,0.44-0.23,0.98-0.19,1.5c0.05,0.57,0.7,1.09,0.03,1.85c-0.37-0.33-0.74-0.59-1.03-0.92
	C138.63,229.69,136.39,225.24,133.47,220.82z M128.62,198.98c0-0.94-0.02-1.94,0.01-2.95c0.03-1.1,0.08-2.2,0.15-3.3
	c0.06-1.01,0.18-2.01,0.23-3.02c0.05-1.01,0.04-2.02,0.09-3.03s0.1-2.02,0.2-3.02c0.12-1.09,0.33-2.18,0.45-3.27
	c0.1-0.92,0.45-1.83,0.13-2.78c-1.36,3.91-2.24,7.89-2.29,12.03c-0.02,1.44,0.26,2.93-0.87,4.2c-0.31,0.35-0.29,1.05-0.29,1.59
	c0,1.47,0.07,2.93,0.14,4.4c0.01,0.15,0.18,0.29,0.25,0.39C127.31,199.88,127.81,199.53,128.62,198.98z M154.46,248.26
	c-4.13-3.26-8.06-6.37-12-9.48C147.15,244.17,150.99,247.19,154.46,248.26z M222.95,258.68c1.91,0.01,1.91,0.01,2.58-0.38
	c3.33-1.93,4.5-2.97,6.02-5.63c-1.54,1.25-3.15,1.43-3.93,2.72c-0.52,0.86-1.22,1.31-2,1.76
	C224.91,257.55,224.21,257.95,222.95,258.68z M124.9,188.52c0.42-1.4,1.17-2.76,0.59-4.3C125.29,185.66,125.09,187.09,124.9,188.52z
	 M130.12,175.46c0.07-0.02,0.16-0.01,0.19-0.05c0.04-0.06,0.02-0.15,0.02-0.22c-0.1,0.02-0.19,0.05-0.29,0.07
	C130.06,175.33,130.09,175.4,130.12,175.46z"/>
<path d="M121.83,117.33c-0.41,0.18-0.82,0.35-1.23,0.53c-1.25,0.55-2.48-0.11-2.61-1.43c-0.05-0.55,0.01-1.1,0.01-1.65
	c0-0.82,0.33-1.46,1.13-1.7c0.75-0.22,1.01-0.74,1.09-1.42c0.29-2.46,0.79-4.91,0.5-7.4c-0.06-0.53-0.15-1.12-0.43-1.54
	c-1.61-2.47-2.82-5.15-4.06-7.82c-0.27-0.58-0.55-1.16-0.8-1.75c-0.84-1.95-2.24-3.33-4.18-4.19c-0.41-0.18-0.89-0.36-1.17-0.68
	c-1.01-1.15-2.36-1.74-3.7-2.33c-2.94-1.28-5.9-2.53-8.86-3.77c-1.18-0.49-2.33-0.94-3.7-0.66c-1.15,0.23-1.92-0.47-2.01-1.87
	C91,79.82,90.32,80,89.63,80.08c-0.6,0.07-0.99-0.58-0.74-1.12c0.34-0.73,0.88-1.21,1.68-1.23c1.1-0.03,2.23-0.12,3.3,0.09
	c2.42,0.49,4.83,1.07,7.21,1.75c1.4,0.4,2.73,1.04,4.08,1.61c0.84,0.35,1.65,0.77,2.49,1.16c0.42-0.63-0.06-0.92-0.35-1.18
	c-1.57-1.4-3.06-2.94-5.19-3.54c-0.25-0.07-0.53-0.24-0.68-0.45c-0.14-0.19-0.17-0.5-0.15-0.75c0.01-0.12,0.25-0.31,0.39-0.31
	c0.63,0.01,1.34-0.09,1.88,0.15c1.08,0.48,2.14,1.06,3.08,1.76c3,2.23,5.18,5.21,7.17,8.31c1,1.56,2.11,3,3.58,4.32
	c0.83-0.14,1.78-0.26,2.27,0.76c0.6,1.23,1.34,2.44,1.69,3.74c1.63,6.01,2.06,12.1,0.94,18.26c-0.06,0.35-0.04,0.72-0.07,1.29
	c1.05-0.44,1.44-1.32,1.84-2.02c0.71-1.23,1.65-2.19,2.62-3.17c2.46-2.47,4.79-5.08,7.61-7.18c1.77-1.32,3.55-2.59,5.71-3.21
	c0.52-0.15,0.96-0.55,1.48-0.71c0.95-0.3,2-0.84,2.9-0.68c1.92,0.34,3.43-0.54,4.95-1.29c2.3-1.13,4.5-2.47,6.72-3.75
	c3.44-1.97,7.02-3.6,10.82-4.75c1.49-0.45,2.96-0.98,4.46-1.4c3.54-1.01,7.18-1.47,10.8-2.08c1.26-0.21,2.5-0.52,3.75-0.79
	c0.26-1.62-0.75-2.55-1.41-3.6c-0.83-1.32-1.82-2.54-2.59-3.89c-0.72-1.26-1.57-2.52-1.38-4.24c0.4-0.2,0.86-0.42,1.47-0.72
	c-0.37-2.21-0.78-4.45-1.12-6.7c-0.18-1.18-0.27-2.37-0.35-3.56c-0.05-0.83,0.04-1.61,0.78-2.24c0.38-0.32,0.64-0.91,0.72-1.41
	c0.43-2.75,1.23-5.39,2.43-7.87c0.79-1.64,1.86-3.15,2.87-4.67c0.23-0.34,0.74-0.49,1.23-0.8c0.41,0.45,0.77,0.84,1.16,1.28
	c0.44,0.13,0.98-0.37,1.8-1.84c-5.02-1.92-10.17-0.74-15.44-0.92c0.46,0.37,0.82,0.58,1.05,0.88c0.13,0.17,0.17,0.54,0.07,0.74
	c-0.1,0.21-0.39,0.35-0.62,0.46c-0.15,0.07-0.37,0.05-0.54,0.01c-3.2-0.7-6.38-0.47-9.58,0.04c-1.81,0.29-3.65,0.36-5.46,0.6
	c-7.3,0.95-14.46,2.51-21.47,4.76c-2.53,0.81-5,1.81-7.5,2.72c-0.43,0.16-0.87,0.39-1.3,0.4c-2.7,0.05-4.95,1.38-7.13,2.67
	c-2.52,1.49-4.88,3.28-7.26,5c-2.83,2.05-5.61,4.15-8.4,6.26c-0.24,0.18-0.37,0.52-0.58,0.84c0.34,0.09,0.56,0.23,0.66,0.17
	c3.32-2.15,6.72-4.18,9.89-6.52c2.08-1.54,4.17-2.99,6.49-4.13c0.39-0.19,0.82-0.31,1.19-0.45c0.47,0.5,0.16,0.8-0.13,0.97
	c-3.89,2.3-7.07,5.54-10.79,8.06c-2.81,1.9-5.69,3.72-8.51,5.61c-1.29,0.87-2.53,1.83-3.8,2.74c-1.18,0.85-2.15,2.03-3.62,2.42
	c-1.03-1.01-1.03-1.01,0.37-3.15c-0.86,0.44-1.45,0.78-2.07,1.04c-0.63,0.27-1.29,0.07-1.45-0.36c-0.19-0.52,0.08-0.91,0.46-1.19
	c1.54-1.16,3.08-2.31,4.66-3.42c3.39-2.37,6.83-4.67,10.18-7.09c1.78-1.28,3.52-2.61,4.7-4.58c0.53-0.88,1.55-1.59,2.51-2.08
	c3.6-1.83,7.23-3.58,11.08-4.9c3.39-1.16,6.72-2.46,10.21-3.3c3.92-0.94,7.85-1.82,11.77-2.73c2.5-0.58,5-1.17,7.5-1.74
	c0.71-0.16,1.45-0.21,2.16-0.36c0.62-0.13,1.34-0.17,1.83-0.52c1.67-1.18,3.62-1.32,5.51-1.51c2.91-0.29,5.82-0.88,8.78-0.46
	c0.43,0.06,0.9-0.14,1.35-0.15c1.65-0.01,3.31-0.05,4.96,0.02c1.92,0.09,3.84,0.32,5.76,0.4c1.02,0.04,1.97,0.01,2.82,0.79
	c0.44,0.4,1.15,0.49,1.76,0.73c1.68-1.02,3.36-2.05,5.22-0.2c-0.42,0.98-0.96,1.72-2.06,1.45c-0.64-0.16-1.08,0.02-1.48,0.4
	c-1.46,1.38-2.84,2.85-4.36,4.17c-2.22,1.93-2.98,4.56-3.72,7.22c-0.12,0.44-0.14,0.91-0.23,1.36c-0.28,1.45-0.7,1.61-2.31,0.9
	c-0.08-0.04-0.18-0.04-0.29-0.06c-1.28,4.71-0.86,9.39,0.25,14.05c0.14,0.61,0.39,1.21,0.71,1.75c0.26,0.43,0.22,0.82,0.23,1.28
	c0.05,2.99,1.46,5.42,3.33,7.62c0.26,0.3,0.78,0.52,1.18,0.52c0.9,0,1.48,0.46,1.6,1.22c0.22,1.31,1.03,2.11,1.98,2.85
	c1.43,1.13,2.86,2.25,4.26,3.35c-0.17,0.78-0.71,0.71-1.11,0.61c-0.61-0.15-1.24-0.36-1.77-0.69c-1.17-0.73-2.38-1.44-3.38-2.37
	c-0.87-0.81-1.84-1.29-2.94-1.33c-1.83-0.07-3.68-0.1-5.49,0.12c-3,0.37-5.99,0.88-8.95,1.49c-2.15,0.44-4.27,1.06-6.36,1.76
	c-2.17,0.73-4.29,1.62-6.41,2.51c-0.91,0.38-1.76,0.93-3.13,1.67c2.43-0.16,4.22-0.65,5.99-1.25c1.22-0.41,2.44-0.81,3.67-1.15
	c0.45-0.12,1.01,0,1.05,0.55c0.03,0.39-0.18,0.92-0.46,1.17c-0.4,0.34-0.96,0.55-1.49,0.69c-2.93,0.76-5.87,1.54-8.82,2.2
	c-3.51,0.78-6.98,1.61-10.08,3.52c-0.45,0.28-1.02,0.48-1.54,0.48c-1.34,0-2.48,0.51-3.64,1.09c-5.06,2.49-9.71,5.58-13.96,9.28
	c-2.18,1.9-4.06,4-4.96,6.82c-0.06,0.17-0.13,0.35-0.18,0.52c-0.16,0.6-0.51,1.01-1.16,0.94c-0.85-0.08-0.95-0.73-0.95-1.43
	c-0.03-0.2-0.05-0.39-0.03-0.17C121.72,116.92,121.78,117.12,121.83,117.33z M119.05,94.03c-0.05,0.32-0.1,0.63-0.14,0.95
	c0.06,0.01,0.13,0.01,0.19,0.02c-0.02-0.31-0.03-0.63-0.05-0.94c-0.36-0.57-0.72-1.13-1.4-2.19C117.83,93.28,118,93.98,119.05,94.03
	z M185.4,52.81l-0.13-0.01l0.05,0.17L185.4,52.81z M186.97,49.14l0.13-0.2l-0.18-0.04L186.97,49.14z M188.81,46.78
	c-0.04-0.07-0.07-0.13-0.11-0.2c-0.06,0.04-0.17,0.11-0.16,0.12c0.05,0.1,0.12,0.2,0.18,0.29
	C188.74,46.92,188.78,46.85,188.81,46.78z"/>
<path d="M337.8,217.18c-3.9,2.22-7.65,4.37-12.14,4.4c-0.06-0.37,0-1.38,0.11-1.73c-0.78,0.07-1.51,0.04-2.2,0.21
	c-4.25,1.04-8.57,1.16-12.88,0.84c-2.27-0.17-4.56-0.6-6.73-1.27c-1.54-0.48-2.91-1.52-4.32-2.37c-0.62-0.38-1.15-0.91-1.87-1.5
	c0.01-1.07-0.3-2.16-1.31-2.96c-0.36-0.28-0.62-0.68-0.91-1.04c-0.39-0.49-1.01-0.99-0.5-1.67c0.47-0.62,1.88-0.46,2.47,0.21
	c0.24,0.27,0.39,0.63,0.64,0.9c0.92,1.03,1.79,2.1,2.8,3.03c0.94,0.86,1.96,1.62,3.36,1.72c0.7,0.05,1.49,0.4,1.63,1.27
	c0.17,1.05,0.84,1.35,1.75,1.35c3.12,0.01,6.25,0.06,9.36-0.06c1.07-0.04,2.11-0.56,3.17-0.86c0.8-0.23,1.56-0.35,2.4,0.06
	c0.53,0.26,1.25,0.35,1.84,0.26c3.09-0.47,6.09-1.35,8.98-2.53c0.84-0.34,1.58-0.94,2.31-1.49c0.86-0.65,1.67-0.65,2.49,0.03
	c0.82-0.65,1.58-1.31,2.38-1.89c0.59-0.42,1.19-0.36,1.48,0.05c0.32,0.45,0.15,0.86-0.14,1.25c-0.17,0.22-0.35,0.43-0.53,0.63
	c-0.37,0.41-0.74,0.81-1.24,1.34c0.39,0.78,0.8,1.52,0.49,2.65c-1.12,4.15-1.97,8.38-2.92,12.58c-1.06,4.66-2.55,9.19-4.34,13.61
	c-1.27,3.14-2.8,6.19-4.21,9.27c-0.23,0.5-0.54,0.97-0.72,1.49c-2.25,6.66-5.94,12.61-9.31,18.71c-2.85,5.14-5.78,10.24-8.71,15.33
	c-0.69,1.19-1.51,2.3-2.27,3.46c-2.65,4.08-5.15,8.27-8.26,12.02c-1.75,2.11-3.52,4.22-5.65,6.01c-1.68,1.42-3.29,2.96-4.74,4.61
	c-2.83,3.2-6.1,5.81-9.78,7.95c-1.11,0.65-2.15,1.42-3.26,2.06c-0.21,0.12-0.77-0.02-0.92-0.22c-0.16-0.21-0.14-0.79,0.03-0.95
	c0.53-0.49,1.22-0.81,1.77-1.27c0.82-0.68,1.01-1.45,0.4-2.41c-0.44-0.69-0.47-1.3-0.37-2.07c0.4-3.3,0.48-6.61-0.01-9.9
	c-0.39-2.64-0.81-5.27-1.35-7.88c-0.87-4.12-3.13-7.4-6.35-10.06c-0.64-0.53-1.28-1.06-1.84-1.67c-1.36-1.47-3.08-2.32-4.97-2.83
	c-1.76-0.47-3.5-0.99-5.4-0.39c-1.1,0.35-1.7-0.3-1.75-1.48c-0.03-0.78,0.15-1.48,0.73-2c0.55-0.49,1.12-0.98,1.75-1.32
	c1.67-0.91,2.72-2.44,3.99-3.76c0.27-0.28,0.48-0.91,0.35-1.22c-0.45-1.09,0.07-1.67,0.96-1.83c1.03-0.18,1.6-0.8,2.2-1.51
	c2.07-2.46,4.14-4.93,5.52-8.02c-0.03-0.55-0.71-1.11-0.31-1.92c0.3-0.62,0.7-1.01,1.29-1.34c0.54-0.3,1.08-0.7,1.48-1.18
	c2.39-2.81,4.39-5.89,6.19-9.1c0.18-0.32,0.42-0.68,0.4-1.01c-0.09-1.8,0.89-3.22,1.83-4.52c1.65-2.27,2.63-4.85,3.69-7.38
	c1.13-2.7,1.97-5.53,2.9-8.32c0.23-0.69,0.39-1.42,0.47-2.14c0.13-1.16,0.53-2.09,1.56-2.77c0.41-0.27,0.75-0.81,0.89-1.29
	c0.49-1.68,0.86-3.38,1.31-5.07c0.23-0.87-0.14-1.61-0.37-2.4c-0.17-0.58,0.08-1.1,0.56-1.45c0.49-0.36,1.07-0.37,1.55-0.04
	c0.34,0.24,0.7,0.64,0.77,1.02c0.09,0.52-0.02,1.1-0.15,1.63c-1.78,7.32-3.71,14.61-6.5,21.6c-1.59,3.99-3.4,7.93-5.71,11.59
	c-0.63,1.01-1.11,2.05-1.42,3.24c-0.74,2.88-2.49,5.31-4.1,7.77c-2.41,3.7-5.21,7.1-8.21,10.35c-2.42,2.62-4.66,5.41-7.02,8.17
	c1.31,1.5,2.44,2.93,3.7,4.22c0.89,0.91,1.94,1.67,2.95,2.45c0.65,0.5,1.45,0.79,1.78,1.65c0.09,0.23,0.33,0.47,0.55,0.57
	c1.63,0.71,2.46,2.17,3.36,3.55c1.25,1.93,2.54,3.83,3.69,5.82c0.78,1.34,1.32,2.82,2.01,4.21c0.63,1.27,0.9,2.58,0.72,4
	c-0.07,0.53,0,1.12,0.18,1.63c1.14,3.26,0.71,6.52,0.08,9.79c-0.12,0.62-0.18,1.24-0.3,2.14c1.43-0.5,2.45-1.13,3.38-2
	c2.96-2.77,5.68-5.76,8.23-8.9c2.55-3.14,5.06-6.3,7.58-9.47c0.63-0.79,1.21-1.62,1.77-2.46c2.42-3.69,4.92-7.32,7.2-11.1
	c2.8-4.64,5.48-9.36,8.07-14.12c2.29-4.19,4.44-8.46,6.54-12.75c1.13-2.31,2.05-4.72,3-7.1c1.44-3.58,2.83-7.17,4.23-10.76
	c0.4-1.03,0.81-2.05,1.1-3.11c0.23-0.81,0.48-1.52,1.07-2.18c0.46-0.51,0.66-1.29,0.87-1.99c0.24-0.79,0.25-1.66,0.56-2.41
	c1.65-3.92,2.16-8.16,3.41-12.19C338.35,218.6,338.4,218.03,337.8,217.18z M328.37,218.93c-0.26,0.19-0.51,0.37-0.83,0.6
	c0.68,0.16,0.94-0.03,0.8-0.62c0.31,0.08,0.62,0.16,0.93,0.23c0.01-0.1,0.02-0.2,0.03-0.31C329,218.87,328.68,218.9,328.37,218.93z
	 M262.98,283.36c-0.61-0.95-1.02-1.68-1.99-1.49c-0.45,0.09-1,0.44-0.73,1.2C261.05,283.16,261.85,283.24,262.98,283.36z"/>
<path d="M108,323.32c0,0.62,0,1.08,0,1.68c0.97,0.87,2.21,1.48,3.42,2.08c1.65,0.81,3.34,1.54,5.04,2.21
	c5.55,2.19,11.08,4.41,16.67,6.47c3.36,1.24,6.8,2.24,10.23,3.27s6.87,2.01,10.34,2.91c4.7,1.22,9.38,2.54,14.22,3.12
	c0.99,0.12,1.96,0.4,2.93,0.6c0.06,0.44,0.1,0.79,0.17,1.29c0.27,0.07,0.6,0.19,0.93,0.24c4.9,0.71,9.81,1.44,14.72,2.09
	c1.36,0.18,2.75,0.16,4.13,0.19c1.29,0.03,2.58,0.01,3.76,0.53c0.29,0.61,0.03,1.52,1.14,1.52c4.14-0.01,8.29,0.3,12.4-0.03
	c3.45-0.28,6.93-0.81,10.23-2.03c0.74-0.27,1.48-0.55,2.7-1.01c-1.3-0.47-2.14-0.73-2.95-1.06c-0.85-0.35-1.67-0.77-2.5-1.15
	c-2.12-0.96-3.97-2.26-5.38-4.15c-0.77-1.03-1.74-1.91-2.46-2.97c-2.23-3.28-4.18-6.7-4.49-10.78c-0.11-1.37-0.03-2.69-0.91-3.93
	c-0.4-0.56-0.31-1.62-0.16-2.4c0.52-2.61,1.05-5.23,1.81-7.78c0.88-2.99,1.99-5.92,3.04-8.86c0.21-0.59,0.57-1.14,0.92-1.67
	c0.14-0.2,0.44-0.33,0.69-0.41c0.15-0.05,0.38,0.01,0.52,0.09c0.23,0.14,0.41,0.34,0.64,0.54c-0.07,0.28-0.06,0.6-0.21,0.78
	c-1.39,1.7-1.72,3.82-2.38,5.82c-0.03,0.09-0.05,0.18-0.06,0.27c-0.09,1.11,0.54,2.17-0.21,3.39c-0.58,0.95-0.55,2.29-0.73,3.47
	c-0.08,0.54-0.01,1.1-0.01,1.76c0.34,0.31,0.74,0.67,1.13,1.02c0.02,0.17,0.06,0.35,0.04,0.52c-0.22,1.82-0.46,3.64-0.68,5.46
	c-0.29,2.5,0.2,4.95,0.7,7.37c0.22,1.03,0.4,2.19,1.78,2.55c0.33,0.09,0.67,0.64,0.77,1.04c0.33,1.26,1.13,2.06,2.22,2.67
	c0.4,0.22,0.72,0.57,1.11,0.8c0.98,0.59,1.32,1.48,1.16,2.64c1.55,0.87,3.1,1.63,4.75,2.17c0.78,0.26,1.63,0.38,2.36,0.74
	c0.96,0.47,1.88,0.57,2.91,0.3c0.33-0.09,0.72,0.05,1.23,0.1c0.14,0.59,0.27,1.17,0.4,1.75c-1.6,1.24-3.47,1.47-5.16,2.14
	c-1.35,0.53-2.73,0.97-4.08,1.56c-2.09,0.93-4.41,1.2-6.72,1.3c-2.38,0.11-4.76,0.33-7.15,0.35c-2.38,0.03-4.77-0.12-7.15-0.21
	c-0.64-0.02-1.28-0.08-1.92-0.13c-0.91-0.07-1.74-0.17-2.56-0.79c-0.67-0.51-1.7-0.74-2.57-0.75c-4.15-0.04-8.22-0.74-12.31-1.28
	c-2.08-0.27-4.16-0.7-6.17-1.29c-0.98-0.29-1.93-0.49-2.94-0.58c-0.58-0.05-1.14-0.34-1.72-0.53c0.41-0.82,1.06-0.49,1.6-0.68
	c-0.14-0.07-0.24-0.15-0.36-0.17c-9.54-1.61-18.72-4.45-27.74-7.89c-1.03-0.39-2.08-0.72-3.13-1.03c-3.78-1.12-7.6-2.12-11.22-3.72
	c-1.09-0.48-2.19-0.96-3.24-1.51c-3.35-1.74-6.76-3.33-10.31-4.6c-2.99-1.07-5.5-2.92-7.96-4.85c-0.2-0.16-0.31-0.44-0.45-0.65
	c0.75-1.63,1.12-1.86,2.38-1.37c0.66,0.26,1.28,0.65,1.96,1.01c0.36-0.4,0.66-0.72,1.01-1.1c-0.44-0.29-0.84-0.47-1.14-0.76
	c-0.34-0.33-0.57-0.82-0.24-1.22c0.26-0.31,0.71-0.61,1.1-0.64c0.6-0.05,1.13,0.49,1.84,0.16c1.74-0.81,3.78-0.84,5.39-1.96
	c3.25-2.25,6.51-4.48,9.2-7.42c0.25-0.27,0.46-0.57,0.76-0.96c-0.48-0.03-0.86-0.05-1.38-0.09c0.45-1.43,1.41-2.41,2.33-3.41
	c2.19-2.36,3.92-5.07,5.66-7.76c0.53-0.81,0.64-1.9,0.96-2.92c0.37,0.07,0.7,0.13,1.15,0.21c1.56-2.02,2.45-4.42,3.34-6.82
	c0.28-0.76,0.14-1.44-0.21-2.12c-0.29-0.57-0.64-1.11-0.83-1.71c-0.19-0.59-0.21-1.24-0.29-1.79c0.39-0.59,0.85-0.48,1.25-0.26
	c0.88,0.5,1.74,1.02,2.59,1.58c3.77,2.49,8,4.09,11.99,6.17c0.4,0.21,0.88,0.26,1.31,0.4c1.92,0.64,3.86,1.21,5.73,1.96
	c2.73,1.1,5.49,2.12,8.37,2.77c5.45,1.23,10.89,2.62,16.45,3.25c3.92,0.45,7.89,0.49,11.84,0.72c0.89,0.05,1.87-0.22,2.54,0.74
	c-0.49,0.89-1.49,0.34-2.29,0.86c2.96,0.22,5.75,0.2,8.55-0.18c1.82-0.25,3.65-0.44,5.48-0.63c0.55-0.06,1.1-0.05,1.65-0.03
	c0.52,0.02,0.94,0.32,0.88,0.83c-0.05,0.4-0.38,0.79-0.64,1.14c-0.09,0.12-0.34,0.14-0.52,0.15c-3.29,0.23-6.58,0.46-9.88,0.68
	c-2.93,0.19-5.86,0.37-8.8,0.54c-0.99,0.06-1.94,0.18-2.8-0.71c-0.41-0.42-1.37-0.32-2.1-0.41c-2.55-0.29-5.12-0.5-7.67-0.85
	c-3.47-0.48-6.77-1.66-10.08-2.75c-4.36-1.44-8.73-2.86-12.99-4.54c-5.55-2.19-11.09-4.44-16.14-7.68
	c-0.44-0.28-0.96-0.46-1.42-0.68c-0.17,0.3-0.35,0.46-0.33,0.58c0.47,3.17-1,5.81-2.67,8.19c-2.04,2.9-3.23,6.16-4.75,9.29
	c-0.04,0.08-0.11,0.16-0.12,0.25c-0.2,3.02-2.47,4.78-4.22,6.82c-0.5,0.59-0.92,1.02-0.76,1.88c0.06,0.33-0.32,0.85-0.65,1.12
	c-0.98,0.82-1.99,1.62-3.07,2.3c-1.87,1.17-3.76,2.3-5.7,3.34c-1.2,0.65-2.47,1.3-3.78,1.6C111.24,321.42,109.62,322.17,108,323.32z
	 M170.98,348.2c-0.2,0.01-0.41,0.02-0.17,0.01c-0.2,0.04,0.02,0,0.25-0.05c0.58,1.08,1.83,0.47,2.64,1.03
	c0.27,0.18,0.73,0.11,0.66-0.46C173.24,348.54,172.12,348.36,170.98,348.2z M192.36,300.53c-0.15,0.03-0.3,0.06-0.45,0.09
	c0.11,0.05,0.22,0.14,0.32,0.14c0.12,0,0.23-0.1,0.34-0.15C192.51,300.58,192.44,300.56,192.36,300.53z M176.53,349.3l-0.2-0.1
	l-0.04,0.13L176.53,349.3z M180.55,349.72c-0.09,0-0.17,0-0.25,0c0.01,0.05,0.01,0.15,0.02,0.15c0.08,0.01,0.17,0,0.25,0
	C180.56,349.82,180.55,349.77,180.55,349.72z M193.21,352.45c-0.08,0-0.17,0-0.25,0c0.04,0.08,0.07,0.19,0.13,0.22
	c0.05,0.03,0.15-0.05,0.23-0.08C193.28,352.55,193.24,352.5,193.21,352.45z M184.57,350.42l0.02-0.13l-0.19,0.05L184.57,350.42z"/>
<path d="M328.43,148.3c0.15,0.72,0.35,1.43,0.43,2.16c0.03,0.21-0.2,0.61-0.39,0.67c-0.3,0.09-0.85,0.11-0.99-0.07
	c-1.28-1.71-3.22-1.99-5.09-2.41c-3.93-0.88-7.87-0.51-11.78,0.05c-0.98,0.14-1.91,0.63-2.86,0.95c-2.97,0.98-5.81,2.26-8.56,3.75
	c-1.09,0.59-1.97,1.31-2.67,2.31c-0.63,0.9-1.37,1.74-1.95,2.68c-0.52,0.84-1.03,1.65-0.86,2.81c0.15,1-0.82,1.39-1.7,0.84
	c-0.59-0.37-0.81-0.9-1.07-1.52c-1.77-4.34-3.48-8.7-5.44-12.95c-2.77-6.03-6.3-11.63-10.16-17.03c-1.02-1.42-2.02-2.85-2.9-4.36
	c-2.15-3.68-4.9-6.86-7.97-9.8c-4.64-4.46-9.2-8.99-13.78-13.5c-0.58-0.57-1.12-1.18-1.23-1.98c0.5-0.51,0.94-0.36,1.31-0.06
	c1.07,0.87,2.09,1.79,3.16,2.66c1.48,1.21,2.78,2.61,4.57,3.49c1.18,0.58,2.11,1.74,3.02,2.77c3.85,4.32,7.86,8.53,11.42,13.08
	c4.3,5.49,8.59,11.03,11.43,17.5c0.48,1.09,1.13,2.1,1.64,3.18c1.56,3.32,3.1,6.65,4.62,9.99c0.26,0.58,0.37,1.23,0.61,1.82
	c0.23,0.57,0.53,1.11,0.78,1.63c1.77-0.42,1.05-1.79,1.23-2.55c1.86-1.52,3.47-3.04,5.28-4.26c2.28-1.53,4.75-2.79,7.48-3.37
	c0.79-0.17,1.63-0.07,2.45-0.08c0.79-0.01,1.58,0,2.67,0c-0.71-0.2-1.13-0.33-1.57-0.45c0.14-0.3,0.18-0.55,0.3-0.59
	c3.62-1.37,7.28-1.34,11.08-0.77c4.58,0.68,8.88,2.09,12.99,4.04c1.23-1.4,1.28-2.72,0.56-4.33c-0.7-1.58-0.98-3.34-1.46-5.01
	c-0.49-1.69-1.12-3.27-2.45-4.55c-0.56-0.54-0.85-1.4-1.15-2.16c-1.13-2.91-2.21-5.84-3.33-8.75c-0.33-0.85-0.73-1.68-1.12-2.51
	c-1.18-2.59-2.37-5.18-3.56-7.77c-1.19-2.6-2.66-5.02-4.6-7.16c-0.92-1.01-1.73-2.15-2.41-3.33c-1.32-2.27-3.14-4.06-5.09-5.75
	c-1.3-1.13-1.38-1.06-1.7-2.35c0.37-0.46,0.83-0.4,1.2-0.09c3.25,2.71,6.39,5.5,9,8.89c3.85,5.01,6.41,10.7,9.22,16.28
	c3.64,7.23,6.78,14.65,9.15,22.39c0.4,1.31,0.84,2.61,1.3,3.91c0.74,2.08,0.75,2.08,0.12,4.23c0.69,0.53,1.43,1.07,2.13,1.66
	c0.34,0.29,0.65,0.65,0.89,1.03c0.36,0.56,0.13,1.41-0.4,1.7c-0.57,0.31-1.51,0.13-1.65-0.48c-0.45-2.04-2.27-2.56-3.73-3.37
	c-2.08-1.15-4.3-2.05-6.47-3.06c-0.18-0.02-0.34-0.05-0.5-0.08C328.06,148.24,328.25,148.27,328.43,148.3z"/>
<path d="M62.31,126c0.09-1.45,0.08-2.83,0.29-4.18c0.56-3.56,1.87-6.9,3.11-10.27c0.32-0.86,0.64-1.73,1.07-2.54
	c1.47-2.83,3.51-4.96,6.92-5.19c1.07-0.07,1.96-0.42,2.76-1.07c1.66-1.35,3.67-2.06,5.55-3.01c1.17-0.59,2.35-0.92,3.64-0.11
	c0.47,0.3,1.24,0.23,1.86,0.17c2.23-0.23,4.39,0.33,6.55,0.7c1.6,0.27,3.11,1,4.37,2.18c1.27,1.19,2.68,2.23,3.59,3.77
	c0.23,0.39,0.57,0.73,0.91,1.03c2.48,2.18,3.95,5.04,5.35,7.94c0.24,0.49,0.43,1.03,0.54,1.56c0.71,3.6,1.42,7.21,1.72,10.88
	c0.1,1.2,0.22,2.39-1.09,3.17c-0.29,0.17-0.39,0.79-0.45,1.22c-0.41,3.07-1.49,5.86-3.39,8.32c-0.79,1.02-1.52,2.08-2.34,3.07
	c-0.7,0.85-1.42,1.61-2.72,1.63c-0.49,0.01-1.02,0.66-1.44,1.11c-0.99,1.08-1.89,2.2-3.17,3.03c-2.1,1.37-4.47,1.74-6.81,1.91
	c-3.1,0.23-6.27,0.29-9.23-1.03c-2.34-1.04-4.7-2.06-6.98-3.23c-0.87-0.45-1.65-1.19-2.27-1.97c-1.78-2.22-3.7-4.33-5.01-6.9
	c-0.5-0.98-1.08-1.94-1.77-2.79c-1.92-2.35-2.71-5.18-3.63-7.97c-0.23-0.69,0.13-1.13,0.97-1.32
	C61.57,126.03,61.93,126.03,62.31,126z M67.18,114.41c0.85,0.11,1.07-0.54,1.37-1.11c1.09-2.11,2-4.33,3.53-6.19
	c0.07-0.09-0.02-0.31-0.04-0.47c-0.17,0.01-0.38-0.04-0.49,0.05c-1.67,1.37-2.9,3.04-3.47,5.16c-0.24,0.88-0.59,1.73-0.88,2.62
	c-0.02,0.97-0.05,1.94-0.07,2.91c-1.05,0.94-1.18,2.23-1.19,3.49c-0.04,2.85-0.17,5.71,0.06,8.54c0.31,3.82,1.97,7.22,3.95,10.46
	c0.28,0.46,0.74,0.81,1.16,1.16c1.97,1.66,3.93,3.31,5.93,4.94c0.64,0.52,1.31,1.03,2.05,1.38c1.85,0.87,3.68,2.04,5.81,0.52
	c0.44-0.31,1.25-0.15,1.89-0.15c1.75,0.01,3.49,0.12,5.23,0.06c1.59-0.05,3.01-0.61,4.21-1.76c1.99-1.92,3.92-3.87,5.5-6.15
	c0.86-1.24,1.88-2.23,3.29-2.4c1.59-2.68,2.01-5.47,2.09-8.39c0.76-0.12,1.37-0.21,2.13-0.32c-0.19-1.41-0.37-2.86-0.57-4.31
	c-0.38-2.83-1.2-5.57-2.23-8.21c-1.44-3.67-4.21-6.43-6.83-9.26c-0.48-0.52-1.2-0.84-1.83-1.21c-0.22-0.13-0.61-0.25-0.76-0.14
	c-1.04,0.72-1.71-0.02-2.45-0.53c-1.62-1.11-3.37-1.88-5.37-1.91c-2.21-0.03-4.41,0.06-6.45,1.08c-1.64,0.82-3.32,1.56-4.9,2.47
	c-1.18,0.68-2.16,1.73-3.36,2.37c-1.8,0.97-2.89,2.42-3.63,4.27c-0.48,1.19-1.11,2.32-1.69,3.46c-0.33,0.65-0.67,1.32-1.68,1.42
	c-0.11-0.3-0.23-0.62-0.36-0.96C67.13,116.34,67.16,115.37,67.18,114.41z"/>
<path d="M235.04,84.81c-0.64,0.21-1.29,0.13-1.82,0.84c-1.53,2.04-3.65,2.96-6.24,2.83c-0.81-0.04-1.64,0.14-2.45,0.29
	c-4.05,0.73-7.69-0.07-10.72-2.94c-1.8-1.7-3.46-3.54-5.18-5.33c-0.63-0.65-1.17-1.33-2.19-1.54c-1.13-0.23-1.79-1.17-2.32-2.19
	c-1.55-2.99-2.43-6.13-2.38-9.52c0.02-1.47-0.12-2.95-0.01-4.41c0.14-1.98,0.04-3.95,1.33-5.78c0.97-1.38,1.36-3.19,2-4.8
	c0.29-0.73,0.79-1.25,1.53-1.48c0.29-0.09,0.66,0.06,1.15,0.13c-0.97,2.03-2.17,3.78-2.26,6.01c0.68-0.06,0.66-0.73,0.97-1.08
	c0.3-0.34,0.48-0.78,0.71-1.17c1.61-2.71,3.53-5.14,6.21-6.89c0.33-0.22,0.64-0.68,0.7-1.06c0.2-1.38,1.18-2.07,2.26-2.56
	c2.62-1.17,5.34-1.69,8.26-1.47c2.09,0.16,4.13,0.76,6.27,0.61c1.29-0.09,2.57,0.36,3.65,1.08c2.44,1.63,4.82,3.34,7.21,5.04
	c0.69,0.49,1.06,1.17,1.36,2c0.55,1.55,1.2,3.08,1.97,4.53c1.6,3.01,2.35,6.17,1.98,9.56c-0.21,1.9-0.44,3.81-0.83,5.68
	c-0.2,0.96-0.64,1.96-1.23,2.74c-2.86,3.82-5.81,7.57-8.74,11.34c-0.22,0.29-0.45,0.61-0.75,0.79c-0.28,0.17-0.68,0.23-1,0.18
	c-0.14-0.02-0.31-0.44-0.3-0.67C234.18,85.05,234.46,84.72,235.04,84.81c-0.12-0.84,0.91-1.44,0.47-2.32
	c0.12,0.03,0.24,0.05,0.36,0.08c-0.07,0.03-0.16,0.09-0.21,0.07c-0.06-0.03-0.08-0.13-0.12-0.21
	C235.47,83.24,234.67,83.91,235.04,84.81z M204.2,63.59c-0.06,0.78,0.89,1.03,0.27,1.7c-0.65,0.7-0.52,1.52-0.17,2.32
	c0.86,2,1.69,4.01,2.59,5.99c1,2.21,2.55,4.06,4.31,5.67c2.09,1.9,4.29,3.73,6.62,5.31c1.32,0.9,2.91,1.45,4.66,1.43
	c4.13-0.03,4.13,0.03,7.7-2.25c0.77-0.5,1.51-1.05,2.27-1.56c1.1-0.73,1.87-1.7,2.47-2.89c1.4-2.78,3.11-5.41,3.8-8.53
	c0.14-0.64,0.79-1.18,1.24-1.74c0.19-0.23,0.89,0.06,0.87,0.35c-0.02,0.45-0.01,0.93-0.16,1.35c-0.54,1.56-1.15,3.09-1.69,4.65
	c-0.13,0.36-0.08,0.79-0.15,1.64c1.45-1.45,2.37-2.67,2.85-4.18c0.55-1.75,1.11-3.5,1.67-5.25c0.4-1.27,0.3-2.54,0-3.81
	c-0.25-1.04-1-1.71-1.75-2.4c-0.44-0.41-0.54-1.08-0.17-1.5c0.31-0.35,0.94-0.62,1.4-0.59c0.54,0.03,1.06,0.43,1.96,0.84
	c-0.4-1.12-0.59-1.91-0.95-2.63c-0.49-0.98-1.11-1.9-1.68-2.85c-1.49-2.48-3.33-4.64-5.93-6c-3.01-1.56-5.99-3.27-9.59-2.84
	c-0.35,0.04-0.75-0.02-1.09-0.12c-1.92-0.6-3.65,0-5.28,0.9c-2.1,1.16-3.95,2.67-5.59,4.44c-1.74,1.89-3.33,3.96-5.28,5.61
	c-1.74,1.47-2.85,3.27-3.99,5.13C205.04,62.4,204.6,62.99,204.2,63.59z"/>
<path d="M115.56,265.99c1.75,0.49,2.43,2.17,3.89,2.73c-1-2.02-2.27-3.55-4.21-5.04c-0.66-0.5-1.37-0.94-1.99-1.48
	c-0.33-0.28-0.77-0.77-0.72-1.09c0.16-0.94-0.39-1.29-0.99-1.75c-4.01-3.05-8.57-4.44-13.54-4.76c-0.08,1.61-0.15,1.72-1.21,1.63
	c-1.01-0.08-2.01-0.19-3.01-0.37c-2.24-0.41-4.4,0.09-6.53,0.64c-0.84,0.21-1.78,0.53-2.23,1.46c0.84,1.35,0.87,1.37,0.09,2.29
	c-1.2,1.42-1.84,3.14-2.64,4.78c-0.28,0.57-0.39,1.24-0.7,1.79c-0.21,0.37-0.63,0.86-0.96,0.87c-1.39,0.01-1.63,0.94-1.82,1.98
	c-0.02,0.09-0.06,0.18-0.07,0.27c-0.33,2.91-0.94,5.79-0.89,8.75c0.02,1.36,0.38,2.71-0.06,4.09c-0.18,0.57,0,1.28,0.08,1.92
	c0.92,6.88,3.95,12.58,9.61,16.71c2.07,1.51,4.19,3,6.65,3.88c0.6,0.22,1.2,0.49,1.83,0.56c2,0.23,4.01,0.41,6.02,0.54
	c4.6,0.3,8.67-1.16,12.38-3.81c0.52-0.37,1.06-0.72,1.63-0.99c0.17-0.08,0.58,0.08,0.69,0.26c0.11,0.17-0.01,0.49-0.06,0.75
	c-0.01,0.08-0.1,0.16-0.17,0.21c-4.63,3.5-9.4,6.54-15.64,5.08c-0.36-0.08-0.74-0.17-1.09-0.12c-3.67,0.43-7.09-0.78-10.5-1.77
	c-3.91-1.14-7.55-2.89-10.53-5.77c-0.26-0.26-0.52-0.52-0.74-0.81c-0.11-0.14-0.13-0.33-0.19-0.5c0.83-0.99,1.03-1.06,1.67-0.52
	c0.45,0.38,0.88,0.77,1.39,1.22c0.07-0.29,0.13-0.41,0.1-0.45c-2.24-3.07-3.39-6.7-5.16-10.01c-0.31-0.59-0.56-1.22-0.19-1.83
	c0.47-0.8,0.3-1.58,0.15-2.4c-0.81-4.19-0.78-8.41-0.3-12.64c0.07-0.63,0.2-1.29,0.46-1.87c0.79-1.75,1.66-3.46,2.49-5.19
	c0.79-1.65,1.62-3.29,2.35-4.97c1.26-2.87,3.29-4.78,6.37-5.61c1.95-0.52,3.89-1.13,5.75-1.9c2.78-1.14,5.56-1.12,8.31-0.17
	c3.81,1.32,7.62,2.67,10.86,5.19c0.86,0.67,1.77,1.32,2.51,2.12c2,2.16,3.97,4.34,5.83,6.61c0.92,1.12,1.57,2.46,2.32,3.72
	c0.19,0.31,0.41,0.68,0.39,1.01c-0.11,1.97,1,3.47,1.81,5.11c1.71,3.47,3.13,7.05,3.59,10.94c0.14,1.18,0.15,2.39,0.06,3.57
	c-0.08,1.02-0.51,1.22-2.05,1.18c-0.57-1.81,0.68-3.76-0.39-5.66c-0.15,1.17-0.2,2.26-0.45,3.31c-0.79,3.26-2.79,5.75-5.23,7.92
	c-0.89,0.79-1.9,1.44-2.89,2.11c-1.06,0.72-2.09,1.63-3.27,2c-1.36,0.42-2.87,0.4-4.33,0.47c-2.58,0.12-5.15,0.05-7.67-0.61
	c-0.5-0.13-0.96-0.42-1.68-0.75c0.76-0.63,1.38-0.5,1.93-0.38c3.29,0.71,6.57,0.58,9.83-0.12c2.73-0.58,4.86-2.02,6.42-4.38
	c1.82-2.75,3.57-5.54,5.04-8.89c-0.55-0.47-1.16-0.99-1.85-1.58c0.32-1.41,1.46-0.79,2.49-0.78c0.36-0.95-0.37-2.16,0.49-3.05
	c0.07-0.08-0.04-0.35-0.1-0.52c-0.89-2.82-2.09-5.48-4.07-7.73c-1.4-1.59-2.83-3.15-4.22-4.73c-0.42-0.48-0.84-0.98-1.15-1.53
	C115.38,266.85,115.53,266.45,115.56,265.99z"/>
<path d="M323.48,157.02c-0.64,1.27-1.89,0.82-2.86,1.09c-1.03,0.29-2.06,0.6-3.04,1.24c1.32,0.02,2.64,0.05,3.95,0.06
	c3.14,0.04,5.94,0.99,8.34,3.06c0.83,0.72,1.71,1.38,2.54,2.11c0.48,0.42,1.09,0.83,1.32,1.38c0.99,2.35,3.03,3.86,4.46,5.86
	c1.5,2.1,3.03,4.14,3.39,6.8c0.06,0.43,0.37,0.83,0.57,1.24c0.61,1.33,1.34,2.62,1.82,3.99c1.36,3.95,0.79,7.8-0.98,11.48
	c-0.5,1.05-1.33,2.01-2.2,2.8c-1.98,1.8-4.25,3.19-6.78,4.12c-0.43,0.16-0.92,0.48-1.3,0.38c-1.49-0.4-2.61,0.37-3.87,0.89
	c-2.97,1.21-6,2.27-9.02,3.36c-1.11,0.4-2.26,0.48-3.4,0.38c-0.04-0.27-0.08-0.43-0.05-0.44c1.05-0.46,2.11-0.92,3.4-1.47
	c-0.71-0.61-1.46-0.47-2.08-0.69c-0.78-0.28-1.58-0.49-2.36-0.76c-0.69-0.24-1.38-0.51-2.06-0.78s-1.36-0.52-2.02-0.85
	c-0.74-0.37-1.46-0.78-2.15-1.22c-0.61-0.39-1.18-0.84-1.85-1.33c0.12-0.68,0.23-1.29,0.35-1.97c0.52,0,0.94,0,1.43,0
	c-0.12-0.22-0.16-0.41-0.27-0.48c-2.03-1.25-4.26-2.22-5.84-4.08c-0.76-0.9-1.38-1.92-2.01-2.92c-0.19-0.3-0.38-0.74-0.31-1.04
	c0.5-1.94-0.54-3.76-0.35-5.66c0.13-1.37,0.25-2.74,0.43-4.1c0.19-1.46,0.5-2.9,0.64-4.36c0.21-2.22,0.77-4.33,1.74-6.34
	c0.47-0.96,0.74-2.16,2.24-1.9c0.54-0.61,1.12-1.18,1.6-1.83c0.41-0.56,0.97-1.12,0.35-1.96c-0.14-0.19,0.17-0.92,0.47-1.16
	c0.48-0.4,1.11-0.62,1.69-0.88c1.34-0.59,2.73-1.09,4.01-1.77c2.38-1.26,4.98-1.81,7.56-2.44
	C321.78,156.64,322.61,156.53,323.48,157.02z M336.04,198.42c-0.28,0.48-0.56,0.96-0.84,1.44c-0.63,0.3-1.26,0.6-1.89,0.89
	c-0.23,0.26-0.45,0.52-0.71,0.82c0.69,0.01,0.59-0.49,0.68-0.84c0.9,0.24,1.52-0.07,1.87-0.93c0.91-0.03,0.78-0.74,0.86-1.31
	c0.13-0.01,0.26-0.02,0.39-0.04c-0.02,0.07-0.05,0.13-0.07,0.2C336.23,198.58,336.14,198.5,336.04,198.42z M341.31,182.8
	c-0.09-0.16-0.18-0.33-0.27-0.49c-0.01,0.06-0.05,0.17-0.03,0.19c0.12,0.09,0.25,0.16,0.38,0.23c0.12,0.99,0.19,2,0.37,2.98
	c0.26,1.37,0.2,2.69-0.03,4.07c-0.42,2.53-1.65,4.61-3.16,6.58c-0.2,0.27-0.56,0.54-0.01,1.02c0.45-0.37,1.03-0.67,1.37-1.15
	c2.09-2.85,2.88-6.08,2.53-9.58C342.33,185.32,342.24,183.93,341.31,182.8z M333.02,169.12c-0.38-0.45-0.53-0.69-0.74-0.86
	c-2.25-1.87-4.49-3.76-6.78-5.58c-0.48-0.38-1.14-0.61-1.75-0.73c-1.98-0.41-3.99-0.52-6.02-0.53c-1.87-0.01-3.66-0.03-4.92,1.66
	c-0.1,0.14-0.3,0.2-0.46,0.31c-3.55,2.32-6.25,5.34-7.82,9.33c0.26,0.4,0.5,0.76,0.85,1.3c-0.41,0.9-0.83,1.91-1.31,2.88
	c-0.63,1.28-0.84,2.54-0.52,3.99c0.27,1.23,0.44,2.59,0.21,3.8c-0.45,2.3,0.06,4.31,1.17,6.25c0.41,0.71,0.91,1.37,1.42,2.02
	c0.73,0.94,1.51,1.8,2.57,2.44c3.12,1.91,6.1,4.06,9.67,5.12c0.12,0.04,0.24,0.26,0.27,0.41c0.14,0.71,0.74,0.77,1.26,0.83
	c1.18,0.14,2.38,0.19,3.57,0.3c2.95,0.27,5.33-0.95,7.56-2.72c2.06-1.64,3.85-3.66,6.32-4.76c0.16-0.07,0.31-0.22,0.4-0.37
	c1.12-1.82,2.05-3.83,1.95-5.93c-0.12-2.55-0.58-5.13-1.77-7.46c-1.59-3.1-2.74-6.44-5.01-9.16
	C332.44,170.82,332.44,170.03,333.02,169.12z M337.06,173.99c0.23,0.49,0.34,0.78,0.49,1.06c0.21,0.4,0.46,0.77,0.67,1.17
	c0.17,0.32,0.29,0.66,0.43,0.99c0.15,0.37,0.13,0.9,0.95,0.75c-0.63-1.26-1.21-2.45-1.82-3.63
	C337.72,174.22,337.49,174.19,337.06,173.99z"/>
<path d="M47.3,236.21c0.36,0.04,0.72,0.08,1.23,0.14c0.07,0.41,0.22,0.84,0.22,1.27c-0.03,5.62,1.43,10.85,3.79,15.93
	c1.47,3.16,2.78,6.4,4.61,9.38c0.58,0.93,1.25,1.81,1.85,2.73c0.2,0.3,0.43,0.64,0.45,0.97c0.02,0.32-0.11,0.77-0.34,0.95
	c-0.22,0.17-0.76,0.21-0.99,0.06c-0.53-0.35-1.01-0.81-1.4-1.3c-0.53-0.66-1.07-1.17-1.97-1.35c-0.96-0.2-1.43-1.06-1.92-1.86
	c-1.2-1.99-1.87-4.2-2.56-6.38c-0.77-2.45-1.39-4.95-2-7.45c-1.27-5.18-2.56-10.35-3.71-15.55c-1.17-5.3-2.04-10.64-2.24-16.09
	c-0.14-3.67-0.66-7.32-0.86-10.99c-0.31-5.59-0.9-11.19-0.25-16.8c0.41-3.47,0.94-6.94,1.07-10.42c0.19-5.01,1.7-9.75,2.57-14.62
	c0.58-3.23,1.98-6.31,2.84-9.5c0.96-3.56,3.04-6.67,4.03-10.22c0.09-0.33,0.3-0.77,0.58-0.89c0.82-0.37,0.94-0.95,0.93-1.77
	c0-0.55,0.91-0.83,1.29-0.43c0.36,0.39,0.67,0.86,0.93,1.33c0.54,0.96,1.01,1.96,1.54,2.92c0.59,1.07,1.4,1.9,2.5,2.49
	c0.72,0.38,1.39,0.89,2.01,1.43c3.67,3.21,7.68,5.97,12.14,7.92c4.76,2.08,9.72,3.36,14.98,1.94c0.69-0.19,1.42-0.23,2.26-0.36
	c0.32,0.6,0.6,1.14,0.88,1.67c-1.43,1.94-3.31,2.65-5.55,2.74c-3.35,0.13-6.56-0.66-9.77-1.42c-0.89-0.21-1.76-0.51-2.64-0.78
	c-0.26-0.08-0.63-0.09-0.76-0.27c-1.03-1.47-2.81-1.66-4.2-2.48c-3.57-2.11-6.93-4.47-9.85-7.46c-1.29-1.32-2.52-2.66-3.59-4.16
	c-0.36-0.5-0.82-0.93-1.3-1.48c-1.12,1.15-1.69,2.39-1.99,3.72c-0.42,1.9-0.84,3.77-2.11,5.32c-0.22,0.27-0.34,0.65-0.45,1
	c-0.85,2.9-1.7,5.8-2.53,8.7c-0.12,0.43-0.33,1.02-0.15,1.34c0.8,1.4,0.06,2.65-0.19,3.97c-0.8,4.14-1.93,8.23-1.89,12.49
	c0,0.45-0.07,0.92-0.23,1.34c-1.13,2.89-1.03,5.96-1.27,8.96c-0.21,2.65-0.12,5.33-0.07,8c0.03,1.55,0.25,3.11,0.38,4.66
	c0.13,1.54,0.51,3.08-0.17,4.61c-0.17,0.39-0.12,0.91-0.07,1.36c0.34,3.19,0.63,6.4,1.07,9.58c0.61,4.36,1.28,8.72,2.62,12.94
	C47.27,234.73,47.23,235.49,47.3,236.21z M75.23,160.84c0,0.04-0.01,0.09-0.01,0.13c0.29,0,0.59,0,0.88,0c0-0.04,0-0.09,0-0.13
	C75.81,160.84,75.52,160.84,75.23,160.84z"/>
<path d="M222.6,305.85c-0.26-0.72-0.57-1.14-0.5-1.47c0.2-0.92,0.81-1.62,1.51-2.25c0.68-0.61,1.37-1.22,2-1.89
	c1.02-1.07,1.98-2.15,3.6-2.36c0.5-0.06,0.94-0.54,1.4-0.84c2.89-1.87,5.92-3.17,9.44-3.46c2.47-0.2,4.93-0.43,7.41-0.51
	c2.53-0.09,4.92,0.48,7.3,1.18c0.78,0.23,1.51,0.65,2.25,1c0.82,0.4,1.61,0.88,2.45,1.24c1.7,0.72,3.28,1.6,4.65,2.88
	c0.65,0.61,1.53,1,2.36,1.37c1.31,0.6,2.29,1.46,2.85,2.83c0.31,0.76,0.8,1.44,1.17,2.17c0.45,0.9,0.85,1.82,1.26,2.73
	c1.34,2.97,0.94,6.08,0.67,9.17c-0.06,0.62-0.3,1.23-0.5,1.83c-0.28,0.87-0.67,1.72-0.88,2.6c-0.3,1.28-0.78,2.38-1.8,3.3
	c-0.66,0.6-1.03,1.51-1.54,2.27c-1,1.53-1.84,3.2-3.05,4.55c-1.34,1.48-2.87,2.88-4.57,3.92c-2.33,1.42-4.79,2.66-7.37,3.66
	c-2.18,0.84-4.45,1.04-6.68,1.55c-0.8,0.19-1.62,0.3-2.44,0.41c-0.45,0.06-0.98,0.22-1.35,0.05c-1.33-0.62-2.71-0.39-4.08-0.43
	c-2.75-0.08-5.5-0.18-8.13-0.76c-0.71-0.83-0.17-1.34,0.43-1.9c-0.98-0.42-1.97-0.7-2.81-1.22c-3.14-1.9-5.97-4.24-8.8-6.56
	c-0.41-0.34-0.69-0.86-0.97-1.33c-2.79-4.6-3.97-9.47-2.25-14.75c0.88-2.71,2.11-5.28,3.81-7.59c0.3-0.4,0.82-0.75,1.31-0.87
	c0.35-0.09,0.88,0.15,1.19,0.4c0.13,0.11,0.03,0.74-0.16,0.97c-1.42,1.71-2.49,3.63-3.32,5.66c-0.83,2.05-1.47,4.16-1.29,6.42
	c0.04,0.46-0.08,1.12,0.17,1.33c1.49,1.29,0.64,3.33,1.72,4.8c1.26,1.7,2.34,3.51,4.16,4.7c0.3,0.2,0.59,0.45,0.81,0.74
	c1.85,2.49,4.58,3.22,7.42,3.64c1.74,0.26,1.75,0.17,2.09,2.1c3.59,0.74,7.2,1.42,10.9,1.24c2.95,0.85,5.53-0.72,8.26-1.3
	c0.57-0.12,1.23-0.58,1.53-1.07c0.66-1.09,1.62-1.69,2.7-2.25c3.08-1.57,5.58-3.88,7.79-6.48c1-1.18,1.63-2.67,2.57-3.9
	c1.74-2.26,2.37-4.92,2.86-7.62c0.4-2.21,0.03-4.24-1.12-6.33c-1.72-3.12-3.9-5.75-6.6-8c-0.7-0.58-1.47-1.11-2.27-1.54
	c-1.69-0.9-3.42-1.72-5.12-2.59c-3.38-1.71-6.9-2.26-10.65-1.56c-2.25,0.42-4.55,0.53-6.81,0.89c-2.01,0.32-3.91,0.97-5.52,2.31
	c-0.49,0.4-1.08,0.71-1.67,0.94c-1.91,0.75-3.57,1.85-4.97,3.35C224.64,304.08,223.78,304.77,222.6,305.85z M233.88,339.34
	c-0.15-0.05-0.29-0.12-0.44-0.15c-0.07-0.01-0.16,0.04-0.24,0.07c0.15,0.05,0.29,0.11,0.44,0.14
	C233.71,339.41,233.8,339.37,233.88,339.34z"/>
<path d="M101.06,238.66c-0.32,0.69-0.55,1.41-0.03,2.24c0.68,1.08,1.25,2.24,1.86,3.37c0.17,0.32,0.4,0.63,0.48,0.97
	c0.13,0.54,0.14,1.11-0.37,1.5c-0.54,0.42-1.04,0.24-1.46-0.19c-0.47-0.48-0.9-0.87-1.67-0.5c-0.2,0.1-0.68-0.18-0.91-0.4
	c-1.3-1.25-2.88-1.15-4.38-0.76c-0.78,0.2-1.35,0.18-2.08-0.06c-0.86-0.28-1.79-0.32-2.68-0.46c-1,1.33-2.18,0.25-3.29,0.26
	c-1.56,0-3.11,0.08-4.65,0.12c-0.46,0.56-0.85,1.04-1.25,1.53c-0.41,0.03-0.78,0.11-1.14,0.09c-1.97-0.14-3.79,0.14-5.52,1.29
	c-0.95,0.63-2.17,0.83-3.21,1.45c-3.05,1.8-5.07,4.46-6.63,7.54c-0.86,1.71-1.47,3.58-3.16,4.76c-0.22,0.15-0.2,0.65-0.31,0.99
	c-0.48,1.39-1.33,1.66-2.48,0.75c-0.27-0.22-0.45-0.56-0.69-0.87c1.43-2.91,2.84-5.78,4.26-8.64c0.65-1.31,1.3-2.59,3.03-2.83
	c0.48-0.07,0.89-0.62,1.32-0.96c2.02-1.6,4.2-2.94,6.44-4.23c3.6-2.09,7.53-2.88,11.57-3.2c3.86-0.31,7.7-0.01,11.5,0.78
	c1.41,0.29,2.86,0.37,4.4,0.55c0.3-0.6-0.12-1.14-0.37-1.68c-1.83-4.01-3.75-7.98-5.5-12.03c-1.46-3.38-2.47-6.92-3.36-10.48
	c-0.09-0.35-0.23-0.77-0.12-1.07c0.34-0.95,0.01-1.84-0.23-2.69c-1.51-5.23-2.41-10.57-2.96-15.96c-0.31-3.1-0.36-6.24-0.28-9.36
	c0.13-4.96,0.66-9.89,1.59-14.78c0.74-3.88,1.74-7.7,2.99-11.45c0.09-0.26,0.23-0.5,0.33-0.76c0.28-0.67,0.45-1.47,1.27-1.68
	c1.01-0.26,1.08,0.7,1.51,1.24c0.31,0.39,0.84,0.61,1.18,0.84c0.03,0.36,0.12,0.58,0.05,0.72c-2.13,4.31-3.35,8.9-4.41,13.56
	c-0.63,2.78-0.99,5.6-1.36,8.42c-0.26,1.96,0.08,3.85,0.49,5.74c0.24,1.1,0.66,2.19-0.9,2.72c-0.24,0.08-0.44,0.58-0.48,0.91
	c-0.09,0.72-0.15,1.47-0.06,2.19c0.36,2.73,0.82,5.45,1.17,8.18c0.33,2.57,1,5.04,1.94,7.44c0.28,0.71,0.59,1.41,0.27,2.11
	c-0.4,0.87-0.09,1.63,0.14,2.41c1.65,5.64,3.62,11.17,5.98,16.56C99.42,236.08,100.22,237.21,101.06,238.66z"/>
<path d="M129.45,35.55c-2.04-0.01-3.82-0.62-5.43-1.81c-1.7-1.25-3.53-2.28-5.07-3.77c-3.35-3.25-3.24-8.7,0.43-11.95
	c3.3-2.92,6.87-3.52,10.96-2.03c3.11,1.13,5.71,2.94,7.67,5.58c1.39,1.86,1.71,4.04,0.97,6.26c-0.46,1.38-1.12,2.71-1.73,4.04
	c-0.69,1.52-1.95,2.46-3.5,2.89C132.36,35.14,130.89,35.3,129.45,35.55z M121.78,22.7c-0.36,2.8,1.19,4.49,2.99,5.9
	c1.76,1.38,3.98,1.83,6.16,2.07c2.56,0.29,4.39-1.65,4.13-4.22c-0.06-0.62-0.18-1.32-0.52-1.83c-1.13-1.73-2.64-3.16-4.72-3.45
	C127.09,20.79,124.35,20.96,121.78,22.7z M128.38,32.66c-0.02,0.09-0.03,0.19-0.05,0.28c0.4,0.09,0.79,0.18,1.19,0.25
	c0.04,0.01,0.13-0.11,0.14-0.18c0.01-0.07-0.05-0.2-0.1-0.2C129.17,32.74,128.78,32.7,128.38,32.66z M124.22,31.18l0.17-0.06
	l-0.17-0.07V31.18z"/>
<path d="M23.69,214.6c-0.49-0.07-0.93-0.13-1.15-0.16c-1.23,1.03-2.3,2.03-3.48,2.88s-2.51,1.09-3.9,0.41
	c-0.49-0.24-1.04-0.38-1.51-0.65c-2.65-1.53-4.98-3.49-6.87-5.86c-2.05-2.58-2.67-5.59-1.83-8.83c0.16-0.62,0.39-1.22,0.58-1.84
	c1-3.16,3.6-4.92,6.89-4.59c0.91,0.09,1.81,0.31,2.69,0.55c1.23,0.34,2.48,0.68,3.65,1.18c3.46,1.45,6.03,3.84,7.17,7.49
	c0.28,0.91,0.22,2.03,0,2.98c-0.43,1.87-1.07,3.69-1.66,5.52C24.16,214.01,23.89,214.29,23.69,214.6z M19.24,203.08
	c-1.23,0.48-2.07-0.01-2.97-0.55c-0.93-0.56-1.95-1.04-2.99-1.34c-1.47-0.42-2.71,0.18-3.55,1.45c-1.21,1.84-1.17,3.82,0.12,5.65
	c0.32,0.45,0.65,0.89,0.97,1.34c1.25,1.73,3.25,2.32,5.02,3.23c0.42,0.22,1.09,0.07,1.61-0.06c0.71-0.18,1.4-0.45,2.06-0.78
	c2.26-1.1,3.13-4.22,1.75-6.33C20.71,204.86,20.04,204.11,19.24,203.08z M24.68,206.66l-0.09,0.15l0.11,0.04L24.68,206.66z"/>
<path d="M161.99,372.13c-0.07,3.17-1.35,5.55-4.1,7.05c-1.2,0.66-2.43,1.28-3.68,1.85c-1.28,0.58-2.58,0.69-4.01,0.33
	c-5.36-1.34-8.36-4.95-10.04-9.97c-0.52-1.55-0.57-3.05-0.04-4.58c0.74-2.12,2.02-3.64,4.33-4.15c0.8-0.17,1.58-0.46,2.33-0.79
	c3.04-1.32,6.03-1.28,9.01,0.18c0.41,0.2,0.83,0.41,1.17,0.69c2.4,2,3.92,4.59,4.8,7.55C161.96,370.9,161.93,371.56,161.99,372.13z
	 M152.48,378.06c1.12-0.3,2.23-0.45,3.22-0.88c1.75-0.76,2.48-2.29,2.82-4.11c0.45-2.37,0.18-3.46-1.81-4.64
	c-1.56-0.92-3.26-1.63-4.94-2.31c-1.54-0.62-3.06-0.14-4.45,0.55c-1.41,0.71-1.96,2.41-1.54,3.97c0.84,3.1,2.95,5.19,5.46,6.96
	C151.59,377.85,152.07,377.92,152.48,378.06z"/>
<path d="M320.34,67.09c2.73,0.16,5.14,1.17,7.19,2.97c3.29,2.88,5.28,6.56,6.07,10.83c0.61,3.3-1.1,5.43-4.08,6.11
	c-0.96,0.22-2.02,0.25-3,0.1c-5.67-0.83-9.73-4.1-12.58-8.88c-2.16-3.61-0.88-8.24,2.68-10.34C317.73,67.23,319,66.93,320.34,67.09z
	 M329.22,82.62c0.48-2.12,0.42-2.57-0.86-4.02c-1.52-1.72-3.31-3.13-5.24-4.39c-0.92-0.6-1.84-0.75-2.86-0.67
	c-0.95,0.07-1.24,0.32-1.55,1.27c-0.23,0.7-0.25,1.38-0.12,2.14c0.43,2.43,1.89,4.1,3.82,5.43
	C324.64,83.91,326.91,84.29,329.22,82.62z M317.04,71.94c1.26-1.12,2.78-1.03,4.85-1.01C318.45,70.46,318.45,70.46,317.04,71.94z"/>
<path d="M242.41,325.53c-1.43-0.26-2.9-0.41-4.29-0.81c-1.49-0.42-2.08-1.37-1.87-2.92c0.12-0.89,0.44-1.77,0.81-2.6
	c0.63-1.42,1.37-2.79,2.08-4.18c2.09-4.08,6.89-6.19,11.4-3.71c2.67,1.46,2.99,3.68,2.39,6.12c-0.37,1.5-1.1,2.89-2.48,3.85
	c-0.97,0.67-1.8,1.55-2.71,2.31C246.21,324.89,244.51,325.67,242.41,325.53z M246.29,313.91c1.14,0.55,1.14,0.55,1.99,0
	C247.5,313.91,246.97,313.91,246.29,313.91z M244.77,314.99c-0.06-0.04-0.12-0.12-0.18-0.12s-0.13,0.06-0.2,0.09
	c0.06,0.04,0.11,0.12,0.17,0.12C244.63,315.09,244.7,315.03,244.77,314.99z"/>
<path d="M107.97,281.23c-0.14,4.6-3.12,7.03-7.08,6.47c-0.9-0.13-1.81-0.28-2.69-0.53c-5.02-1.41-7.58-7.62-4.22-12.16
	c1.44-1.95,3.64-2.55,6.06-1.92c1.54,0.4,2.88,1.19,4.2,1.98C106.82,276.61,107.91,279.03,107.97,281.23z M105.69,283.01
	c-0.1,0.12-0.21,0.25-0.31,0.37c0.11-0.14,0.22-0.27,0.33-0.43C105.67,282.96,105.71,283,105.69,283.01z M100.61,281.44
	c0.41-1.32,0.32-1.46-1.36-2.22C99.31,280.26,99.97,280.77,100.61,281.44z"/>
<path d="M314.74,99.31c-1.63-1.07-2.55-2.46-3.6-3.7c-3.01-3.59-5.91-7.26-8.9-10.86c-0.76-0.91-1.66-1.71-2.51-2.55
	c-0.26-0.26-0.56-0.66-0.85-0.66c-1.72-0.02-2.51-1.4-3.55-2.36c-3.91-3.63-8.2-6.78-12.53-9.87c-2.61-1.86-5.21-3.77-7.93-5.46
	c-2.73-1.68-5.61-3.12-8.44-4.63c-1.13-0.6-2.34-1.07-3.48-1.66c-0.64-0.33-1.29-0.72-1.81-1.22c-0.27-0.26-0.42-0.82-0.36-1.2
	c0.09-0.55,1.06-0.93,1.59-0.75c0.09,0.03,0.17,0.06,0.26,0.1c3.32,1.75,6.63,3.52,9.97,5.23c2.45,1.26,4.96,2.39,7.39,3.67
	c6.4,3.36,11.98,7.81,16.9,13.09c2.69,2.89,5.5,5.68,8.01,8.72c3.32,4.02,6.4,8.25,9.6,12.38
	C314.84,98.03,315.12,98.46,314.74,99.31z"/>
<path d="M190.2,2.87c-0.25,0.33-0.38,0.69-0.56,0.72c-1.09,0.15-2.18,0.29-3.28,0.3c-4.13,0.04-8.27-0.05-12.4,0.07
	c-1.82,0.05-3.67,0.29-5.43,0.74c-3.66,0.92-7.35,1.52-11.08,2.03c-1.81,0.24-3.59,0.67-5.39,0.97c-1.34,0.22-2.7,0.4-4.05,0.55
	c-3.74,0.42-7.45,1.03-11.01,2.29c-1.98,0.7-3.9,1.58-5.86,2.32c-0.67,0.25-1.39,0.41-2.1,0.46c-0.47,0.03-0.87-0.39-0.87-0.89
	c0-0.31,0.18-0.79,0.41-0.9c1-0.47,1.92-0.89,2.51-1.98c0.28-0.51,1.24-0.74,1.94-0.9c1.79-0.4,3.6-0.69,5.4-1.02
	c1.17-0.22,2.34-0.4,3.5-0.66c3.04-0.67,6.08-1.38,9.11-2.07c0.53-0.12,1.17-0.13,1.57-0.44c1.86-1.46,4.12-1.57,6.27-1.76
	c4.75-0.41,9.52-0.77,14.31-0.62c2.2,0.07,4.41-0.03,6.62-0.06c0.37,0,0.76-0.11,1.1-0.02c2.71,0.7,5.47,0.41,8.21,0.56
	C189.44,2.56,189.77,2.74,190.2,2.87z"/>
<path d="M341.53,282.26c0.12,2.47-1.68,4.47-3.68,6.24c-0.67,0.59-1.39,1.13-2.03,1.78c-1.14,1.16-2.58,1.53-4.02,0.78
	c-1.61-0.85-3.2-1.8-4.58-2.98c-1.9-1.62-2.74-5.18-1.01-7.79c0.66-0.99,1.28-2.02,2.01-2.96c3.47-4.43,9.06-3.7,12.09,0.01
	C341.35,278.61,341.57,280.15,341.53,282.26z M337.33,281c-1.67-0.77-3.04-0.8-4.35,0.16c-1.59,1.16-2.24,2.82-2.52,4.67
	c-0.08,0.56,0.37,1.08,0.91,1.17c2.44,0.38,4.81-1.1,5.47-3.47C337.06,282.75,337.16,281.93,337.33,281z M337.41,279.51
	c-0.61-0.9-0.86-1.39-1.22-1.78c-1.04-1.14-2.36-1.34-3.69-0.62c-2.21,1.19-3.76,3.82-3.92,6.68c0.77-0.15,0.83-0.86,1.14-1.38
	c0.93-1.56,2.47-2.34,3.99-3.18C334.8,278.62,335.81,279.17,337.41,279.51z"/>
<path d="M245.3,94c1.32-1.07,2.6-2.25,4.54-2c0.78,0.1,1.45-0.1,2.05-0.58c0.14-0.11,0.3-0.24,0.47-0.29
	c2.53-0.69,3.85-2.59,4.99-4.77c1.4-2.68,2.91-5.31,4.38-7.95c0.82-1.49,1.12-3.09,1.11-4.78c-0.01-1.47,0.06-2.94,0.06-4.41
	c0-2.57,0.16-5.16-0.98-7.58c-0.04-0.08-0.07-0.19-0.04-0.26c0.1-0.23,0.18-0.56,0.36-0.64c0.2-0.09,0.65-0.03,0.73,0.11
	c0.58,1.03,1.19,2.07,1.6,3.17c0.31,0.85,0.46,1.79,0.49,2.7c0.14,4.31,0.25,8.63-0.21,12.94c-0.09,0.84-0.22,1.58-0.89,2.23
	c-0.43,0.41-0.69,1.05-0.89,1.64c-1,2.94-2.58,5.43-5.2,7.24c-0.81,0.56-1.46,1.38-2.13,2.13c-0.71,0.78-1.43,1.36-2.62,1.14
	c-0.48-0.09-1.09,0.13-1.54,0.39c-0.87,0.5-1.67,1.12-2.5,1.7c-0.96,0.67-1.59,0.68-2.51,0.04C245.98,95.72,245.89,95.57,245.3,94z"
	/>
<path d="M370,233.14c0.25-0.77,0.45-1.56,0.76-2.3c0.12-0.27,0.47-0.57,0.75-0.62c0.53-0.09,0.78,0.33,0.88,0.81
	c0.04,0.18,0.09,0.38,0.04,0.54c-0.44,1.27-0.88,2.54-1.38,3.79c-0.07,0.17-0.44,0.21-0.76,0.35c-0.46-0.9-0.34-1.78-0.24-2.66
	C370.06,233.05,370,233.14,370,233.14z"/>
<path d="M274.87,355.86c-0.65,0.98-1.43,1.11-2.22,1.18c-0.17,0.01-0.48-0.28-0.52-0.48c-0.05-0.2,0.09-0.58,0.26-0.66
	C273.12,355.55,273.9,355.52,274.87,355.86z"/>
<path d="M283.68,48.18c0.25-0.67,0.46-1.22,0.67-1.75c0.48,0.1,1.01,1.02,0.83,1.52C284.95,48.57,284.47,48.69,283.68,48.18z"/>
<path d="M324.34,66.41c-0.07,0.06-0.14,0.17-0.2,0.16c-0.49-0.07-0.98-0.15-1.47-0.25c-0.02,0-0.05-0.2-0.01-0.25
	c0.44-0.51,0.95-0.3,1.43-0.08C324.21,66.05,324.26,66.27,324.34,66.41z"/>
<path d="M176.14,544.9c-0.17,0.26-0.26,0.59-0.42,0.64c-0.42,0.11-0.64-0.22-0.61-0.59c0.02-0.19,0.27-0.48,0.43-0.49
	C175.72,544.45,175.91,544.71,176.14,544.9z"/>
<path d="M18.47,257.32c1.08-1.39,1.62-0.68,2.4-0.23C20.11,257.16,19.54,257.22,18.47,257.32z"/>
<path d="M165.52,566.11c-0.13,0.09-0.26,0.26-0.39,0.26c-0.15,0-0.3-0.14-0.45-0.22c0.17-0.14,0.33-0.3,0.53-0.39
	C165.25,565.73,165.41,565.98,165.52,566.11z"/>
<path d="M209.62,565.92c-0.23,0.32-0.33,0.59-0.53,0.7c-0.32,0.18-0.75-0.41-0.61-0.93c0.05-0.2,0.33-0.34,0.51-0.5
	C209.2,565.43,209.4,565.67,209.62,565.92z"/>
<path d="M169,566.21c-0.16,0.07-0.32,0.18-0.47,0.18c-0.09,0-0.16-0.22-0.24-0.34c0.16-0.07,0.31-0.19,0.47-0.19
	C168.84,565.86,168.92,566.08,169,566.21z"/>
<path d="M22.85,257.09c0.06-0.07,0.11-0.15,0.18-0.19c0.46-0.27,0.84-0.07,1.1,0.29c0.08,0.11-0.06,0.56-0.19,0.6
	c-0.45,0.16-0.83,0.01-1.03-0.47C22.88,257.25,22.87,257.16,22.85,257.09z"/>
<path d="M309.36,85.86c0.06,0.2,0.18,0.4,0.13,0.45c-0.15,0.18-0.37,0.3-0.56,0.45c-0.05-0.14-0.19-0.34-0.14-0.41
	C308.94,86.17,309.15,86.04,309.36,85.86z"/>
<path d="M463.56,137.38c0.2-0.1,0.4-0.2,0.6-0.3c0.09,0.18,0.18,0.37,0.27,0.55c-0.21,0.08-0.43,0.17-0.65,0.21
	C463.74,137.84,463.66,137.58,463.56,137.38z"/>
<path d="M462.07,65.47c-0.35,0.13-0.57,0.21-0.79,0.29c-0.08-0.22-0.19-0.44-0.2-0.67c0-0.07,0.33-0.26,0.41-0.22
	C461.68,64.98,461.81,65.19,462.07,65.47z"/>
<path d="M103.61,52.05c-0.27-0.24-0.44-0.4-0.61-0.56c0.2-0.11,0.4-0.28,0.62-0.32c0.12-0.02,0.28,0.16,0.43,0.25
	C103.92,51.59,103.79,51.78,103.61,52.05z"/>
<path d="M393.52,414.25c-0.04,0.06-0.09,0.12-0.13,0.18c-0.1-0.09-0.21-0.17-0.29-0.27c-0.01-0.01,0.08-0.11,0.12-0.18
	C393.32,414.07,393.42,414.16,393.52,414.25z"/>
<polygon points="159.55,548.29 159.75,548.28 159.67,548.45 "/>
<path d="M447.74,400.14c0.08-0.02,0.17-0.07,0.24-0.05c0.07,0.03,0.11,0.12,0.16,0.19c-0.12,0.03-0.24,0.06-0.35,0.1
	C447.77,400.3,447.75,400.22,447.74,400.14z"/>
<polygon points="173.66,566.09 173.53,566.22 173.49,566.06 "/>
<polygon points="270.52,57.03 270.75,56.95 270.71,57.15 "/>
<path d="M447.51,27.86c-0.07,0.02-0.14,0.05-0.21,0.05c-0.02,0-0.04-0.11-0.05-0.17c0.07-0.02,0.14-0.05,0.21-0.05
	C447.48,27.69,447.49,27.8,447.51,27.86z"/>
<polygon points="302.96,553.27 303.03,553.47 302.84,553.44 "/>
<path class="st0" d="M150.57,551.75c0.93-0.89,1.71-1.08,2.55-1.06c0.77,0.02,1.42,0.34,1.82,1.03c0.4,0.68,0.31,1.75-0.15,2.33
	c-0.44,0.55-1.42,0.66-2.27,0.24C151.46,553.76,150.99,552.83,150.57,551.75z"/>
<path class="st0" d="M317.33,322.59c2.27-2.82,4.54-5.5,7.38-8.5c-0.53,1.67-1.99,3.59-3.36,4.83
	C320,320.14,318.67,321.36,317.33,322.59z"/>
<path class="st0" d="M199.78,391.71c3.44-0.59,6.88-1.18,10.32-1.77C206.82,391.5,203.34,391.86,199.78,391.71z"/>
<path class="st0" d="M268.26,365.35c0.07-0.35,0.02-0.87,0.23-1.01c1.84-1.27,3.73-2.48,5.62-3.68c0.12-0.08,0.35,0,0.53,0.01
	l-0.06-0.06c-1.13,1.38-2.85,1.96-4.19,3.05c-0.7,0.57-1.44,1.1-2.16,1.64L268.26,365.35z"/>
<path class="st0" d="M268.23,365.31c-1.68,0.88-3.37,1.77-5.07,2.66c-0.41-0.38,0.01-0.61,0.26-0.77c0.99-0.65,2-1.27,3.02-1.87
	c0.59-0.35,1.2-0.4,1.82,0.01C268.26,365.35,268.23,365.31,268.23,365.31z"/>
<path class="st0" d="M48.51,325.42c1.16-0.05,1.43,0.89,1.83,1.68c-0.87-0.29-1.31-1.03-1.78-1.75L48.51,325.42z"/>
<path class="st0" d="M220.06,386.25c-0.12,0.78-0.77,0.98-1.37,1.17c-0.61,0.19-1.24,0.29-1.86,0.43l0.04-0.01
	c0.26-0.22,0.48-0.51,0.78-0.64c0.8-0.35,1.62-0.63,2.45-0.93C220.11,386.29,220.06,386.25,220.06,386.25z"/>
<path class="st0" d="M348.68,278.49c-0.33-1.49,0.59-2.14,1.76-2.63l0.07-0.04c-0.63,0.87-1.26,1.73-1.89,2.6L348.68,278.49z"/>
<path class="st0" d="M100.16,373.91c-0.06-0.25-0.12-0.5-0.17-0.76c0.24,0.02,0.51-0.03,0.7,0.08c0.3,0.18,0.54,0.46,0.8,0.71
	l0.06-0.05c-0.49-0.02-0.98-0.04-1.47-0.06C100.08,373.83,100.16,373.91,100.16,373.91z"/>
<path class="st0" d="M58.42,61.99c-0.04-0.21-0.11-0.43-0.12-0.64c0-0.14,0.1-0.41,0.13-0.41c0.55,0.07,0.02,0.28,0.03,0.42
	c0.01,0.22-0.04,0.45-0.07,0.67C58.4,62.03,58.42,61.99,58.42,61.99z"/>
<path class="st0" d="M358.94,259.48c-0.07-0.02-0.15-0.03-0.22-0.05c0.07-0.13,0.1-0.3,0.21-0.38c0.05-0.05,0.22,0.05,0.34,0.07
	C359.16,259.24,359.05,259.36,358.94,259.48z"/>
<path class="st0" d="M48.57,325.36c-0.23-0.33-0.46-0.66-0.78-1.11c0.91,0.15,0.82,0.66,0.73,1.17
	C48.51,325.42,48.57,325.36,48.57,325.36z"/>
<path class="st0" d="M221.69,385.77c-0.38,0.67-0.91,0.83-1.61,0.49c-0.01-0.01,0.04,0.03,0.02,0.02c0.53-0.2,1.07-0.39,1.62-0.58
	L221.69,385.77z"/>
<polygon class="st0" points="6.48,233.26 6.39,233.23 6.43,233.09 "/>
<path class="st0" d="M58.4,62.03c-0.14-0.03-0.27-0.08-0.41-0.08c-0.12,0-0.25,0.05-0.37,0.08c0.06-0.02,0.11-0.08,0.17-0.07
	c0.08,0.01,0.15,0.09,0.22,0.09c0.14,0,0.27-0.04,0.41-0.06C58.42,61.99,58.4,62.03,58.4,62.03z"/>
<path class="st0" d="M101.49,373.94c0.15,0.03,0.31,0.05,0.41,0.07c-0.08-0.03-0.21-0.08-0.34-0.13
	C101.55,373.89,101.49,373.94,101.49,373.94z"/>
<path class="st0" d="M221.71,385.69c0.11,0.07,0.22,0.14,0.32,0.21c-0.12-0.04-0.23-0.09-0.35-0.14
	C221.69,385.77,221.71,385.69,221.71,385.69z"/>
<path class="st0" d="M350.43,275.86c0.01-0.14,0.02-0.28,0.03-0.42c-0.07,0.03-0.15,0.06-0.22,0.09c0.08,0.1,0.17,0.2,0.26,0.29
	L350.43,275.86z"/>
<path class="st0" d="M216.83,387.84c-0.14-0.03-0.29-0.05-0.43-0.08c0.15,0.02,0.3,0.05,0.46,0.07
	C216.87,387.84,216.83,387.84,216.83,387.84z"/>
<polygon class="st0" points="359.75,257.29 359.89,257.28 359.83,257.48 "/>
<polygon class="st0" points="19.62,124.15 19.75,124.14 19.69,124.32 "/>
<path class="st0" d="M133.47,220.82c2.91,4.42,5.16,8.87,8.4,12.65c0.28,0.33,0.65,0.59,1.03,0.92c0.67-0.77,0.01-1.29-0.03-1.85
	c-0.04-0.52,0.12-1.05,0.19-1.5c-4.6-4.89-7.28-10.56-7.68-17.25c-0.1-1.56-0.28-3.11-0.52-4.65c-0.09-0.55-0.62-0.57-1.17-0.28
	c-0.62,1.99-0.03,4.11-0.24,6.79c-0.98-1.99-1.66-3.44-1.92-5.07c-0.79-4.92-1.15-9.86-0.99-14.84c0.11-3.4,0.15-6.81,0.5-10.19
	c0.54-5.2,1.18-10.39,2.6-15.45c0.33-1.16,1.13-2.38,0.33-3.72c-0.14-0.23,0.07-0.71,0.19-1.04c0.22-0.6,0.46-1.2,0.76-1.76
	c1.13-2.1,2.15-4.27,3.46-6.25c1.47-2.21,3.16-4.27,4.84-6.34c2.82-3.48,6.54-5.86,10.35-8.09c2.29-1.35,4.62-2.64,7.12-3.61
	c1.08-0.42,2.22-0.86,2.61-2.23c0.12-0.4,0.79-0.77,1.27-0.9c1.86-0.5,3.72-1.03,5.62-1.31c3.36-0.49,6.75-0.8,10.13-1.19
	c0.09-0.01,0.18-0.01,0.27-0.03c0.73-0.11,1.26-0.6,1-0.98c-0.22-0.33-0.65-0.62-1.04-0.71c-0.42-0.09-0.9,0.05-1.36,0.13
	c-0.54,0.09-1.08,0.28-1.62,0.3c-3.41,0.08-6.7,0.89-10.04,1.43c-2.91,0.47-5.61,1.44-8.41,2.77c0.18-0.38,0.21-0.58,0.32-0.65
	c1.32-0.83,2.6-1.75,3.99-2.42c1.56-0.76,3.2-1.39,4.85-1.91c2.36-0.73,4.77-1.3,7.15-1.94c2.45-0.66,4.93-0.36,7.4-0.13
	c2.56,0.23,5.12,0.5,7.66,0.88c3.53,0.53,7.08,1.01,10.49,2.18c0.69,0.24,1.34,0.58,2.01,0.86c0.47,0.19,0.91,0.14,1.24-0.27
	c0.39-0.48,0.38-1.03,0.06-1.53c-0.37-0.58-0.96-0.78-1.62-0.92c-4.03-0.83-8.03-1.88-12.14-2.31c-0.06-0.01-0.1-0.13-0.22-0.31
	c6.43-0.3,12.71,0.02,18.88,1.79c-0.35,0.71-0.4,1.32,0.43,1.56c1.76,0.51,3.51,1.11,5.31,1.43c4.6,0.83,8.36,3.26,11.89,6.09
	c3.8,3.05,7.56,6.17,11.13,9.47c3.31,3.06,6.26,6.48,8.93,10.12c1.74,2.37,3.35,4.84,5.01,7.27c0.57,0.84,1.04,1.71,1.08,2.79
	c0.02,0.63,0.24,1.27,0.48,1.86c0.35,0.87,0.59,1.72,0.37,2.68c-0.17,0.77-0.03,1.48,0.72,1.92c0.7,0.41,0.95,1.08,1.12,1.81
	c0.93,3.84,2.35,7.57,2.87,11.5c0.23,1.73,0.35,3.47,0.43,5.22c0.07,1.53-0.41,3.07,0.39,4.59c0.25,0.47-0.03,1.26-0.16,1.88
	c-1.04,5.05-2.47,9.99-4.2,14.84c-2.33,6.52-5.32,12.71-9.21,18.45c-1.85,2.73-3.83,5.39-5.93,7.94c-2.88,3.5-6.4,6.34-10,9.05
	c-1.47,1.11-3.23,1.71-5.25,2.03c0.22,0.75,0.39,1.32,0.57,1.94c-0.15,0.16-0.3,0.41-0.51,0.54c-3.31,2.06-6.85,3.46-10.74,4.1
	c-2.9,0.48-5.77,1.02-8.73,1.09c-2.11,0.05-4.21,0.32-6.31,0.45c-6.31,0.38-12.45-0.65-18.5-2.35c-5.31-1.49-10.4-3.59-15.36-5.99
	c-1.23-0.6-2.34-1.44-3.53-2.13c-0.95-0.56-1.98-0.99-2.88-1.6c-4.48-3.04-9.1-5.9-13.18-9.5c-0.96-0.85-1.86-1.77-2.71-2.72
	c-2.32-2.61-4.89-5.01-6.72-8.02c-0.72-1.18-1.45-2.35-2.03-3.6C133.46,223.53,132.87,222.43,133.47,220.82z M159.34,194.17
	c-1.51,0.01-2.06,0.98-2.38,2.24c-0.96,3.75-0.25,7.29,1.36,10.71c0.53,1.12,1.65,2.04,1.03,3.53c-0.09,0.22,0.26,0.65,0.46,0.96
	c2.61,4.04,5.66,7.69,9.34,10.79c0.63,0.53,1.29,1.04,2.01,1.42c3.71,1.99,7.45,3.93,11.17,5.9c2.07,1.1,4.3,1.56,6.6,1.75
	c0.73,0.06,1.44,0.22,2.16,0.35c1.17,0.22,2.33,0.52,3.5,0.67c0.58,0.07,1.34,0.19,1.61-0.89c-0.97-0.48-1.97-0.98-3.38-1.69
	c1.2-0.05,1.91-0.11,2.63-0.11c0.8,0,1.6,0.04,2.42,0.07c-0.09,0.69,0.07,1.15,0.65,1.13c1.28-0.05,2.61,0,3.83-0.34
	c4.14-1.17,8.24-2.49,12.35-3.76c0.35-0.11,0.7-0.23,1.02-0.41c0.31-0.18,0.71-0.38,0.84-0.67c0.53-1.19,1.6-1.7,2.63-2.31
	c2.06-1.25,3.88-2.77,5.31-4.73c1.23-1.7,1.93-3.52,1.68-5.65c-0.17-1.47-0.11-2.92,0.25-4.38c0.26-1.06,0.38-2.18,0.47-3.27
	c0.19-2.49,0.23-5.05-0.62-7.37c-0.92-2.52-1.4-5.13-2.19-7.66c-0.15-0.5-0.33-1.19-0.11-1.56c0.67-1.15,0.3-2.16-0.2-3.14
	c-1-1.95-2.08-3.86-3.18-5.87c0.61-2.21,0.43-2.72-1.46-3.95c-1.69-1.1-3.35-2.24-5.06-3.3c-2.42-1.5-5.01-2.68-7.62-3.8
	c-1.43-0.61-2.88-1.26-4.39-1.58c-3.04-0.65-6.07-1.45-9.23-1.24c-0.27,0.02-0.56-0.01-0.82-0.07c-2.27-0.53-4.56-0.48-6.86-0.32
	c-0.88,0.06-1.74,0.27-2.69,0.42c-0.14-0.15-0.36-0.4-0.66-0.73c-0.47,0.95-1.13,1.52-2.1,1.67c-0.27,0.04-0.54,0.11-0.8,0.18
	c-3.95,1.15-7.47,3.13-10.44,5.93c-2.5,2.36-3.85,5.54-5.27,8.62c-0.27,0.57-0.39,1.31-0.83,1.69c-1.15,0.99-1.47,2.27-1.7,3.65
	C160.24,189.28,159.81,191.54,159.34,194.17z M255.05,207.36l-0.05,0.22l0.21-0.1L255.05,207.36z"/>
<path class="st0" d="M128.62,198.98c-0.81,0.56-1.3,0.9-1.8,1.25c-0.07-0.1-0.24-0.25-0.25-0.39c-0.07-1.46-0.13-2.93-0.14-4.4
	c0-0.54-0.02-1.25,0.29-1.59c1.13-1.27,0.85-2.75,0.87-4.2c0.04-4.14,0.92-8.12,2.29-12.03c0.32,0.95-0.03,1.86-0.13,2.78
	c-0.12,1.09-0.33,2.18-0.45,3.27c-0.11,1-0.16,2.01-0.2,3.02c-0.05,1.01-0.03,2.02-0.09,3.03c-0.05,1.01-0.17,2.01-0.23,3.02
	c-0.07,1.1-0.12,2.2-0.15,3.3C128.6,197.03,128.62,198.04,128.62,198.98z"/>
<path class="st0" d="M154.46,248.26c-3.47-1.07-7.31-4.1-12-9.48C146.4,241.89,150.34,245,154.46,248.26z"/>
<path class="st0" d="M222.95,258.68c1.26-0.72,1.96-1.13,2.67-1.53c0.79-0.45,1.49-0.9,2-1.76c0.78-1.29,2.39-1.47,3.93-2.72
	c-1.51,2.66-2.68,3.7-6.02,5.63C224.86,258.69,224.86,258.69,222.95,258.68z"/>
<path class="st0" d="M235.18,141.57c0.14,0.31,0.21,0.7,0.44,0.92c2.35,2.3,4.73,4.57,7.09,6.85l0.05-0.06
	c-0.73,0.36-1.22-0.07-1.69-0.52c-1.13-1.06-2.23-2.15-3.38-3.2c-0.6-0.55-1.26-1.05-1.9-1.57
	C234.98,143.34,234.75,142.54,235.18,141.57L235.18,141.57z"/>
<path class="st0" d="M235.18,141.57c-0.52-0.07-1.15,0.03-1.55-0.23c-1.6-1.04-3.14-2.17-4.68-3.3c-0.16-0.12-0.19-0.43-0.45-1.05
	c2.1,1.3,3.64,2.65,5.26,3.91C234.16,141.21,234.7,141.35,235.18,141.57L235.18,141.57z"/>
<path class="st0" d="M124.9,188.52c0.2-1.43,0.39-2.86,0.59-4.3C126.06,185.77,125.31,187.12,124.9,188.52z"/>
<path class="st0" d="M242.71,149.34c0.3,0.55,0.61,1.09,0.85,1.54c-0.75-0.56-0.75-0.56-0.81-1.58
	C242.76,149.28,242.71,149.34,242.71,149.34z"/>
<path class="st0" d="M127.31,179.25c-0.13,0.22-0.23,0.46-0.38,0.66c-0.2,0.26-0.44,0.49-0.66,0.73l-0.01,0.01
	c0.34-0.46,0.68-0.93,1.02-1.39C127.28,179.27,127.31,179.25,127.31,179.25z"/>
<path class="st0" d="M126.27,180.65c0.05,0.33,0.11,0.66,0.16,0.98c-0.06,0.01-0.11,0.01-0.17,0.02c0-0.33,0-0.65,0-0.99
	L126.27,180.65z"/>
<path class="st0" d="M127.28,179.27c0.01-0.17,0.02-0.35,0.02-0.52c0-0.09-0.02-0.18-0.04-0.26c0,0.09-0.01,0.18,0,0.26
	c0.01,0.17,0.03,0.34,0.05,0.51C127.31,179.25,127.28,179.27,127.28,179.27z"/>
<path class="st0" d="M130.12,175.46c-0.03-0.07-0.05-0.14-0.08-0.2c0.1-0.02,0.19-0.05,0.29-0.07c-0.01,0.08,0.01,0.17-0.02,0.22
	C130.28,175.45,130.18,175.45,130.12,175.46z"/>
<path class="st0" d="M260.24,179.8c-0.05,0.07-0.12,0.13-0.13,0.2c-0.01,0.05,0.06,0.11,0.09,0.17c0.01-0.14,0.01-0.29,0.02-0.44
	C260.22,179.73,260.24,179.8,260.24,179.8z"/>
<path class="st0" d="M119.06,94.01c-1.06-0.03-1.24-0.73-1.42-2.14c0.68,1.06,1.04,1.63,1.4,2.19L119.06,94.01z"/>
<path class="st0" d="M119.04,94.05c0.02,0.31,0.03,0.63,0.05,0.94c-0.06-0.01-0.13-0.01-0.19-0.02c0.05-0.32,0.1-0.63,0.15-0.96
	C119.06,94.01,119.04,94.05,119.04,94.05z"/>
<path class="st0" d="M121.83,117.33c-0.06-0.21-0.11-0.41-0.06-0.23c-0.02-0.22,0-0.03,0.03,0.17
	C121.81,117.29,121.83,117.33,121.83,117.33z"/>
<polygon class="st0" points="185.4,52.81 185.33,52.97 185.27,52.8 "/>
<polygon class="st0" points="186.97,49.14 186.92,48.9 187.1,48.93 "/>
<path class="st0" d="M188.81,46.78c-0.03,0.07-0.06,0.14-0.1,0.22c-0.06-0.1-0.13-0.19-0.18-0.29c-0.01-0.01,0.11-0.08,0.16-0.12
	C188.73,46.65,188.77,46.71,188.81,46.78z"/>
<path class="st0" d="M262.98,283.36c-1.13-0.12-1.92-0.2-2.71-0.28c-0.27-0.77,0.27-1.11,0.73-1.2
	C261.96,281.67,262.37,282.41,262.98,283.36z"/>
<path class="st0" d="M328.33,218.88c0.16,0.62-0.1,0.8-0.78,0.65c0.31-0.23,0.57-0.41,0.83-0.6L328.33,218.88z"/>
<path class="st0" d="M328.37,218.93c0.31-0.03,0.62-0.07,0.93-0.1c-0.01,0.1-0.02,0.2-0.03,0.31c-0.31-0.08-0.62-0.16-0.94-0.25
	C328.33,218.88,328.37,218.93,328.37,218.93z"/>
<path class="st0" d="M171.01,348.18c1.12,0.18,2.23,0.37,3.36,0.55c0.07,0.57-0.4,0.64-0.66,0.46c-0.81-0.55-2.06,0.06-2.64-1.03
	L171.01,348.18z"/>
<path class="st0" d="M192.36,300.53c0.07,0.02,0.15,0.05,0.22,0.07c-0.11,0.05-0.23,0.15-0.34,0.15s-0.22-0.09-0.32-0.14
	C192.07,300.59,192.21,300.56,192.36,300.53z"/>
<polygon class="st0" points="176.53,349.3 176.29,349.32 176.33,349.2 "/>
<path class="st0" d="M180.55,349.72c0.01,0.04,0.01,0.1,0.02,0.15c-0.08,0-0.17,0.01-0.25,0c-0.01,0-0.01-0.1-0.02-0.15
	C180.38,349.72,180.46,349.72,180.55,349.72z"/>
<path class="st0" d="M193.21,352.45c0.04,0.05,0.07,0.1,0.11,0.15c-0.08,0.03-0.18,0.1-0.23,0.08c-0.07-0.03-0.09-0.14-0.13-0.22
	C193.04,352.45,193.12,352.45,193.21,352.45z"/>
<polygon class="st0" points="184.57,350.42 184.39,350.34 184.58,350.29 "/>
<path class="st0" d="M171.06,348.16c-0.23,0.04-0.45,0.09-0.25,0.05c-0.24,0.01-0.04,0,0.18-0.02
	C171.01,348.18,171.06,348.16,171.06,348.16z"/>
<path class="st0" d="M328.43,148.3c-0.19-0.03-0.37-0.06-0.56-0.09c0.16,0.03,0.32,0.06,0.5,0.08
	C328.39,148.28,328.43,148.3,328.43,148.3z"/>
<path class="st0" d="M67.12,117.32c0.12,0.32,0.24,0.64,0.35,0.94c1.02-0.1,1.35-0.77,1.68-1.42c0.58-1.14,1.21-2.27,1.69-3.46
	c0.74-1.85,1.83-3.3,3.63-4.27c1.2-0.65,2.18-1.69,3.36-2.37c1.58-0.91,3.27-1.65,4.9-2.47c2.04-1.02,4.24-1.11,6.45-1.08
	c1.99,0.03,3.75,0.8,5.37,1.91c0.74,0.51,1.42,1.25,2.45,0.53c0.15-0.11,0.54,0.01,0.76,0.14c0.63,0.37,1.35,0.69,1.83,1.21
	c2.62,2.83,5.39,5.59,6.83,9.26c1.03,2.64,1.85,5.38,2.23,8.21c0.2,1.45,0.38,2.9,0.57,4.31c-0.76,0.11-1.37,0.21-2.13,0.32
	c-0.08,2.93-0.5,5.71-2.09,8.39c-1.41,0.17-2.43,1.17-3.29,2.4c-1.58,2.28-3.51,4.23-5.5,6.15c-1.19,1.15-2.61,1.71-4.21,1.76
	c-1.74,0.06-3.49-0.05-5.23-0.06c-0.64,0-1.45-0.17-1.89,0.15c-2.13,1.53-3.96,0.36-5.81-0.52c-0.74-0.35-1.41-0.86-2.05-1.38
	c-1.99-1.62-3.96-3.28-5.93-4.94c-0.42-0.35-0.88-0.71-1.16-1.16c-1.98-3.23-3.64-6.63-3.95-10.46c-0.23-2.83-0.1-5.7-0.06-8.54
	c0.02-1.26,0.14-2.55,1.19-3.5C67.12,117.36,67.12,117.32,67.12,117.32z M87.53,133.84c1.45,0.11,2.9-0.54,3.94-2
	c1.26-1.77,1.6-3.86,1.98-5.93c0.05-0.26,0.01-0.57-0.09-0.81c-0.67-1.58-1.18-3.16-2.69-4.33c-1.72-1.33-3.74-1.87-5.63-2.74
	c-0.81-0.37-1.89-0.33-2.58,0.42c-1.52,1.67-2.59,3.61-2.17,5.96c0.32,1.79,0.81,3.56,1.38,5.29
	C82.55,132.37,84.61,133.85,87.53,133.84z"/>
<path class="st0" d="M67.18,114.44c0.3-0.86,0.66-1.71,0.89-2.59c0.57-2.13,1.8-3.79,3.47-5.16c0.11-0.09,0.32-0.04,0.49-0.05
	c0.02,0.16,0.11,0.38,0.04,0.47c-1.53,1.86-2.43,4.08-3.53,6.19c-0.29,0.56-0.52,1.22-1.37,1.11L67.18,114.44z"/>
<path class="st0" d="M67.18,114.41c-0.02,0.96-0.05,1.93-0.07,2.9c0.01,0.01,0.01,0.05,0.01,0.06c0.02-0.96,0.05-1.93,0.07-2.92
	C67.18,114.44,67.18,114.41,67.18,114.41z"/>
<path class="st0" d="M204.2,63.59c0.4-0.59,0.84-1.18,1.22-1.81c1.14-1.86,2.24-3.67,3.99-5.13c1.95-1.64,3.54-3.72,5.28-5.61
	c1.63-1.77,3.48-3.28,5.59-4.44c1.63-0.9,3.36-1.5,5.28-0.9c0.34,0.11,0.74,0.17,1.09,0.12c3.61-0.43,6.59,1.27,9.59,2.84
	c2.61,1.36,4.44,3.51,5.93,6c0.57,0.95,1.18,1.87,1.68,2.85c0.36,0.71,0.56,1.51,0.95,2.63c-0.9-0.41-1.42-0.81-1.96-0.84
	c-0.47-0.03-1.09,0.24-1.4,0.59c-0.37,0.42-0.27,1.09,0.17,1.5c0.74,0.69,1.5,1.36,1.75,2.4c0.31,1.27,0.41,2.54,0,3.81
	c-0.56,1.75-1.11,3.5-1.67,5.25c-0.48,1.52-1.4,2.73-2.85,4.18c0.07-0.85,0.03-1.28,0.15-1.64c0.54-1.56,1.15-3.09,1.69-4.65
	c0.14-0.42,0.14-0.9,0.16-1.35c0.01-0.29-0.68-0.58-0.87-0.35c-0.46,0.55-1.1,1.09-1.24,1.74c-0.69,3.11-2.4,5.75-3.8,8.53
	c-0.6,1.19-1.37,2.16-2.47,2.89c-0.76,0.51-1.5,1.06-2.27,1.56c-3.57,2.29-3.57,2.22-7.7,2.25c-1.75,0.01-3.34-0.54-4.66-1.43
	c-2.33-1.59-4.53-3.41-6.62-5.31c-1.76-1.6-3.32-3.45-4.31-5.67c-0.89-1.98-1.73-3.99-2.59-5.99c-0.35-0.81-0.48-1.63,0.17-2.32
	C205.08,64.62,204.14,64.37,204.2,63.59z M211.92,58.27c-1.26,0.38-1.26,0.38-2.08,1.17c1.42-0.27,1.42-0.27,2.04-1.2
	c0.22,0.02,0.44,0.04,0.66,0.05c-0.04-0.04-0.09-0.12-0.13-0.12C212.25,58.19,212.09,58.23,211.92,58.27z M224.05,70.62
	c1.78-0.02,2.97-0.43,4.22-1.7c1.9-1.93,2.77-4.39,2.62-7.01c-0.21-3.88-3.9-5.66-7.13-3.47c-1.73,1.17-3.3,2.62-4.77,4.12
	c-1.1,1.11-1.27,2.71-0.8,4.14C218.79,68.49,221.78,70.78,224.05,70.62z"/>
<path class="st0" d="M235.5,82.48c0.45,0.89-0.59,1.49-0.46,2.32v0.01c-0.37-0.9,0.44-1.57,0.49-2.38L235.5,82.48z"/>
<path class="st0" d="M235.53,82.43c0.04,0.07,0.06,0.17,0.12,0.21c0.04,0.02,0.14-0.04,0.21-0.07c-0.12-0.02-0.24-0.05-0.36-0.08
	C235.5,82.48,235.53,82.43,235.53,82.43z"/>
<path class="st0" d="M333.02,169.12c-0.59,0.9-0.59,1.7,0.11,2.53c2.27,2.72,3.43,6.06,5.01,9.16c1.19,2.33,1.65,4.92,1.77,7.46
	c0.1,2.1-0.83,4.11-1.95,5.93c-0.09,0.15-0.24,0.3-0.4,0.37c-2.47,1.1-4.25,3.12-6.32,4.76c-2.24,1.77-4.62,2.99-7.56,2.72
	c-1.19-0.11-2.39-0.16-3.57-0.3c-0.51-0.06-1.12-0.12-1.26-0.83c-0.03-0.15-0.15-0.37-0.27-0.41c-3.57-1.06-6.55-3.22-9.67-5.12
	c-1.06-0.65-1.84-1.51-2.57-2.44c-0.51-0.65-1.01-1.31-1.42-2.02c-1.11-1.94-1.62-3.95-1.17-6.25c0.24-1.21,0.07-2.57-0.21-3.8
	c-0.32-1.44-0.11-2.71,0.52-3.99c0.48-0.97,0.9-1.98,1.31-2.88c-0.35-0.53-0.59-0.9-0.85-1.3c1.57-3.99,4.27-7.02,7.82-9.33
	c0.15-0.1,0.35-0.17,0.46-0.31c1.26-1.69,3.05-1.67,4.92-1.66c2.03,0.01,4.04,0.12,6.02,0.53c0.61,0.13,1.27,0.35,1.75,0.73
	c2.29,1.82,4.53,3.71,6.78,5.58C332.49,168.43,332.64,168.67,333.02,169.12z M314.02,184.43c0.16,1.15,0.25,2.34,0.52,3.5
	c0.11,0.47,0.53,1.09,0.95,1.24c1.54,0.54,3.13,0.93,4.72,1.33c0.33,0.08,0.74-0.04,1.07-0.15c2.08-0.73,3.68-2.03,4.59-4.08
	c1.64-3.68-1.23-7.78-5.26-7.4c-1.25,0.12-2.48,0.59-3.68,1.01C314.84,180.62,314.12,182.32,314.02,184.43z"/>
<path class="st0" d="M341.31,182.8c0.93,1.13,1.02,2.51,1.15,3.87c0.35,3.5-0.45,6.72-2.53,9.58c-0.35,0.47-0.92,0.78-1.37,1.15
	c-0.55-0.48-0.2-0.76,0.01-1.02c1.51-1.97,2.74-4.05,3.16-6.58c0.23-1.38,0.28-2.7,0.03-4.07c-0.18-0.98-0.25-1.99-0.37-2.98
	L341.31,182.8z"/>
<path class="st0" d="M337.06,173.99c0.43,0.2,0.65,0.23,0.71,0.35c0.61,1.18,1.2,2.37,1.82,3.63c-0.82,0.15-0.8-0.39-0.95-0.75
	c-0.14-0.33-0.26-0.67-0.43-0.99c-0.21-0.4-0.46-0.78-0.67-1.17C337.4,174.77,337.29,174.48,337.06,173.99z"/>
<path class="st0" d="M333.26,200.71c-0.07,0.38,0.04,0.87-0.65,0.86c0.26-0.3,0.49-0.56,0.71-0.82L333.26,200.71z"/>
<path class="st0" d="M333.32,200.75c0.63-0.3,1.26-0.6,1.89-0.89l-0.06-0.06c-0.35,0.86-0.97,1.17-1.87,0.92
	C333.26,200.71,333.32,200.75,333.32,200.75z"/>
<path class="st0" d="M335.21,199.86c0.28-0.48,0.56-0.96,0.84-1.44l-0.03,0.07c-0.08,0.58,0.05,1.29-0.86,1.32
	C335.15,199.8,335.21,199.86,335.21,199.86z"/>
<path class="st0" d="M336.04,198.42c0.09,0.08,0.19,0.16,0.28,0.24c0.02-0.07,0.05-0.13,0.07-0.2c-0.13,0.01-0.26,0.02-0.39,0.03
	C336.01,198.48,336.04,198.42,336.04,198.42z"/>
<path class="st0" d="M341.39,182.73c-0.13-0.08-0.26-0.14-0.38-0.23c-0.02-0.02,0.02-0.12,0.03-0.19c0.09,0.16,0.18,0.33,0.27,0.49
	C341.31,182.8,341.39,182.73,341.39,182.73z"/>
<path class="st0" d="M75.23,160.84c0.29,0,0.59,0,0.88,0c0,0.04,0,0.09,0,0.13c-0.29,0-0.59,0-0.88,0
	C75.22,160.93,75.22,160.88,75.23,160.84z"/>
<path class="st0" d="M233.88,339.34c-0.08,0.02-0.17,0.07-0.24,0.06c-0.15-0.03-0.29-0.09-0.44-0.14c0.08-0.02,0.16-0.08,0.23-0.07
	C233.59,339.22,233.73,339.29,233.88,339.34z"/>
<path class="st0" d="M121.78,22.7c2.57-1.74,5.31-1.91,8.04-1.52c2.08,0.29,3.59,1.72,4.72,3.45c0.33,0.51,0.45,1.2,0.52,1.83
	c0.26,2.57-1.56,4.51-4.13,4.22c-2.18-0.25-4.39-0.69-6.16-2.07C122.97,27.19,121.42,25.5,121.78,22.7z"/>
<path class="st0" d="M128.38,32.66c0.39,0.05,0.79,0.08,1.18,0.14c0.05,0.01,0.11,0.14,0.1,0.2c-0.01,0.07-0.1,0.18-0.14,0.18
	c-0.4-0.07-0.79-0.16-1.19-0.25C128.35,32.84,128.37,32.75,128.38,32.66z"/>
<polygon class="st0" points="124.22,31.18 124.22,31.05 124.39,31.12 "/>
<path class="st0" d="M19.24,203.08c0.8,1.03,1.48,1.79,2.03,2.63c1.38,2.11,0.51,5.22-1.75,6.33c-0.66,0.32-1.35,0.6-2.06,0.78
	c-0.52,0.13-1.19,0.27-1.61,0.06c-1.77-0.91-3.77-1.5-5.02-3.23c-0.32-0.45-0.65-0.89-0.97-1.34c-1.29-1.84-1.34-3.81-0.12-5.65
	c0.84-1.27,2.07-1.87,3.55-1.45c1.04,0.29,2.06,0.78,2.99,1.34C17.17,203.07,18.01,203.56,19.24,203.08z"/>
<polygon class="st0" points="24.68,206.66 24.7,206.85 24.59,206.81 "/>
<path class="st0" d="M152.48,378.06c-0.41-0.15-0.89-0.22-1.24-0.47c-2.51-1.77-4.63-3.86-5.46-6.96c-0.42-1.56,0.13-3.26,1.54-3.97
	c1.39-0.7,2.91-1.17,4.45-0.55c1.69,0.68,3.39,1.39,4.94,2.31c1.99,1.18,2.25,2.28,1.81,4.64c-0.34,1.82-1.07,3.35-2.82,4.11
	C154.7,377.61,153.59,377.77,152.48,378.06z"/>
<path class="st0" d="M329.22,82.62c-2.3,1.67-4.58,1.29-6.79-0.24c-1.93-1.33-3.39-3-3.82-5.43c-0.13-0.76-0.11-1.44,0.12-2.14
	c0.31-0.94,0.6-1.2,1.55-1.27c1.02-0.07,1.94,0.08,2.86,0.67c1.93,1.26,3.72,2.66,5.24,4.39C329.64,80.05,329.69,80.5,329.22,82.62z
	"/>
<path class="st0" d="M317.04,71.94c1.42-1.48,1.42-1.48,4.85-1.01C319.82,70.92,318.3,70.82,317.04,71.94z"/>
<path class="st0" d="M246.29,313.91c0.68,0,1.21,0,1.99,0C247.43,314.45,247.43,314.45,246.29,313.91z"/>
<path class="st0" d="M244.77,314.99c-0.07,0.03-0.14,0.1-0.2,0.09c-0.06,0-0.12-0.08-0.17-0.12c0.07-0.03,0.13-0.1,0.2-0.09
	C244.65,314.88,244.71,314.95,244.77,314.99z"/>
<path class="st0" d="M100.61,281.44c-0.64-0.67-1.3-1.18-1.36-2.22C100.93,279.98,101.02,280.12,100.61,281.44z"/>
<path class="st0" d="M105.72,282.98c-0.11,0.14-0.22,0.27-0.34,0.41c0.1-0.12,0.21-0.25,0.31-0.37L105.72,282.98z"/>
<path class="st0" d="M105.69,283.01c0.01-0.01-0.03-0.06,0.03-0.04C105.72,282.98,105.69,283.01,105.69,283.01z"/>
<path class="st0" d="M337.33,281c-0.17,0.93-0.27,1.75-0.49,2.53c-0.66,2.37-3.04,3.85-5.47,3.47c-0.54-0.09-1-0.61-0.91-1.17
	c0.28-1.85,0.93-3.51,2.52-4.67C334.29,280.21,335.65,280.24,337.33,281z"/>
<path class="st0" d="M337.41,279.51c-1.59-0.34-2.6-0.89-3.7-0.28c-1.52,0.84-3.06,1.62-3.99,3.18c-0.31,0.52-0.36,1.23-1.14,1.38
	c0.16-2.87,1.7-5.5,3.92-6.68c1.34-0.72,2.66-0.52,3.69,0.62C336.55,278.12,336.8,278.61,337.41,279.51z"/>
<path d="M159.34,194.17c0.48-2.63,0.91-4.88,1.3-7.14c0.24-1.38,0.56-2.66,1.7-3.65c0.44-0.38,0.56-1.11,0.83-1.69
	c1.42-3.08,2.77-6.26,5.27-8.62c2.97-2.81,6.49-4.78,10.44-5.93c0.26-0.08,0.53-0.14,0.8-0.18c0.97-0.15,1.63-0.72,2.1-1.67
	c0.3,0.33,0.52,0.58,0.66,0.73c0.95-0.15,1.81-0.36,2.69-0.42c2.29-0.16,4.59-0.21,6.86,0.32c0.27,0.06,0.55,0.09,0.82,0.07
	c3.16-0.21,6.19,0.6,9.23,1.24c1.51,0.32,2.96,0.97,4.39,1.58c2.61,1.12,5.2,2.3,7.62,3.8c1.71,1.06,3.38,2.2,5.06,3.3
	c1.89,1.23,2.07,1.75,1.46,3.95c1.1,2.01,2.18,3.92,3.18,5.87c0.5,0.98,0.87,1.99,0.2,3.14c-0.22,0.38-0.04,1.06,0.11,1.56
	c0.78,2.54,1.27,5.15,2.19,7.66c0.85,2.32,0.81,4.88,0.62,7.37c-0.08,1.1-0.2,2.21-0.47,3.27c-0.36,1.46-0.42,2.91-0.25,4.38
	c0.25,2.14-0.45,3.96-1.68,5.65c-1.43,1.97-3.25,3.49-5.31,4.73c-1.02,0.62-2.1,1.12-2.63,2.31c-0.13,0.29-0.53,0.49-0.84,0.67
	c-0.32,0.18-0.67,0.31-1.02,0.41c-4.11,1.27-8.21,2.59-12.35,3.76c-1.21,0.34-2.54,0.29-3.83,0.34c-0.58,0.02-0.73-0.43-0.65-1.13
	c-0.82-0.03-1.62-0.07-2.42-0.07c-0.71,0-1.43,0.06-2.63,0.11c1.41,0.71,2.41,1.2,3.38,1.69c-0.27,1.08-1.03,0.96-1.61,0.89
	c-1.18-0.15-2.34-0.44-3.5-0.67c-0.72-0.14-1.44-0.29-2.16-0.35c-2.31-0.2-4.53-0.65-6.6-1.75c-3.72-1.98-7.46-3.91-11.17-5.9
	c-0.72-0.39-1.38-0.89-2.01-1.42c-3.68-3.1-6.73-6.76-9.34-10.79c-0.2-0.3-0.55-0.74-0.46-0.96c0.62-1.49-0.51-2.41-1.03-3.53
	c-1.61-3.42-2.31-6.95-1.36-10.71C157.28,195.14,157.82,194.17,159.34,194.17z M162.43,209.71c0.08,0.26,0.16,0.52,0.26,0.77
	c0.03,0.07,0.12,0.12,0.19,0.18c0.02-0.11,0.08-0.26,0.04-0.31c-0.16-0.21-0.36-0.39-0.55-0.58c-0.17-0.61-0.28-1.24-0.52-1.83
	c-1.4-3.5-2.55-7.06-2.67-10.88c0-0.11-0.22-0.2-0.33-0.31c-0.73,1.37-0.78,1.37-0.72,2.25
	C158.37,203.04,159.73,206.65,162.43,209.71z M184.54,168.35c-1.5,0.26-2.86,0.42-4.19,0.74c-3.63,0.89-6.95,2.4-9.58,5.14
	c-0.95,0.99-1.62,2.24-2.59,3.19c-1.54,1.52-2.12,3.38-2.38,5.43c-0.18,1.46-0.31,2.92-0.57,4.37c-0.21,1.16-0.31,2.46-1.35,3.19
	c-0.63,0.45-0.76,0.95-0.84,1.59c-0.57,4.62-0.21,9.15,1.37,13.56c0.08,0.24,0.04,0.52,0.06,0.74c-0.34,0.24-0.62,0.45-0.95,0.69
	c0.19,1.34,0.86,2.43,1.51,3.54c0.28,0.47,0.6,0.96,0.69,1.48c0.08,0.5-0.13,1.04-0.17,1.29c0.84,0.94,1.44,1.76,2.19,2.42
	c1.57,1.4,3.25,2.68,4.82,4.08c0.53,0.48,1.04,1.11,1.27,1.78c0.53,1.54,1.77,2.28,3.03,3.02c0.55,0.33,1.1,0.66,1.68,0.94
	c2.02,0.95,3.83,2.56,6.33,1.99c0.23-0.05,0.51,0.17,0.77,0.26c1.85,0.65,3.77,0.68,5.71,0.71c2.49,0.04,4.96-0.24,7.4-0.61
	c5.32-0.8,10.41-2.27,14.79-5.58c1.03-0.77,2-1.62,3.05-2.35c1.77-1.24,3.32-2.61,3.47-5.04c0.73,0,1.33,0,1.94,0
	c0.37-0.73,0.7-1.39,1.04-2.04c0.55-1.07,1.09-2.09,0.57-3.39c-0.17-0.43,0.15-1.05,0.23-1.58c0.15-0.99,0.4-1.97,0.43-2.96
	c0.09-3.79-0.65-7.51-1.31-11.22c-0.35-1.98-1.04-3.89-1.59-5.83c-0.12-0.44-0.45-0.87-0.42-1.28c0.03-0.5,0.35-0.97,0.51-1.39
	c-1.66-3.06-3.84-5.52-6.23-7.83c-0.39-0.37-0.9-0.82-0.96-1.28c-0.15-1.08-0.86-1.6-1.66-2.05c-1.67-0.95-3.33-1.92-5.07-2.73
	c-3.09-1.44-6.36-2.4-9.67-3.2c-1.05-0.26-2.16-0.29-3.35-0.01c0.41,1,0.83,1.9,1.15,2.83c0.19,0.56-0.14,0.82-1.15,0.99
	c-0.11-0.14-0.28-0.26-0.33-0.42c-0.47-1.46-1.52-2.19-2.96-2.59c-1.46-0.4-2.82-0.7-4.21,0.28c-0.46,0.33-1.16,0.33-1.72,0.48
	C185.03,169.21,184.86,168.9,184.54,168.35z M214.92,223.63c0.15,0.16,0.29,0.31,0.44,0.47c0.77-0.77,1.83-1.17,2.32-2.31
	C216.76,222.41,215.84,223.02,214.92,223.63z"/>
<polygon points="255.05,207.36 255.2,207.48 255,207.58 "/>
<path d="M87.53,133.84c-2.92,0.01-4.98-1.47-5.86-4.14c-0.57-1.73-1.06-3.5-1.38-5.29c-0.41-2.35,0.66-4.28,2.17-5.96
	c0.68-0.75,1.76-0.79,2.58-0.42c1.89,0.87,3.9,1.41,5.63,2.74c1.52,1.17,2.03,2.75,2.69,4.33c0.1,0.24,0.14,0.55,0.09,0.81
	c-0.38,2.07-0.72,4.16-1.98,5.93C90.43,133.3,88.98,133.95,87.53,133.84z M89.97,126.9c-0.09-0.26-0.14-0.51-0.26-0.71
	c-0.04-0.06-0.28-0.01-0.42-0.01c0.06,0.24,0.09,0.49,0.2,0.71C89.51,126.95,89.75,126.9,89.97,126.9z"/>
<path d="M224.05,70.62c-2.27,0.17-5.26-2.12-5.86-3.92c-0.47-1.43-0.3-3.03,0.8-4.14c1.47-1.49,3.04-2.94,4.77-4.12
	c3.23-2.19,6.92-0.41,7.13,3.47c0.14,2.63-0.72,5.08-2.62,7.01C227.02,70.18,225.83,70.6,224.05,70.62z"/>
<path d="M211.87,58.22c-0.61,0.94-0.61,0.94-2.03,1.21c0.81-0.78,0.81-0.78,2.08-1.17L211.87,58.22z"/>
<path d="M211.92,58.27c0.17-0.03,0.33-0.08,0.5-0.1c0.04,0,0.09,0.08,0.13,0.12c-0.22-0.02-0.44-0.04-0.67-0.06
	C211.87,58.22,211.92,58.27,211.92,58.27z"/>
<path d="M314.02,184.43c0.1-2.11,0.82-3.81,2.92-4.56c1.2-0.43,2.43-0.9,3.68-1.01c4.02-0.38,6.9,3.72,5.26,7.4
	c-0.91,2.05-2.5,3.35-4.59,4.08c-0.34,0.12-0.75,0.23-1.07,0.15c-1.59-0.39-3.18-0.79-4.72-1.33c-0.42-0.15-0.84-0.76-0.95-1.24
	C314.27,186.78,314.18,185.58,314.02,184.43z"/>
<path class="st0" d="M184.54,168.35c0.31,0.55,0.49,0.86,0.75,1.32c0.56-0.15,1.26-0.15,1.72-0.48c1.38-0.99,2.74-0.69,4.21-0.28
	c1.44,0.4,2.49,1.13,2.96,2.59c0.05,0.16,0.22,0.28,0.33,0.42c1-0.17,1.34-0.42,1.15-0.99c-0.32-0.93-0.74-1.83-1.15-2.83
	c1.18-0.29,2.3-0.25,3.35,0.01c3.31,0.81,6.58,1.76,9.67,3.2c1.74,0.81,3.4,1.79,5.07,2.73c0.8,0.45,1.51,0.97,1.66,2.05
	c0.07,0.47,0.57,0.91,0.96,1.28c2.38,2.31,4.57,4.76,6.23,7.83c-0.16,0.41-0.48,0.89-0.51,1.39c-0.03,0.42,0.3,0.85,0.42,1.28
	c0.55,1.94,1.24,3.86,1.59,5.83c0.66,3.71,1.4,7.42,1.31,11.22c-0.02,0.99-0.27,1.98-0.43,2.96c-0.08,0.53-0.41,1.16-0.23,1.58
	c0.52,1.3-0.02,2.32-0.57,3.39c-0.34,0.65-0.67,1.3-1.04,2.04c-0.61,0-1.2,0-1.94,0c-0.14,2.42-1.7,3.79-3.47,5.04
	c-1.05,0.74-2.03,1.58-3.05,2.35c-4.38,3.31-9.47,4.78-14.79,5.58c-2.45,0.37-4.91,0.65-7.4,0.61c-1.94-0.03-3.86-0.06-5.71-0.71
	c-0.26-0.09-0.55-0.31-0.77-0.26c-2.51,0.57-4.32-1.05-6.33-1.99c-0.58-0.27-1.13-0.61-1.68-0.94c-1.27-0.75-2.5-1.48-3.03-3.02
	c-0.23-0.66-0.73-1.3-1.27-1.78c-1.57-1.4-3.25-2.68-4.82-4.08c-0.75-0.66-1.35-1.48-2.19-2.42c0.04-0.25,0.25-0.79,0.17-1.29
	c-0.08-0.52-0.41-1.01-0.69-1.48c-0.65-1.11-1.32-2.2-1.51-3.54c0.33-0.23,0.61-0.44,0.95-0.69c-0.02-0.23,0.03-0.51-0.06-0.74
	c-1.59-4.41-1.94-8.94-1.37-13.56c0.08-0.65,0.21-1.15,0.84-1.59c1.04-0.73,1.15-2.04,1.35-3.19c0.26-1.44,0.39-2.91,0.57-4.37
	c0.25-2.04,0.84-3.91,2.38-5.43c0.97-0.96,1.65-2.21,2.59-3.19c2.62-2.74,5.95-4.25,9.58-5.14
	C181.68,168.77,183.05,168.61,184.54,168.35z"/>
<path class="st0" d="M162.43,209.71c-2.69-3.06-4.05-6.67-4.31-10.71c-0.05-0.88,0-0.88,0.72-2.25c0.12,0.1,0.33,0.2,0.33,0.31
	c0.12,3.82,1.27,7.38,2.67,10.88c0.23,0.58,0.35,1.22,0.52,1.83L162.43,209.71z"/>
<path class="st0" d="M214.92,223.63c0.92-0.61,1.84-1.23,2.76-1.84c-0.5,1.14-1.56,1.53-2.32,2.31
	C215.21,223.94,215.06,223.79,214.92,223.63z"/>
<path class="st0" d="M162.36,209.77c0.19,0.19,0.39,0.37,0.55,0.58c0.05,0.06-0.02,0.21-0.04,0.31c-0.06-0.06-0.16-0.11-0.19-0.18
	c-0.1-0.25-0.17-0.51-0.26-0.77C162.43,209.71,162.36,209.77,162.36,209.77z"/>
<path class="st0" d="M89.97,126.9c-0.22,0-0.46,0.05-0.49-0.01c-0.1-0.22-0.14-0.47-0.2-0.71c0.15,0,0.39-0.06,0.42,0.01
	C89.83,126.4,89.88,126.65,89.97,126.9z"/>
</svg>
